<svg width="33" height="22" viewBox="0 0 33 22" fill="none" xmlns="http://www.w3.org/2000/svg">
<path d="M18 0C17.1253 0.730493 16.7843 2.32495 16.6834 4.33849V17.7704C16.6834 19.3995 14.5765 22.1591 11 21.9928C12.6721 20.0312 12.45 17.7704 12.45 17.7704L12.4312 4.33849C12.4807 3.44081 12.9479 0 18 0Z" fill="#101212"/>
<path d="M6.67385 1.6609e-05C6.73482 -0.00131379 6.76903 0.0775894 6.7289 0.125496C6.07672 0.904093 5.81507 2.43319 5.73455 4.33695L5.5 10C6.131 9.3763 7.41479 8.74798 9.94836 9.32362C10.0267 9.34142 10.0116 9.48229 9.93188 9.49121C7.74687 9.73517 5.73456 11.8963 5.73455 13.4893V17.7701C5.73453 19.3435 3.0062 22.0803 0.0650951 21.9982C0.011106 21.9967 -0.0186048 21.9317 0.0128386 21.886C1.34003 19.9531 1.16208 17.7772 1.16149 17.7701L1.14567 4.33695C1.18691 3.45131 2.57113 0.0913028 6.67385 1.6609e-05Z" fill="#101212"/>
<path d="M26.4012 0.0281016C30.6831 -0.331239 35.013 2.8122 31.6831 6.21732C32.7989 2.35143 27.4832 0.665555 25.494 3.16226C23.5049 5.65897 26.7887 7.73415 29.5602 10.7926C30.5858 11.9244 32.8061 13.5654 32.9819 15.8971C33.2113 18.9389 31.2753 21.9161 26.4012 21.9984C20.314 22.0999 17.6411 17.3416 22.5434 14.6556C20.9662 17.7945 23.8516 19.4242 26.146 19.1276C31 18.5 27.1787 13.4747 23.9204 10.2567C23.0059 9.35359 20.6433 7.65347 20.5078 5.85681C20.2785 2.81506 23.3807 0.281579 26.4012 0.0281016Z" fill="#101212"/>
</svg>
