<svg width="144" height="120" viewBox="0 0 144 120" fill="none" xmlns="http://www.w3.org/2000/svg">
<path d="M115.948 0.123603C116.031 0.0892461 116.256 0.0105734 116.333 0.00862463C126.414 -0.242916 134.085 5.03366 141.167 12.4416C136.014 23.9409 130.202 35.0301 125.007 46.7626C125.102 34.6937 127.625 19.1342 122.288 8.00935C118.073 -0.434767 106.674 1.2179 106.033 11.6248C104.632 34.2586 125.749 52.801 135.587 69.8026C153.071 100.016 134.381 123.787 107.654 118.299C101.937 116.227 89.0298 111.454 86.7442 103.839C86.7263 100.735 100.88 74.0864 102.922 71.5276C100.749 88.3935 97.2999 106.658 111.869 116.641C120.002 117.152 126.106 114.727 124.9 103.15C121.991 75.1892 89.9679 61.6263 88.5549 33.6152C87.4922 12.5384 99.6034 0.982161 115.948 0.123603Z" fill="#F8F4EE"/>
<path d="M0 2.04249L21.0874 2.03441L21.0752 47.9815C23.6816 49.7795 30.7198 47.7953 34.7467 49.7189C31.7342 50.0769 27.2879 52.9185 25.1153 55.5133C20.9802 60.4532 20.9868 68.9247 20.9927 75.6077C21.0055 90.0419 21.0491 104.514 21.0874 118.966L0 118.958V2.04249Z" fill="#F8F4EE"/>
<path d="M53.1645 2.04258L74.2268 2.03442V118.966L53.1645 118.958C53.1692 97.451 53.7706 71.2215 53.0475 50.1065L52.4326 49.0816L52.9749 47.3039C53.5922 33.5908 53.1486 16.07 53.1645 2.04258Z" fill="#F8F4EE"/>
<path d="M21.0732 47.981C25.2614 46.5988 47.7697 47.3466 52.972 47.3033L52.4298 49.081L53.0447 50.106C47.3969 50.1096 40.2535 50.342 34.7447 49.7184C30.7179 47.7948 23.6796 49.779 21.0732 47.981Z" fill="#F8F4EE"/>
</svg>
