<svg width="178" height="125" viewBox="0 0 178 125" fill="none" xmlns="http://www.w3.org/2000/svg">
<path d="M92.7501 0.0107748C93.1093 0.00306473 93.3106 0.450901 93.0742 0.723096C89.2327 5.14626 87.6917 13.8334 87.2174 24.6486V100.96C87.2174 110.085 77.0377 125.451 59.7141 124.98C59.3961 124.971 59.2208 124.602 59.406 124.342C67.2364 113.344 66.172 100.96 66.172 100.96L66.0782 24.6486C66.321 19.6179 68.5841 0.529372 92.7501 0.0107748Z" fill="#F8F4EE"/>
<path d="M33.4196 9.43544e-05C33.7787 -0.00746352 33.9802 0.440779 33.7439 0.712929C29.9024 5.13607 28.3613 13.8227 27.887 24.6378V47.2806C27.887 47.4136 27.8261 47.5346 27.719 47.6126C26.2863 48.6548 16.1519 56.5339 15.381 71.3842C15.3591 71.8109 15.9262 71.9481 16.1199 71.5677C19.7389 64.4496 23.7964 60.6378 26.0762 58.8998C29.7928 55.3566 37.7838 49.6965 52.7068 52.9667C53.1684 53.0678 53.0794 53.868 52.6098 53.9187C39.7398 55.3046 27.8871 67.5817 27.887 76.6318V100.95C27.8869 109.889 17.7069 125.436 0.383417 124.97C0.0654153 124.961 -0.109584 124.592 0.0756209 124.332C7.89295 113.352 6.84478 100.991 6.84131 100.95L6.7481 24.6378C6.99101 19.6066 9.25414 0.518683 33.4196 9.43544e-05Z" fill="#F8F4EE"/>
<path d="M141.686 0.169421C164.838 -1.83513 182.351 23.0705 167.919 37.2247C167.651 37.4876 167.201 37.2516 167.24 36.8769C168.967 19.8587 143.95 5.29668 132.311 17.9738C132.296 17.99 132.282 18.008 132.27 18.0264C128.475 23.8916 127.796 30.6841 132.288 36.1744C138.353 43.5869 158.088 61.3267 158.088 61.3267C158.088 61.3267 176.956 77.08 177.925 90.3273C179.188 107.609 164.55 124.523 137.709 124.991C104.665 125.56 87.9598 99.2968 113.352 83.9316C113.687 83.7292 114.091 84.0927 113.937 84.4532C106.674 101.397 125.876 107.676 138.292 108.681C153.938 109.946 168.175 93.2302 160.156 80.6149C159.925 80.2527 159.366 80.5001 159.416 80.927C160.287 88.4078 155.18 96.7442 145.849 96.5142C145.476 96.505 145.353 96.0149 145.644 95.7804C157.252 86.4284 136.04 70.5009 124.048 58.2821C119.012 53.151 106.537 43.492 105.792 33.2845C104.529 16.0032 125.054 1.60952 141.686 0.169421Z" fill="#F8F4EE"/>
</svg>
