<svg width="422" height="606" viewBox="0 0 422 606" fill="none" xmlns="http://www.w3.org/2000/svg">
<path d="M60.0435 201.304H51.1695V200.026H57.1995V195.454C57.1995 194.614 56.9835 193.978 56.5515 193.546C56.1315 193.102 55.5315 192.88 54.7515 192.88H51.4935V191.602H54.8055C56.1615 191.602 57.1635 191.944 57.8115 192.628C58.4595 193.3 58.7835 194.35 58.7835 195.778V200.026H60.0435V201.304Z" fill="#101212"/>
<path d="M38.6774 191.602H45.1574C46.5134 191.602 47.5154 191.944 48.1634 192.628C48.8114 193.3 49.1354 194.35 49.1354 195.778V201.304H47.5514V195.454C47.5514 194.614 47.3354 193.978 46.9034 193.546C46.4834 193.102 45.8834 192.88 45.1034 192.88H42.2954V199.018C42.2954 200.65 41.4794 201.466 39.8474 201.466C39.3194 201.466 38.8694 201.424 38.4974 201.34V200.152C38.7614 200.2 39.0554 200.224 39.3794 200.224C39.8234 200.224 40.1534 200.134 40.3694 199.954C40.5974 199.774 40.7114 199.444 40.7114 198.964V192.88H38.6774V191.602Z" fill="#101212"/>
<path d="M36.9481 197.524H35.3641V193.564C35.3641 193.108 35.1181 192.88 34.6261 192.88H33.9961V191.602H34.5901C35.4781 191.602 36.0901 191.728 36.4261 191.98C36.7741 192.22 36.9481 192.76 36.9481 193.6V197.524Z" fill="#101212"/>
<path d="M26.1162 196.138V191.584H27.7002V196.12C27.7002 197.644 27.2082 198.922 26.2242 199.954C25.2522 200.974 23.9682 201.484 22.3722 201.484H22.1382C20.6142 201.484 19.3602 200.98 18.3762 199.972C17.4042 198.964 16.9182 197.68 16.9182 196.12V191.584H18.5202V196.138C18.5202 196.33 18.5262 196.468 18.5382 196.552H18.9702C19.7862 196.552 20.4162 196.354 20.8602 195.958C21.3042 195.562 21.5262 194.986 21.5262 194.23V191.584H23.1102V194.158C23.1102 195.154 22.7562 195.958 22.0482 196.57C21.3522 197.182 20.3742 197.488 19.1142 197.488H18.6822C18.8982 198.364 19.3182 199.036 19.9422 199.504C20.5782 199.96 21.3102 200.188 22.1382 200.188H22.3902C23.5062 200.188 24.4062 199.834 25.0902 199.126C25.7742 198.418 26.1162 197.422 26.1162 196.138Z" fill="#101212"/>
<path d="M5.8151 191.602H10.4051C11.7611 191.602 12.7631 191.944 13.4111 192.628C14.0591 193.3 14.3831 194.35 14.3831 195.778V201.304H12.7991V195.454C12.7991 194.614 12.5831 193.978 12.1511 193.546C11.7311 193.102 11.1311 192.88 10.3511 192.88H7.4171V201.304H5.8151V191.602Z" fill="#101212"/>
<path d="M2.952 197.524H1.368V193.564C1.368 193.108 1.122 192.88 0.63 192.88H0V191.602H0.594C1.482 191.602 2.094 191.728 2.43 191.98C2.778 192.22 2.952 192.76 2.952 193.6V197.524Z" fill="#101212"/>
<path d="M305.044 196.169V196.861L222.026 196.874L221.136 196.874L205.108 196.877L204.417 196.877L148.563 196.886L147.871 196.886L64.0436 196.899L64.0435 196.207L147.889 196.194L148.582 196.194L204.408 196.185L205.099 196.185L221.644 196.182L222.415 196.182L305.044 196.169Z" fill="#101212"/>
<path d="M339.382 162.05C330.145 181.974 324.842 168.649 323.345 159.495C323.345 180.569 316.93 181.208 304.1 162.05C315.647 179.93 314.364 186.316 299.61 183.762C312.44 192.064 306.666 196.534 297.044 198.45C313.081 201.004 309.232 209.944 299.61 217.607C318.642 214.163 322.637 216.396 318.588 226.627C318.381 227.152 318.152 227.697 317.903 228.264C317.607 228.939 317.282 229.644 316.93 230.379C322.316 224.482 329.509 222.636 335.855 228.996C336.04 229.181 336.224 229.374 336.407 229.573C337.427 230.681 338.422 232.009 339.382 233.572C339.382 220.162 341.948 218.885 359.91 227.825C345.156 216.33 350.929 209.944 359.91 209.944C352.854 202.92 351.571 193.979 366.967 188.871C349.646 188.871 347.08 189.509 362.476 170.351C345.156 178.653 340.665 178.653 339.382 162.05Z" fill="#101212"/>
<path d="M100.393 242.669H100.483C101.635 242.669 102.589 243.119 103.345 244.019C104.101 244.907 104.479 246.065 104.479 247.493V247.835C104.479 249.071 104.173 250.115 103.561 250.967C102.961 251.807 102.205 252.335 101.293 252.551C100.273 252.791 99.277 252.767 98.305 252.479V251.183C99.073 251.471 99.895 251.501 100.771 251.273C101.383 251.129 101.887 250.745 102.283 250.121C102.691 249.485 102.895 248.711 102.895 247.799V247.529C102.895 246.461 102.631 245.603 102.103 244.955C101.587 244.295 100.921 243.965 100.105 243.965H100.033C99.241 243.965 98.575 244.235 98.035 244.775C97.495 245.303 97.189 245.927 97.117 246.647L96.469 252.551H94.885L95.569 246.575C95.641 246.023 95.629 245.489 95.533 244.973C95.437 244.457 95.341 244.091 95.245 243.875C95.149 243.647 94.987 243.305 94.759 242.849H96.343C96.367 242.897 96.415 243.005 96.487 243.173C96.559 243.329 96.613 243.449 96.649 243.533C96.685 243.617 96.727 243.737 96.775 243.893C96.835 244.037 96.877 244.187 96.901 244.343C96.937 244.499 96.967 244.667 96.991 244.847C97.291 244.199 97.729 243.677 98.305 243.281C98.893 242.873 99.589 242.669 100.393 242.669Z" fill="#101212"/>
<path d="M82.0145 242.849H88.4945C89.8505 242.849 90.8525 243.191 91.5005 243.875C92.1485 244.547 92.4725 245.597 92.4725 247.025V252.551H90.8885V246.701C90.8885 245.861 90.6725 245.225 90.2405 244.793C89.8205 244.349 89.2205 244.127 88.4405 244.127H85.6325V250.265C85.6325 251.897 84.8165 252.713 83.1845 252.713C82.6565 252.713 82.2065 252.671 81.8345 252.587V251.399C82.0985 251.447 82.3925 251.471 82.7165 251.471C83.1605 251.471 83.4905 251.381 83.7065 251.201C83.9345 251.021 84.0485 250.691 84.0485 250.211V244.127H82.0145V242.849Z" fill="#101212"/>
<path d="M71.0194 242.849H75.6094C76.9654 242.849 77.9674 243.191 78.6154 243.875C79.2634 244.547 79.5874 245.597 79.5874 247.025V252.551H78.0034V246.701C78.0034 245.861 77.7874 245.225 77.3554 244.793C76.9354 244.349 76.3354 244.127 75.5554 244.127H72.6214V252.551H71.0194V242.849Z" fill="#101212"/>
<path d="M57.8973 242.849H64.3773C65.7333 242.849 66.7353 243.191 67.3833 243.875C68.0313 244.547 68.3553 245.597 68.3553 247.025V252.551H66.7713V246.701C66.7713 245.861 66.5553 245.225 66.1233 244.793C65.7033 244.349 65.1033 244.127 64.3233 244.127H61.5153V250.265C61.5153 251.897 60.6993 252.713 59.0673 252.713C58.5393 252.713 58.0893 252.671 57.7173 252.587V251.399C57.9813 251.447 58.2753 251.471 58.5993 251.471C59.0433 251.471 59.3733 251.381 59.5893 251.201C59.8173 251.021 59.9313 250.691 59.9313 250.211V244.127H57.8973V242.849Z" fill="#101212"/>
<path d="M51.7203 242.849V244.145L48.1743 252.551L46.5363 252.533L50.1003 244.127H44.1963V240.491H45.7803V242.849H51.7203Z" fill="#101212"/>
<path d="M40.5548 247.385V242.831H42.1388V247.367C42.1388 248.891 41.6468 250.169 40.6628 251.201C39.6908 252.221 38.4068 252.731 36.8108 252.731H36.5768C35.0528 252.731 33.7988 252.227 32.8148 251.219C31.8428 250.211 31.3568 248.927 31.3568 247.367V242.831H32.9588V247.385C32.9588 247.577 32.9648 247.715 32.9768 247.799H33.4088C34.2248 247.799 34.8548 247.601 35.2988 247.205C35.7428 246.809 35.9648 246.233 35.9648 245.477V242.831H37.5488V245.405C37.5488 246.401 37.1948 247.205 36.4868 247.817C35.7908 248.429 34.8128 248.735 33.5528 248.735H33.1208C33.3368 249.611 33.7568 250.283 34.3808 250.751C35.0168 251.207 35.7488 251.435 36.5768 251.435H36.8288C37.9448 251.435 38.8448 251.081 39.5288 250.373C40.2128 249.665 40.5548 248.669 40.5548 247.385Z" fill="#101212"/>
<path d="M27.5247 252.551H25.9407V246.575C25.9407 245.519 26.1927 244.703 26.6967 244.127H21.1347V242.849H29.1267V244.127H27.8487C27.6327 244.655 27.5247 245.471 27.5247 246.575V252.551Z" fill="#101212"/>
<path d="M19.2188 248.771H17.6348V244.811C17.6348 244.355 17.3888 244.127 16.8968 244.127H16.2668V242.849H16.8608C17.7488 242.849 18.3608 242.975 18.6968 243.227C19.0448 243.467 19.2188 244.007 19.2188 244.847V248.771Z" fill="#101212"/>
<path d="M14.0157 248.771H12.4317V244.811C12.4317 244.355 12.1857 244.127 11.6937 244.127H11.0637V242.849H11.6577C12.5457 242.849 13.1577 242.975 13.4937 243.227C13.8417 243.467 14.0157 244.007 14.0157 244.847V248.771Z" fill="#101212"/>
<path d="M0 242.849H4.752C6.3 242.849 7.356 243.197 7.92 243.893C8.496 244.577 8.784 245.765 8.784 247.457V252.551H0V242.849ZM4.698 244.127H1.584V251.273H7.2V247.133C7.2 246.005 7.026 245.225 6.678 244.793C6.342 244.349 5.682 244.127 4.698 244.127Z" fill="#101212"/>
<path d="M187.479 246.265V246.957H151.204H150.512H108.479V246.265H150.501H151.193H187.479Z" fill="#101212"/>
<path d="M221.817 212.127C214.651 227.585 209.852 223.029 207.362 215.935C207.231 215.562 207.106 215.182 206.988 214.798C206.457 213.069 206.055 211.251 205.78 209.572C205.78 221.046 203.878 226.462 200.075 225.924C199.855 225.892 199.628 225.841 199.395 225.77C196.261 224.813 191.975 220.25 186.535 212.127C198.082 230.007 196.799 236.393 182.045 233.839C194.875 242.141 189.101 246.611 179.479 248.527C183.122 249.107 185.739 250.017 187.495 251.167C187.716 251.311 187.924 251.46 188.118 251.612C191.843 254.531 190.666 258.784 186.919 263.102C186.69 263.367 186.451 263.632 186.203 263.896C185.008 265.171 183.602 266.444 182.045 267.684C183.508 267.419 184.882 267.188 186.171 266.992C186.404 266.956 186.635 266.922 186.863 266.888C189.77 266.463 192.223 266.223 194.26 266.183C194.497 266.178 194.728 266.176 194.954 266.177C203.941 266.205 204.112 270.533 199.365 280.456C205.78 273.432 214.761 272.154 221.817 283.649C221.817 270.239 224.383 268.962 242.345 277.902C227.591 266.407 233.364 260.021 242.345 260.021C235.289 252.997 234.006 244.056 249.402 238.948C232.081 238.948 229.515 239.586 244.911 220.428C227.591 228.73 223.1 228.73 221.817 212.127Z" fill="#101212"/>
<path d="M58.9351 422.21H59.0251C60.1771 422.21 61.1311 422.66 61.8871 423.56C62.6431 424.448 63.0211 425.606 63.0211 427.034V427.376C63.0211 428.612 62.7151 429.656 62.1031 430.508C61.5031 431.348 60.7471 431.876 59.8351 432.092C58.8151 432.332 57.8191 432.308 56.8471 432.02V430.724C57.6151 431.012 58.4371 431.042 59.3131 430.814C59.9251 430.67 60.4291 430.286 60.8251 429.662C61.2331 429.026 61.4371 428.252 61.4371 427.34V427.07C61.4371 426.002 61.1731 425.144 60.6451 424.496C60.1291 423.836 59.4631 423.506 58.6471 423.506H58.5751C57.7831 423.506 57.1171 423.776 56.5771 424.316C56.0371 424.844 55.7311 425.468 55.6591 426.188L55.0111 432.092H53.4271L54.1111 426.116C54.1831 425.564 54.1711 425.03 54.0751 424.514C53.9791 423.998 53.8831 423.632 53.7871 423.416C53.6911 423.188 53.5291 422.846 53.3011 422.39H54.8851C54.9091 422.438 54.9571 422.546 55.0291 422.714C55.1011 422.87 55.1551 422.99 55.1911 423.074C55.2271 423.158 55.2691 423.278 55.3171 423.434C55.3771 423.578 55.4191 423.728 55.4431 423.884C55.4791 424.04 55.5091 424.208 55.5331 424.388C55.8331 423.74 56.2711 423.218 56.8471 422.822C57.4351 422.414 58.1311 422.21 58.9351 422.21Z" fill="#101212"/>
<path d="M46.5632 432.344C45.7952 432.356 45.0092 432.284 44.2052 432.128C43.4132 431.984 42.7652 431.81 42.2612 431.606V430.238C42.6932 430.478 43.2812 430.688 44.0252 430.868C44.7692 431.036 45.5192 431.114 46.2752 431.102C47.3792 431.078 48.2732 430.712 48.9572 430.004C49.6532 429.284 50.0012 428.366 50.0012 427.25C50.0012 426.122 49.6892 425.216 49.0652 424.532C48.4412 423.836 47.5952 423.488 46.5272 423.488C45.7472 423.488 45.0932 423.674 44.5652 424.046C44.0492 424.418 43.7792 424.892 43.7552 425.468C43.7432 426.032 43.9232 426.482 44.2952 426.818C44.6792 427.154 45.2192 427.304 45.9152 427.268V428.438C44.7752 428.498 43.8692 428.258 43.1972 427.718C42.5372 427.178 42.2072 426.446 42.2072 425.522C42.2192 424.55 42.6392 423.758 43.4672 423.146C44.2952 422.534 45.3512 422.228 46.6352 422.228C48.1472 422.228 49.3532 422.684 50.2532 423.596C51.1532 424.508 51.6032 425.708 51.6032 427.196C51.6032 428.684 51.1352 429.902 50.1992 430.85C49.2752 431.798 48.0632 432.296 46.5632 432.344Z" fill="#101212"/>
<path d="M38.3317 426.926V422.372H39.9157V426.908C39.9157 428.432 39.4237 429.71 38.4397 430.742C37.4677 431.762 36.1837 432.272 34.5877 432.272H34.3537C32.8297 432.272 31.5757 431.768 30.5917 430.76C29.6197 429.752 29.1337 428.468 29.1337 426.908V422.372H30.7357V426.926C30.7357 427.118 30.7417 427.256 30.7537 427.34H31.1857C32.0017 427.34 32.6317 427.142 33.0757 426.746C33.5197 426.35 33.7417 425.774 33.7417 425.018V422.372H35.3257V424.946C35.3257 425.942 34.9717 426.746 34.2637 427.358C33.5677 427.97 32.5897 428.276 31.3297 428.276H30.8977C31.1137 429.152 31.5337 429.824 32.1577 430.292C32.7937 430.748 33.5257 430.976 34.3537 430.976H34.6057C35.7217 430.976 36.6217 430.622 37.3057 429.914C37.9897 429.206 38.3317 428.21 38.3317 426.926Z" fill="#101212"/>
<path d="M24.8593 426.314L25.2193 422.39H26.8033L26.5513 425.45C26.4673 426.434 26.3473 427.28 26.1913 427.988C26.0473 428.696 25.8373 429.296 25.5613 429.788C25.2853 430.28 24.9853 430.676 24.6613 430.976C24.3373 431.276 23.9113 431.51 23.3833 431.678C22.8553 431.846 22.3093 431.96 21.7453 432.02C21.1933 432.068 20.5033 432.092 19.6753 432.092H18.0193V430.814H19.6573C20.1013 430.814 20.5753 430.802 21.0793 430.778C20.5513 430.082 20.1373 429.182 19.8373 428.078L18.1993 422.39H19.8193L21.4033 427.88C21.7513 429.044 22.0993 429.944 22.4473 430.58C23.2273 430.364 23.7853 429.95 24.1213 429.338C24.4693 428.726 24.7153 427.718 24.8593 426.314Z" fill="#101212"/>
<path d="M12.6901 422.39H13.3921C14.2681 422.39 14.8621 422.51 15.1741 422.75C15.4861 422.99 15.6421 423.536 15.6421 424.388V432.092H14.0581V424.352C14.0581 424.1 14.0161 423.926 13.9321 423.83C13.8481 423.722 13.6801 423.668 13.4281 423.668H12.6901V422.39Z" fill="#101212"/>
<path d="M0.18 422.39H6.66C8.016 422.39 9.018 422.732 9.666 423.416C10.314 424.088 10.638 425.138 10.638 426.566V432.092H9.054V426.242C9.054 425.402 8.838 424.766 8.406 424.334C7.986 423.89 7.386 423.668 6.606 423.668H3.798V429.806C3.798 431.438 2.982 432.254 1.35 432.254C0.822 432.254 0.372 432.212 0 432.128V430.94C0.264 430.988 0.558 431.012 0.882 431.012C1.326 431.012 1.656 430.922 1.872 430.742C2.1 430.562 2.214 430.232 2.214 429.752V423.668H0.18V422.39Z" fill="#101212"/>
<path d="M219.021 426.989V427.681H148.523H147.831H118.002H117.208H67.0211V426.989H117.592H118.386H147.801H148.494H155.08H155.774H219.021Z" fill="#101212"/>
<path d="M289.024 369.421C271.617 402.438 263.847 379.33 262.138 363.649C260.247 399.444 249.344 399.956 229.372 366.268C247.289 397.672 244.547 408.404 219.831 402.747C240.777 417.994 230.615 425.071 214.174 427.465C241.059 433.237 233.749 448.079 216.792 460.236C252.928 455.619 256.979 461.272 244.93 483.477C247.994 480.444 251.331 478.124 254.784 476.735C255.023 476.639 255.263 476.548 255.503 476.46C259.911 474.861 264.489 474.791 268.916 476.702C269.15 476.803 269.383 476.91 269.616 477.022C274.257 479.255 278.711 483.708 282.604 490.906C283.807 468.128 288.26 466.188 317.826 482.978C293.913 462.136 304.247 451.805 319.431 452.607C308.131 440.045 306.765 424.745 333.253 417.443C303.97 415.895 299.574 416.75 327.324 385.585C297.295 398.139 289.703 397.737 289.024 369.421Z" fill="#101212"/>
<path d="M31.329 488.436H29.745V484.476C29.745 484.02 29.499 483.792 29.007 483.792H28.377V482.514H28.971C29.859 482.514 30.471 482.64 30.807 482.892C31.155 483.132 31.329 483.672 31.329 484.512V488.436Z" fill="#101212"/>
<path d="M24.6455 487.05V482.496H26.2295V487.032C26.2295 488.556 25.7375 489.834 24.7535 490.866C23.7815 491.886 22.4975 492.396 20.9015 492.396H20.6675C19.1435 492.396 17.8895 491.892 16.9055 490.884C15.9335 489.876 15.4475 488.592 15.4475 487.032V482.496H17.0495V487.05C17.0495 487.242 17.0555 487.38 17.0675 487.464H17.4995C18.3155 487.464 18.9455 487.266 19.3895 486.87C19.8335 486.474 20.0555 485.898 20.0555 485.142V482.496H21.6395V485.07C21.6395 486.066 21.2855 486.87 20.5775 487.482C19.8815 488.094 18.9035 488.4 17.6435 488.4H17.2115C17.4275 489.276 17.8475 489.948 18.4715 490.416C19.1075 490.872 19.8395 491.1 20.6675 491.1H20.9195C22.0355 491.1 22.9355 490.746 23.6195 490.038C24.3035 489.33 24.6455 488.334 24.6455 487.05Z" fill="#101212"/>
<path d="M13.9596 492.216H5.0856V490.938H11.1156V486.366C11.1156 485.526 10.8996 484.89 10.4676 484.458C10.0476 484.014 9.4476 483.792 8.6676 483.792H5.4096V482.514H8.7216C10.0776 482.514 11.0796 482.856 11.7276 483.54C12.3756 484.212 12.6996 485.262 12.6996 486.69V490.938H13.9596V492.216Z" fill="#101212"/>
<path d="M0 482.514H0.684C1.572 482.514 2.172 482.634 2.484 482.874C2.796 483.114 2.952 483.66 2.952 484.512V495.024H1.368V484.476C1.368 484.224 1.326 484.05 1.242 483.954C1.158 483.846 0.984 483.792 0.72 483.792H0V482.514Z" fill="#101212"/>
<path d="M137.329 488.413V489.106H132.996H132.145H125.616H124.823H122.13H121.334H115.683H114.895H35.329V488.413H114.529H115.31H120.954H121.742H124.447H125.237H131.66H132.503H137.329Z" fill="#101212"/>
<path d="M171.668 454.275C162.43 474.2 157.127 460.874 155.63 451.721C155.63 467.069 152.228 471.578 145.423 465.495C145.208 465.303 144.99 465.1 144.768 464.887C142.37 462.581 139.576 459.04 136.385 454.275C144.208 466.39 146.142 473.228 141.987 475.584C141.784 475.699 141.567 475.804 141.335 475.898C140.46 476.251 139.379 476.454 138.089 476.511C137.854 476.522 137.613 476.527 137.365 476.528C135.812 476.533 133.989 476.351 131.895 475.988C140.587 481.612 140.74 485.478 136.943 487.982C136.755 488.106 136.557 488.227 136.351 488.344C135.5 488.826 134.496 489.253 133.375 489.628C133.148 489.704 132.916 489.778 132.68 489.85C131.639 490.165 130.513 490.439 129.329 490.675C131.191 490.972 132.785 491.355 134.133 491.811C134.553 491.954 134.949 492.103 135.322 492.26C144.06 495.924 140.052 503.337 131.895 509.833C153.064 506.002 155.63 509.195 149.215 522.605C154.317 517.019 161.042 515.067 167.131 520.285C167.469 520.574 167.805 520.886 168.138 521.22C169.352 522.436 170.535 523.953 171.668 525.798C171.668 512.388 174.234 511.11 192.196 520.051C177.441 508.556 183.215 502.17 192.196 502.17C185.139 495.145 183.856 486.205 199.252 481.096C181.932 481.096 179.366 481.735 194.762 462.577C177.441 470.879 172.951 470.879 171.668 454.275Z" fill="#101212"/>
<path d="M314.97 231.218C315.968 230.204 316.943 229.215 317.903 228.264C318.152 227.697 318.381 227.152 318.588 226.627C317.241 227.925 315.881 229.306 314.481 230.727L314.289 230.922C311.211 234.047 307.927 237.367 304.121 240.48C296.518 246.699 286.83 252.092 272.6 253.37C272.47 253.382 272.357 253.466 272.309 253.587C272.26 253.708 272.284 253.846 272.37 253.944C285.699 269.061 300.306 274.762 310.838 279.793C316.118 282.315 320.325 284.648 322.895 287.874C325.44 291.069 326.411 295.188 325.092 301.376C325.071 301.473 325.094 301.575 325.153 301.655C325.215 301.738 333.924 313.407 342.675 327.394C347.059 334.402 351.449 341.986 354.768 348.982C358.093 355.992 360.319 362.366 360.418 366.969C360.419 366.994 360.422 367.02 360.428 367.045C371.545 411.512 363.396 457.655 357.463 495.751C355.706 507.034 348.643 518.124 341.473 529.247L341.137 529.768C334.099 540.682 327.038 551.633 325.09 562.719C325.076 562.798 325.09 562.88 325.13 562.95C326.516 565.385 327.913 568.574 328.648 571.983C329.384 575.394 329.451 579.002 328.205 582.293C325.729 588.83 317.967 594.332 299.176 594.332C299.016 594.332 298.876 594.442 298.839 594.597C298.802 594.753 298.876 594.915 299.019 594.987C308.245 599.675 318.565 598.296 326.46 597.621C328.441 597.451 330.266 597.326 331.892 597.346C333.519 597.365 334.926 597.529 336.077 597.929C337.221 598.325 338.104 598.951 338.707 599.895C339.314 600.845 339.658 602.151 339.658 603.946C339.658 603.971 339.661 603.995 339.666 604.019L340.35 603.906C340.345 602.047 339.985 600.61 339.29 599.522C338.587 598.421 337.563 597.711 336.304 597.274C335.052 596.84 333.56 596.673 331.899 596.653C330.237 596.633 328.383 596.762 326.4 596.931C318.838 597.579 309.348 598.817 300.689 595.012C318.494 594.722 326.291 589.303 328.853 582.538C330.161 579.083 330.078 575.33 329.325 571.838C328.583 568.396 327.186 565.185 325.794 562.719C327.748 551.81 334.72 540.998 341.771 530.063L342.055 529.622C349.204 518.532 356.364 507.313 358.147 495.857C364.073 457.807 372.253 411.53 361.107 366.911C360.992 362.153 358.712 355.682 355.394 348.685C352.059 341.655 347.653 334.046 343.262 327.027C334.992 313.808 326.759 302.659 325.8 301.366C327.102 295.115 326.121 290.813 323.437 287.442C320.754 284.075 316.404 281.685 311.136 279.168C300.689 274.177 286.434 268.603 273.34 253.991C287.367 252.59 296.993 247.204 304.559 241.016C308.397 237.877 311.706 234.531 314.782 231.408L314.97 231.218Z" fill="#101212"/>
<path d="M275.567 591.565C275.539 597.803 274.648 601.55 273.642 605.264L274.31 605.446C275.325 601.699 276.231 597.888 276.26 591.569C276.288 585.26 275.443 576.457 272.971 562.718C272.327 559.049 271.823 551.433 271.408 541.814C270.994 532.204 270.67 520.619 270.385 509.029C270.108 497.764 269.868 486.488 269.616 477.022C269.383 476.91 269.15 476.803 268.916 476.702C269.17 486.227 269.413 497.634 269.693 509.046C269.978 520.636 270.302 532.227 270.717 541.845C271.131 551.452 271.636 559.117 272.289 562.839V562.841C274.758 576.562 275.596 585.317 275.567 591.565Z" fill="#101212"/>
<path d="M247.102 562.838C248.557 554.544 252.276 513.534 255.503 476.46C255.263 476.548 255.023 476.639 254.784 476.735C251.563 513.719 247.864 554.477 246.419 562.718C246.026 564.902 244.84 566.473 243.196 567.762C241.54 569.061 239.439 570.059 237.236 571.1L237.129 571.151C232.797 573.198 228.092 575.421 226.318 580.481C225.597 582.539 223.286 587.218 218.817 590.773C214.365 594.314 207.752 596.756 198.361 594.343C198.23 594.309 198.09 594.355 198.005 594.461C197.92 594.566 197.905 594.713 197.966 594.834C201.007 600.879 208.887 603.357 216.304 603.126C220.028 603.009 223.681 602.211 226.619 600.807C228.888 599.724 230.755 598.265 231.883 596.46L232.69 594.712C232.707 594.536 232.59 594.376 232.418 594.34C232.246 594.303 232.073 594.402 232.018 594.569C231.24 596.916 229.162 598.825 226.32 600.182C223.484 601.537 219.929 602.319 216.282 602.433C209.254 602.653 202.052 600.396 198.956 595.199C208.164 597.346 214.757 594.887 219.248 591.314C223.846 587.657 226.22 582.853 226.972 580.71C228.649 575.926 233.114 573.814 237.532 571.726C239.719 570.693 241.895 569.663 243.623 568.307C245.363 566.943 246.67 565.233 247.101 562.839L247.102 562.838Z" fill="#101212"/>
<path d="M174.814 545.135C179.509 561.421 182.625 585.722 178.993 602.605L179.67 602.751C183.339 585.696 180.183 561.259 175.479 544.943C173.196 537.022 170.552 529.139 168.138 521.22C167.805 520.886 167.469 520.574 167.131 520.285C169.643 528.611 172.434 536.877 174.814 545.135Z" fill="#101212"/>
<path d="M148.901 436.471L148.523 427.681H147.831L148.21 436.502C148.208 445.181 146.686 452.715 145.646 458.661C145.239 460.981 144.905 463.069 144.768 464.887C144.99 465.1 145.208 465.303 145.423 465.495C145.523 463.601 145.877 461.355 146.327 458.78C147.365 452.85 148.902 445.246 148.902 436.487C148.902 436.482 148.902 436.476 148.901 436.471Z" fill="#101212"/>
<path d="M132.75 482.738C133.708 484.29 134.959 486.315 136.351 488.344C136.557 488.227 136.755 488.106 136.943 487.982C136.114 486.776 135.334 485.568 134.635 484.457L133.34 482.374L132.934 481.708C131.232 478.884 130.295 476.859 129.833 475.789L129.652 475.363C128.569 472.758 127.946 470.547 127.562 468.99C127.369 468.204 127.24 467.602 127.138 467.168C127.088 466.958 127.043 466.782 127 466.656C126.979 466.596 126.952 466.525 126.914 466.464C126.895 466.434 126.862 466.387 126.81 466.346C126.753 466.301 126.656 466.252 126.532 466.266L126.524 466.267C126.367 466.29 126.281 466.401 126.257 466.434C126.221 466.483 126.194 466.536 126.176 466.581C126.137 466.672 126.103 466.79 126.072 466.923C126.009 467.192 125.947 467.571 125.898 468.041C125.801 468.982 125.75 470.313 125.839 471.905C126.017 475.088 126.756 479.332 128.817 483.6C129.669 485.368 130.667 486.969 131.66 488.413H132.503C131.434 486.888 130.353 485.193 129.44 483.3C127.428 479.132 126.705 474.981 126.53 471.866C126.443 470.309 126.493 469.015 126.587 468.112C126.593 468.055 126.599 467.999 126.605 467.945C126.683 468.287 126.778 468.696 126.891 469.155C127.279 470.735 127.912 472.982 129.013 475.63L129.198 476.065C129.706 477.242 130.769 479.533 132.75 482.738Z" fill="#101212"/>
<path d="M120.044 474.394C120.831 480.76 122.854 485.451 124.447 488.413H125.237L125.069 488.107L124.771 487.543C123.259 484.62 121.461 480.198 120.732 474.315C120.683 472.731 120.624 471.748 120.562 471.156C120.532 470.861 120.499 470.65 120.462 470.506C120.444 470.436 120.421 470.362 120.385 470.297C120.361 470.253 120.267 470.093 120.063 470.078L120.051 470.077C119.896 470.072 119.794 470.161 119.763 470.19C119.719 470.231 119.683 470.278 119.657 470.317C119.604 470.398 119.55 470.504 119.497 470.623C119.39 470.864 119.267 471.207 119.143 471.632C118.892 472.483 118.626 473.69 118.461 475.127C118.131 477.998 118.201 481.815 119.629 485.564C120.017 486.583 120.483 487.535 120.954 488.413H121.742C121.222 487.465 120.703 486.439 120.276 485.318C118.899 481.704 118.828 478.006 119.149 475.206C119.31 473.807 119.568 472.639 119.807 471.827C119.837 471.723 119.871 471.625 119.9 471.534C119.95 472.124 120 473.022 120.042 474.362C120.042 474.373 120.043 474.384 120.044 474.394Z" fill="#101212"/>
<path d="M110.441 472.117C110.16 478.578 112.467 484.436 114.529 488.413H115.31C113.24 484.494 110.851 478.622 111.134 472.148C111.225 470.107 111.482 468.334 113.4 461.083C115.347 453.728 115.816 451.311 117.479 446.05C117.595 445.717 117.629 445.3 117.624 444.93C117.619 444.559 117.572 444.19 117.499 443.942L117.498 443.939L117.457 443.818C117.354 443.541 117.192 443.301 116.931 443.187C116.624 443.054 116.307 443.148 116.045 443.298C115.527 443.593 114.923 444.274 114.271 445.16C112.947 446.957 111.269 449.818 109.49 452.902C107.706 455.995 105.814 459.323 104.048 462.082C103.165 463.461 102.317 464.69 101.535 465.674C100.846 466.54 100.223 467.195 99.684 467.596L99.458 467.751C99.027 468.023 98.718 468.075 98.516 468.061C98.3172 468.047 98.1873 467.967 98.1165 467.903C98.1165 467.903 98.081 467.846 98.081 467.644C98.081 467.435 98.12 467.144 98.204 466.771C98.371 466.028 98.698 465.025 99.15 463.835C100.053 461.458 101.432 458.38 102.945 455.23C104.458 452.082 106.101 448.87 107.528 446.225C108.961 443.572 110.165 441.514 110.802 440.659C110.811 440.647 110.82 440.633 110.827 440.62L118.002 427.681H117.208L110.232 440.262C109.558 441.175 108.338 443.268 106.919 445.896C105.486 448.55 103.838 451.773 102.321 454.93C100.805 458.087 99.416 461.186 98.503 463.59C98.047 464.789 97.706 465.828 97.528 466.619C97.44 467.013 97.388 467.362 97.389 467.646C97.389 467.907 97.433 468.214 97.645 468.41L97.646 468.411C97.812 468.562 98.085 468.725 98.467 468.752C98.849 468.779 99.304 468.668 99.828 468.336L100.091 468.155C100.71 467.697 101.379 466.983 102.077 466.105C102.88 465.096 103.742 463.843 104.631 462.455C106.408 459.679 108.311 456.333 110.091 453.248C111.876 450.153 113.532 447.329 114.828 445.57C115.485 444.678 116.013 444.113 116.388 443.899C116.571 443.795 116.641 443.816 116.654 443.822C116.67 443.829 116.72 443.86 116.777 443.984L116.836 444.14C116.885 444.308 116.927 444.608 116.932 444.94C116.937 445.275 116.902 445.599 116.824 445.82L116.821 445.831C115.149 451.12 114.67 453.574 112.73 460.905C110.811 468.159 110.536 469.995 110.441 472.117Z" fill="#101212"/>
<path d="M121.786 370.523C122.659 385.823 124.35 399.451 124.313 414.869L117.592 426.989H118.386L124.963 415.128C124.991 415.077 125.007 415.019 125.007 414.961C125.05 399.482 123.349 385.753 122.478 370.483C121.606 355.201 121.558 338.315 124.901 316.438C127.049 302.384 132.814 293.12 138.33 285.799C141.076 282.153 143.805 278.936 145.951 275.892C148.108 272.834 149.735 269.877 150.297 266.677L150.3 266.655C151.076 259.745 151.295 253.22 151.204 246.957H150.512C150.603 253.192 150.385 259.684 149.613 266.563C149.076 269.611 147.52 272.466 145.386 275.493C143.239 278.537 140.566 281.681 137.777 285.383C132.224 292.754 126.389 302.125 124.218 316.334C120.866 338.27 120.912 355.206 121.786 370.523Z" fill="#101212"/>
<path d="M137.917 472.063C138.651 472.879 139.742 474.133 141.335 475.898C141.567 475.804 141.784 475.699 141.987 475.584L141.42 474.958C140.061 473.445 139.109 472.352 138.432 471.599C137.986 471.104 137.652 470.749 137.404 470.53C137.283 470.422 137.161 470.329 137.043 470.272C136.93 470.218 136.733 470.157 136.541 470.272C136.346 470.39 136.269 470.604 136.233 470.764C136.194 470.941 136.183 471.156 136.189 471.392C136.203 471.868 136.292 472.497 136.447 473.231C136.645 474.168 136.954 475.295 137.365 476.528C137.613 476.527 137.854 476.522 138.089 476.511C137.652 475.221 137.327 474.047 137.125 473.089C136.974 472.372 136.893 471.789 136.881 471.373C136.877 471.221 136.885 471.101 136.896 471.009L136.906 471.017C136.918 471.027 136.932 471.037 136.945 471.049C137.159 471.238 137.468 471.564 137.917 472.063Z" fill="#101212"/>
<path d="M124.127 493.227C123.978 492.544 123.629 491.799 123.202 491.008C122.88 490.41 122.51 489.778 122.13 489.106H121.334C121.79 489.922 122.232 490.667 122.593 491.337C123.016 492.122 123.324 492.793 123.45 493.375C123.574 493.944 123.516 494.394 123.248 494.777C122.852 495.343 122.054 495.67 121.372 495.67C120.657 495.669 119.99 495.293 119.331 494.634C118.672 493.974 118.06 493.072 117.455 492.101C117.001 491.375 116.372 490.359 115.683 489.106H114.895C115.665 490.534 116.375 491.678 116.868 492.468L117.331 493.191C117.803 493.906 118.302 494.583 118.842 495.123C119.562 495.843 120.394 496.361 121.371 496.361L121.372 496.362C122.223 496.363 123.261 495.967 123.815 495.174L123.889 495.063C124.233 494.504 124.269 493.879 124.127 493.227Z" fill="#101212"/>
<path d="M137.149 495.243C136.778 494.349 136.116 493.354 135.322 492.26C134.949 492.103 134.553 491.954 134.133 491.811C134.306 492.044 134.474 492.272 134.636 492.493C135.488 493.66 136.154 494.653 136.51 495.509C136.841 496.306 136.877 496.919 136.607 497.429L136.55 497.528C136.1 498.241 135.219 498.444 135.019 498.484C134.109 498.66 133.107 498.292 132.058 497.519C131.014 496.751 129.978 495.622 129.025 494.387C127.598 492.537 126.388 490.489 125.646 489.161L125.616 489.106H124.823C125.539 490.408 126.872 492.729 128.478 494.81C129.447 496.067 130.529 497.254 131.646 498.077C132.758 498.896 133.961 499.394 135.15 499.164H135.153C135.352 499.124 136.515 498.881 137.136 497.897L137.137 497.896C137.639 497.095 137.543 496.189 137.149 495.243Z" fill="#101212"/>
<path d="M133.375 489.628C133.25 489.456 133.123 489.283 132.996 489.106H132.145C132.324 489.359 132.503 489.607 132.68 489.85C132.916 489.778 133.148 489.704 133.375 489.628Z" fill="#101212"/>
<path d="M147.871 196.886C147.737 202.441 147.961 207.899 148.327 213.372C149.04 224.022 150.289 234.707 150.501 246.265H151.193C150.981 234.658 149.728 223.942 149.018 213.326C148.652 207.862 148.429 202.419 148.563 196.886L147.871 196.886Z" fill="#101212"/>
<path d="M192.685 127.747C175.009 129.178 162.352 141.741 154.921 160.934C149.994 173.662 148.216 185.127 147.889 196.194L148.582 196.194C148.908 185.191 150.677 173.814 155.566 161.184C162.951 142.112 175.454 129.809 192.801 128.431C192.84 128.428 192.879 128.418 192.915 128.402C204.367 123.255 213.316 119.282 220.045 115.351C226.777 111.418 231.334 107.503 233.964 102.447C240.178 90.5024 235.548 80.8582 229.526 77.125C229.387 77.0384 229.209 77.063 229.098 77.1758L229.055 77.2295C226.946 80.4493 223.285 81.0917 219.402 79.9814C215.517 78.8704 211.496 76.016 208.845 72.3916C202.566 63.8354 202.249 52.7444 205.225 42.3828L205.226 42.3838C205.658 40.9117 204.22 39.5748 202.719 39.9356C202.646 39.953 202.581 39.9934 202.533 40.0508C196.118 47.7679 187.564 53.3744 177.731 54.627L176.776 54.7344C170.349 55.3183 164.543 52.5183 162.294 46.2988L162.087 45.6865C159.599 37.7165 161.512 30.5371 163.968 25.0967C165.196 22.376 166.555 20.099 167.565 18.374C168.068 17.5166 168.492 16.7839 168.763 16.2061C168.898 15.9174 169.003 15.6517 169.059 15.4189C169.112 15.196 169.135 14.9457 169.038 14.7256C168.933 14.4873 168.696 14.3286 168.484 14.2256C168.255 14.1141 167.977 14.029 167.689 13.9756C167.132 13.8721 166.441 13.8693 165.956 14.1201L165.949 14.124C154.178 20.5854 141.698 24.7772 128.286 25.9941C122.672 26.4728 117.89 27.0402 112.432 26.127C104.738 24.8079 97.301 23.1594 91.3945 18.0586L91.3935 18.0576L90.8799 17.6006C85.709 12.825 84.6077 6.5029 86.1377 0.163094L85.4648 0C83.8891 6.5287 85.0179 13.1265 90.4072 18.1055L90.9424 18.583C97.009 23.8218 104.624 25.491 112.314 26.8096H112.316C117.881 27.7406 122.764 27.1606 128.348 26.6846L128.35 26.6836C141.866 25.4571 154.435 21.2325 166.276 14.7334C166.558 14.5888 167.063 14.5635 167.562 14.6563C167.804 14.7011 168.021 14.7697 168.181 14.8477C168.261 14.8866 168.32 14.9243 168.359 14.957C168.393 14.9849 168.404 15.0031 168.405 15.0059C168.41 15.0163 168.428 15.0824 168.386 15.2568C168.346 15.4231 168.263 15.6401 168.136 15.9121C167.881 16.4556 167.475 17.1599 166.969 18.0244C165.961 19.7441 164.582 22.0526 163.336 24.8125C160.844 30.3333 158.869 37.6983 161.427 45.8936C163.626 52.9189 169.956 56.0501 176.841 55.4238H176.844C187.258 54.4054 196.283 48.6101 202.983 40.5908C203.995 40.4188 204.814 41.3271 204.562 42.1885L204.561 42.1904C201.55 52.6715 201.836 64.0097 208.287 72.8008C211.022 76.539 215.167 79.4908 219.212 80.6475C223.15 81.7736 227.076 81.2087 229.438 77.8906C235.005 81.5479 239.306 90.6776 233.35 102.128C230.807 107.014 226.381 110.848 219.695 114.754C213.016 118.655 204.127 122.604 192.685 127.747Z" fill="#101212"/>
<path d="M203.904 211.689C204.733 206.957 205.157 202.035 205.108 196.877L204.417 196.877C204.466 201.997 204.044 206.879 203.223 211.57C202.361 216.493 201.058 221.208 199.395 225.77C199.628 225.841 199.855 225.892 200.075 225.924C201.737 221.353 203.04 216.626 203.904 211.689Z" fill="#101212"/>
<path d="M211.561 199.803C211.543 199.863 209.56 206.46 206.988 214.798C207.106 215.182 207.231 215.562 207.362 215.935C209.792 208.069 211.755 201.555 212.15 200.242C212.884 200.223 215.067 200.125 217.248 199.575C218.573 199.241 219.926 198.735 220.956 197.959C221.372 197.646 221.737 197.286 222.026 196.874L221.136 196.874C220.959 197.064 220.759 197.241 220.54 197.406C219.617 198.102 218.365 198.579 217.079 198.903C214.513 199.55 211.928 199.555 211.892 199.555C211.758 199.556 211.638 199.633 211.581 199.75L211.561 199.803Z" fill="#101212"/>
<path d="M214.961 190.065C217.195 192.393 219.567 194.183 222.019 194.916C221.984 195.384 221.854 195.804 221.644 196.182L222.415 196.182C222.611 195.728 222.721 195.222 222.721 194.661C222.721 194.504 222.615 194.366 222.464 194.326C220.097 193.695 217.741 191.963 215.46 189.587C213.184 187.215 211.011 184.231 209.007 181.146C207.077 178.176 205.309 175.122 203.759 172.443L203.583 172.138C201.997 169.398 200.633 167.058 199.572 165.672C199.47 165.538 199.285 165.497 199.136 165.576C198.987 165.655 198.916 165.83 198.969 165.99C202.567 177.007 204.245 186.981 204.408 196.185L205.099 196.185C204.946 187.538 203.466 178.226 200.338 168.031C201.113 169.264 201.999 170.787 202.983 172.486L203.165 172.8C204.713 175.474 206.488 178.539 208.427 181.523C210.441 184.624 212.641 187.648 214.961 190.065Z" fill="#101212"/>
<path d="M187.491 280.306C187.196 275.909 186.88 271.509 186.863 266.888C186.635 266.922 186.404 266.956 186.171 266.992C186.192 271.605 186.508 275.99 186.801 280.352C187.46 290.179 188.002 299.897 184.854 311.934C183.723 313.413 161.474 342.744 148.812 376.48C147.451 380.108 147.027 385.412 146.827 390.798C146.626 396.214 146.652 401.716 146.216 405.84C146.198 406.012 146.31 406.172 146.479 406.213L146.912 406.317L147.801 426.989H148.494L147.593 406.027C147.587 405.892 147.504 405.775 147.383 405.723L147.328 405.706L146.933 405.61C147.34 401.49 147.324 396.062 147.519 390.823C147.719 385.425 148.145 380.23 149.461 376.723C162.385 342.289 185.34 312.436 185.446 312.299C185.475 312.262 185.495 312.219 185.507 312.175C188.705 299.991 188.152 290.158 187.491 280.306Z" fill="#101212"/>
<path d="M188.118 251.612C187.924 251.46 187.716 251.311 187.495 251.167C186.674 255.69 186.308 259.892 186.203 263.896C186.451 263.632 186.69 263.367 186.919 263.102C187.047 259.468 187.398 255.67 188.118 251.612Z" fill="#101212"/>
<path d="M154.897 379.978C154.56 395.572 154.564 411.284 155.08 426.989H155.774C155.257 411.292 155.253 395.585 155.59 379.993C155.639 377.705 156.35 374.763 157.578 371.347C158.804 367.938 160.536 364.08 162.606 359.969C166.748 351.746 172.235 342.53 177.714 333.894C183.192 325.26 188.658 317.21 192.755 311.318C194.803 308.373 196.509 305.967 197.702 304.298C198.299 303.463 198.768 302.813 199.088 302.371C199.248 302.15 199.37 301.981 199.452 301.868L199.569 301.707C199.572 301.703 199.574 301.701 199.575 301.699L199.576 301.697C199.576 301.697 199.576 301.696 199.297 301.492L199.577 301.696C199.633 301.62 199.655 301.524 199.638 301.43C196.834 286.042 195.349 279.975 194.931 274.123C194.755 271.66 194.768 269.239 194.954 266.177C194.728 266.176 194.497 266.178 194.26 266.183C194.075 269.248 194.062 271.69 194.24 274.173C194.661 280.056 196.153 286.183 198.93 301.409C198.918 301.425 198.906 301.442 198.893 301.461C198.81 301.575 198.686 301.743 198.526 301.965C198.206 302.407 197.737 303.059 197.14 303.894C195.945 305.566 194.237 307.974 192.187 310.923C188.086 316.819 182.615 324.878 177.13 333.523C171.646 342.167 166.145 351.405 161.988 359.657C159.91 363.783 158.165 367.668 156.927 371.113C155.69 374.553 154.949 377.579 154.897 379.978Z" fill="#101212"/>
<path d="M287.182 16.8867C284.182 12.4537 279.226 6.7757 270.739 1.58399L269.819 1.16993C269.692 1.21319 269.6 1.32686 269.586 1.46095C269.572 1.59524 269.637 1.72574 269.753 1.79493C279.114 7.3789 284.242 13.5773 287.188 18.1514C289.777 22.1758 291.147 25.6726 292.678 28.9121C294.207 32.1489 295.886 35.1014 299.079 37.9414C304.073 42.3805 309.884 43.9744 314.055 44.6201C311.739 47.0312 309.481 48.0951 306.896 49.5498C305.57 50.2843 304.4 51.5358 303.845 52.9258C303.284 54.3293 303.343 55.904 304.545 57.1846L304.546 57.1856L308.706 61.5654C304.369 62.1963 301.598 62.8446 299.885 63.4824C298.986 63.8169 298.356 64.156 297.94 64.5029C297.522 64.8529 297.295 65.2355 297.272 65.6445C297.256 65.9578 297.362 66.2522 297.535 66.5264C297.707 66.7985 297.956 67.0682 298.257 67.3428C298.856 67.8899 299.72 68.5098 300.749 69.2472L300.75 69.2481L300.76 69.2549L300.768 69.2588C302.056 70.176 303.272 70.8408 304.284 71.3154C302.686 71.9147 300.892 72.9454 300.074 74.8037C299.163 76.8755 299.937 78.9404 300.696 80.958L300.711 80.9982C301.434 82.9191 302.158 84.8435 301.793 86.9443L301.704 87.3701C300.515 92.2422 297.596 94.9832 293.724 96.3012C289.825 97.6272 284.941 97.5142 279.856 96.6042C269.694 94.7852 258.895 89.8117 253.989 87.1475C253.838 87.0655 253.65 87.1074 253.547 87.2451C253.444 87.3832 253.458 87.5758 253.58 87.6973C253.63 87.7473 259.347 93.4342 266.448 98.5382C269.998 101.09 273.909 103.507 277.641 104.998C281.163 106.406 284.588 107.012 287.41 106.056C287.552 109.888 289.342 113.037 292.046 115.629C294.858 118.325 298.671 120.43 302.686 122.105C306.704 123.781 310.947 125.034 314.637 126.014C318.345 126.999 321.458 127.701 323.28 128.286C323.314 128.297 323.349 128.302 323.385 128.303C342.409 128.346 355.993 140.962 363.823 161.184C371.277 180.439 371.478 196.783 370.371 213.326C369.264 229.862 366.841 246.641 369.089 266.655C369.09 266.662 369.092 266.67 369.093 266.677C369.655 269.877 371.281 272.834 373.438 275.892C375.584 278.936 378.313 282.153 381.06 285.799C386.576 293.12 392.341 302.384 394.488 316.438C397.471 335.959 396.11 350.999 393.604 364.394C392.351 371.097 390.812 377.385 389.385 383.631C387.958 389.872 386.643 396.067 385.847 402.56C385.833 402.671 385.875 402.783 385.957 402.858C386.04 402.934 386.153 402.965 386.263 402.941L387.519 402.673L408.562 440.62C408.57 440.633 408.579 440.647 408.588 440.659C409.225 441.514 410.428 443.572 411.86 446.224C413.288 448.868 414.931 452.081 416.443 455.229C417.956 458.379 419.336 461.457 420.238 463.834C420.69 465.024 421.018 466.026 421.185 466.769C421.268 467.142 421.308 467.434 421.308 467.643C421.307 467.875 421.258 467.915 421.274 467.9C421.204 467.964 421.074 468.047 420.873 468.061C420.696 468.074 420.437 468.035 420.087 467.843L419.932 467.751C419.343 467.378 418.641 466.664 417.854 465.674C417.071 464.69 416.225 463.46 415.342 462.082C413.576 459.323 411.683 455.995 409.898 452.902C408.119 449.818 406.443 446.957 405.119 445.16C404.467 444.275 403.862 443.593 403.345 443.298C403.082 443.148 402.766 443.054 402.459 443.187C402.16 443.317 401.99 443.612 401.891 443.939V443.942C401.818 444.19 401.771 444.559 401.766 444.93C401.76 445.296 401.794 445.708 401.907 446.039C403.573 451.307 404.042 453.723 405.989 461.083C407.668 467.427 408.074 469.578 408.211 471.384L408.256 472.148C408.651 481.222 403.8 489.112 401.934 492.101C401.329 493.072 400.717 493.974 400.058 494.634C399.399 495.293 398.731 495.669 398.017 495.67C397.335 495.67 396.538 495.343 396.143 494.777L396.142 494.776C395.873 494.393 395.817 493.944 395.94 493.375C396.067 492.793 396.375 492.122 396.798 491.337C397.63 489.792 398.89 487.848 399.761 485.564C401.189 481.817 401.259 478.001 400.93 475.13C400.765 473.693 400.498 472.486 400.248 471.634C400.123 471.209 400.001 470.866 399.894 470.624C399.841 470.505 399.787 470.399 399.733 470.318C399.707 470.279 399.673 470.232 399.629 470.191C399.606 470.169 399.543 470.115 399.449 470.09L399.345 470.077H399.334C399.128 470.088 399.03 470.25 399.006 470.294C398.97 470.359 398.945 470.434 398.928 470.503C398.891 470.647 398.858 470.859 398.827 471.153C398.765 471.746 398.705 472.733 398.655 474.326C397.877 480.595 395.885 485.205 394.321 488.107C393.787 489.1 392.267 491.92 390.364 494.387C389.412 495.621 388.376 496.751 387.332 497.519C386.282 498.292 385.278 498.661 384.369 498.484C384.166 498.443 383.288 498.239 382.84 497.528C382.509 496.999 382.526 496.359 382.879 495.509C383.234 494.653 383.901 493.66 384.754 492.492C386.444 490.177 388.815 487.243 390.571 483.599L390.942 482.8C392.723 478.804 393.383 474.888 393.55 471.904C393.639 470.313 393.588 468.982 393.49 468.041C393.441 467.571 393.381 467.192 393.317 466.923C393.286 466.79 393.251 466.673 393.213 466.581C393.194 466.536 393.169 466.483 393.133 466.434C393.108 466.401 393.022 466.289 392.864 466.267L392.853 466.265C392.729 466.253 392.634 466.303 392.578 466.347C392.526 466.389 392.493 466.436 392.475 466.466C392.437 466.526 392.409 466.597 392.389 466.657C392.346 466.783 392.301 466.96 392.251 467.17C392.148 467.604 392.02 468.207 391.827 468.992C391.444 470.549 390.821 472.759 389.738 475.363C389.342 476.315 388.29 478.748 386.05 482.374C384.494 484.893 382.2 488.606 379.79 491.568C378.584 493.05 377.363 494.328 376.204 495.173C375.034 496.025 373.998 496.387 373.133 496.18C372.657 496.067 372.197 495.773 371.838 495.385C371.478 494.995 371.24 494.532 371.177 494.108L371.161 493.97C371.114 493.275 371.495 492.563 372.04 491.915C372.612 491.234 373.299 490.698 373.644 490.416C376.966 487.7 379.579 482.902 381.221 478.739C382.044 476.651 382.63 474.705 382.941 473.231C383.097 472.496 383.187 471.867 383.2 471.391C383.207 471.155 383.195 470.94 383.155 470.763C383.124 470.623 383.061 470.443 382.915 470.321L382.848 470.272L382.775 470.237C382.607 470.172 382.444 470.225 382.346 470.272C382.228 470.329 382.107 470.423 381.985 470.53C381.738 470.749 381.404 471.104 380.958 471.599C380.062 472.595 378.684 474.187 376.52 476.557C376.513 476.56 376.507 476.563 376.5 476.566C376.435 476.596 376.339 476.644 376.204 476.72C375.935 476.869 375.509 477.13 374.859 477.579C373.705 478.377 371.841 479.776 368.901 482.219L373.341 472.334C373.627 472.064 373.835 471.859 373.978 471.703C374.053 471.621 374.114 471.547 374.161 471.483C374.201 471.428 374.255 471.348 374.279 471.257C374.292 471.209 374.308 471.121 374.273 471.021C374.234 470.906 374.147 470.832 374.061 470.797C373.987 470.766 373.919 470.766 373.881 470.767C373.839 470.769 373.801 470.776 373.771 470.783C373.769 470.784 373.766 470.784 373.764 470.785C374.554 469.673 375.148 468.197 375.598 466.417C376.136 464.288 376.477 461.694 376.694 458.705C377.129 452.729 377.071 445.119 377.071 436.405C377.071 436.399 377.071 436.393 377.07 436.387L375.536 405.215C375.657 405.143 375.729 405.004 375.703 404.858C374.684 399.082 373.51 390.422 372.437 382.784C371.9 378.967 371.388 375.406 370.934 372.594C370.706 371.188 370.493 369.966 370.297 368.991C370.103 368.024 369.923 367.278 369.758 366.839C357.074 333.044 341.067 305.84 340.328 304.591C337.161 292.515 336.267 284.602 335.482 276.613C334.698 268.625 334.023 260.554 331.299 248.197C332.226 245.106 333.135 241.591 334.104 237.926C334.826 235.191 335.583 232.371 336.407 229.573C336.224 229.374 336.04 229.181 335.855 228.996C334.983 231.93 334.189 234.89 333.434 237.749C332.454 241.455 331.542 244.988 330.61 248.085C330.593 248.141 330.592 248.202 330.604 248.26C333.334 260.621 334.007 268.674 334.793 276.681C335.58 284.697 336.48 292.661 339.67 304.811C339.678 304.842 339.691 304.873 339.707 304.9C339.801 305.058 356.185 332.646 369.109 367.083C369.252 367.464 369.424 368.159 369.618 369.128C369.811 370.09 370.023 371.302 370.25 372.704C370.703 375.509 371.214 379.064 371.751 382.881C372.805 390.38 373.961 398.894 374.971 404.682C374.881 404.75 374.826 404.857 374.832 404.975L376.379 436.422C376.379 445.144 376.436 452.714 376.004 458.654C375.788 461.625 375.451 464.175 374.927 466.248C374.402 468.325 373.697 469.892 372.769 470.928C372.695 471.009 372.635 471.083 372.59 471.147C372.551 471.202 372.497 471.286 372.476 471.383C372.464 471.435 372.454 471.528 372.498 471.628C372.547 471.739 372.637 471.802 372.717 471.831C372.764 471.848 372.809 471.851 372.844 471.852C372.837 471.858 372.831 471.865 372.824 471.872L372.815 471.881C372.799 471.896 372.784 471.913 372.771 471.931L372.736 471.991L367.655 483.307C367.589 483.455 367.634 483.628 367.763 483.725C367.892 483.822 368.07 483.818 368.193 483.714C371.8 480.672 373.98 479.029 375.253 478.148C375.889 477.708 376.297 477.46 376.541 477.324C376.663 477.256 376.743 477.216 376.79 477.194C376.813 477.184 376.828 477.178 376.835 477.175C376.891 477.156 376.941 477.123 376.98 477.08C379.172 474.681 380.583 473.05 381.472 472.063C381.921 471.564 382.231 471.238 382.444 471.049C382.454 471.04 382.464 471.032 382.474 471.024L382.492 471.009C382.504 471.101 382.512 471.221 382.508 471.373C382.496 471.789 382.416 472.372 382.265 473.088C381.963 474.516 381.388 476.426 380.576 478.485C378.947 482.617 376.388 487.279 373.205 489.881C372.877 490.15 372.133 490.729 371.511 491.47C370.935 492.154 370.403 493.047 370.471 494.017L370.492 494.213C370.581 494.801 370.897 495.385 371.33 495.854C371.764 496.324 372.338 496.704 372.972 496.854C374.14 497.133 375.394 496.62 376.612 495.732C377.842 494.836 379.107 493.505 380.327 492.005C382.765 489.008 385.078 485.265 386.63 482.753L386.639 482.738L387.049 482.065C389.033 478.772 389.995 476.546 390.377 475.63L390.769 474.656C391.632 472.432 392.159 470.539 392.499 469.157C392.612 468.699 392.705 468.291 392.782 467.949C392.788 468.002 392.796 468.056 392.802 468.112C392.896 469.015 392.947 470.309 392.859 471.866C392.696 474.786 392.049 478.616 390.311 482.517L389.948 483.299C388.227 486.869 385.908 489.736 384.194 492.084C383.345 493.247 382.631 494.302 382.24 495.243C381.847 496.189 381.751 497.095 382.253 497.897C382.873 498.881 384.035 499.123 384.235 499.164H384.238C385.427 499.394 386.63 498.896 387.742 498.077C388.86 497.254 389.942 496.066 390.912 494.809C392.853 492.293 394.395 489.429 394.93 488.435L394.931 488.436C396.526 485.475 398.556 480.776 399.345 474.392L399.348 474.361C399.389 473.021 399.439 472.122 399.488 471.532C399.518 471.625 399.553 471.723 399.584 471.829C399.823 472.642 400.081 473.81 400.241 475.209C400.563 478.009 400.491 481.705 399.114 485.318C398.265 487.545 397.056 489.398 396.188 491.008C395.762 491.799 395.412 492.544 395.264 493.227C395.113 493.922 395.163 494.586 395.575 495.174L395.685 495.318C396.259 496.015 397.219 496.363 398.018 496.362L398.199 496.355C399.098 496.295 399.873 495.799 400.548 495.124C401.268 494.404 401.915 493.441 402.521 492.468L402.905 491.849C404.986 488.47 409.328 480.844 408.947 472.117C408.852 469.995 408.577 468.159 406.658 460.905C404.718 453.574 404.24 451.12 402.568 445.831L402.564 445.82L402.515 445.637C402.473 445.437 402.454 445.192 402.458 444.94C402.463 444.608 402.505 444.308 402.554 444.14C402.631 443.885 402.714 443.831 402.734 443.822C402.747 443.816 402.817 443.794 403.001 443.899C403.376 444.113 403.904 444.677 404.562 445.57C405.857 447.329 407.514 450.153 409.299 453.248C411.079 456.333 412.982 459.679 414.759 462.455C415.648 463.843 416.509 465.095 417.312 466.104C418.11 467.107 418.871 467.898 419.562 468.336C420.086 468.668 420.541 468.779 420.923 468.752C421.305 468.724 421.578 468.561 421.743 468.41L421.744 468.409C421.956 468.213 422 467.905 422 467.644C422 467.36 421.949 467.012 421.86 466.618C421.683 465.827 421.341 464.788 420.886 463.588C419.973 461.184 418.584 458.086 417.067 454.929C415.55 451.772 413.903 448.549 412.47 445.895C411.054 443.273 409.835 441.184 409.159 440.269L387.999 402.114C387.934 401.998 387.81 401.929 387.681 401.935L387.625 401.943L386.596 402.162C387.393 395.88 388.67 389.866 390.06 383.785C391.484 377.552 393.028 371.242 394.285 364.521C396.801 351.068 398.17 335.948 395.173 316.334C393.001 302.124 387.166 292.754 381.612 285.383C378.824 281.681 376.15 278.537 374.004 275.493C371.869 272.466 370.312 269.611 369.775 266.563C367.539 246.636 369.952 229.962 371.062 213.372C372.173 196.784 371.974 180.324 364.469 160.934C356.585 140.574 342.823 127.678 323.438 127.61C321.589 127.022 318.441 126.309 314.814 125.346C311.136 124.368 306.927 123.125 302.952 121.467C298.974 119.807 295.249 117.741 292.524 115.129C289.806 112.523 288.093 109.385 288.093 105.562C288.093 105.447 288.035 105.339 287.939 105.275C287.844 105.211 287.722 105.199 287.615 105.243C284.964 106.335 281.567 105.822 277.897 104.355C274.24 102.894 270.382 100.512 266.853 97.9752C262.15 94.5952 258.057 90.9548 255.837 88.8906C261.374 91.6699 270.785 95.6842 279.735 97.2862C284.866 98.2042 289.886 98.3372 293.946 96.9562C298.033 95.5662 301.129 92.6472 302.377 87.5342C302.98 85.058 302.14 82.828 301.388 80.8282L301.345 80.7148C300.564 78.6406 299.929 76.8534 300.708 75.082C301.542 73.1852 303.601 72.2206 305.334 71.6904C305.473 71.6477 305.571 71.5215 305.578 71.376C305.585 71.2306 305.5 71.0964 305.366 71.04C304.401 70.6363 303.137 70.0176 301.758 69.1006L301.16 68.6895L301.153 68.6846C300.11 67.9369 299.285 67.345 298.724 66.832C298.444 66.5765 298.245 66.354 298.12 66.1563C297.997 65.9612 297.957 65.8084 297.964 65.6816C297.973 65.5244 298.059 65.3063 298.385 65.0342C298.714 64.759 299.262 64.4527 300.126 64.1309C301.853 63.4879 304.758 62.8128 309.466 62.1543C309.594 62.1363 309.702 62.0473 309.745 61.9248C309.788 61.8025 309.758 61.6662 309.669 61.5723L305.048 56.709C304.072 55.6679 304.002 54.3955 304.487 53.1826C304.978 51.9557 306.03 50.8207 307.231 50.1553L307.233 50.1543C309.947 48.6275 312.449 47.4652 315.015 44.6055C315.1 44.5103 315.126 44.3759 315.082 44.2559C315.038 44.1356 314.931 44.0487 314.804 44.0313C310.666 43.4611 304.655 41.9706 299.539 37.4238C296.446 34.6729 294.815 31.8158 293.304 28.6162C291.888 25.6191 290.567 22.2963 288.247 18.5352L287.77 17.7773L287.182 16.8867Z" fill="#101212"/>
</svg>
