<svg width="434" height="612" viewBox="0 0 434 612" fill="none" xmlns="http://www.w3.org/2000/svg">
<g clip-path="url(#clip0_2660_15811)">
<path d="M380.368 807.287C380.396 807.276 380.425 807.267 380.455 807.263C381.105 807.175 381.679 807.079 382.197 806.996C382.711 806.914 383.175 806.843 383.59 806.809C384.417 806.74 385.123 806.809 385.708 807.286C386.239 807.718 386.585 808.42 386.704 809.145C386.823 809.872 386.721 810.676 386.285 811.315C385.778 812.058 384.923 812.431 383.997 812.634C383.067 812.838 381.995 812.883 380.985 812.916C379.958 812.951 379.002 812.973 378.241 813.116C377.463 813.262 377.031 813.51 376.875 813.877L376.872 813.881C376.837 813.969 376.74 814.246 376.845 814.491C376.955 814.737 377.279 814.909 377.995 814.967C378.686 815.023 379.566 814.961 380.557 814.918C381.53 814.876 382.592 814.855 383.583 815.007C384.575 815.16 385.531 815.491 386.269 816.182C386.97 816.838 387.397 817.746 387.547 818.593C387.683 819.367 387.6 820.187 387.162 820.704L387.069 820.804C386.704 821.16 386.223 821.243 385.675 821.227C385.132 821.211 384.433 821.095 383.572 820.967C381.062 820.597 379.391 820.293 378.253 820.167C377.685 820.105 377.283 820.091 376.997 820.127C376.717 820.163 376.592 820.241 376.521 820.327C376.428 820.439 376.381 820.633 376.414 820.9C376.446 821.16 376.55 821.436 376.686 821.65C376.946 822.059 377.356 822.29 377.918 822.426C378.49 822.565 379.17 822.594 379.934 822.634C381.413 822.712 383.18 822.824 384.48 824.089L384.503 824.11C384.608 824.214 384.933 824.537 385.202 824.992C385.47 825.444 385.705 826.066 385.573 826.758C385.472 827.294 385.164 827.796 384.763 828.195C384.41 828.545 383.971 828.831 383.498 828.998L383.294 829.063C382.509 829.278 381.803 829.116 381.149 828.788C380.509 828.467 379.892 827.97 379.283 827.492C378.035 826.51 376.766 825.562 375.044 825.663C374.213 825.712 373.353 826.001 372.71 826.383C372.389 826.574 372.134 826.781 371.967 826.979C371.795 827.181 371.741 827.341 371.744 827.448C371.768 828.214 372.096 828.741 372.612 829.151C373.145 829.574 373.876 829.871 374.689 830.143C375.479 830.407 376.368 830.652 377.109 830.965C377.853 831.28 378.545 831.698 378.913 832.37L378.985 832.534C379.063 832.741 379.151 833.073 379.18 833.453C379.213 833.904 379.166 834.462 378.886 834.983L378.751 835.203C378.382 835.736 377.788 836.116 377.148 836.333C376.587 836.524 375.964 836.597 375.38 836.526L375.132 836.486C373.766 836.217 373.19 835.196 372.6 834.175C371.999 833.137 371.338 831.995 369.847 831.12L369.845 831.118C369.578 830.961 368.969 830.605 368.219 830.372C367.464 830.138 366.61 830.043 365.835 830.359C365.023 830.688 364.374 831.437 363.988 832.361C363.627 833.225 363.511 834.204 363.688 835.052L363.728 835.22L363.805 835.472C364.007 836.042 364.377 836.492 365.135 837.09C366.02 837.789 367.372 838.642 369.503 840.089C371.683 841.569 373.401 842.803 374.434 843.559C375.967 844.639 377.319 846.755 377.829 848.909C378.324 850.999 378.046 853.242 376.217 854.59L376.035 854.718C372.248 857.253 367.996 856.871 364.379 855.212C360.047 853.227 357.921 849.487 356.452 845.957C356.085 845.074 355.757 844.2 355.446 843.369C355.135 842.536 354.843 841.748 354.543 841.027C353.937 839.571 353.324 838.45 352.536 837.808L352.535 837.807C351.306 836.797 349.656 836.457 347.686 836.262C345.745 836.07 343.49 836.019 341.225 835.53C338.94 835.036 336.605 834.092 334.439 832.094C332.277 830.099 330.305 827.074 328.707 822.453L328.706 822.453L326.748 816.742C325.214 812.319 323.141 808.051 319.256 804.989L315.071 802.495L305.977 798.184C305.971 798.181 305.965 798.178 305.96 798.175L301.393 795.7C295.598 792.571 290.782 787.118 290.526 780.529C290.285 774.618 293.522 769.447 298.415 766.021C298.695 758.76 297.501 751.853 296.115 744.844C294.721 737.791 293.132 730.628 292.698 722.953C292.106 712.56 289.092 700.682 285.925 688.781C282.763 676.898 279.447 664.989 278.286 654.591C276.711 641.233 276.54 632.719 277.02 626.602C277.499 620.479 278.631 616.766 279.642 613.038C280.648 609.324 281.539 605.577 281.567 599.339C281.596 593.091 280.758 584.336 278.289 570.615V570.613C277.636 566.891 277.131 559.226 276.717 549.619C276.302 540.001 275.978 528.41 275.693 516.82C275.123 493.628 274.71 470.462 274.037 463.057C274.02 462.872 274.152 462.707 274.336 462.682C285.725 461.156 296.319 455.506 304.08 450.22C307.957 447.579 311.12 445.033 313.313 443.149C314.186 442.399 314.903 441.751 315.452 441.246C309.099 443.508 298.424 445.426 288.409 446.87C277.772 448.404 267.826 449.41 264.472 449.735C261.016 490.225 255.043 559.544 253.102 570.612L253.101 570.613C252.67 573.007 251.363 574.717 249.623 576.081C247.895 577.437 245.719 578.467 243.532 579.5C239.114 581.588 234.649 583.7 232.972 588.484C232.22 590.627 229.846 595.431 225.248 599.088C220.757 602.661 214.164 605.12 204.956 602.973C208.052 608.17 215.254 610.427 222.282 610.207C225.929 610.093 229.484 609.311 232.32 607.956C235.162 606.599 237.24 604.69 238.018 602.343C238.073 602.176 238.246 602.077 238.418 602.114C238.59 602.15 238.707 602.31 238.69 602.486C237.77 611.867 241.88 620.044 246.006 628.333C250.115 636.59 254.24 644.957 253.104 654.591C252.66 658.361 251.346 670.475 248.276 680.315C246.745 685.224 244.758 689.63 242.179 692.135C240.881 693.395 239.415 694.192 237.768 694.309C236.278 694.414 234.687 693.959 232.987 692.862C232.911 715.867 228.808 729.566 225.753 739.624C222.672 749.77 220.71 756.089 224.889 764.543C226.877 767.352 228.611 771.489 228.984 775.509C229.298 778.89 228.65 782.241 226.323 784.624C229.786 782.684 233.172 780.698 235.75 779.568C237.174 778.943 238.423 778.546 239.328 778.607C239.795 778.638 240.214 778.794 240.5 779.146C240.781 779.491 240.886 779.966 240.863 780.53C240.615 786.913 236.087 792.23 230.536 795.4L229.996 795.7L225.429 798.175C225.423 798.178 225.418 798.181 225.412 798.184L216.312 802.498L212.134 804.989C208.249 808.051 206.175 812.319 204.641 816.743L202.683 822.453C201.085 827.073 199.113 830.099 196.95 832.094C194.785 834.092 192.45 835.036 190.165 835.53C187.9 836.019 185.645 836.07 183.705 836.262C181.735 836.457 180.084 836.797 178.855 837.807L178.854 837.808C178.067 838.45 177.454 839.57 176.848 841.026C176.547 841.747 176.255 842.535 175.943 843.369C175.633 844.199 175.305 845.073 174.938 845.956C173.469 849.486 171.344 853.227 167.012 855.212C163.395 856.872 159.141 857.254 155.354 854.718C153.362 853.387 153.049 851.067 153.561 848.909C154.04 846.887 155.261 844.898 156.677 843.769L156.962 843.555C157.995 842.799 159.71 841.566 161.886 840.089C164.017 838.642 165.368 837.789 166.254 837.09C167.12 836.407 167.48 835.916 167.661 835.22L167.7 835.052C167.877 834.204 167.763 833.225 167.401 832.361C167.015 831.437 166.367 830.688 165.555 830.359C164.779 830.043 163.926 830.138 163.171 830.372C162.42 830.605 161.81 830.963 161.544 831.119L161.543 831.12C160.051 831.995 159.39 833.137 158.789 834.175C158.198 835.196 157.623 836.216 156.258 836.486C155.604 836.615 154.883 836.551 154.241 836.333C153.601 836.116 153.008 835.736 152.639 835.203C152.238 834.624 152.171 833.969 152.21 833.453C152.248 832.946 152.393 832.524 152.478 832.37C152.846 831.698 153.537 831.28 154.281 830.965C155.023 830.652 155.911 830.407 156.701 830.143C157.515 829.871 158.246 829.574 158.778 829.151C159.294 828.741 159.622 828.214 159.646 827.448C159.649 827.341 159.596 827.181 159.424 826.979C159.256 826.781 159.002 826.574 158.681 826.383C158.037 826.001 157.176 825.712 156.345 825.663C154.623 825.562 153.354 826.511 152.106 827.493C151.497 827.971 150.879 828.467 150.239 828.788C149.586 829.116 148.88 829.278 148.096 829.063C147.546 828.912 147.029 828.594 146.627 828.194C146.226 827.795 145.919 827.293 145.817 826.758L145.797 826.628C145.716 825.988 145.938 825.415 146.188 824.991C146.458 824.536 146.782 824.214 146.888 824.11L146.894 824.103L146.896 824.102C148.197 822.824 149.971 822.712 151.455 822.634C152.219 822.594 152.899 822.565 153.472 822.426C154.033 822.29 154.442 822.059 154.703 821.65C154.839 821.436 154.943 821.16 154.976 820.9C155.009 820.633 154.96 820.439 154.867 820.327C154.797 820.242 154.672 820.163 154.392 820.127C154.105 820.091 153.704 820.105 153.137 820.167C151.998 820.293 150.327 820.597 147.816 820.967C146.955 821.095 146.256 821.211 145.714 821.227C145.165 821.243 144.685 821.16 144.32 820.804C143.802 820.297 143.697 819.419 143.843 818.593C143.992 817.746 144.42 816.838 145.121 816.182L145.262 816.057C145.978 815.451 146.876 815.15 147.807 815.007C148.798 814.855 149.859 814.876 150.833 814.918C151.824 814.961 152.704 815.023 153.396 814.967C154.115 814.909 154.438 814.736 154.547 814.488C154.651 814.24 154.547 813.961 154.514 813.877C154.358 813.51 153.926 813.262 153.148 813.116C152.388 812.973 151.431 812.951 150.404 812.916C149.394 812.883 148.323 812.838 147.393 812.634C146.466 812.432 145.611 812.058 145.104 811.315C144.668 810.676 144.566 809.872 144.685 809.145C144.803 808.42 145.151 807.718 145.682 807.286C146.267 806.809 146.973 806.74 147.8 806.809C148.214 806.843 148.678 806.914 149.192 806.996C149.451 807.038 149.724 807.082 150.014 807.127L150.934 807.263L151.021 807.286C151.049 807.298 151.075 807.314 151.099 807.332C151.099 807.332 151.103 807.335 151.107 807.338C151.117 807.345 151.134 807.356 151.158 807.371C151.207 807.402 151.287 807.447 151.399 807.5C151.623 807.606 151.979 807.742 152.483 807.846C153.492 808.053 155.106 808.134 157.47 807.578C159.827 807.025 161.744 805.681 163.62 803.899C164.558 803.007 165.481 802.011 166.441 800.954C167.4 799.9 168.398 798.785 169.476 797.668L172.183 794.845L172.261 794.785L180.744 789.904L180.756 789.897L180.757 789.898L187.751 786.23L195.6 781.193C196.558 777.43 197.72 773.085 198.565 769.128C198.993 767.128 199.337 765.233 199.534 763.571C199.731 761.903 199.776 760.49 199.616 759.445C196.772 740.896 192.185 721.271 188.204 702.946C184.533 686.066 180.178 671.746 178.598 654.582C176.586 636.769 181.274 619.661 184.993 602.379C188.625 585.496 185.509 569.195 180.814 552.909C176.127 536.648 169.848 520.358 167.243 503.631C161.309 465.526 160.065 426.281 160.897 387.752C160.949 385.353 161.69 382.327 162.927 378.887C164.165 375.442 165.91 371.557 167.988 367.431C172.145 359.179 177.646 349.941 183.13 341.297C188.615 332.652 194.086 324.593 198.187 318.697C200.237 315.748 201.945 313.34 203.14 311.668C203.737 310.833 204.206 310.181 204.526 309.739C204.686 309.517 204.81 309.349 204.893 309.235C204.906 309.216 204.918 309.199 204.93 309.183C202.153 293.957 200.661 287.83 200.24 281.947C199.817 276.032 200.474 270.346 201.966 255.923L201.978 255.866C201.983 255.847 201.989 255.829 201.997 255.812C202.732 254.248 204.07 250.466 205.67 245.644C207.267 240.832 209.117 235.009 210.876 229.378C214.39 218.127 217.538 207.653 217.561 207.577L217.581 207.524C217.638 207.407 217.758 207.33 217.892 207.329C217.928 207.329 220.513 207.324 223.079 206.677C224.365 206.353 225.617 205.876 226.54 205.18C227.386 204.542 227.941 203.735 228.019 202.69C225.567 201.957 223.195 200.167 220.961 197.839C218.641 195.422 216.441 192.398 214.427 189.297C212.412 186.196 210.574 183.007 208.983 180.26C207.999 178.561 207.113 177.038 206.338 175.805C211.424 192.379 212.153 206.62 209.904 219.463C207.559 232.862 201.979 244.716 194.773 256.089C192.065 268.392 192.832 278.244 193.491 288.08C194.152 297.932 194.705 307.765 191.507 319.949C191.495 319.993 191.475 320.036 191.446 320.073C191.34 320.21 168.385 350.063 155.461 384.497C154.145 388.004 153.719 393.199 153.519 398.597C153.324 403.836 153.34 409.264 152.933 413.384L153.328 413.48L153.383 413.497C153.504 413.549 153.587 413.666 153.593 413.801L154.901 444.245C154.902 444.25 154.902 444.256 154.902 444.261C154.902 453.02 153.365 460.624 152.327 466.554C151.807 469.527 151.416 472.062 151.395 474.122C151.374 476.189 151.727 477.704 152.621 478.702C153.707 479.913 155.936 482.007 158.427 484.346L158.428 484.347L158.451 484.37L158.488 484.411C158.522 484.455 158.545 484.507 158.555 484.563L160.36 495.181C160.385 495.324 160.317 495.468 160.19 495.54C160.064 495.612 159.907 495.598 159.796 495.504C156.177 492.452 153.332 489.791 151.391 487.893C150.42 486.944 149.675 486.185 149.173 485.663C148.922 485.403 148.732 485.201 148.604 485.064C148.539 484.995 148.491 484.943 148.458 484.908C148.442 484.89 148.43 484.877 148.422 484.868L148.409 484.855L148.408 484.853C146.217 482.454 144.805 480.824 143.917 479.837C143.468 479.338 143.159 479.012 142.945 478.823C142.928 478.808 142.911 478.795 142.896 478.783C142.885 478.875 142.877 478.995 142.881 479.147C142.893 479.563 142.974 480.146 143.125 480.863C143.427 482.291 144.001 484.201 144.812 486.26C146.441 490.391 149.001 495.053 152.184 497.655C152.512 497.924 153.257 498.503 153.88 499.244C154.494 499.974 155.058 500.942 154.898 501.988C154.81 502.577 154.494 503.161 154.061 503.629C153.626 504.099 153.052 504.477 152.418 504.627L152.419 504.628C151.251 504.907 149.997 504.394 148.778 503.506C147.549 502.61 146.283 501.28 145.062 499.78C142.62 496.777 140.301 493.024 138.75 490.512C136.769 487.307 135.706 485.016 135.198 483.839L135.013 483.404C133.912 480.756 133.279 478.509 132.891 476.929C132.778 476.47 132.683 476.061 132.605 475.719C132.599 475.773 132.593 475.829 132.587 475.886C132.493 476.789 132.443 478.083 132.53 479.64C132.705 482.755 133.428 486.906 135.44 491.074C137.162 494.644 139.481 497.511 141.195 499.859C142.045 501.022 142.758 502.076 143.149 503.017C143.543 503.963 143.639 504.869 143.137 505.67L143.136 505.671C142.515 506.655 141.352 506.898 141.153 506.938H141.15C139.961 507.168 138.758 506.67 137.646 505.851C136.529 505.028 135.447 503.841 134.478 502.584C132.537 500.068 130.994 497.203 130.459 496.209C128.864 493.248 126.833 488.55 126.044 482.168C126.043 482.158 126.042 482.147 126.042 482.136C126 480.796 125.95 479.898 125.9 479.308C125.871 479.399 125.837 479.497 125.807 479.601C125.568 480.413 125.31 481.581 125.149 482.98C124.828 485.78 124.899 489.478 126.276 493.092C127.125 495.319 128.335 497.172 129.202 498.782C129.629 499.573 129.978 500.318 130.127 501.001C130.269 501.653 130.233 502.278 129.889 502.837L129.815 502.948C129.261 503.741 128.223 504.137 127.372 504.136L127.371 504.135C126.394 504.135 125.562 503.617 124.842 502.897C124.302 502.357 123.803 501.68 123.331 500.965L122.868 500.242C121.004 497.255 116.036 489.2 116.441 479.891C116.536 477.769 116.811 475.933 118.73 468.679C120.67 461.348 121.149 458.894 122.821 453.605L122.824 453.594C122.902 453.373 122.937 453.049 122.932 452.714C122.927 452.382 122.885 452.082 122.836 451.914L122.777 451.758C122.72 451.634 122.67 451.603 122.654 451.596C122.641 451.59 122.571 451.569 122.388 451.673C122.013 451.887 121.485 452.452 120.828 453.344C119.532 455.103 117.876 457.927 116.091 461.022C114.311 464.107 112.408 467.453 110.631 470.229C109.742 471.617 108.88 472.87 108.077 473.879C107.379 474.757 106.71 475.471 106.091 475.929L105.828 476.11C105.304 476.442 104.849 476.553 104.467 476.526C104.085 476.499 103.812 476.336 103.646 476.185L103.645 476.184C103.433 475.988 103.389 475.681 103.389 475.42C103.388 475.136 103.44 474.787 103.528 474.393C103.706 473.602 104.047 472.563 104.503 471.364C105.416 468.96 106.805 465.861 108.321 462.704C109.838 459.547 111.486 456.324 112.919 453.67C114.338 451.042 115.558 448.949 116.232 448.036L130.313 422.643C130.35 407.225 128.659 393.597 127.786 378.297C126.912 362.98 126.866 346.044 130.218 324.108C132.389 309.899 138.224 300.528 143.777 293.157C146.566 289.455 149.239 286.311 151.386 283.267C153.52 280.24 155.076 277.385 155.613 274.337C157.849 254.41 155.438 237.736 154.327 221.146C153.217 204.558 153.415 188.098 160.921 168.708C168.352 149.515 181.009 136.952 198.685 135.521C210.127 130.378 219.016 126.429 225.695 122.528C232.381 118.622 236.807 114.788 239.35 109.902C245.306 98.4514 241.005 89.3217 235.438 85.6644C233.076 88.9825 229.15 89.5474 225.212 88.4213C221.167 87.2646 217.022 84.3128 214.287 80.5746C207.836 71.7835 207.55 60.4453 210.561 49.9642L210.562 49.9623C210.814 49.1009 209.995 48.1926 208.983 48.3646C202.283 56.3839 193.258 62.1792 182.844 63.1976H182.841C175.956 63.8239 169.626 60.6927 167.427 53.6674C164.869 45.4721 166.844 38.1071 169.336 32.5863C170.582 29.8264 171.961 27.5179 172.969 25.7982C173.475 24.9337 173.881 24.2294 174.136 23.6859C174.263 23.4139 174.346 23.1969 174.386 23.0306C174.428 22.8562 174.41 22.7901 174.405 22.7797C174.404 22.7769 174.393 22.7587 174.359 22.7308C174.32 22.6981 174.261 22.6604 174.181 22.6215C174.021 22.5435 173.804 22.4749 173.562 22.4301C173.063 22.3373 172.558 22.3626 172.276 22.5072C160.435 29.0063 147.866 33.2309 134.35 34.4574L134.348 34.4584C128.764 34.9344 123.881 35.5144 118.316 34.5834H118.314C110.624 33.2648 103.009 31.5956 96.9424 26.3568L96.4072 25.8793C91.0179 20.9003 89.8891 14.3025 91.4648 7.7738C93.0882 1.04813 97.5813 -5.62671 103.269 -10.483L103.27 -10.484L110.905 -16.9664C109.259 -17.1688 107.745 -16.8892 106.229 -16.5006C104.51 -16.0604 102.745 -15.4641 100.861 -15.3522H100.858C97.4726 -15.1755 93.6043 -15.8521 90.3584 -17.2809C87.1216 -18.7058 84.4368 -20.9106 83.5371 -23.8326L83.5381 -23.8336C82.7214 -26.4256 83.6325 -29.2934 85.1494 -31.8619C89.5147 -39.2931 97.3975 -43.3558 106.137 -44.191C114.875 -45.0262 124.5 -42.6405 132.413 -37.1412C132.891 -36.8099 133.319 -36.4286 133.714 -36.0797C134.116 -35.725 134.483 -35.4055 134.867 -35.1627C135.247 -34.9231 135.63 -34.7669 136.055 -34.7321C136.444 -34.7001 136.893 -34.7702 137.436 -35.0026C140.598 -47.656 148.937 -56.7544 158.499 -57.8815C167.094 -58.8943 174.072 -53.1583 177.055 -50.5133L177.598 -50.0289L177.605 -50.0211C180.255 -47.6414 182.002 -45.2976 184.149 -40.9781C186.291 -36.6708 188.842 -30.3734 193.096 -20.0856C195.502 -14.2735 197.544 -9.37331 199 -5.89123C198.028 -12.7082 197.192 -28.1107 207.183 -40.2242C210.918 -44.7486 216.456 -49.1649 222.102 -51.7858C227.728 -54.3978 233.572 -55.2734 237.83 -52.5192C241.351 -50.2397 243.011 -45.9722 243.794 -42.0485C244.58 -38.1101 244.5 -34.4289 244.473 -33.2233C244.337 -26.9851 242.376 -22.5625 239.062 -15.3033C236.878 -10.5085 233.525 -3.99978 228.5 3.30408C239.818 -7.10772 250.111 -14.5723 257.844 -19.6676C275.851 -31.5242 282.826 -32.4055 288.449 -31.4606C291.788 -30.8992 295.64 -29.5278 298.846 -27.4664C302.046 -25.4086 304.652 -22.6303 305.402 -19.235C306.411 -14.6725 304.043 -9.14715 298.99 -3.95373C294.042 1.13245 286.466 5.95991 276.739 9.35779C285.226 14.5495 290.182 20.2275 293.182 24.6605L293.77 25.5511L294.247 26.309C296.567 30.0701 297.888 33.3929 299.304 36.39C300.815 39.5896 302.446 42.4467 305.539 45.1976C310.655 49.7444 316.666 51.2349 320.804 51.8051C320.931 51.8225 321.038 51.9094 321.082 52.0297C321.126 52.1497 321.1 52.2841 321.015 52.3793C318.449 55.239 315.947 56.4013 313.233 57.9281L313.231 57.9291C312.03 58.5945 310.978 59.7295 310.487 60.9564C310.002 62.1693 310.072 63.4417 311.048 64.4828L315.669 69.3461C315.758 69.44 315.788 69.5763 315.745 69.6986C315.702 69.8211 315.594 69.9101 315.466 69.9281C310.758 70.5866 307.853 71.2617 306.126 71.9047C305.262 72.2265 304.714 72.5328 304.385 72.808C304.059 73.0801 303.973 73.2982 303.964 73.4554C303.957 73.5822 303.997 73.735 304.12 73.9301C304.245 74.1278 304.444 74.3503 304.724 74.6058C305.285 75.1188 306.11 75.7107 307.153 76.4584L307.16 76.4633L307.758 76.8744C309.137 77.7914 310.401 78.4101 311.366 78.8138C311.5 78.8702 311.585 79.0044 311.578 79.1498C311.571 79.2953 311.473 79.4215 311.334 79.4642C309.601 79.9944 307.542 80.959 306.708 82.8558C305.929 84.6272 306.564 86.4144 307.345 88.4886C308.108 90.5174 308.991 92.7849 308.377 95.308C307.129 100.421 304.033 103.34 299.946 104.73C295.886 106.111 290.866 105.978 285.735 105.06C276.785 103.458 267.374 99.4437 261.837 96.6644C264.057 98.7286 268.15 102.369 272.853 105.749C276.382 108.286 280.24 110.668 283.897 112.129C287.567 113.596 290.964 114.109 293.615 113.017C293.722 112.973 293.844 112.985 293.939 113.049C294.035 113.113 294.093 113.221 294.093 113.336C294.093 117.159 295.806 120.297 298.524 122.903C301.249 125.515 304.974 127.581 308.952 129.241C312.927 130.899 317.136 132.142 320.814 133.12C324.441 134.083 327.589 134.796 329.438 135.384C348.823 135.452 362.585 148.348 370.469 168.708C377.974 188.098 378.173 204.558 377.062 221.146C375.952 237.736 373.539 254.41 375.775 274.337C376.312 277.385 377.869 280.24 380.004 283.267C382.15 286.311 384.824 289.455 387.612 293.157C393.166 300.528 399.001 309.898 401.173 324.108C404.17 343.722 402.801 358.842 400.285 372.295C399.028 379.016 397.484 385.326 396.06 391.559C394.67 397.64 393.393 403.654 392.596 409.936L393.625 409.717L393.681 409.709C393.81 409.703 393.934 409.772 393.999 409.888L415.159 448.043C415.835 448.958 417.054 451.047 418.47 453.669C419.903 456.323 421.55 459.546 423.067 462.703C424.584 465.86 425.973 468.958 426.886 471.362C427.341 472.562 427.683 473.601 427.86 474.392C427.949 474.786 428 475.134 428 475.418C428 475.679 427.956 475.987 427.744 476.183L427.743 476.184C427.578 476.335 427.305 476.498 426.923 476.526C426.541 476.553 426.086 476.442 425.562 476.11C424.871 475.672 424.11 474.881 423.312 473.878C422.509 472.869 421.648 471.617 420.759 470.229C418.982 467.453 417.079 464.107 415.299 461.022C413.514 457.927 411.857 455.103 410.562 453.344C409.904 452.451 409.376 451.887 409.001 451.673C408.817 451.568 408.747 451.59 408.734 451.596C408.714 451.605 408.631 451.659 408.554 451.914C408.505 452.082 408.463 452.382 408.458 452.714C408.454 452.966 408.473 453.211 408.515 453.411L408.564 453.594L408.568 453.605C410.24 458.894 410.718 461.348 412.658 468.679C414.577 475.933 414.852 477.769 414.947 479.891C415.328 488.618 410.986 496.244 408.905 499.623L408.521 500.242C407.915 501.215 407.268 502.178 406.548 502.898C405.873 503.573 405.098 504.069 404.199 504.129L404.018 504.136C403.219 504.137 402.259 503.789 401.685 503.092L401.575 502.948C401.163 502.36 401.113 501.696 401.264 501.001C401.412 500.318 401.762 499.573 402.188 498.782C403.056 497.172 404.265 495.319 405.114 493.092C406.491 489.479 406.563 485.783 406.241 482.983C406.081 481.584 405.823 480.416 405.584 479.603C405.553 479.497 405.518 479.399 405.488 479.306C405.439 479.896 405.389 480.795 405.348 482.135C405.347 482.146 405.346 482.156 405.345 482.166C404.556 488.55 402.526 493.249 400.931 496.21L400.93 496.209C400.395 497.203 398.853 500.067 396.912 502.583C395.942 503.84 394.86 505.028 393.742 505.851C392.63 506.67 391.427 507.168 390.238 506.938H390.235C390.035 506.897 388.873 506.655 388.253 505.671C387.751 504.869 387.847 503.963 388.24 503.017C388.631 502.076 389.345 501.021 390.194 499.858C391.908 497.51 394.227 494.643 395.948 491.073L396.311 490.291C398.049 486.39 398.696 482.56 398.859 479.64C398.947 478.083 398.896 476.789 398.802 475.886C398.796 475.83 398.788 475.776 398.782 475.723C398.705 476.065 398.612 476.473 398.499 476.931C398.159 478.313 397.632 480.206 396.769 482.43L396.377 483.404C395.995 484.32 395.033 486.546 393.049 489.839L392.639 490.512C391.087 493.024 388.77 496.776 386.327 499.779C385.107 501.279 383.842 502.61 382.612 503.506C381.394 504.394 380.14 504.907 378.972 504.628C378.338 504.478 377.764 504.098 377.33 503.628C376.897 503.159 376.581 502.575 376.492 501.987L376.471 501.791C376.403 500.821 376.935 499.928 377.511 499.244C378.133 498.503 378.877 497.924 379.205 497.655C382.388 495.053 384.947 490.391 386.576 486.259C387.388 484.2 387.963 482.29 388.265 480.862C388.416 480.146 388.496 479.563 388.508 479.147C388.512 478.995 388.504 478.875 388.492 478.783C388.477 478.795 388.461 478.808 388.444 478.823C388.231 479.012 387.921 479.338 387.472 479.837C386.583 480.824 385.172 482.455 382.98 484.854C382.941 484.897 382.891 484.93 382.835 484.949C382.828 484.952 382.813 484.958 382.79 484.968C382.743 484.99 382.663 485.03 382.541 485.098C382.297 485.234 381.889 485.482 381.253 485.922C379.98 486.803 377.8 488.446 374.193 491.488C374.07 491.592 373.892 491.596 373.763 491.499C373.634 491.402 373.589 491.229 373.655 491.081L378.736 479.765L378.771 479.705C378.784 479.687 378.799 479.67 378.815 479.655C378.825 479.645 378.834 479.635 378.844 479.626C378.809 479.625 378.764 479.622 378.717 479.605C378.637 479.576 378.547 479.513 378.498 479.402C378.454 479.302 378.464 479.209 378.476 479.157C378.497 479.06 378.551 478.976 378.59 478.921C378.635 478.857 378.695 478.783 378.769 478.702C379.697 477.666 380.402 476.099 380.927 474.022C381.451 471.949 381.788 469.399 382.004 466.428C382.436 460.488 382.379 452.918 382.379 444.196L380.832 412.749C380.826 412.631 380.881 412.524 380.971 412.456C379.961 406.668 378.805 398.154 377.751 390.655C377.214 386.838 376.703 383.283 376.25 380.478C376.023 379.076 375.811 377.864 375.618 376.902C375.424 375.933 375.252 375.238 375.109 374.857C362.185 340.42 345.801 312.832 345.707 312.674C345.691 312.647 345.678 312.616 345.67 312.585C342.48 300.435 341.58 292.471 340.793 284.455C340.007 276.448 339.334 268.395 336.604 256.034C336.592 255.976 336.593 255.915 336.61 255.859C337.542 252.762 338.454 249.229 339.434 245.523C340.412 241.819 341.456 237.946 342.648 234.181C345.029 226.664 348.016 219.524 352.298 215.011C354.029 213.187 355.706 210.645 356.568 208.07C357.433 205.488 357.459 202.947 356.02 201.037C345.895 187.608 336.083 181.246 327.56 175.143C332.111 182.091 333.59 190.433 333.521 199.487C333.445 209.284 331.558 219.96 329.759 230.662C329.744 230.748 329.698 230.825 329.63 230.878C326.705 233.154 323.864 236.053 320.782 239.182C317.706 242.305 314.397 245.651 310.559 248.79C302.993 254.978 293.367 260.364 279.34 261.765C292.434 276.377 306.689 281.951 317.136 286.942C322.404 289.459 326.754 291.849 329.437 295.216C332.121 298.587 333.102 302.889 331.8 309.14C332.759 310.433 340.992 321.582 349.262 334.801C353.653 341.82 358.059 349.429 361.394 356.459C364.712 363.456 366.992 369.927 367.107 374.685C378.253 419.304 370.073 465.581 364.147 503.631C362.364 515.087 355.204 526.306 348.055 537.396C340.908 548.481 333.774 559.437 331.794 570.493C333.186 572.959 334.583 576.17 335.325 579.612C336.078 583.104 336.161 586.857 334.853 590.312C332.291 597.077 324.494 602.496 306.689 602.786C315.348 606.591 324.838 605.353 332.4 604.705C334.383 604.536 336.237 604.407 337.899 604.427C339.56 604.447 341.052 604.614 342.304 605.048C343.563 605.485 344.587 606.195 345.29 607.296C345.985 608.384 346.345 609.821 346.35 611.68C350.058 628.892 354.804 636.781 352.791 654.589L352.79 654.588C351.209 671.749 346.855 686.068 343.185 702.946C339.203 721.271 334.616 740.896 331.772 759.445C331.612 760.49 331.657 761.903 331.854 763.571C332.051 765.233 332.396 767.128 332.823 769.128C333.668 773.085 334.829 777.43 335.787 781.193L343.638 786.23L350.634 789.898L350.646 789.904L359.129 794.785L359.206 794.845L361.914 797.668C362.992 798.785 363.989 799.9 364.947 800.954C365.908 802.011 366.831 803.008 367.77 803.9C369.528 805.571 371.323 806.856 373.483 807.466L373.921 807.578L374.355 807.675C376.484 808.123 377.961 808.04 378.906 807.846C379.411 807.742 379.766 807.606 379.99 807.5C380.102 807.448 380.181 807.402 380.23 807.371C380.255 807.356 380.273 807.345 380.282 807.338L380.291 807.331L380.368 807.287ZM176.59 -49.9996C173.61 -52.6392 166.848 -58.1681 158.58 -57.194C149.372 -56.1086 141.158 -47.2549 138.065 -34.6705C138.04 -34.569 137.971 -34.4835 137.876 -34.4391C137.181 -34.1135 136.565 -33.996 135.998 -34.0426C135.431 -34.0891 134.942 -34.2976 134.498 -34.5778C134.059 -34.8547 133.652 -35.2107 133.256 -35.5602C132.954 -35.8268 132.656 -36.0917 132.341 -36.3356L132.02 -36.5719C124.24 -41.9788 114.777 -44.3221 106.202 -43.5026C97.6285 -42.683 89.9734 -38.7072 85.7461 -31.5104L85.7451 -31.5094C84.262 -28.9981 83.4692 -26.3487 84.1982 -24.0387L84.1992 -24.0358C85.0135 -21.3913 87.4824 -19.3033 90.6367 -17.9147C93.7814 -16.5303 97.5412 -15.8728 100.82 -16.0436L101.155 -16.068C102.823 -16.2196 104.382 -16.7426 106.057 -17.1715C107.825 -17.6244 109.682 -17.9578 111.77 -17.525C111.899 -17.4982 112.002 -17.3993 112.035 -17.2711C112.068 -17.1429 112.025 -17.0071 111.924 -16.9215L103.717 -9.95568C98.1191 -5.17541 93.7204 1.37913 92.1377 7.93689C90.6077 14.2767 91.709 20.5988 96.8799 25.3744L97.3935 25.8314L97.3945 25.8324C103.301 30.9332 110.738 32.5817 118.432 33.9008C123.89 34.814 128.672 34.2466 134.286 33.7679C147.698 32.551 160.178 28.3592 171.949 21.8978L171.956 21.8939C172.441 21.6431 173.132 21.6459 173.689 21.7494C173.977 21.8028 174.255 21.8879 174.484 21.9994C174.696 22.1024 174.933 22.2611 175.038 22.4994C175.135 22.7195 175.112 22.9698 175.059 23.1927C175.003 23.4255 174.898 23.6912 174.763 23.9799C174.492 24.5577 174.068 25.2904 173.565 26.1478C172.555 27.8728 171.196 30.1498 169.968 32.8705C167.512 38.3109 165.599 45.4903 168.087 53.4603L168.294 54.0726C170.543 60.2921 176.349 63.0921 182.776 62.5082L183.731 62.4008C193.564 61.1482 202.118 55.5417 208.533 47.8246C208.581 47.7672 208.646 47.7268 208.719 47.7094C210.22 47.3486 211.658 48.6855 211.226 50.1576L211.225 50.1566C208.249 60.5182 208.566 71.6092 214.845 80.1654C217.496 83.7898 221.517 86.6442 225.402 87.7552C229.285 88.8655 232.946 88.2231 235.055 85.0033L235.098 84.9496C235.209 84.8368 235.387 84.8122 235.526 84.8988C241.548 88.632 246.178 98.2762 239.964 110.221C237.334 115.277 232.777 119.192 226.045 123.125C219.316 127.056 210.367 131.029 198.915 136.176C198.879 136.192 198.84 136.202 198.801 136.205C181.454 137.583 168.951 149.886 161.566 168.958C154.113 188.213 153.91 204.557 155.018 221.1C156.124 237.636 158.548 254.415 156.3 274.429C156.299 274.436 156.298 274.444 156.297 274.451C155.735 277.651 154.108 280.608 151.951 283.666C149.805 286.71 147.076 289.927 144.33 293.573C138.814 300.894 133.049 310.158 130.901 324.212C127.558 346.089 127.606 362.975 128.478 378.257C129.349 393.527 131.05 407.256 131.007 422.735C131.007 422.793 130.991 422.851 130.963 422.902L116.827 448.394C116.82 448.407 116.811 448.421 116.802 448.433C116.165 449.288 114.961 451.346 113.528 453.999C112.101 456.644 110.458 459.856 108.945 463.004C107.432 466.154 106.053 469.232 105.15 471.609C104.698 472.799 104.371 473.802 104.204 474.545C104.12 474.918 104.081 475.209 104.081 475.418C104.081 475.651 104.13 475.69 104.113 475.674C104.183 475.738 104.314 475.821 104.516 475.835C104.718 475.849 105.027 475.797 105.458 475.525L105.684 475.37C106.223 474.969 106.846 474.314 107.535 473.448C108.317 472.464 109.165 471.235 110.048 469.856C111.814 467.097 113.706 463.769 115.49 460.676C117.269 457.592 118.947 454.731 120.271 452.934C120.923 452.048 121.527 451.367 122.045 451.072C122.307 450.922 122.624 450.828 122.931 450.961C123.192 451.075 123.354 451.315 123.457 451.592L123.498 451.713L123.499 451.716C123.572 451.964 123.619 452.333 123.624 452.704C123.629 453.074 123.595 453.491 123.479 453.824C121.816 459.085 121.347 461.502 119.4 468.857C117.482 476.108 117.225 477.881 117.134 479.922C116.738 488.995 121.589 496.886 123.455 499.875C124.06 500.846 124.672 501.748 125.331 502.408C125.99 503.067 126.657 503.443 127.372 503.444C128.054 503.444 128.852 503.117 129.248 502.551C129.516 502.168 129.574 501.718 129.45 501.149C129.324 500.567 129.016 499.896 128.593 499.111C127.76 497.566 126.499 495.622 125.629 493.338C124.201 489.589 124.131 485.772 124.461 482.901C124.626 481.464 124.892 480.257 125.143 479.406C125.267 478.981 125.39 478.638 125.497 478.397C125.55 478.278 125.604 478.172 125.657 478.091C125.683 478.052 125.719 478.005 125.763 477.964C125.794 477.935 125.896 477.846 126.051 477.851L126.063 477.852C126.267 477.867 126.361 478.027 126.385 478.071C126.421 478.136 126.444 478.21 126.462 478.28C126.499 478.424 126.532 478.635 126.562 478.93C126.624 479.522 126.683 480.505 126.732 482.089C127.461 487.972 129.259 492.394 130.771 495.317L131.069 495.881L131.646 496.935C132.388 498.263 133.598 500.311 135.025 502.161C135.978 503.396 137.014 504.525 138.058 505.293C139.107 506.066 140.109 506.434 141.019 506.258C141.219 506.218 142.1 506.015 142.55 505.302L142.607 505.203C142.877 504.693 142.841 504.08 142.51 503.283C142.154 502.427 141.488 501.434 140.636 500.267C138.946 497.953 136.574 495.018 134.817 491.374C132.756 487.106 132.017 482.862 131.839 479.679C131.75 478.087 131.801 476.756 131.898 475.815C131.947 475.345 132.009 474.966 132.072 474.697C132.103 474.564 132.137 474.446 132.176 474.355C132.194 474.31 132.221 474.257 132.257 474.208C132.281 474.175 132.367 474.064 132.524 474.041L132.532 474.04C132.656 474.026 132.753 474.075 132.81 474.12C132.862 474.161 132.895 474.208 132.914 474.238C132.952 474.299 132.979 474.37 133 474.43C133.043 474.556 133.088 474.732 133.138 474.942C133.24 475.376 133.369 475.978 133.562 476.764C133.946 478.321 134.569 480.532 135.652 483.137L135.833 483.563C136.295 484.633 137.232 486.658 138.934 489.482L139.34 490.148L140.635 492.231C142.049 494.477 143.792 497.12 145.6 499.342C146.805 500.824 148.027 502.102 149.186 502.947C150.356 503.799 151.392 504.161 152.258 503.954L152.436 503.904C152.847 503.767 153.237 503.5 153.552 503.16C153.912 502.77 154.15 502.308 154.214 501.884C154.327 501.146 153.931 500.381 153.35 499.689C152.92 499.178 152.426 498.749 152.061 498.448L151.745 498.191C148.423 495.475 145.811 490.677 144.169 486.514C143.346 484.426 142.759 482.479 142.447 481.005C142.292 480.271 142.203 479.642 142.189 479.166C142.183 478.93 142.194 478.715 142.233 478.538C142.269 478.378 142.346 478.164 142.541 478.046C142.733 477.931 142.93 477.992 143.043 478.046C143.161 478.103 143.283 478.196 143.404 478.304C143.652 478.523 143.986 478.878 144.432 479.373C145.109 480.126 146.061 481.219 147.42 482.732L148.92 484.387L148.923 484.39C148.925 484.392 148.928 484.396 148.932 484.4C148.939 484.408 148.951 484.421 148.967 484.438C148.998 484.472 149.045 484.523 149.108 484.59C149.234 484.725 149.423 484.924 149.672 485.183C150.17 485.7 150.91 486.455 151.875 487.399C153.674 489.158 156.258 491.576 159.518 494.357L157.892 484.792C155.438 482.489 153.209 480.393 152.106 479.163C151.036 477.969 150.681 476.235 150.702 474.116C150.724 471.99 151.126 469.401 151.646 466.435C152.686 460.489 154.208 452.955 154.21 444.276L152.912 414.091L152.479 413.987C152.31 413.946 152.198 413.786 152.216 413.614C152.652 409.49 152.626 403.988 152.827 398.572C153.027 393.186 153.451 387.882 154.812 384.254C167.474 350.518 189.723 321.187 190.854 319.708C194.002 307.671 193.46 297.953 192.801 288.126C192.14 278.281 191.363 268.322 194.11 255.884L194.128 255.827C194.136 255.808 194.145 255.79 194.156 255.773C201.348 244.429 206.894 232.645 209.223 219.344C211.551 206.046 210.667 191.212 204.969 173.764C204.916 173.604 204.987 173.429 205.136 173.35C205.285 173.271 205.47 173.312 205.572 173.446C206.633 174.832 207.997 177.172 209.583 179.912C211.175 182.663 213.003 185.837 215.007 188.92C217.011 192.005 219.184 194.989 221.46 197.361C223.741 199.737 226.097 201.469 228.464 202.1C228.615 202.14 228.721 202.278 228.721 202.435C228.721 203.875 227.995 204.949 226.956 205.733C225.926 206.509 224.573 207.015 223.248 207.349C221.067 207.899 218.884 207.997 218.15 208.016C217.66 209.645 214.753 219.289 211.537 229.584C209.778 235.216 207.926 241.045 206.327 245.863C204.75 250.615 203.411 254.408 202.649 256.049C201.158 270.465 200.514 276.066 200.931 281.897C201.349 287.749 202.834 293.816 205.638 309.204C205.655 309.298 205.633 309.394 205.577 309.47L205.297 309.266C205.576 309.47 205.576 309.471 205.576 309.471L205.575 309.473C205.574 309.475 205.572 309.477 205.569 309.481L205.452 309.642C205.37 309.755 205.248 309.924 205.088 310.145C204.768 310.587 204.299 311.237 203.702 312.072C202.509 313.741 200.803 316.147 198.755 319.092C194.658 324.984 189.192 333.034 183.714 341.668C178.235 350.304 172.748 359.52 168.606 367.743C166.536 371.854 164.804 375.712 163.578 379.121C162.35 382.537 161.639 385.479 161.59 387.767C160.758 426.273 162.002 465.474 167.928 503.525C170.524 520.196 176.769 536.375 181.479 552.717C186.183 569.033 189.339 585.47 185.67 602.525C181.996 619.597 177.433 636.307 179.197 653.684L179.286 654.512L179.287 654.519C180.862 671.626 185.195 685.854 188.881 702.798C192.859 721.107 197.453 740.764 200.301 759.34C200.475 760.479 200.421 761.965 200.222 763.652C200.021 765.344 199.672 767.262 199.242 769.273C198.383 773.293 197.199 777.717 196.237 781.496C196.216 781.581 196.163 781.655 196.089 781.703L188.11 786.823C188.102 786.828 188.093 786.834 188.084 786.838L181.078 790.511L172.647 795.359L169.975 798.148C168.906 799.255 167.918 800.36 166.954 801.42C165.993 802.478 165.055 803.49 164.097 804.401C162.179 806.223 160.156 807.659 157.628 808.252C155.18 808.828 153.463 808.754 152.344 808.524C151.784 808.409 151.377 808.255 151.104 808.126C150.967 808.062 150.865 808.004 150.794 807.96C150.78 807.952 150.768 807.943 150.757 807.936C150.131 807.85 149.574 807.759 149.083 807.68C148.566 807.597 148.127 807.53 147.742 807.498C146.97 807.434 146.492 807.518 146.119 807.822C145.749 808.123 145.466 808.657 145.368 809.257C145.27 809.855 145.364 810.467 145.676 810.924C146.035 811.45 146.678 811.769 147.54 811.957C148.399 812.145 149.408 812.191 150.427 812.225C151.428 812.258 152.451 812.281 153.276 812.436C154.082 812.587 154.841 812.889 155.147 813.599C155.15 813.604 155.153 813.609 155.155 813.615C155.187 813.693 155.413 814.225 155.183 814.763L155.182 814.766C154.898 815.412 154.17 815.6 153.451 815.658C152.704 815.718 151.756 815.651 150.803 815.61C149.832 815.568 148.831 815.549 147.912 815.691C146.995 815.832 146.192 816.128 145.594 816.688C145.017 817.227 144.652 817.993 144.524 818.713C144.394 819.456 144.53 820.041 144.804 820.309L144.868 820.365C145.031 820.487 145.271 820.547 145.694 820.535C146.183 820.52 146.822 820.414 147.715 820.282C150.187 819.917 151.908 819.606 153.061 819.479C153.638 819.415 154.108 819.393 154.479 819.441C154.857 819.489 155.178 819.615 155.401 819.885C155.665 820.204 155.708 820.621 155.663 820.985C155.629 821.262 155.539 821.541 155.418 821.787L155.287 822.022C154.896 822.636 154.295 822.939 153.635 823.099C152.985 823.257 152.23 823.287 151.491 823.326C149.971 823.406 148.469 823.527 147.381 824.594L147.375 824.601C147.278 824.697 147.006 824.968 146.784 825.343C146.561 825.721 146.41 826.167 146.497 826.628C146.566 826.995 146.788 827.377 147.115 827.703C147.442 828.029 147.856 828.278 148.279 828.395C148.852 828.552 149.379 828.445 149.929 828.169C150.493 827.886 151.05 827.442 151.679 826.948C152.907 825.982 154.37 824.854 156.386 824.972C157.335 825.028 158.303 825.354 159.034 825.788C159.4 826.006 159.721 826.258 159.952 826.531C160.151 826.765 160.306 827.042 160.334 827.34L160.338 827.469C160.307 828.466 159.861 829.174 159.209 829.693C158.574 830.198 157.741 830.525 156.921 830.799C156.077 831.081 155.261 831.303 154.551 831.603C153.932 831.864 153.467 832.159 153.191 832.536L153.084 832.703V832.705C153.084 832.705 153.082 832.708 153.081 832.709C153.079 832.713 153.077 832.719 153.074 832.726C153.068 832.74 153.06 832.759 153.052 832.783C153.035 832.829 153.014 832.89 152.994 832.962C152.954 833.108 152.916 833.296 152.9 833.505C152.868 833.928 152.929 834.406 153.208 834.81C153.47 835.188 153.921 835.495 154.463 835.678C155.003 835.861 155.601 835.911 156.123 835.807L156.307 835.763C157.194 835.516 157.613 834.824 158.189 833.828C158.793 832.786 159.529 831.502 161.185 830.527C161.188 830.525 161.19 830.523 161.193 830.521C161.465 830.362 162.133 829.97 162.966 829.711C163.794 829.454 164.83 829.316 165.815 829.717L166.005 829.801C166.939 830.25 167.632 831.118 168.04 832.093C168.476 833.134 168.605 834.343 168.331 835.395C168.098 836.292 167.613 836.899 166.683 837.633C165.771 838.352 164.372 839.237 162.274 840.661C160.103 842.136 158.393 843.365 157.366 844.118L157.36 844.121C155.986 845.087 154.713 847.048 154.234 849.068C153.756 851.086 154.089 853.04 155.738 854.142L155.739 854.143C159.267 856.505 163.251 856.176 166.724 854.582C170.813 852.709 172.85 849.173 174.299 845.691C174.661 844.821 174.984 843.958 175.295 843.126C175.605 842.297 175.903 841.496 176.209 840.76C176.816 839.301 177.483 838.033 178.417 837.272C179.819 836.12 181.657 835.77 183.637 835.574C185.647 835.374 187.805 835.332 190.02 834.853C192.214 834.378 194.427 833.48 196.48 831.585C198.537 829.688 200.457 826.771 202.028 822.227L203.985 816.517L203.986 816.516C205.537 812.045 207.669 807.619 211.721 804.433C211.732 804.424 211.745 804.415 211.758 804.408L215.969 801.898L215.998 801.882L225.104 797.563L229.666 795.091L229.667 795.09C235.34 792.028 239.929 786.756 240.172 780.502C240.191 780.028 240.096 779.747 239.963 779.583C239.835 779.427 239.626 779.32 239.282 779.297C238.565 779.249 237.457 779.575 236.028 780.202C233.194 781.444 229.375 783.735 225.467 785.894C225.419 785.92 225.367 785.935 225.312 785.937C225.077 785.945 224.835 785.952 224.587 785.952C224.434 785.951 224.3 785.851 224.256 785.704C224.212 785.558 224.27 785.4 224.397 785.316C227.686 783.156 228.657 779.472 228.295 775.574C227.933 771.674 226.239 767.637 224.305 764.916C224.294 764.901 224.285 764.885 224.277 764.869C219.95 756.128 222.016 749.546 225.091 739.423C228.166 729.299 232.299 715.511 232.299 692.212C232.299 692.083 232.372 691.963 232.487 691.904C232.603 691.845 232.741 691.855 232.847 691.93C234.661 693.23 236.277 693.721 237.719 693.619C239.16 693.516 240.48 692.82 241.696 691.639C244.143 689.263 246.088 685.003 247.615 680.109C250.662 670.342 251.971 658.295 252.417 654.51C253.525 645.113 249.51 636.928 245.386 628.642C241.538 620.912 237.594 613.091 237.883 604.234C236.755 606.039 234.888 607.498 232.619 608.581C229.681 609.985 226.028 610.783 222.304 610.9C214.887 611.131 207.007 608.653 203.966 602.608C203.905 602.487 203.92 602.34 204.005 602.235C204.09 602.129 204.23 602.083 204.361 602.117C213.752 604.53 220.365 602.088 224.817 598.547C229.286 594.992 231.597 590.313 232.318 588.255C234.107 583.153 238.875 580.935 243.236 578.874C245.439 577.833 247.54 576.835 249.196 575.536C250.84 574.247 252.026 572.676 252.419 570.492C254.357 559.437 260.352 489.869 263.807 449.39C263.821 449.224 263.953 449.092 264.119 449.076C267.154 448.785 277.366 447.763 288.31 446.185C299.271 444.604 310.911 442.472 316.834 439.973C316.986 439.909 317.163 439.961 317.256 440.098C317.337 440.218 317.334 440.374 317.253 440.49L317.214 440.536L317.21 440.54C317.207 440.543 317.203 440.546 317.198 440.551C317.188 440.561 317.174 440.576 317.154 440.595C317.116 440.633 317.059 440.689 316.983 440.762C316.832 440.908 316.608 441.123 316.315 441.396C315.73 441.942 314.869 442.725 313.765 443.674C311.556 445.572 308.372 448.134 304.47 450.792C296.743 456.055 286.171 461.711 274.754 463.321C275.412 471.089 275.824 493.966 276.385 516.803C276.67 528.393 276.994 539.978 277.408 549.588C277.823 559.207 278.327 566.823 278.971 570.492C281.443 584.231 282.288 593.034 282.26 599.343C282.231 605.662 281.325 609.473 280.31 613.22C279.298 616.953 278.184 620.606 277.71 626.656C277.235 632.711 277.402 641.177 278.974 654.51L278.975 654.512C280.129 664.847 283.425 676.696 286.594 688.603C289.758 700.492 292.793 712.439 293.39 722.913C293.82 730.529 295.395 737.634 296.794 744.71C298.191 751.777 299.41 758.807 299.102 766.219C299.097 766.328 299.042 766.428 298.952 766.49C294.274 769.711 291.184 774.513 291.207 779.971L291.219 780.501C291.454 786.56 295.766 791.698 301.193 794.797L301.723 795.09L306.273 797.558L315.391 801.882L315.42 801.898L319.633 804.408L319.67 804.433C323.468 807.42 325.579 811.496 327.105 815.678L327.403 816.516L329.361 822.227L329.659 823.06C331.172 827.131 332.98 829.806 334.908 831.585C336.962 833.48 339.176 834.379 341.371 834.853C343.586 835.331 345.743 835.374 347.754 835.574C349.734 835.77 351.572 836.12 352.974 837.272L353.146 837.42C353.991 838.192 354.612 839.392 355.182 840.76C355.488 841.496 355.786 842.297 356.096 843.126C356.406 843.958 356.73 844.821 357.092 845.691C358.541 849.173 360.578 852.709 364.667 854.582C368.14 856.176 372.123 856.505 375.65 854.143C377.3 853.041 377.634 851.086 377.156 849.068C376.678 847.048 375.405 845.087 374.03 844.121L374.024 844.118C372.998 843.366 371.286 842.136 369.114 840.661C367.017 839.237 365.617 838.352 364.706 837.633C363.775 836.899 363.291 836.292 363.058 835.395L363.012 835.196C362.802 834.192 362.94 833.069 363.349 832.093C363.784 831.053 364.544 830.135 365.573 829.717C366.559 829.316 367.595 829.454 368.424 829.711C369.256 829.969 369.923 830.361 370.195 830.521L370.199 830.524C371.859 831.499 372.595 832.785 373.199 833.828C373.814 834.89 374.25 835.607 375.266 835.807C375.788 835.911 376.386 835.861 376.926 835.678C377.468 835.494 377.92 835.188 378.182 834.81C378.461 834.406 378.521 833.928 378.489 833.505C378.474 833.296 378.436 833.108 378.396 832.962C378.377 832.889 378.356 832.828 378.339 832.782C378.33 832.759 378.323 832.74 378.316 832.726C378.313 832.719 378.311 832.713 378.309 832.709L378.306 832.703C378.053 832.243 377.547 831.902 376.84 831.603C376.13 831.303 375.313 831.081 374.47 830.799C373.65 830.525 372.817 830.198 372.182 829.693C371.529 829.174 371.084 828.466 371.053 827.469C371.042 827.121 371.211 826.799 371.438 826.531C371.67 826.258 371.99 826.006 372.355 825.788C373.087 825.354 374.054 825.028 375.004 824.972C377.02 824.854 378.483 825.982 379.711 826.948C380.34 827.442 380.896 827.886 381.46 828.169C382.01 828.446 382.538 828.552 383.11 828.395L383.269 828.345C383.636 828.215 383.988 827.988 384.274 827.703C384.603 827.377 384.823 826.995 384.893 826.628C384.98 826.167 384.83 825.721 384.606 825.343C384.395 824.986 384.138 824.723 384.03 824.616C384.023 824.609 384.016 824.603 384.009 824.596C382.92 823.528 381.418 823.406 379.897 823.326C379.159 823.287 378.404 823.257 377.755 823.099C377.094 822.939 376.494 822.636 376.103 822.022C375.916 821.728 375.772 821.354 375.727 820.985C375.681 820.621 375.725 820.204 375.988 819.885C376.212 819.615 376.532 819.489 376.909 819.441C377.281 819.393 377.751 819.415 378.329 819.479C379.482 819.606 381.201 819.917 383.674 820.282L384.836 820.453C385.168 820.497 385.451 820.527 385.695 820.535C386.178 820.548 386.423 820.468 386.586 820.309L386.682 820.194C386.889 819.892 386.98 819.363 386.865 818.713C386.738 817.992 386.372 817.227 385.795 816.688C385.197 816.128 384.395 815.832 383.478 815.691C382.559 815.549 381.558 815.568 380.587 815.61C379.634 815.651 378.687 815.718 377.939 815.658C377.22 815.6 376.493 815.412 376.209 814.766L376.208 814.763C375.978 814.226 376.201 813.694 376.233 813.615C376.235 813.611 376.237 813.607 376.239 813.603C376.544 812.89 377.306 812.587 378.113 812.436C378.939 812.281 379.96 812.258 380.962 812.225C381.981 812.191 382.99 812.145 383.849 811.957C384.711 811.769 385.355 811.45 385.714 810.924C386.026 810.467 386.119 809.855 386.021 809.257C385.923 808.657 385.641 808.123 385.271 807.822C384.897 807.517 384.418 807.434 383.646 807.498C383.262 807.53 382.823 807.597 382.307 807.68C381.815 807.759 381.258 807.85 380.632 807.936C380.621 807.943 380.609 807.952 380.596 807.96C380.525 808.004 380.422 808.062 380.286 808.126C380.013 808.255 379.605 808.409 379.046 808.524C377.927 808.754 376.21 808.828 373.762 808.252C371.234 807.659 369.21 806.223 367.293 804.402C366.335 803.491 365.397 802.478 364.436 801.42C363.472 800.36 362.484 799.256 361.415 798.149L361.414 798.148L358.739 795.358L350.312 790.511L343.306 786.838C343.297 786.834 343.288 786.828 343.279 786.823L335.299 781.703C335.225 781.655 335.172 781.581 335.15 781.496C334.189 777.717 333.005 773.293 332.146 769.273C331.717 767.262 331.367 765.344 331.167 763.652C330.968 761.965 330.914 760.479 331.089 759.34C333.937 740.764 338.53 721.107 342.508 702.798C346.193 685.854 350.527 671.626 352.102 654.519L352.103 654.512C354.1 636.842 349.409 629.185 345.666 611.793C345.661 611.769 345.658 611.745 345.658 611.72C345.658 609.925 345.314 608.619 344.707 607.669C344.104 606.725 343.221 606.099 342.077 605.703C340.926 605.303 339.519 605.139 337.892 605.12C336.266 605.1 334.441 605.225 332.46 605.395C324.565 606.07 314.245 607.449 305.019 602.761C304.876 602.689 304.802 602.527 304.839 602.371C304.876 602.216 305.016 602.106 305.176 602.106C323.967 602.106 331.729 596.604 334.205 590.067C335.451 586.776 335.384 583.168 334.648 579.757C333.913 576.348 332.516 573.159 331.13 570.724C331.09 570.654 331.076 570.572 331.09 570.493C333.069 559.23 340.325 548.108 347.473 537.021C354.643 525.898 361.706 514.808 363.463 503.525C369.396 465.429 377.545 419.286 366.428 374.819C366.422 374.794 366.419 374.768 366.418 374.743C366.319 370.14 364.093 363.766 360.768 356.756C357.449 349.76 353.059 342.176 348.675 335.168C339.924 321.181 331.215 309.512 331.153 309.429C331.094 309.349 331.071 309.247 331.092 309.15C332.411 302.962 331.44 298.843 328.895 295.648C326.325 292.422 322.118 290.089 316.838 287.567C306.306 282.536 291.699 276.835 278.37 261.718C278.284 261.62 278.26 261.482 278.309 261.361C278.357 261.24 278.47 261.156 278.6 261.144C292.83 259.866 302.518 254.473 310.121 248.254C313.927 245.141 317.211 241.821 320.289 238.696C323.325 235.614 326.168 232.713 329.098 230.416C330.893 219.739 332.754 209.171 332.828 199.481C332.903 189.755 331.176 180.961 325.816 173.865C325.713 173.728 325.726 173.536 325.847 173.413C325.967 173.291 326.158 173.276 326.297 173.376C335.165 179.854 345.703 186.204 356.572 200.62C358.21 202.793 358.123 205.608 357.225 208.289C356.324 210.977 354.588 213.604 352.8 215.488C348.635 219.877 345.686 226.882 343.309 234.39C342.122 238.138 341.082 241.997 340.104 245.7C339.135 249.365 338.226 252.88 337.299 255.971C340.023 268.328 340.698 276.399 341.482 284.387C342.267 292.376 343.161 300.289 346.328 312.365C347.067 313.614 363.074 340.818 375.758 374.613C375.923 375.052 376.103 375.798 376.297 376.765C376.493 377.74 376.706 378.962 376.934 380.368C377.388 383.18 377.9 386.741 378.437 390.558C379.51 398.196 380.684 406.856 381.703 412.632C381.729 412.778 381.657 412.917 381.536 412.989L383.07 444.161C383.071 444.167 383.071 444.173 383.071 444.179C383.071 452.893 383.129 460.503 382.694 466.479C382.477 469.468 382.136 472.062 381.598 474.191C381.148 475.971 380.554 477.447 379.764 478.559C379.766 478.558 379.769 478.558 379.771 478.557C379.801 478.55 379.839 478.543 379.881 478.541C379.919 478.54 379.987 478.54 380.061 478.571C380.147 478.606 380.234 478.68 380.273 478.795C380.308 478.895 380.292 478.983 380.279 479.031C380.255 479.122 380.201 479.202 380.161 479.257C380.114 479.321 380.053 479.395 379.978 479.477C379.835 479.633 379.627 479.838 379.341 480.108L374.901 489.993C377.841 487.55 379.705 486.151 380.859 485.353C381.509 484.904 381.935 484.643 382.204 484.494C382.339 484.418 382.435 484.37 382.5 484.34C382.507 484.337 382.513 484.334 382.52 484.331C384.684 481.961 386.062 480.369 386.958 479.373C387.404 478.878 387.738 478.523 387.985 478.304C388.107 478.197 388.228 478.103 388.346 478.046C388.444 477.999 388.607 477.946 388.775 478.011L388.848 478.046L388.915 478.095C389.061 478.217 389.124 478.397 389.155 478.537C389.195 478.714 389.207 478.929 389.2 479.165C389.187 479.641 389.097 480.27 388.941 481.005C388.63 482.479 388.044 484.425 387.221 486.513C385.579 490.676 382.966 495.474 379.644 498.19C379.299 498.472 378.612 499.008 378.04 499.689C377.495 500.337 377.114 501.049 377.161 501.744L377.177 501.882C377.24 502.306 377.478 502.769 377.838 503.159C378.197 503.547 378.657 503.841 379.133 503.954C379.998 504.161 381.034 503.799 382.204 502.947C383.363 502.102 384.584 500.824 385.79 499.342C388.2 496.38 390.494 492.667 392.05 490.148C394.29 486.522 395.342 484.089 395.738 483.137C396.821 480.533 397.444 478.323 397.827 476.766C398.02 475.981 398.148 475.378 398.251 474.944C398.301 474.734 398.346 474.557 398.389 474.431C398.409 474.371 398.437 474.3 398.475 474.24C398.493 474.21 398.526 474.163 398.578 474.121C398.634 474.077 398.729 474.027 398.853 474.039L398.864 474.041C399.022 474.063 399.108 474.175 399.133 474.208C399.169 474.257 399.194 474.31 399.213 474.355C399.251 474.447 399.286 474.564 399.317 474.697C399.381 474.966 399.441 475.345 399.49 475.815C399.588 476.756 399.639 478.087 399.55 479.678C399.383 482.662 398.723 486.578 396.942 490.574L396.571 491.373C394.815 495.017 392.444 497.951 390.754 500.266C389.901 501.434 389.234 502.427 388.879 503.283C388.526 504.133 388.509 504.773 388.84 505.302C389.288 506.013 390.166 506.217 390.369 506.258C391.278 506.435 392.282 506.066 393.332 505.293C394.376 504.525 395.412 503.395 396.364 502.161C398.267 499.694 399.787 496.874 400.321 495.881C401.885 492.979 403.877 488.369 404.655 482.1C404.705 480.507 404.765 479.52 404.827 478.927C404.858 478.633 404.891 478.421 404.928 478.277C404.945 478.208 404.97 478.133 405.006 478.068C405.03 478.024 405.128 477.862 405.334 477.851H405.345L405.449 477.864C405.543 477.889 405.606 477.943 405.629 477.965C405.673 478.006 405.707 478.053 405.733 478.092C405.787 478.173 405.841 478.279 405.894 478.398C406.001 478.64 406.123 478.983 406.248 479.408C406.498 480.26 406.765 481.467 406.93 482.904C407.259 485.775 407.189 489.591 405.761 493.338C404.89 495.622 403.63 497.566 402.798 499.111C402.375 499.896 402.067 500.567 401.94 501.149C401.817 501.718 401.873 502.167 402.142 502.55L402.143 502.551C402.538 503.117 403.335 503.444 404.017 503.444C404.731 503.443 405.399 503.067 406.058 502.408C406.717 501.748 407.329 500.846 407.934 499.875C409.8 496.886 414.651 488.996 414.256 479.922L414.211 479.158C414.074 477.352 413.668 475.201 411.989 468.857C410.042 461.497 409.573 459.081 407.907 453.813C407.794 453.482 407.76 453.07 407.766 452.704C407.771 452.333 407.818 451.964 407.891 451.716V451.713C407.99 451.386 408.16 451.091 408.459 450.961C408.766 450.828 409.082 450.922 409.345 451.072C409.862 451.367 410.467 452.049 411.119 452.934C412.443 454.731 414.119 457.592 415.898 460.676C417.683 463.769 419.576 467.097 421.342 469.856C422.225 471.234 423.071 472.464 423.854 473.448C424.641 474.438 425.343 475.152 425.932 475.525L426.087 475.617C426.437 475.809 426.696 475.848 426.873 475.835C427.074 475.821 427.204 475.738 427.274 475.674C427.258 475.689 427.307 475.649 427.308 475.417C427.308 475.208 427.268 474.916 427.185 474.543C427.018 473.8 426.69 472.798 426.238 471.608C425.336 469.231 423.956 466.153 422.443 463.003C420.931 459.855 419.288 456.642 417.86 453.998C416.428 451.346 415.225 449.288 414.588 448.433C414.579 448.421 414.57 448.407 414.562 448.394L393.519 410.447L392.263 410.715C392.153 410.739 392.04 410.708 391.957 410.632C391.875 410.557 391.833 410.445 391.847 410.334C392.643 403.841 393.958 397.646 395.385 391.405C396.812 385.159 398.351 378.871 399.604 372.168C402.11 358.773 403.471 343.733 400.488 324.212C398.341 310.158 392.576 300.894 387.06 293.573C384.313 289.927 381.584 286.71 379.438 283.666C377.281 280.608 375.655 277.651 375.093 274.451C375.092 274.444 375.09 274.436 375.089 274.429C372.841 254.415 375.264 237.636 376.371 221.1C377.478 204.557 377.277 188.213 369.823 168.958C361.993 148.736 348.409 136.12 329.385 136.077C329.349 136.076 329.314 136.071 329.28 136.06C327.458 135.475 324.345 134.773 320.637 133.788C316.947 132.808 312.704 131.555 308.686 129.879C304.671 128.204 300.858 126.099 298.046 123.403C295.342 120.811 293.552 117.662 293.41 113.83C290.588 114.786 287.163 114.18 283.641 112.772C279.909 111.281 275.998 108.864 272.448 106.312C265.347 101.208 259.63 95.5211 259.58 95.4711C259.458 95.3496 259.444 95.157 259.547 95.0189C259.65 94.8812 259.838 94.8393 259.989 94.9213C264.895 97.5855 275.694 102.559 285.856 104.378C290.941 105.288 295.825 105.401 299.724 104.075C303.596 102.757 306.515 100.016 307.704 95.1439L307.793 94.7181C308.161 92.6026 307.424 90.6661 306.696 88.7318C305.937 86.7142 305.163 84.6493 306.074 82.5775C306.892 80.7192 308.686 79.6885 310.284 79.0892C309.272 78.6146 308.056 77.9498 306.768 77.0326L306.76 77.0287L306.75 77.0219C305.721 76.2841 304.856 75.6639 304.257 75.1166C303.956 74.842 303.707 74.5723 303.535 74.3002C303.362 74.026 303.256 73.7316 303.272 73.4183C303.295 73.0093 303.522 72.6267 303.94 72.2767C304.356 71.9298 304.986 71.5907 305.885 71.2562C307.598 70.6184 310.369 69.9701 314.706 69.3392L310.546 64.9594L310.545 64.9584C309.343 63.6778 309.284 62.1031 309.845 60.6996C310.4 59.3096 311.57 58.0581 312.896 57.3236C315.481 55.8689 317.739 54.805 320.055 52.3939C315.884 51.7482 310.073 50.1543 305.079 45.7152C301.886 42.8752 300.207 39.9227 298.678 36.6859C297.147 33.4464 295.777 29.9496 293.188 25.9252C290.242 21.3511 285.114 15.1527 275.753 9.56873C275.637 9.49954 275.572 9.36903 275.586 9.23474C275.6 9.10065 275.692 8.98699 275.819 8.94373C285.799 5.56364 293.517 0.678371 298.493 -4.43615C303.482 -9.56461 305.66 -14.8611 304.727 -19.0856C304.032 -22.2279 301.598 -24.8745 298.472 -26.8844C295.351 -28.8907 291.589 -30.2298 288.334 -30.777C282.98 -31.6766 276.197 -30.9232 258.225 -19.0895C249.961 -13.6446 238.763 -5.48424 226.516 6.10193C226.386 6.2248 226.183 6.2278 226.049 6.10974C225.915 5.99164 225.893 5.79136 225.998 5.64685C232.086 -2.72095 235.992 -10.2339 238.433 -15.5905L239.61 -18.1871C242.199 -23.9652 243.664 -27.922 243.78 -33.2389L243.791 -33.7975C243.814 -35.3448 243.789 -38.536 243.115 -41.9127C242.342 -45.7865 240.732 -49.8158 237.454 -51.9381C233.506 -54.4916 227.959 -53.7418 222.393 -51.1578C217.019 -48.6632 211.731 -44.5028 208.066 -40.2008L207.717 -39.7838C195.865 -25.4134 199.528 -6.2694 200.207 -2.99182C200.243 -2.81739 200.141 -2.64341 199.971 -2.59045C199.801 -2.5376 199.618 -2.62265 199.549 -2.78674C198.143 -6.12929 195.615 -12.1906 192.456 -19.8209C188.196 -30.1254 185.657 -36.3901 183.529 -40.6696C181.41 -44.933 179.71 -47.2013 177.136 -49.5123L177.135 -49.5133L176.59 -49.9996Z" fill="#101212"/>
<path d="M66.0435 209.078H57.1695V207.8H63.1995V203.228C63.1995 202.388 62.9835 201.752 62.5515 201.32C62.1315 200.876 61.5315 200.654 60.7515 200.654H57.4935V199.376H60.8055C62.1615 199.376 63.1635 199.718 63.8115 200.402C64.4595 201.074 64.7835 202.124 64.7835 203.552V207.8H66.0435V209.078Z" fill="#101212"/>
<path d="M44.6774 199.376H51.1574C52.5134 199.376 53.5154 199.718 54.1634 200.402C54.8114 201.074 55.1354 202.124 55.1354 203.552V209.078H53.5514V203.228C53.5514 202.388 53.3354 201.752 52.9034 201.32C52.4834 200.876 51.8834 200.654 51.1034 200.654H48.2954V206.792C48.2954 208.424 47.4794 209.24 45.8474 209.24C45.3194 209.24 44.8694 209.198 44.4974 209.114V207.926C44.7614 207.974 45.0554 207.998 45.3794 207.998C45.8234 207.998 46.1534 207.908 46.3694 207.728C46.5974 207.548 46.7114 207.218 46.7114 206.738V200.654H44.6774V199.376Z" fill="#101212"/>
<path d="M42.9481 205.298H41.3641V201.338C41.3641 200.882 41.1181 200.654 40.6261 200.654H39.9961V199.376H40.5901C41.4781 199.376 42.0901 199.502 42.4261 199.754C42.7741 199.994 42.9481 200.534 42.9481 201.374V205.298Z" fill="#101212"/>
<path d="M32.1162 203.912V199.358H33.7002V203.894C33.7002 205.418 33.2082 206.696 32.2242 207.728C31.2522 208.748 29.9682 209.258 28.3722 209.258H28.1382C26.6142 209.258 25.3602 208.754 24.3762 207.746C23.4042 206.738 22.9182 205.454 22.9182 203.894V199.358H24.5202V203.912C24.5202 204.104 24.5262 204.242 24.5382 204.326H24.9702C25.7862 204.326 26.4162 204.128 26.8602 203.732C27.3042 203.336 27.5262 202.76 27.5262 202.004V199.358H29.1102V201.932C29.1102 202.928 28.7562 203.732 28.0482 204.344C27.3522 204.956 26.3742 205.262 25.1142 205.262H24.6822C24.8982 206.138 25.3182 206.81 25.9422 207.278C26.5782 207.734 27.3102 207.962 28.1382 207.962H28.3902C29.5062 207.962 30.4062 207.608 31.0902 206.9C31.7742 206.192 32.1162 205.196 32.1162 203.912Z" fill="#101212"/>
<path d="M11.8151 199.376H16.4051C17.7611 199.376 18.7631 199.718 19.4111 200.402C20.0591 201.074 20.3831 202.124 20.3831 203.552V209.078H18.7991V203.228C18.7991 202.388 18.5831 201.752 18.1511 201.32C17.7311 200.876 17.1311 200.654 16.3511 200.654H13.4171V209.078H11.8151V199.376Z" fill="#101212"/>
<path d="M8.952 205.298H7.368V201.338C7.368 200.882 7.122 200.654 6.63 200.654H6V199.376H6.594C7.482 199.376 8.094 199.502 8.43 199.754C8.778 199.994 8.952 200.534 8.952 201.374V205.298Z" fill="#101212"/>
<path d="M311.044 203.943L311.044 204.635L70.0436 204.673L70.0435 203.981L311.044 203.943Z" fill="#101212"/>
<path d="M345.382 169.824C336.145 189.748 330.842 176.423 329.345 167.269C329.345 188.343 322.93 188.982 310.1 169.824C321.647 187.704 320.364 194.09 305.61 191.536C318.44 199.838 312.666 204.308 303.044 206.224C319.081 208.778 315.232 217.718 305.61 225.381C326.779 221.55 329.345 224.743 322.93 238.153C329.345 231.129 338.326 229.852 345.382 241.346C345.382 227.936 347.948 226.659 365.91 235.599C351.156 224.104 356.929 217.718 365.91 217.718C358.854 210.694 357.571 201.753 372.967 196.645C355.646 196.645 353.08 197.283 368.476 178.125C351.156 186.427 346.665 186.427 345.382 169.824Z" fill="#101212"/>
<path d="M106.393 250.443H106.483C107.635 250.443 108.589 250.893 109.345 251.793C110.101 252.681 110.479 253.839 110.479 255.267V255.609C110.479 256.845 110.173 257.889 109.561 258.741C108.961 259.581 108.205 260.109 107.293 260.325C106.273 260.565 105.277 260.541 104.305 260.253V258.957C105.073 259.245 105.895 259.275 106.771 259.047C107.383 258.903 107.887 258.519 108.283 257.895C108.691 257.259 108.895 256.485 108.895 255.573V255.303C108.895 254.235 108.631 253.377 108.103 252.729C107.587 252.069 106.921 251.739 106.105 251.739H106.033C105.241 251.739 104.575 252.009 104.035 252.549C103.495 253.077 103.189 253.701 103.117 254.421L102.469 260.325H100.885L101.569 254.349C101.641 253.797 101.629 253.263 101.533 252.747C101.437 252.231 101.341 251.865 101.245 251.649C101.149 251.421 100.987 251.079 100.759 250.623H102.343C102.367 250.671 102.415 250.779 102.487 250.947C102.559 251.103 102.613 251.223 102.649 251.307C102.685 251.391 102.727 251.511 102.775 251.667C102.835 251.811 102.877 251.961 102.901 252.117C102.937 252.273 102.967 252.441 102.991 252.621C103.291 251.973 103.729 251.451 104.305 251.055C104.893 250.647 105.589 250.443 106.393 250.443Z" fill="#101212"/>
<path d="M88.0145 250.623H94.4945C95.8505 250.623 96.8525 250.965 97.5005 251.649C98.1485 252.321 98.4725 253.371 98.4725 254.799V260.325H96.8885V254.475C96.8885 253.635 96.6725 252.999 96.2405 252.567C95.8205 252.123 95.2205 251.901 94.4405 251.901H91.6325V258.039C91.6325 259.671 90.8165 260.487 89.1845 260.487C88.6565 260.487 88.2065 260.445 87.8345 260.361V259.173C88.0985 259.221 88.3925 259.245 88.7165 259.245C89.1605 259.245 89.4905 259.155 89.7065 258.975C89.9345 258.795 90.0485 258.465 90.0485 257.985V251.901H88.0145V250.623Z" fill="#101212"/>
<path d="M77.0194 250.623H81.6094C82.9654 250.623 83.9674 250.965 84.6154 251.649C85.2634 252.321 85.5874 253.371 85.5874 254.799V260.325H84.0034V254.475C84.0034 253.635 83.7874 252.999 83.3554 252.567C82.9354 252.123 82.3354 251.901 81.5554 251.901H78.6214V260.325H77.0194V250.623Z" fill="#101212"/>
<path d="M63.8973 250.623H70.3773C71.7333 250.623 72.7353 250.965 73.3833 251.649C74.0313 252.321 74.3553 253.371 74.3553 254.799V260.325H72.7713V254.475C72.7713 253.635 72.5553 252.999 72.1233 252.567C71.7033 252.123 71.1033 251.901 70.3233 251.901H67.5153V258.039C67.5153 259.671 66.6993 260.487 65.0673 260.487C64.5393 260.487 64.0893 260.445 63.7173 260.361V259.173C63.9813 259.221 64.2753 259.245 64.5993 259.245C65.0433 259.245 65.3733 259.155 65.5893 258.975C65.8173 258.795 65.9313 258.465 65.9313 257.985V251.901H63.8973V250.623Z" fill="#101212"/>
<path d="M57.7203 250.623V251.919L54.1743 260.325L52.5363 260.307L56.1003 251.901H50.1963V248.265H51.7803V250.623H57.7203Z" fill="#101212"/>
<path d="M46.5548 255.159V250.605H48.1388V255.141C48.1388 256.665 47.6468 257.943 46.6628 258.975C45.6908 259.995 44.4068 260.505 42.8108 260.505H42.5768C41.0528 260.505 39.7988 260.001 38.8148 258.993C37.8428 257.985 37.3568 256.701 37.3568 255.141V250.605H38.9588V255.159C38.9588 255.351 38.9648 255.489 38.9768 255.573H39.4088C40.2248 255.573 40.8548 255.375 41.2988 254.979C41.7428 254.583 41.9648 254.007 41.9648 253.251V250.605H43.5488V253.179C43.5488 254.175 43.1948 254.979 42.4868 255.591C41.7908 256.203 40.8128 256.509 39.5528 256.509H39.1208C39.3368 257.385 39.7568 258.057 40.3808 258.525C41.0168 258.981 41.7488 259.209 42.5768 259.209H42.8288C43.9448 259.209 44.8448 258.855 45.5288 258.147C46.2128 257.439 46.5548 256.443 46.5548 255.159Z" fill="#101212"/>
<path d="M33.5247 260.325H31.9407V254.349C31.9407 253.293 32.1927 252.477 32.6967 251.901H27.1347V250.623H35.1267V251.901H33.8487C33.6327 252.429 33.5247 253.245 33.5247 254.349V260.325Z" fill="#101212"/>
<path d="M25.2188 256.545H23.6348V252.585C23.6348 252.129 23.3888 251.901 22.8968 251.901H22.2668V250.623H22.8608C23.7488 250.623 24.3608 250.749 24.6968 251.001C25.0448 251.241 25.2188 251.781 25.2188 252.621V256.545Z" fill="#101212"/>
<path d="M20.0157 256.545H18.4317V252.585C18.4317 252.129 18.1857 251.901 17.6937 251.901H17.0637V250.623H17.6577C18.5457 250.623 19.1577 250.749 19.4937 251.001C19.8417 251.241 20.0157 251.781 20.0157 252.621V256.545Z" fill="#101212"/>
<path d="M6 250.623H10.752C12.3 250.623 13.356 250.971 13.92 251.667C14.496 252.351 14.784 253.539 14.784 255.231V260.325H6V250.623ZM10.698 251.901H7.584V259.047H13.2V254.907C13.2 253.779 13.026 252.999 12.678 252.567C12.342 252.123 11.682 251.901 10.698 251.901Z" fill="#101212"/>
<path d="M193.479 254.039V254.731H114.479V254.039H193.479Z" fill="#101212"/>
<path d="M227.817 219.901C218.58 239.825 213.277 226.499 211.78 217.346C211.78 238.42 205.365 239.058 192.535 219.901C204.082 237.781 202.799 244.167 188.045 241.613C200.875 249.915 195.101 254.385 185.479 256.301C201.516 258.855 197.667 267.795 188.045 275.458C209.214 271.627 211.78 274.82 205.365 288.23C211.78 281.206 220.761 279.928 227.817 291.423C227.817 278.013 230.383 276.736 248.345 285.676C233.591 274.181 239.364 267.795 248.345 267.795C241.289 260.771 240.006 251.83 255.402 246.722C238.081 246.722 235.515 247.36 250.911 228.202C233.591 236.504 229.1 236.504 227.817 219.901Z" fill="#101212"/>
<path d="M64.9351 429.984H65.0251C66.1771 429.984 67.1311 430.434 67.8871 431.334C68.6431 432.222 69.0211 433.38 69.0211 434.808V435.15C69.0211 436.386 68.7151 437.43 68.1031 438.282C67.5031 439.122 66.7471 439.65 65.8351 439.866C64.8151 440.106 63.8191 440.082 62.8471 439.794V438.498C63.6151 438.786 64.4371 438.816 65.3131 438.588C65.9251 438.444 66.4291 438.06 66.8251 437.436C67.2331 436.8 67.4371 436.026 67.4371 435.114V434.844C67.4371 433.776 67.1731 432.918 66.6451 432.27C66.1291 431.61 65.4631 431.28 64.6471 431.28H64.5751C63.7831 431.28 63.1171 431.55 62.5771 432.09C62.0371 432.618 61.7311 433.242 61.6591 433.962L61.0111 439.866H59.4271L60.1111 433.89C60.1831 433.338 60.1711 432.804 60.0751 432.288C59.9791 431.772 59.8831 431.406 59.7871 431.19C59.6911 430.962 59.5291 430.62 59.3011 430.164H60.8851C60.9091 430.212 60.9571 430.32 61.0291 430.488C61.1011 430.644 61.1551 430.764 61.1911 430.848C61.2271 430.932 61.2691 431.052 61.3171 431.208C61.3771 431.352 61.4191 431.502 61.4431 431.658C61.4791 431.814 61.5091 431.982 61.5331 432.162C61.8331 431.514 62.2711 430.992 62.8471 430.596C63.4351 430.188 64.1311 429.984 64.9351 429.984Z" fill="#101212"/>
<path d="M52.5632 440.118C51.7952 440.13 51.0092 440.058 50.2052 439.902C49.4132 439.758 48.7652 439.584 48.2612 439.38V438.012C48.6932 438.252 49.2812 438.462 50.0252 438.642C50.7692 438.81 51.5192 438.888 52.2752 438.876C53.3792 438.852 54.2732 438.486 54.9572 437.778C55.6532 437.058 56.0012 436.14 56.0012 435.024C56.0012 433.896 55.6892 432.99 55.0652 432.306C54.4412 431.61 53.5952 431.262 52.5272 431.262C51.7472 431.262 51.0932 431.448 50.5652 431.82C50.0492 432.192 49.7792 432.666 49.7552 433.242C49.7432 433.806 49.9232 434.256 50.2952 434.592C50.6792 434.928 51.2192 435.078 51.9152 435.042V436.212C50.7752 436.272 49.8692 436.032 49.1972 435.492C48.5372 434.952 48.2072 434.22 48.2072 433.296C48.2192 432.324 48.6392 431.532 49.4672 430.92C50.2952 430.308 51.3512 430.002 52.6352 430.002C54.1472 430.002 55.3532 430.458 56.2532 431.37C57.1532 432.282 57.6032 433.482 57.6032 434.97C57.6032 436.458 57.1352 437.676 56.1992 438.624C55.2752 439.572 54.0632 440.07 52.5632 440.118Z" fill="#101212"/>
<path d="M44.3317 434.7V430.146H45.9157V434.682C45.9157 436.206 45.4237 437.484 44.4397 438.516C43.4677 439.536 42.1837 440.046 40.5877 440.046H40.3537C38.8297 440.046 37.5757 439.542 36.5917 438.534C35.6197 437.526 35.1337 436.242 35.1337 434.682V430.146H36.7357V434.7C36.7357 434.892 36.7417 435.03 36.7537 435.114H37.1857C38.0017 435.114 38.6317 434.916 39.0757 434.52C39.5197 434.124 39.7417 433.548 39.7417 432.792V430.146H41.3257V432.72C41.3257 433.716 40.9717 434.52 40.2637 435.132C39.5677 435.744 38.5897 436.05 37.3297 436.05H36.8977C37.1137 436.926 37.5337 437.598 38.1577 438.066C38.7937 438.522 39.5257 438.75 40.3537 438.75H40.6057C41.7217 438.75 42.6217 438.396 43.3057 437.688C43.9897 436.98 44.3317 435.984 44.3317 434.7Z" fill="#101212"/>
<path d="M30.8593 434.088L31.2193 430.164H32.8033L32.5513 433.224C32.4673 434.208 32.3473 435.054 32.1913 435.762C32.0473 436.47 31.8373 437.07 31.5613 437.562C31.2853 438.054 30.9853 438.45 30.6613 438.75C30.3373 439.05 29.9113 439.284 29.3833 439.452C28.8553 439.62 28.3093 439.734 27.7453 439.794C27.1933 439.842 26.5033 439.866 25.6753 439.866H24.0193V438.588H25.6573C26.1013 438.588 26.5753 438.576 27.0793 438.552C26.5513 437.856 26.1373 436.956 25.8373 435.852L24.1993 430.164H25.8193L27.4033 435.654C27.7513 436.818 28.0993 437.718 28.4473 438.354C29.2273 438.138 29.7853 437.724 30.1213 437.112C30.4693 436.5 30.7153 435.492 30.8593 434.088Z" fill="#101212"/>
<path d="M18.6901 430.164H19.3921C20.2681 430.164 20.8621 430.284 21.1741 430.524C21.4861 430.764 21.6421 431.31 21.6421 432.162V439.866H20.0581V432.126C20.0581 431.874 20.0161 431.7 19.9321 431.604C19.8481 431.496 19.6801 431.442 19.4281 431.442H18.6901V430.164Z" fill="#101212"/>
<path d="M6.18 430.164H12.66C14.016 430.164 15.018 430.506 15.666 431.19C16.314 431.862 16.638 432.912 16.638 434.34V439.866H15.054V434.016C15.054 433.176 14.838 432.54 14.406 432.108C13.986 431.664 13.386 431.442 12.606 431.442H9.798V437.58C9.798 439.212 8.982 440.028 7.35 440.028C6.822 440.028 6.372 439.986 6 439.902V438.714C6.264 438.762 6.558 438.786 6.882 438.786C7.326 438.786 7.656 438.696 7.872 438.516C8.1 438.336 8.214 438.006 8.214 437.526V431.442H6.18V430.164Z" fill="#101212"/>
<path d="M225.021 434.763V435.455L73.0211 435.455V434.763L225.021 434.763Z" fill="#101212"/>
<path d="M295.024 377.195C277.617 410.212 269.847 387.104 268.138 371.423C266.247 407.218 255.344 407.73 235.372 374.042C253.289 405.446 250.547 416.178 225.831 410.521C246.777 425.768 236.615 432.845 220.174 435.239C247.059 441.011 239.749 455.853 222.792 468.01C258.928 463.393 262.979 469.046 250.93 491.251C262.406 479.893 277.705 478.526 288.604 498.68C289.807 475.902 294.26 473.962 323.826 490.752C299.913 469.91 310.247 459.579 325.431 460.381C314.131 447.819 312.765 432.519 339.253 425.217C309.97 423.669 305.574 424.524 333.324 393.359C303.295 405.913 295.703 405.511 295.024 377.195Z" fill="#101212"/>
<path d="M37.329 496.21H35.745V492.25C35.745 491.794 35.499 491.566 35.007 491.566H34.377V490.288H34.971C35.859 490.288 36.471 490.414 36.807 490.666C37.155 490.906 37.329 491.446 37.329 492.286V496.21Z" fill="#101212"/>
<path d="M30.6455 494.824V490.27H32.2295V494.806C32.2295 496.33 31.7375 497.608 30.7535 498.64C29.7815 499.66 28.4975 500.17 26.9015 500.17H26.6675C25.1435 500.17 23.8895 499.666 22.9055 498.658C21.9335 497.65 21.4475 496.366 21.4475 494.806V490.27H23.0495V494.824C23.0495 495.016 23.0555 495.154 23.0675 495.238H23.4995C24.3155 495.238 24.9455 495.04 25.3895 494.644C25.8335 494.248 26.0555 493.672 26.0555 492.916V490.27H27.6395V492.844C27.6395 493.84 27.2855 494.644 26.5775 495.256C25.8815 495.868 24.9035 496.174 23.6435 496.174H23.2115C23.4275 497.05 23.8475 497.722 24.4715 498.19C25.1075 498.646 25.8395 498.874 26.6675 498.874H26.9195C28.0355 498.874 28.9355 498.52 29.6195 497.812C30.3035 497.104 30.6455 496.108 30.6455 494.824Z" fill="#101212"/>
<path d="M19.9596 499.99H11.0856V498.712H17.1156V494.14C17.1156 493.3 16.8996 492.664 16.4676 492.232C16.0476 491.788 15.4476 491.566 14.6676 491.566H11.4096V490.288H14.7216C16.0776 490.288 17.0796 490.63 17.7276 491.314C18.3756 491.986 18.6996 493.036 18.6996 494.464V498.712H19.9596V499.99Z" fill="#101212"/>
<path d="M6 490.288H6.684C7.572 490.288 8.172 490.408 8.484 490.648C8.796 490.888 8.952 491.434 8.952 492.286V502.798H7.368V492.25C7.368 491.998 7.326 491.824 7.242 491.728C7.158 491.62 6.984 491.566 6.72 491.566H6V490.288Z" fill="#101212"/>
<path d="M143.329 496.187V496.88H41.329V496.187H143.329Z" fill="#101212"/>
<path d="M177.668 462.049C168.43 481.974 163.127 468.648 161.63 459.495C161.63 480.569 155.215 481.207 142.385 462.049C153.932 479.93 152.649 486.316 137.895 483.762C150.725 492.063 144.951 496.534 135.329 498.449C151.366 501.004 147.517 509.944 137.895 517.607C159.064 513.776 161.63 516.969 155.215 530.379C161.63 523.355 170.611 522.077 177.668 533.572C177.668 520.162 180.234 518.884 198.196 527.825C183.441 516.33 189.215 509.944 198.196 509.944C191.139 502.919 189.856 493.979 205.252 488.87C187.932 488.87 185.366 489.509 200.762 470.351C183.441 478.653 178.951 478.653 177.668 462.049Z" fill="#101212"/>
</g>
<defs>
<clipPath id="clip0_2660_15811">
<rect width="434" height="612" fill="white"/>
</clipPath>
</defs>
</svg>
