<svg width="323" height="388" viewBox="0 0 323 388" fill="none" xmlns="http://www.w3.org/2000/svg">
<path d="M90.5587 129.006H84.86V128.187H88.7324V125.257C88.7324 124.718 88.5937 124.311 88.3162 124.034C88.0465 123.749 87.6612 123.607 87.1603 123.607H85.0681V122.788H87.195C88.0658 122.788 88.7093 123.007 89.1254 123.446C89.5415 123.876 89.7496 124.549 89.7496 125.464V128.187H90.5587V129.006Z" fill="#101212"/>
<path d="M76.8379 122.788H80.9992C81.87 122.788 82.5134 123.007 82.9296 123.446C83.3457 123.876 83.5538 124.549 83.5538 125.464V129.006H82.5366V125.257C82.5366 124.718 82.3979 124.311 82.1204 124.034C81.8507 123.749 81.4654 123.607 80.9645 123.607H79.1613V127.541C79.1613 128.587 78.6372 129.11 77.5892 129.11C77.2501 129.11 76.9612 129.083 76.7223 129.029V128.267C76.8918 128.298 77.0806 128.314 77.2887 128.314C77.5738 128.314 77.7857 128.256 77.9244 128.141C78.0708 128.025 78.144 127.814 78.144 127.506V123.607H76.8379V122.788Z" fill="#101212"/>
<path d="M75.7273 126.583H74.7101V124.046C74.7101 123.753 74.5521 123.607 74.2362 123.607H73.8316V122.788H74.2131C74.7833 122.788 75.1763 122.869 75.3921 123.03C75.6156 123.184 75.7273 123.53 75.7273 124.069V126.583Z" fill="#101212"/>
<path d="M68.7713 125.695V122.777H69.7885V125.684C69.7885 126.66 69.4726 127.479 68.8407 128.141C68.2165 128.794 67.3919 129.121 66.367 129.121H66.2167C65.238 129.121 64.4327 128.798 63.8008 128.152C63.1766 127.506 62.8645 126.683 62.8645 125.684V122.777H63.8933V125.695C63.8933 125.818 63.8972 125.907 63.9049 125.96H64.1823C64.7063 125.96 65.1109 125.834 65.396 125.58C65.6811 125.326 65.8237 124.957 65.8237 124.472V122.777H66.8409V124.426C66.8409 125.065 66.6136 125.58 66.1589 125.972C65.712 126.364 65.0839 126.56 64.2748 126.56H63.9973C64.136 127.122 64.4058 127.552 64.8065 127.852C65.2149 128.144 65.685 128.291 66.2167 128.291H66.3785C67.0952 128.291 67.6732 128.064 68.1124 127.61C68.5517 127.156 68.7713 126.518 68.7713 125.695Z" fill="#101212"/>
<path d="M55.7343 122.788H58.6819C59.5527 122.788 60.1962 123.007 60.6123 123.446C61.0285 123.876 61.2365 124.549 61.2365 125.464V129.006H60.2193V125.257C60.2193 124.718 60.0806 124.311 59.8032 124.034C59.5335 123.749 59.1482 123.607 58.6473 123.607H56.7631V129.006H55.7343V122.788Z" fill="#101212"/>
<path d="M53.8957 126.583H52.8785V124.046C52.8785 123.753 52.7205 123.607 52.4046 123.607H52V122.788H52.3815C52.9517 122.788 53.3447 122.869 53.5605 123.03C53.784 123.184 53.8957 123.53 53.8957 124.069V126.583Z" fill="#101212"/>
<path d="M247.893 125.715V126.158L194.581 126.167L194.009 126.167L183.716 126.169L183.273 126.169L147.404 126.174L146.96 126.174L93.1275 126.183L93.1275 125.739L146.972 125.731L147.416 125.731L183.267 125.725L183.71 125.725L194.336 125.723L194.83 125.723L247.893 125.715Z" fill="#101212"/>
<path d="M269.944 103.85C264.013 116.618 260.607 108.079 259.646 102.212C259.646 115.718 255.526 116.127 247.287 103.85C254.702 115.308 253.878 119.401 244.404 117.764C252.643 123.084 248.935 125.949 242.756 127.177C253.054 128.813 250.583 134.543 244.404 139.454C256.626 137.246 259.191 138.677 256.591 145.234C256.458 145.57 256.311 145.92 256.151 146.283C255.961 146.715 255.752 147.167 255.526 147.638C258.985 143.86 263.604 142.676 267.679 146.752C267.798 146.871 267.916 146.994 268.034 147.122C268.689 147.832 269.328 148.683 269.944 149.685C269.944 141.091 271.592 140.273 283.127 146.002C273.652 138.635 277.36 134.543 283.127 134.543C278.596 130.041 277.772 124.312 287.659 121.038C276.536 121.038 274.888 121.447 284.775 109.17C273.652 114.49 270.768 114.49 269.944 103.85Z" fill="#101212"/>
<path d="M116.47 155.514H116.528C117.268 155.514 117.881 155.803 118.366 156.38C118.852 156.949 119.094 157.691 119.094 158.606V158.825C119.094 159.617 118.898 160.286 118.505 160.832C118.12 161.371 117.634 161.709 117.048 161.847C116.393 162.001 115.754 161.986 115.13 161.801V160.971C115.623 161.155 116.151 161.174 116.713 161.028C117.106 160.936 117.43 160.69 117.684 160.29C117.946 159.883 118.077 159.386 118.077 158.802V158.629C118.077 157.945 117.908 157.395 117.569 156.979C117.237 156.557 116.809 156.345 116.285 156.345H116.239C115.731 156.345 115.303 156.518 114.956 156.864C114.609 157.202 114.413 157.602 114.367 158.064L113.95 161.847H112.933L113.373 158.018C113.419 157.664 113.411 157.322 113.349 156.991C113.288 156.66 113.226 156.426 113.164 156.287C113.103 156.141 112.999 155.922 112.852 155.63H113.87C113.885 155.661 113.916 155.73 113.962 155.837C114.008 155.937 114.043 156.014 114.066 156.068C114.089 156.122 114.116 156.199 114.147 156.299C114.186 156.391 114.212 156.487 114.228 156.587C114.251 156.687 114.27 156.795 114.286 156.91C114.478 156.495 114.76 156.16 115.13 155.907C115.507 155.645 115.954 155.514 116.47 155.514Z" fill="#101212"/>
<path d="M104.668 155.63H108.829C109.7 155.63 110.344 155.849 110.76 156.287C111.176 156.718 111.384 157.391 111.384 158.306V161.847H110.367V158.098C110.367 157.56 110.228 157.153 109.951 156.876C109.681 156.591 109.296 156.449 108.795 156.449H106.991V160.382C106.991 161.428 106.467 161.951 105.419 161.951C105.08 161.951 104.791 161.924 104.552 161.87V161.109C104.722 161.14 104.911 161.155 105.119 161.155C105.404 161.155 105.616 161.098 105.755 160.982C105.901 160.867 105.974 160.655 105.974 160.348V156.449H104.668V155.63Z" fill="#101212"/>
<path d="M97.6072 155.63H100.555C101.426 155.63 102.069 155.849 102.485 156.287C102.901 156.718 103.109 157.391 103.109 158.306V161.847H102.092V158.098C102.092 157.56 101.954 157.153 101.676 156.876C101.406 156.591 101.021 156.449 100.52 156.449H98.636V161.847H97.6072V155.63Z" fill="#101212"/>
<path d="M89.1805 155.63H93.3418C94.2126 155.63 94.8561 155.849 95.2722 156.287C95.6883 156.718 95.8964 157.391 95.8964 158.306V161.847H94.8792V158.098C94.8792 157.56 94.7405 157.153 94.4631 156.876C94.1933 156.591 93.808 156.449 93.3071 156.449H91.5039V160.382C91.5039 161.428 90.9799 161.951 89.9318 161.951C89.5928 161.951 89.3038 161.924 89.0649 161.87V161.109C89.2344 161.14 89.4232 161.155 89.6313 161.155C89.9164 161.155 90.1284 161.098 90.2671 160.982C90.4135 160.867 90.4867 160.655 90.4867 160.348V156.449H89.1805V155.63Z" fill="#101212"/>
<path d="M85.2137 155.63V156.46L82.9366 161.847L81.8847 161.836L84.1734 156.449H80.382V154.119H81.3992V155.63H85.2137Z" fill="#101212"/>
<path d="M78.0435 158.537V155.618H79.0607V158.525C79.0607 159.502 78.7447 160.321 78.1128 160.982C77.4886 161.636 76.6641 161.963 75.6392 161.963H75.4889C74.5102 161.963 73.7049 161.64 73.073 160.994C72.4488 160.348 72.1367 159.525 72.1367 158.525V155.618H73.1655V158.537C73.1655 158.66 73.1693 158.748 73.177 158.802H73.4545C73.9785 158.802 74.3831 158.675 74.6682 158.421C74.9533 158.168 75.0959 157.798 75.0959 157.314V155.618H76.1131V157.268C76.1131 157.906 75.8858 158.421 75.4311 158.814C74.9841 159.206 74.3561 159.402 73.5469 159.402H73.2695C73.4082 159.963 73.6779 160.394 74.0787 160.694C74.4871 160.986 74.9572 161.132 75.4889 161.132H75.6507C76.3674 161.132 76.9454 160.905 77.3846 160.452C77.8239 159.998 78.0435 159.36 78.0435 158.537Z" fill="#101212"/>
<path d="M69.6758 161.847H68.6586V158.018C68.6586 157.341 68.8204 156.818 69.1441 156.449H65.5723V155.63H70.7046V156.449H69.8839C69.7452 156.787 69.6758 157.31 69.6758 158.018V161.847Z" fill="#101212"/>
<path d="M64.3419 159.425H63.3247V156.887C63.3247 156.595 63.1667 156.449 62.8508 156.449H62.4462V155.63H62.8277C63.3979 155.63 63.7909 155.711 64.0067 155.872C64.2302 156.026 64.3419 156.372 64.3419 156.91V159.425Z" fill="#101212"/>
<path d="M61.0006 159.425H59.9834V156.887C59.9834 156.595 59.8254 156.449 59.5095 156.449H59.1049V155.63H59.4863C60.0566 155.63 60.4496 155.711 60.6654 155.872C60.8889 156.026 61.0006 156.372 61.0006 156.91V159.425Z" fill="#101212"/>
<path d="M52 155.63H55.0516C56.0457 155.63 56.7239 155.853 57.0861 156.299C57.456 156.737 57.6409 157.499 57.6409 158.583V161.847H52V155.63ZM55.017 156.449H53.0172V161.028H56.6237V158.375C56.6237 157.652 56.512 157.153 56.2885 156.876C56.0727 156.591 55.6489 156.449 55.017 156.449Z" fill="#101212"/>
<path d="M172.395 157.819V158.262H149.1H148.656H121.663V157.819H148.648H149.093H172.395Z" fill="#101212"/>
<path d="M194.446 135.942C189.844 145.848 186.763 142.928 185.164 138.382C185.08 138.143 185 137.899 184.924 137.653C184.583 136.545 184.324 135.38 184.148 134.304C184.148 141.657 182.927 145.128 180.484 144.783C180.343 144.763 180.197 144.73 180.047 144.685C178.035 144.072 175.282 141.147 171.789 135.942C179.204 147.4 178.38 151.493 168.906 149.856C177.145 155.176 173.437 158.041 167.258 159.269C169.597 159.64 171.278 160.223 172.406 160.96C172.548 161.053 172.681 161.148 172.806 161.246C175.198 163.116 174.442 165.841 172.036 168.609C171.889 168.779 171.735 168.948 171.576 169.118C170.808 169.935 169.906 170.751 168.906 171.545C169.845 171.376 170.728 171.228 171.555 171.102C171.705 171.079 171.853 171.057 171.999 171.035C173.867 170.763 175.442 170.609 176.75 170.583C176.902 170.58 177.051 170.579 177.196 170.579C182.967 170.597 183.077 173.371 180.028 179.73C184.148 175.229 189.915 174.41 194.446 181.777C194.446 173.183 196.094 172.364 207.629 178.094C198.154 170.727 201.862 166.635 207.629 166.635C203.098 162.133 202.274 156.403 212.161 153.13C201.038 153.13 199.39 153.539 209.277 141.261C198.154 146.582 195.27 146.582 194.446 135.942Z" fill="#101212"/>
<path d="M89.8469 270.573H89.9047C90.6445 270.573 91.2572 270.862 91.7427 271.438C92.2282 272.008 92.4709 272.75 92.4709 273.665V273.884C92.4709 274.676 92.2744 275.345 91.8814 275.891C91.4961 276.429 91.0106 276.768 90.4249 276.906C89.7699 277.06 89.1303 277.045 88.5061 276.86V276.029C88.9993 276.214 89.5271 276.233 90.0897 276.087C90.4827 275.995 90.8064 275.749 91.0607 275.349C91.3227 274.941 91.4537 274.445 91.4537 273.861V273.688C91.4537 273.003 91.2841 272.454 90.9451 272.038C90.6137 271.615 90.186 271.404 89.662 271.404H89.6158C89.1072 271.404 88.6795 271.577 88.3327 271.923C87.9859 272.261 87.7894 272.661 87.7432 273.123L87.327 276.906H86.3098L86.7491 273.076C86.7953 272.723 86.7876 272.38 86.726 272.05C86.6643 271.719 86.6027 271.485 86.541 271.346C86.4794 271.2 86.3753 270.981 86.2289 270.689H87.2461C87.2615 270.719 87.2924 270.789 87.3386 270.896C87.3848 270.996 87.4195 271.073 87.4426 271.127C87.4657 271.181 87.4927 271.258 87.5235 271.358C87.5621 271.45 87.589 271.546 87.6045 271.646C87.6276 271.746 87.6468 271.854 87.6623 271.969C87.8549 271.554 88.1362 271.219 88.5061 270.965C88.8837 270.704 89.3306 270.573 89.8469 270.573Z" fill="#101212"/>
<path d="M81.902 277.068C81.4088 277.075 80.904 277.029 80.3877 276.929C79.8791 276.837 79.463 276.725 79.1393 276.595V275.718C79.4167 275.872 79.7943 276.006 80.2721 276.122C80.7499 276.229 81.2315 276.279 81.717 276.272C82.426 276.256 83.0001 276.022 83.4393 275.568C83.8863 275.107 84.1098 274.518 84.1098 273.803C84.1098 273.08 83.9094 272.5 83.5087 272.061C83.108 271.615 82.5647 271.392 81.8788 271.392C81.3779 271.392 80.958 271.511 80.6189 271.75C80.2875 271.988 80.1141 272.292 80.0987 272.661C80.091 273.023 80.2066 273.311 80.4455 273.526C80.6921 273.742 81.0389 273.838 81.4858 273.815V274.564C80.7537 274.603 80.1719 274.449 79.7404 274.103C79.3165 273.757 79.1046 273.288 79.1046 272.696C79.1123 272.073 79.382 271.565 79.9138 271.173C80.4455 270.781 81.1236 270.585 81.9482 270.585C82.9192 270.585 83.6936 270.877 84.2716 271.461C84.8496 272.046 85.1385 272.815 85.1385 273.769C85.1385 274.722 84.838 275.503 84.2369 276.11C83.6436 276.718 82.8652 277.037 81.902 277.068Z" fill="#101212"/>
<path d="M76.6159 273.596V270.677H77.6331V273.584C77.6331 274.561 77.3171 275.38 76.6852 276.041C76.061 276.695 75.2365 277.022 74.2115 277.022H74.0613C73.0826 277.022 72.2773 276.699 71.6454 276.053C71.0212 275.407 70.7091 274.584 70.7091 273.584V270.677H71.7379V273.596C71.7379 273.719 71.7417 273.807 71.7494 273.861H72.0268C72.5509 273.861 72.9554 273.734 73.2406 273.48C73.5257 273.226 73.6682 272.857 73.6682 272.373V270.677H74.6855V272.327C74.6855 272.965 74.4581 273.48 74.0035 273.872C73.5565 274.265 72.9285 274.461 72.1193 274.461H71.8419C71.9806 275.022 72.2503 275.453 72.651 275.753C73.0595 276.045 73.5295 276.191 74.0613 276.191H74.2231C74.9398 276.191 75.5177 275.964 75.957 275.51C76.3962 275.057 76.6159 274.418 76.6159 273.596Z" fill="#101212"/>
<path d="M67.9641 273.203L68.1953 270.689H69.2125L69.0507 272.65C68.9968 273.28 68.9197 273.822 68.8195 274.276C68.7271 274.73 68.5922 275.114 68.415 275.43C68.2377 275.745 68.0451 275.999 67.837 276.191C67.6289 276.383 67.3554 276.533 67.0163 276.641C66.6772 276.749 66.3266 276.822 65.9644 276.86C65.6099 276.891 65.1668 276.906 64.6351 276.906H63.5716V276.087H64.6235C64.9087 276.087 65.213 276.079 65.5367 276.064C65.1976 275.618 64.9318 275.041 64.7391 274.334L63.6872 270.689H64.7276L65.7448 274.207C65.9683 274.953 66.1917 275.53 66.4152 275.937C66.9161 275.799 67.2744 275.533 67.4902 275.141C67.7137 274.749 67.8717 274.103 67.9641 273.203Z" fill="#101212"/>
<path d="M60.1493 270.689H60.6001C61.1627 270.689 61.5441 270.766 61.7445 270.919C61.9449 271.073 62.045 271.423 62.045 271.969V276.906H61.0278V271.946C61.0278 271.784 61.0009 271.673 60.9469 271.611C60.893 271.542 60.7851 271.508 60.6233 271.508H60.1493V270.689Z" fill="#101212"/>
<path d="M52.1156 270.689H56.2769C57.1477 270.689 57.7912 270.908 58.2073 271.346C58.6234 271.777 58.8315 272.45 58.8315 273.365V276.906H57.8143V273.157C57.8143 272.619 57.6756 272.211 57.3982 271.934C57.1285 271.65 56.7431 271.508 56.2422 271.508H54.439V275.441C54.439 276.487 53.915 277.01 52.8669 277.01C52.5279 277.01 52.2389 276.983 52 276.929V276.168C52.1695 276.199 52.3583 276.214 52.5664 276.214C52.8515 276.214 53.0635 276.156 53.2022 276.041C53.3486 275.926 53.4218 275.714 53.4218 275.407V271.508H52.1156V270.689Z" fill="#101212"/>
<path d="M192.651 273.636V274.079H147.379H146.934H127.779H127.269H95.0396V273.636H127.515H128.025H146.915H147.36H151.589H152.035H192.651Z" fill="#101212"/>
<path d="M237.605 236.743C226.427 257.902 221.437 243.094 220.34 233.044C219.125 255.984 212.124 256.312 199.298 234.723C210.804 254.848 209.043 261.726 193.171 258.1C206.622 267.871 200.096 272.407 189.538 273.941C206.803 277.64 202.109 287.151 191.22 294.942C214.425 291.983 217.027 295.606 209.289 309.836C211.257 307.893 213.4 306.406 215.617 305.516C215.771 305.454 215.925 305.395 216.079 305.34C218.91 304.314 221.85 304.27 224.692 305.495C224.843 305.559 224.992 305.628 225.142 305.699C228.122 307.13 230.983 309.984 233.483 314.597C234.255 300 237.115 298.757 256.102 309.516C240.745 296.16 247.381 289.539 257.132 290.053C249.876 282.003 248.998 272.198 266.008 267.518C247.203 266.526 244.38 267.074 262.201 247.102C242.917 255.147 238.041 254.89 237.605 236.743Z" fill="#101212"/>
<path d="M72.1189 313.014H71.1016V310.476C71.1016 310.184 70.9437 310.038 70.6277 310.038H70.2231V309.219H70.6046C71.1749 309.219 71.5679 309.3 71.7836 309.461C72.0071 309.615 72.1189 309.961 72.1189 310.499V313.014Z" fill="#101212"/>
<path d="M67.8268 312.126V309.208H68.8441V312.114C68.8441 313.091 68.5281 313.91 67.8962 314.571C67.272 315.225 66.4474 315.552 65.4225 315.552H65.2723C64.2936 315.552 63.4883 315.229 62.8564 314.583C62.2322 313.937 61.9201 313.114 61.9201 312.114V309.208H62.9488V312.126C62.9488 312.249 62.9527 312.338 62.9604 312.391H63.2378C63.7618 312.391 64.1664 312.264 64.4516 312.011C64.7367 311.757 64.8792 311.388 64.8792 310.903V309.208H65.8965V310.857C65.8965 311.495 65.6691 312.011 65.2145 312.403C64.7675 312.795 64.1395 312.991 63.3303 312.991H63.0529C63.1916 313.553 63.4613 313.983 63.862 314.283C64.2705 314.575 64.7405 314.721 65.2723 314.721H65.4341C66.1508 314.721 66.7287 314.495 67.168 314.041C67.6072 313.587 67.8268 312.949 67.8268 312.126Z" fill="#101212"/>
<path d="M60.9646 315.437H55.2659V314.618H59.1382V311.688C59.1382 311.149 58.9995 310.742 58.7221 310.465C58.4524 310.18 58.0671 310.038 57.5662 310.038H55.4739V309.219H57.6008C58.4716 309.219 59.1151 309.438 59.5312 309.877C59.9474 310.307 60.1554 310.98 60.1554 311.895V314.618H60.9646V315.437Z" fill="#101212"/>
<path d="M52 309.219H52.4393C53.0095 309.219 53.3948 309.296 53.5952 309.45C53.7955 309.604 53.8957 309.953 53.8957 310.499V317.236H52.8785V310.476C52.8785 310.315 52.8515 310.203 52.7976 310.142C52.7436 310.073 52.6319 310.038 52.4624 310.038H52V309.219Z" fill="#101212"/>
<path d="M140.19 312.999V313.444H137.408H136.861H132.668H132.159H130.429H129.918H126.29H125.783H74.6876V312.999H125.548H126.05H129.674H130.181H131.917H132.424H136.55H137.091H140.19Z" fill="#101212"/>
<path d="M162.242 291.122C156.309 303.891 152.904 295.351 151.942 289.485C151.942 299.321 149.758 302.21 145.388 298.312C145.25 298.189 145.109 298.059 144.967 297.922C143.427 296.445 141.633 294.176 139.584 291.122C144.608 298.886 145.85 303.268 143.181 304.778C143.051 304.852 142.912 304.919 142.763 304.979C142.201 305.205 141.506 305.335 140.678 305.372C140.527 305.379 140.372 305.382 140.213 305.383C139.215 305.386 138.045 305.269 136.7 305.037C142.282 308.641 142.381 311.118 139.942 312.723C139.821 312.803 139.694 312.88 139.562 312.955C139.016 313.264 138.37 313.538 137.651 313.778C137.505 313.827 137.356 313.874 137.204 313.92C136.536 314.122 135.813 314.298 135.053 314.449C136.248 314.639 137.272 314.884 138.138 315.177C138.407 315.268 138.662 315.364 138.901 315.464C144.512 317.812 141.938 322.564 136.7 326.726C150.295 324.271 151.942 326.318 147.823 334.911C151.099 331.331 155.418 330.081 159.328 333.424C159.545 333.61 159.761 333.809 159.975 334.024C160.755 334.803 161.514 335.775 162.242 336.958C162.242 328.364 163.89 327.545 175.424 333.275C165.949 325.908 169.657 321.816 175.424 321.816C170.893 317.314 170.069 311.584 179.956 308.31C168.833 308.31 167.185 308.72 177.072 296.442C165.949 301.763 163.066 301.763 162.242 291.122Z" fill="#101212"/>
<path d="M254.267 148.176C254.909 147.526 255.534 146.892 256.151 146.283C256.311 145.92 256.458 145.57 256.591 145.234C255.726 146.066 254.853 146.951 253.954 147.861L253.83 147.986C251.854 149.989 249.745 152.117 247.3 154.112C242.418 158.097 236.197 161.553 227.058 162.372C226.975 162.38 226.902 162.434 226.871 162.511C226.84 162.589 226.855 162.677 226.911 162.74C235.47 172.428 244.851 176.081 251.614 179.305C255.005 180.922 257.706 182.417 259.357 184.484C260.991 186.532 261.615 189.171 260.768 193.137C260.754 193.199 260.769 193.264 260.807 193.316C260.847 193.369 266.439 200.847 272.059 209.81C274.874 214.302 277.694 219.162 279.825 223.645C281.96 228.138 283.39 232.222 283.453 235.172C283.454 235.188 283.456 235.205 283.46 235.221C290.599 263.717 285.366 293.288 281.556 317.702C280.427 324.933 275.892 332.04 271.287 339.168L271.072 339.502C266.552 346.496 262.017 353.514 260.766 360.618C260.757 360.669 260.766 360.722 260.792 360.766C261.682 362.327 262.579 364.371 263.051 366.555C263.524 368.741 263.567 371.053 262.767 373.162C261.177 377.352 256.192 380.878 244.125 380.878C244.022 380.878 243.932 380.948 243.908 381.047C243.885 381.147 243.932 381.251 244.024 381.297C249.949 384.302 256.576 383.418 261.646 382.985C262.918 382.876 264.09 382.796 265.134 382.809C266.179 382.821 267.083 382.926 267.822 383.183C268.557 383.437 269.124 383.838 269.511 384.443C269.901 385.052 270.122 385.888 270.122 387.039C270.122 387.055 270.124 387.07 270.127 387.086L270.566 387.013C270.563 385.822 270.332 384.901 269.885 384.204C269.434 383.498 268.776 383.043 267.968 382.763C267.164 382.485 266.206 382.378 265.139 382.365C264.072 382.352 262.881 382.435 261.608 382.543C256.751 382.959 250.657 383.752 245.096 381.313C256.531 381.128 261.538 377.655 263.183 373.319C264.023 371.105 263.97 368.7 263.486 366.462C263.009 364.257 262.112 362.199 261.218 360.618C262.473 353.627 266.95 346.698 271.478 339.691L271.661 339.408C276.252 332.301 280.85 325.112 281.995 317.77C285.8 293.386 291.053 263.729 283.896 235.135C283.822 232.086 282.358 227.939 280.227 223.455C278.085 218.95 275.256 214.073 272.436 209.575C267.125 201.104 261.838 193.959 261.222 193.13C262.058 189.124 261.428 186.368 259.705 184.207C257.982 182.05 255.188 180.518 251.805 178.905C245.096 175.706 235.942 172.134 227.534 162.77C236.541 161.872 242.723 158.421 247.582 154.455C250.046 152.444 252.171 150.299 254.147 148.298L254.267 148.176Z" fill="#101212"/>
<path d="M228.964 379.104C228.946 383.102 228.373 385.503 227.727 387.883L228.156 388C228.808 385.599 229.39 383.156 229.409 379.107C229.427 375.064 228.884 369.422 227.297 360.618C226.883 358.267 226.559 353.386 226.293 347.221C226.027 341.063 225.819 333.639 225.636 326.211C225.458 318.992 225.304 311.766 225.142 305.699C224.992 305.628 224.843 305.559 224.692 305.495C224.856 311.599 225.011 318.908 225.191 326.222C225.374 333.65 225.583 341.078 225.849 347.241C226.115 353.398 226.439 358.31 226.859 360.695V360.697C228.444 369.49 228.982 375.1 228.964 379.104Z" fill="#101212"/>
<path d="M210.684 360.695C211.618 355.379 214.006 329.098 216.079 305.34C215.925 305.395 215.771 305.454 215.617 305.516C213.549 329.217 211.173 355.337 210.245 360.618C209.993 362.017 209.231 363.024 208.176 363.85C207.112 364.683 205.763 365.322 204.348 365.989L204.28 366.022C201.498 367.333 198.476 368.758 197.337 372.001C196.874 373.32 195.39 376.319 192.52 378.597C189.661 380.866 185.414 382.431 179.383 380.885C179.299 380.863 179.209 380.892 179.155 380.96C179.1 381.028 179.091 381.122 179.13 381.199C181.083 385.073 186.143 386.661 190.906 386.513C193.298 386.438 195.643 385.927 197.53 385.027C198.987 384.333 200.186 383.398 200.911 382.241L201.429 381.121C201.44 381.008 201.365 380.906 201.254 380.883C201.144 380.859 201.033 380.922 200.997 381.03C200.498 382.534 199.163 383.757 197.338 384.627C195.517 385.495 193.234 385.996 190.892 386.069C186.379 386.21 181.754 384.764 179.766 381.433C185.679 382.809 189.913 381.233 192.797 378.944C195.749 376.6 197.274 373.521 197.757 372.148C198.834 369.082 201.701 367.729 204.538 366.391C205.943 365.729 207.34 365.069 208.45 364.2C209.567 363.325 210.407 362.23 210.683 360.695L210.684 360.695Z" fill="#101212"/>
<path d="M164.262 349.35C167.277 359.787 169.278 375.36 166.946 386.179L167.38 386.273C169.737 375.343 167.71 359.683 164.689 349.227C163.223 344.15 161.525 339.099 159.975 334.024C159.761 333.809 159.545 333.61 159.328 333.424C160.941 338.76 162.733 344.057 164.262 349.35Z" fill="#101212"/>
<path d="M147.621 279.712L147.379 274.079H146.934L147.178 279.732C147.176 285.294 146.199 290.122 145.531 293.933C145.27 295.419 145.055 296.758 144.967 297.922C145.109 298.059 145.25 298.189 145.388 298.312C145.452 297.099 145.679 295.659 145.968 294.009C146.635 290.209 147.622 285.336 147.622 279.723C147.622 279.719 147.622 279.716 147.621 279.712Z" fill="#101212"/>
<path d="M137.249 309.363C137.865 310.357 138.668 311.655 139.562 312.955C139.694 312.88 139.821 312.803 139.942 312.723C139.41 311.95 138.909 311.176 138.46 310.464L137.628 309.129L137.368 308.703C136.275 306.893 135.673 305.595 135.376 304.909L135.26 304.636C134.564 302.967 134.164 301.55 133.918 300.552C133.794 300.049 133.711 299.663 133.645 299.385C133.613 299.25 133.584 299.137 133.557 299.057C133.543 299.018 133.526 298.973 133.502 298.933C133.489 298.914 133.468 298.884 133.435 298.858C133.398 298.829 133.336 298.798 133.256 298.807L133.251 298.807C133.15 298.822 133.095 298.893 133.08 298.914C133.057 298.946 133.039 298.98 133.028 299.008C133.003 299.067 132.981 299.142 132.961 299.228C132.92 299.4 132.881 299.643 132.849 299.944C132.787 300.547 132.754 301.4 132.811 302.42C132.926 304.46 133.4 307.18 134.724 309.915C135.271 311.048 135.911 312.074 136.55 312.999H137.091C136.404 312.022 135.71 310.936 135.124 309.723C133.832 307.052 133.367 304.392 133.255 302.395C133.199 301.398 133.231 300.568 133.292 299.99C133.296 299.953 133.299 299.917 133.303 299.883C133.353 300.102 133.414 300.364 133.487 300.658C133.736 301.671 134.143 303.111 134.85 304.807L134.968 305.086C135.295 305.841 135.977 307.309 137.249 309.363Z" fill="#101212"/>
<path d="M129.09 304.015C129.595 308.095 130.894 311.101 131.917 312.999H132.424L132.317 312.803L132.125 312.442C131.154 310.569 130 307.735 129.532 303.965C129.5 302.95 129.462 302.32 129.423 301.94C129.403 301.751 129.382 301.616 129.358 301.524C129.347 301.479 129.332 301.431 129.309 301.39C129.293 301.362 129.233 301.259 129.102 301.249L129.094 301.249C128.995 301.246 128.929 301.303 128.909 301.321C128.881 301.348 128.858 301.378 128.841 301.403C128.807 301.455 128.773 301.522 128.739 301.599C128.67 301.753 128.591 301.973 128.511 302.245C128.35 302.791 128.179 303.564 128.073 304.485C127.861 306.325 127.906 308.771 128.823 311.174C129.073 311.827 129.372 312.437 129.674 312.999H130.181C129.846 312.392 129.513 311.734 129.239 311.016C128.355 308.7 128.309 306.33 128.515 304.536C128.619 303.639 128.784 302.891 128.938 302.37C128.957 302.304 128.979 302.241 128.997 302.183C129.03 302.561 129.062 303.136 129.089 303.995C129.089 304.002 129.089 304.009 129.09 304.015Z" fill="#101212"/>
<path d="M122.923 302.556C122.742 306.697 124.224 310.45 125.548 312.999H126.05C124.721 310.488 123.187 306.725 123.368 302.576C123.426 301.268 123.592 300.132 124.823 295.485C126.074 290.772 126.375 289.223 127.443 285.851C127.517 285.638 127.539 285.371 127.536 285.133C127.533 284.896 127.502 284.659 127.456 284.5L127.455 284.498L127.429 284.421C127.362 284.243 127.258 284.089 127.091 284.016C126.894 283.931 126.69 283.991 126.522 284.088C126.189 284.277 125.801 284.713 125.383 285.281C124.532 286.432 123.455 288.266 122.312 290.242C121.167 292.224 119.952 294.357 118.818 296.125C118.251 297.009 117.706 297.797 117.204 298.427C116.761 298.982 116.361 299.402 116.015 299.659L115.87 299.758C115.593 299.933 115.395 299.966 115.265 299.957C115.137 299.948 115.054 299.896 115.008 299.856C115.008 299.856 114.986 299.819 114.986 299.69C114.986 299.556 115.011 299.369 115.065 299.13C115.172 298.654 115.382 298.011 115.672 297.249C116.252 295.725 117.138 293.753 118.109 291.734C119.081 289.717 120.136 287.658 121.052 285.963C121.973 284.263 122.746 282.944 123.155 282.396C123.161 282.389 123.166 282.38 123.171 282.371L127.779 274.079H127.269L122.789 282.142C122.356 282.727 121.573 284.068 120.661 285.752C119.741 287.453 118.683 289.519 117.709 291.542C116.735 293.565 115.843 295.551 115.257 297.092C114.964 297.86 114.745 298.526 114.631 299.033C114.574 299.285 114.541 299.509 114.541 299.691C114.541 299.858 114.57 300.055 114.706 300.181L114.706 300.181C114.813 300.278 114.988 300.382 115.234 300.4C115.479 300.417 115.771 300.346 116.108 300.133L116.276 300.017C116.674 299.724 117.104 299.266 117.552 298.703C118.067 298.057 118.621 297.254 119.192 296.364C120.333 294.585 121.555 292.441 122.698 290.464C123.845 288.481 124.908 286.671 125.74 285.544C126.162 284.972 126.501 284.61 126.742 284.473C126.86 284.406 126.905 284.419 126.913 284.423C126.923 284.428 126.955 284.448 126.992 284.527L127.03 284.627C127.061 284.735 127.088 284.927 127.091 285.14C127.095 285.354 127.072 285.562 127.022 285.704L127.02 285.711C125.946 289.1 125.639 290.673 124.393 295.371C123.161 300.02 122.984 301.196 122.923 302.556Z" fill="#101212"/>
<path d="M130.209 237.45C130.769 247.255 131.855 255.988 131.831 265.869L127.515 273.636H128.025L132.249 266.035C132.267 266.002 132.277 265.965 132.277 265.928C132.305 256.008 131.212 247.21 130.653 237.424C130.093 227.631 130.062 216.809 132.209 202.789C133.588 193.783 137.291 187.846 140.833 183.154C142.596 180.818 144.349 178.756 145.727 176.805C147.112 174.846 148.157 172.951 148.518 170.9L148.52 170.886C149.018 166.457 149.159 162.276 149.1 158.262H148.656C148.714 162.258 148.574 166.418 148.078 170.827C147.734 172.78 146.734 174.61 145.364 176.55C143.985 178.5 142.269 180.515 140.478 182.888C136.912 187.611 133.165 193.617 131.77 202.723C129.618 216.78 129.647 227.634 130.209 237.45Z" fill="#101212"/>
<path d="M140.568 302.522C141.039 303.044 141.74 303.848 142.763 304.979C142.912 304.919 143.051 304.852 143.181 304.778L142.817 304.377C141.944 303.407 141.333 302.707 140.898 302.224C140.612 301.907 140.397 301.679 140.238 301.539C140.16 301.47 140.082 301.41 140.006 301.374C139.934 301.339 139.807 301.3 139.684 301.374C139.559 301.449 139.509 301.587 139.486 301.689C139.461 301.803 139.454 301.94 139.458 302.092C139.467 302.397 139.524 302.8 139.624 303.27C139.751 303.87 139.949 304.593 140.213 305.383C140.372 305.382 140.527 305.379 140.678 305.372C140.398 304.545 140.189 303.793 140.059 303.179C139.962 302.72 139.91 302.346 139.902 302.079C139.9 301.982 139.905 301.905 139.912 301.846L139.918 301.851C139.926 301.857 139.935 301.864 139.943 301.872C140.081 301.993 140.279 302.202 140.568 302.522Z" fill="#101212"/>
<path d="M131.712 316.085C131.616 315.647 131.392 315.169 131.118 314.662C130.911 314.279 130.674 313.874 130.429 313.444H129.918C130.211 313.966 130.495 314.444 130.727 314.873C130.998 315.376 131.196 315.806 131.277 316.179C131.357 316.544 131.32 316.832 131.147 317.078C130.893 317.441 130.381 317.65 129.943 317.65C129.484 317.649 129.055 317.408 128.632 316.986C128.209 316.563 127.816 315.985 127.427 315.363C127.136 314.897 126.731 314.246 126.29 313.444H125.783C126.278 314.359 126.734 315.092 127.05 315.598L127.348 316.061C127.651 316.52 127.971 316.953 128.318 317.3C128.78 317.761 129.315 318.093 129.942 318.093L129.943 318.094C130.489 318.094 131.156 317.84 131.512 317.332L131.559 317.261C131.78 316.903 131.803 316.502 131.712 316.085Z" fill="#101212"/>
<path d="M140.074 317.376C139.836 316.804 139.411 316.166 138.901 315.464C138.662 315.364 138.407 315.268 138.138 315.177C138.249 315.327 138.357 315.472 138.461 315.614C139.008 316.362 139.435 316.998 139.664 317.547C139.877 318.058 139.9 318.451 139.726 318.777L139.69 318.841C139.401 319.298 138.835 319.428 138.707 319.453C138.122 319.566 137.479 319.33 136.805 318.835C136.135 318.343 135.469 317.619 134.857 316.828C133.941 315.642 133.164 314.33 132.687 313.479L132.668 313.444H132.159C132.619 314.278 133.475 315.765 134.506 317.099C135.128 317.905 135.823 318.665 136.54 319.193C137.255 319.718 138.027 320.037 138.791 319.889H138.793C138.92 319.864 139.667 319.708 140.066 319.077L140.067 319.077C140.389 318.563 140.327 317.983 140.074 317.376Z" fill="#101212"/>
<path d="M137.651 313.778C137.57 313.668 137.489 313.557 137.408 313.444H136.861C136.976 313.606 137.091 313.764 137.204 313.92C137.356 313.874 137.505 313.827 137.651 313.778Z" fill="#101212"/>
<path d="M146.96 126.174C146.874 129.734 147.017 133.232 147.253 136.74C147.711 143.565 148.513 150.412 148.648 157.819H149.093C148.957 150.38 148.152 143.513 147.696 136.71C147.461 133.208 147.318 129.72 147.404 126.174L146.96 126.174Z" fill="#101212"/>
<path d="M175.738 81.8668C164.387 82.7838 156.259 90.8348 151.487 103.135C148.323 111.291 147.181 118.638 146.972 125.731L147.416 125.731C147.626 118.68 148.762 111.389 151.901 103.295C156.644 91.0726 164.673 83.1882 175.813 82.3051C175.838 82.3032 175.863 82.2968 175.886 82.2865C183.24 78.9881 188.987 76.442 193.309 73.9228C197.632 71.4023 200.558 68.8934 202.247 65.6533C206.238 57.9984 203.264 51.818 199.397 49.4255C199.308 49.37 199.193 49.3858 199.122 49.4581L199.095 49.4925C197.74 51.5559 195.389 51.9676 192.896 51.2561C190.401 50.5441 187.819 48.7148 186.116 46.3921C182.084 40.9089 181.88 33.8012 183.791 27.161L183.792 27.1616C184.069 26.2183 183.146 25.3615 182.182 25.5927C182.135 25.6039 182.093 25.6298 182.063 25.6665C177.943 30.612 172.45 34.205 166.135 35.0077L165.522 35.0765C161.395 35.4507 157.666 33.6563 156.222 29.6706L156.089 29.2782C154.491 24.1706 155.72 19.5697 157.297 16.0832C158.086 14.3397 158.958 12.8804 159.607 11.775C159.93 11.2255 160.202 10.756 160.376 10.3857C160.463 10.2007 160.53 10.0304 160.566 9.8812C160.6 9.73835 160.615 9.57795 160.553 9.4369C160.485 9.28418 160.333 9.18248 160.197 9.11647C160.05 9.04502 159.871 8.99048 159.687 8.95626C159.329 8.88993 158.885 8.88814 158.574 9.04886L158.569 9.05136C151.01 13.1921 142.996 15.8785 134.383 16.6583C130.778 16.9651 127.707 17.3287 124.202 16.7435C119.261 15.8981 114.485 14.8417 110.692 11.5728L110.691 11.5722L110.361 11.2793C107.041 8.2189 106.333 4.16738 107.316 0.104518L106.884 0C105.872 4.18392 106.597 8.41211 110.058 11.6029L110.401 11.9089C114.297 15.2662 119.187 16.3359 124.126 17.1809H124.127C127.701 17.7776 130.837 17.4059 134.423 17.1008L134.424 17.1002C143.104 16.3142 151.175 13.6068 158.779 9.44189C158.96 9.34923 159.285 9.33302 159.605 9.39249C159.76 9.4212 159.9 9.46516 160.002 9.51515C160.054 9.54007 160.092 9.56423 160.117 9.58519C160.139 9.60307 160.146 9.61473 160.146 9.61653C160.15 9.62319 160.161 9.66555 160.134 9.77731C160.108 9.88389 160.055 10.023 159.974 10.1973C159.81 10.5456 159.549 10.9969 159.224 11.5509C158.577 12.653 157.691 14.1324 156.891 15.9011C155.291 19.4391 154.023 24.1589 155.665 29.4109C157.077 33.9131 161.142 35.9197 165.564 35.5183H165.566C172.253 34.8657 178.049 31.1518 182.352 26.0126C183.002 25.9024 183.527 26.4845 183.366 27.0365L183.365 27.0377C181.431 33.7545 181.615 41.0206 185.758 46.6544C187.514 49.05 190.176 50.9417 192.774 51.6829C195.302 52.4046 197.824 52.0426 199.341 49.9162C202.916 52.2599 205.678 58.1107 201.853 65.4488C200.22 68.58 197.377 71.037 193.084 73.5402C188.795 76.0401 183.086 78.5709 175.738 81.8668Z" fill="#101212"/>
<path d="M182.943 135.661C183.475 132.628 183.748 129.474 183.716 126.169L183.273 126.169C183.304 129.45 183.033 132.579 182.506 135.585C181.952 138.74 181.116 141.761 180.047 144.685C180.197 144.73 180.343 144.763 180.484 144.783C181.551 141.854 182.388 138.825 182.943 135.661Z" fill="#101212"/>
<path d="M187.86 128.044C187.849 128.082 186.575 132.31 184.924 137.653C185 137.899 185.08 138.143 185.164 138.382C186.724 133.341 187.985 129.166 188.239 128.325C188.71 128.313 190.112 128.25 191.512 127.898C192.363 127.684 193.232 127.359 193.894 126.862C194.16 126.661 194.395 126.43 194.581 126.167L194.009 126.167C193.896 126.288 193.767 126.402 193.626 126.508C193.034 126.954 192.23 127.259 191.404 127.467C189.756 127.882 188.096 127.885 188.073 127.885C187.987 127.886 187.91 127.935 187.873 128.01L187.86 128.044Z" fill="#101212"/>
<path d="M190.044 121.803C191.478 123.295 193.002 124.442 194.576 124.912C194.554 125.212 194.47 125.481 194.336 125.723L194.83 125.723C194.956 125.432 195.027 125.108 195.027 124.749C195.027 124.648 194.959 124.56 194.862 124.534C193.342 124.13 191.829 123.02 190.364 121.497C188.903 119.977 187.507 118.065 186.22 116.087C184.98 114.184 183.846 112.227 182.85 110.51L182.737 110.315C181.718 108.559 180.843 107.059 180.161 106.171C180.096 106.085 179.977 106.059 179.881 106.109C179.785 106.16 179.74 106.272 179.774 106.375C182.084 113.435 183.162 119.827 183.267 125.725L183.71 125.725C183.612 120.184 182.662 114.216 180.653 107.683C181.151 108.473 181.72 109.449 182.352 110.538L182.468 110.739C183.463 112.453 184.603 114.417 185.848 116.329C187.141 118.316 188.554 120.254 190.044 121.803Z" fill="#101212"/>
<path d="M172.403 179.634C172.214 176.816 172.011 173.997 171.999 171.035C171.853 171.057 171.705 171.079 171.555 171.102C171.569 174.058 171.772 176.868 171.96 179.664C172.383 185.961 172.731 192.189 170.71 199.903C169.983 200.851 155.695 219.648 147.564 241.267C146.69 243.592 146.418 246.991 146.289 250.443C146.16 253.914 146.177 257.44 145.897 260.083C145.885 260.193 145.957 260.295 146.066 260.322L146.344 260.388L146.915 273.636H147.36L146.781 260.202C146.777 260.116 146.724 260.041 146.646 260.008L146.611 259.997L146.357 259.935C146.619 257.295 146.609 253.816 146.734 250.459C146.862 247 147.136 243.67 147.981 241.423C156.28 219.356 171.022 200.225 171.09 200.137C171.108 200.113 171.121 200.086 171.129 200.057C173.183 192.249 172.827 185.948 172.403 179.634Z" fill="#101212"/>
<path d="M172.806 161.246C172.681 161.148 172.548 161.053 172.406 160.96C171.878 163.859 171.643 166.551 171.576 169.118C171.735 168.948 171.889 168.779 172.036 168.609C172.118 166.28 172.344 163.846 172.806 161.246Z" fill="#101212"/>
<path d="M151.472 243.509C151.256 253.502 151.258 263.571 151.589 273.636H152.035C151.703 263.576 151.7 253.511 151.917 243.519C151.948 242.052 152.405 240.167 153.193 237.978C153.981 235.793 155.093 233.321 156.422 230.686C159.082 225.416 162.606 219.51 166.124 213.976C169.642 208.443 173.152 203.284 175.783 199.508C177.099 197.621 178.194 196.079 178.96 195.009C179.344 194.474 179.645 194.058 179.85 193.774C179.953 193.633 180.031 193.525 180.084 193.452L180.159 193.349C180.161 193.346 180.162 193.345 180.163 193.344L180.164 193.343C180.164 193.343 180.164 193.342 179.985 193.211L180.164 193.342C180.2 193.293 180.214 193.232 180.204 193.171C178.403 183.31 177.449 179.422 177.181 175.672C177.068 174.094 177.076 172.542 177.196 170.579C177.051 170.579 176.902 170.58 176.75 170.583C176.631 172.547 176.623 174.113 176.737 175.704C177.007 179.474 177.966 183.4 179.749 193.158C179.741 193.168 179.733 193.179 179.725 193.191C179.672 193.264 179.592 193.372 179.489 193.514C179.284 193.798 178.983 194.215 178.599 194.751C177.832 195.822 176.735 197.365 175.419 199.255C172.785 203.033 169.272 208.198 165.749 213.738C162.228 219.278 158.695 225.198 156.025 230.486C154.691 233.13 153.57 235.62 152.775 237.828C151.981 240.032 151.505 241.972 151.472 243.509Z" fill="#101212"/>
<path d="M236.423 10.8218C234.496 7.98095 231.313 4.34221 225.863 1.0151L225.272 0.749749C225.191 0.777472 225.132 0.850315 225.123 0.936246C225.114 1.02231 225.156 1.10594 225.23 1.15028C231.241 4.72877 234.535 8.70101 236.426 11.6323C238.089 14.2114 238.969 16.4523 239.952 18.5283C240.934 20.6026 242.012 22.4947 244.063 24.3147C247.27 27.1595 251.001 28.181 253.68 28.5948C252.193 30.1399 250.743 30.8217 249.082 31.754C248.231 32.2247 247.48 33.0267 247.123 33.9175C246.763 34.8169 246.801 35.8261 247.573 36.6467L247.573 36.6474L250.245 39.4542C247.46 39.8585 245.68 40.2739 244.58 40.6827C244.003 40.897 243.598 41.1144 243.331 41.3367C243.063 41.561 242.917 41.8062 242.902 42.0683C242.892 42.269 242.96 42.4577 243.071 42.6334C243.182 42.8078 243.341 42.9806 243.535 43.1566C243.919 43.5072 244.474 43.9045 245.135 44.3771L245.136 44.3776L245.142 44.382L245.147 44.3845C245.974 44.9723 246.755 45.3983 247.405 45.7025C246.379 46.0865 245.227 46.747 244.702 47.9379C244.117 49.2656 244.614 50.5889 245.101 51.8819L245.111 51.9076C245.575 53.1387 246.04 54.3719 245.805 55.7182L245.748 55.9911C244.985 59.1134 243.11 60.87 240.624 61.7146C238.12 62.5644 234.983 62.4919 231.718 61.9088C225.192 60.7431 218.257 57.5558 215.107 55.8485C215.01 55.7959 214.889 55.8228 214.823 55.911C214.757 55.9995 214.766 56.1229 214.844 56.2008C214.876 56.2328 218.547 59.8773 223.108 63.1482C225.387 64.7836 227.899 66.3326 230.296 67.2881C232.557 68.1904 234.757 68.5787 236.569 67.9661C236.66 70.4218 237.81 72.4399 239.546 74.1009C241.352 75.8287 243.801 77.1777 246.379 78.2511C248.959 79.3251 251.684 80.1281 254.054 80.7562C256.435 81.3874 258.434 81.8373 259.604 82.2122C259.626 82.2192 259.648 82.2224 259.671 82.2231C271.888 82.2506 280.612 90.3356 285.64 103.295C290.427 115.634 290.556 126.108 289.845 136.71C289.134 147.307 287.578 158.06 289.022 170.886C289.022 170.89 289.024 170.896 289.024 170.9C289.385 172.951 290.429 174.846 291.814 176.805C293.193 178.756 294.945 180.818 296.709 183.154C300.251 187.846 303.954 193.783 305.332 202.789C307.248 215.299 306.374 224.938 304.765 233.522C303.96 237.818 302.972 241.847 302.055 245.85C301.139 249.849 300.294 253.82 299.783 257.981C299.774 258.052 299.801 258.123 299.854 258.172C299.907 258.22 299.98 258.24 300.05 258.225L300.857 258.053L314.37 282.371C314.376 282.38 314.381 282.389 314.387 282.396C314.796 282.944 315.569 284.263 316.488 285.963C317.405 287.657 318.46 289.716 319.431 291.734C320.403 293.752 321.289 295.725 321.868 297.248C322.159 298.011 322.369 298.653 322.477 299.129C322.53 299.368 322.556 299.555 322.556 299.689C322.555 299.838 322.523 299.863 322.534 299.854C322.489 299.895 322.405 299.948 322.276 299.957C322.163 299.965 321.996 299.94 321.772 299.817L321.672 299.758C321.294 299.519 320.843 299.062 320.338 298.427C319.835 297.797 319.291 297.008 318.724 296.125C317.59 294.357 316.375 292.224 315.228 290.242C314.086 288.266 313.01 286.432 312.159 285.281C311.741 284.714 311.352 284.277 311.02 284.088C310.851 283.991 310.648 283.931 310.451 284.016C310.259 284.1 310.15 284.289 310.086 284.498V284.5C310.04 284.659 310.009 284.896 310.006 285.133C310.002 285.368 310.024 285.632 310.097 285.844C311.167 289.22 311.468 290.768 312.718 295.485C313.796 299.551 314.057 300.929 314.145 302.086L314.174 302.576C314.428 308.391 311.312 313.447 310.114 315.363C309.726 315.985 309.333 316.563 308.909 316.986C308.486 317.408 308.057 317.649 307.599 317.65C307.161 317.65 306.649 317.441 306.395 317.078L306.395 317.077C306.222 316.832 306.186 316.544 306.265 316.179C306.346 315.806 306.544 315.376 306.816 314.873C307.35 313.883 308.159 312.637 308.719 311.174C309.636 308.772 309.681 306.327 309.469 304.487C309.363 303.566 309.192 302.793 309.031 302.247C308.951 301.974 308.873 301.754 308.804 301.599C308.77 301.523 308.735 301.455 308.701 301.403C308.684 301.378 308.662 301.348 308.634 301.322C308.619 301.308 308.579 301.273 308.518 301.257L308.451 301.249H308.444C308.312 301.256 308.249 301.36 308.234 301.388C308.211 301.43 308.195 301.478 308.184 301.522C308.16 301.614 308.139 301.75 308.119 301.938C308.079 302.318 308.04 302.951 308.008 303.972C307.509 307.989 306.229 310.944 305.225 312.803C304.882 313.44 303.906 315.247 302.684 316.828C302.073 317.619 301.407 318.343 300.737 318.835C300.063 319.33 299.418 319.567 298.834 319.453C298.704 319.427 298.14 319.296 297.852 318.841C297.64 318.502 297.651 318.092 297.877 317.547C298.105 316.998 298.534 316.362 299.081 315.613C300.167 314.13 301.689 312.25 302.817 309.914L303.055 309.402C304.199 306.842 304.623 304.332 304.73 302.42C304.787 301.4 304.754 300.547 304.691 299.944C304.66 299.643 304.621 299.4 304.58 299.228C304.56 299.142 304.538 299.067 304.514 299.008C304.501 298.98 304.485 298.946 304.462 298.914C304.446 298.893 304.391 298.821 304.289 298.807L304.282 298.806C304.203 298.798 304.142 298.83 304.106 298.858C304.072 298.885 304.051 298.916 304.04 298.935C304.015 298.973 303.997 299.019 303.984 299.057C303.957 299.138 303.928 299.251 303.896 299.386C303.83 299.664 303.747 300.05 303.624 300.554C303.378 301.551 302.977 302.968 302.282 304.636C302.028 305.246 301.352 306.806 299.914 309.129C298.914 310.744 297.441 313.123 295.894 315.021C295.119 315.971 294.335 316.79 293.591 317.332C292.839 317.878 292.174 318.11 291.619 317.977C291.313 317.905 291.018 317.716 290.787 317.467C290.556 317.218 290.403 316.921 290.362 316.649L290.352 316.561C290.322 316.115 290.567 315.659 290.917 315.244C291.284 314.807 291.725 314.464 291.947 314.283C294.08 312.543 295.758 309.468 296.813 306.8C297.341 305.462 297.717 304.215 297.917 303.27C298.017 302.799 298.075 302.396 298.083 302.091C298.088 301.94 298.08 301.802 298.055 301.688C298.035 301.599 297.994 301.483 297.9 301.405L297.857 301.374L297.81 301.351C297.703 301.31 297.598 301.344 297.535 301.374C297.459 301.41 297.381 301.471 297.303 301.539C297.145 301.679 296.93 301.907 296.644 302.224C296.068 302.863 295.183 303.883 293.794 305.402C293.789 305.403 293.785 305.405 293.781 305.407C293.739 305.427 293.677 305.457 293.591 305.506C293.418 305.601 293.144 305.769 292.727 306.056C291.986 306.568 290.789 307.464 288.901 309.03L291.752 302.695C291.936 302.522 292.069 302.391 292.161 302.291C292.209 302.238 292.249 302.191 292.279 302.15C292.304 302.115 292.339 302.063 292.355 302.005C292.363 301.974 292.373 301.918 292.351 301.854C292.326 301.78 292.27 301.733 292.215 301.71C292.167 301.69 292.123 301.69 292.099 301.691C292.072 301.692 292.048 301.697 292.028 301.701C292.027 301.702 292.025 301.702 292.024 301.703C292.531 300.99 292.913 300.044 293.202 298.903C293.547 297.539 293.766 295.877 293.905 293.961C294.185 290.131 294.148 285.254 294.148 279.67C294.148 279.666 294.147 279.662 294.147 279.659L293.162 259.682C293.239 259.636 293.286 259.547 293.269 259.453C292.615 255.752 291.861 250.202 291.172 245.307C290.827 242.861 290.498 240.579 290.206 238.777C290.06 237.876 289.923 237.093 289.797 236.468C289.673 235.848 289.557 235.37 289.451 235.089C281.306 213.431 271.026 195.998 270.552 195.197C268.518 187.458 267.944 182.387 267.44 177.267C266.936 172.148 266.503 166.976 264.754 159.057C265.349 157.076 265.933 154.824 266.555 152.475C267.019 150.722 267.504 148.915 268.034 147.122C267.916 146.994 267.798 146.871 267.679 146.752C267.12 148.632 266.61 150.529 266.125 152.362C265.495 154.736 264.91 157.001 264.311 158.985C264.3 159.021 264.3 159.06 264.307 159.097C266.06 167.019 266.493 172.18 266.997 177.311C267.503 182.448 268.081 187.552 270.129 195.338C270.134 195.358 270.143 195.378 270.153 195.395C270.213 195.496 280.735 213.176 289.034 235.245C289.126 235.489 289.237 235.935 289.361 236.556C289.485 237.172 289.621 237.949 289.767 238.847C290.058 240.645 290.386 242.923 290.731 245.369C291.408 250.175 292.15 255.631 292.799 259.34C292.741 259.384 292.706 259.453 292.71 259.528L293.703 279.681C293.703 285.271 293.74 290.122 293.462 293.928C293.324 295.832 293.107 297.467 292.771 298.795C292.434 300.126 291.981 301.13 291.385 301.794C291.337 301.846 291.299 301.894 291.27 301.935C291.245 301.97 291.21 302.024 291.197 302.086C291.189 302.119 291.183 302.179 291.211 302.243C291.242 302.314 291.3 302.354 291.351 302.373C291.382 302.384 291.411 302.386 291.433 302.386C291.429 302.39 291.425 302.395 291.42 302.399L291.414 302.405C291.404 302.415 291.394 302.425 291.386 302.437L291.364 302.475L288.101 309.727C288.058 309.822 288.087 309.933 288.17 309.995C288.253 310.057 288.367 310.055 288.446 309.988C290.763 308.039 292.163 306.986 292.98 306.421C293.388 306.139 293.65 305.98 293.807 305.893C293.885 305.849 293.937 305.824 293.967 305.81C293.982 305.803 293.991 305.8 293.996 305.798C294.032 305.785 294.064 305.764 294.089 305.737C295.497 304.199 296.403 303.154 296.974 302.522C297.262 302.202 297.461 301.993 297.598 301.872C297.605 301.866 297.611 301.861 297.617 301.856L297.629 301.846C297.636 301.905 297.642 301.982 297.639 302.079C297.631 302.346 297.58 302.72 297.483 303.178C297.289 304.094 296.92 305.318 296.398 306.637C295.352 309.285 293.709 312.273 291.665 313.94C291.454 314.113 290.976 314.484 290.577 314.959C290.207 315.397 289.865 315.969 289.909 316.591L289.923 316.716C289.98 317.093 290.183 317.467 290.461 317.768C290.739 318.069 291.108 318.313 291.515 318.409C292.265 318.588 293.071 318.259 293.853 317.69C294.643 317.116 295.455 316.263 296.238 315.301C297.804 313.381 299.29 310.982 300.286 309.372L300.292 309.363L300.555 308.931C301.829 306.821 302.447 305.395 302.692 304.807L302.944 304.183C303.498 302.758 303.837 301.545 304.055 300.659C304.128 300.366 304.187 300.104 304.237 299.885C304.241 299.919 304.246 299.954 304.25 299.99C304.31 300.568 304.343 301.398 304.286 302.395C304.182 304.267 303.766 306.721 302.65 309.221L302.417 309.722C301.312 312.01 299.822 313.847 298.722 315.352C298.177 316.097 297.718 316.773 297.467 317.376C297.215 317.983 297.153 318.563 297.475 319.077C297.873 319.708 298.62 319.863 298.748 319.889H298.75C299.514 320.037 300.286 319.718 301 319.193C301.718 318.665 302.413 317.904 303.036 317.098C304.282 315.486 305.273 313.651 305.616 313.014L305.617 313.014C306.641 311.117 307.945 308.105 308.451 304.014L308.453 303.994C308.48 303.136 308.512 302.559 308.543 302.181C308.563 302.241 308.585 302.304 308.605 302.372C308.758 302.893 308.924 303.641 309.027 304.538C309.234 306.332 309.187 308.701 308.303 311.016C307.758 312.443 306.981 313.631 306.424 314.662C306.15 315.169 305.926 315.647 305.831 316.085C305.734 316.53 305.766 316.955 306.03 317.332L306.101 317.425C306.47 317.871 307.086 318.094 307.599 318.094L307.715 318.089C308.293 318.051 308.79 317.733 309.224 317.3C309.686 316.839 310.102 316.222 310.491 315.598L310.738 315.201C312.074 313.036 314.862 308.149 314.618 302.556C314.557 301.196 314.38 300.02 313.148 295.371C311.902 290.673 311.595 289.1 310.521 285.711L310.519 285.704L310.487 285.586C310.46 285.458 310.448 285.301 310.451 285.14C310.454 284.927 310.481 284.735 310.512 284.627C310.562 284.464 310.615 284.429 310.628 284.423C310.636 284.419 310.681 284.405 310.799 284.473C311.04 284.61 311.379 284.971 311.802 285.544C312.633 286.671 313.697 288.481 314.844 290.464C315.987 292.441 317.209 294.585 318.35 296.364C318.921 297.254 319.474 298.056 319.989 298.703C320.502 299.346 320.991 299.852 321.434 300.133C321.771 300.346 322.063 300.417 322.308 300.4C322.554 300.382 322.729 300.277 322.835 300.181L322.836 300.18C322.972 300.054 323 299.857 323 299.69C323 299.508 322.967 299.285 322.91 299.032C322.796 298.525 322.577 297.859 322.285 297.09C321.698 295.55 320.806 293.564 319.832 291.541C318.858 289.518 317.8 287.453 316.88 285.752C315.971 284.072 315.188 282.733 314.754 282.146L301.165 257.695C301.124 257.62 301.044 257.576 300.961 257.58L300.925 257.585L300.264 257.726C300.776 253.7 301.596 249.846 302.489 245.949C303.403 241.954 304.395 237.91 305.202 233.603C306.818 224.982 307.697 215.292 305.772 202.723C304.377 193.616 300.63 187.611 297.064 182.888C295.273 180.515 293.556 178.5 292.178 176.55C290.807 174.61 289.807 172.78 289.462 170.827C288.026 158.057 289.576 147.371 290.289 136.74C291.002 126.109 290.874 115.561 286.055 103.135C280.992 90.0869 272.154 81.8225 259.705 81.779C258.518 81.4021 256.496 80.9452 254.167 80.3281C251.805 79.7013 249.102 78.9047 246.55 77.8422C243.995 76.7784 241.603 75.4544 239.853 73.7805C238.108 72.1105 237.008 70.0995 237.008 67.6495C237.008 67.5758 236.97 67.5066 236.909 67.4656C236.848 67.4246 236.769 67.4169 236.701 67.4451C234.998 68.1449 232.817 67.8161 230.46 66.876C228.111 65.9397 225.634 64.4132 223.368 62.7874C220.348 60.6213 217.719 58.2884 216.293 56.9655C219.849 58.7466 225.893 61.3192 231.64 62.3458C234.935 62.9341 238.159 63.0194 240.766 62.1344C243.391 61.2436 245.379 59.3729 246.18 56.0963C246.567 54.5094 246.028 53.0803 245.545 51.7987L245.518 51.7261C245.016 50.3968 244.608 49.2515 245.109 48.1163C245.644 46.9007 246.967 46.2826 248.079 45.9428C248.169 45.9154 248.232 45.8345 248.236 45.7413C248.241 45.6481 248.186 45.5621 248.1 45.526C247.48 45.2672 246.669 44.8708 245.783 44.2831L245.399 44.0196L245.394 44.0165C244.725 43.5373 244.195 43.158 243.835 42.8293C243.655 42.6655 243.527 42.5229 243.447 42.3962C243.368 42.2712 243.342 42.1733 243.347 42.092C243.352 41.9913 243.408 41.8515 243.617 41.6771C243.828 41.5008 244.18 41.3045 244.735 41.0983C245.844 40.6862 247.71 40.2536 250.733 39.8316C250.815 39.82 250.884 39.763 250.912 39.6845C250.94 39.6061 250.92 39.5188 250.863 39.4586L247.896 36.342C247.269 35.6748 247.224 34.8593 247.535 34.0821C247.851 33.2958 248.526 32.5684 249.298 32.142L249.299 32.1414C251.042 31.1629 252.649 30.4181 254.296 28.5854C254.351 28.5244 254.368 28.4383 254.339 28.3614C254.311 28.2843 254.242 28.2286 254.161 28.2174C251.504 27.852 247.643 26.8969 244.358 23.983C242.372 22.2201 241.324 20.3891 240.354 18.3387C239.445 16.418 238.596 14.2886 237.106 11.8783L236.8 11.3926L236.423 10.8218Z" fill="#101212"/>
</svg>
