<svg width="402" height="144" viewBox="0 0 402 144" fill="none" xmlns="http://www.w3.org/2000/svg">
<path d="M40 143.439C40 143.439 90.3026 119.885 69.5749 101.623C47.2258 81.9321 59.0986 44.1844 69.1402 23.1339C69.9615 19.6078 71.3617 16.7687 73.3646 14.9919C72.0748 17.2643 70.6276 20.016 69.1402 23.1339C65.4059 39.1663 73.639 69.4004 91.6014 78.5528C151.573 109.11 112.761 37.9782 142.787 10.3504C172.814 -17.2774 207.093 19.3535 225.57 17.5313C244.047 15.7092 258.22 -0.696927 273.06 11.4146C287.9 23.5261 339.744 24.7269 363.811 23.8134C363.811 23.8134 270.237 32.1099 268.519 44.6976C266.829 57.0877 310.365 50.8108 311.732 50.6108C309.942 50.8752 235.676 61.985 241.879 84.0889C248.158 106.462 334.381 56.0865 360.755 46.2154C358.497 53.2237 328.755 64.4457 348.304 73.8536C369.391 84.0019 394.385 51.0273 401.193 45.655C389.623 64.7204 368.002 105.71 374.08 117.146C380.158 128.582 354.468 92.2994 335.845 95.1883C317.223 98.0772 303.395 141.218 268.972 128.865C176.37 95.6351 40 143.439 40 143.439Z" fill="#101212"/>
</svg>
