<svg width="200" height="120" viewBox="0 0 200 120" fill="none" xmlns="http://www.w3.org/2000/svg">
<path d="M110.712 75.7676C107.507 76.7947 106.785 79.1963 103.791 82.4285C102.227 84.1202 96.6298 90.1467 89.9348 90.192C83.5556 90.2222 78.6509 84.815 78.3651 84.4978C75.2357 80.9483 74.0922 76.3567 70.3159 74.1364C69.7592 73.8041 68.4503 73.064 66.6148 72.9281C66.6148 72.9281 64.8395 72.7921 63.0491 73.4567C60.1304 74.5442 57.4674 79.1056 56.8656 85.2077C57.0311 81.9905 56.9859 74.1213 51.5998 68.2911C50.6519 67.2792 49.3129 66.0557 46.5446 64.4396C42.7382 62.2193 35.7121 58.9115 25 58.0808C33.7111 56.8875 40.9629 55.5433 46.4242 54.4256C54.2778 52.8245 56.6249 52.0391 58.2648 49.7735C61.4544 45.4084 58.4754 40.4543 62.5075 36.3913C62.8987 35.9986 65.7422 33.1439 68.9318 34.02C71.9258 34.8507 73.009 38.4304 73.1143 38.808C73.8214 32.6908 78.3952 29.2622 81.6148 29.9419C84.7743 30.6064 86.1434 35.0924 86.2036 35.3189C86.3992 34.2314 86.8355 32.6304 87.9488 31.0445C90.8224 26.9513 95.9077 26.332 97.7281 26.1205C98.7362 25.9997 100.827 25.8336 103.385 26.3924C104.95 26.7247 108.831 27.5554 111.585 30.6216C114.789 34.171 113.48 37.4033 117.031 39.7746C117.558 40.122 119.002 41.0736 120.958 41.0434C122.538 41.0283 123.816 40.409 124.885 39.6538C129.428 36.4366 129.834 33.2195 133.22 31.0143C133.746 30.682 136.996 28.6278 140.396 29.2924C147.889 30.7726 151.785 44.5928 152.778 52.2204C153.245 55.7698 152.884 56.4646 153.786 58.0506C158.21 65.8443 174.97 63.5484 175 64.7115C175.03 65.5422 166.499 63.9109 159.579 68.3969C151.484 73.638 153.2 82.3077 142.593 90.615C140.155 92.5181 137.838 93.817 134.995 93.9832C130.978 94.2097 126.886 92.1254 124.313 89.1952C119.89 84.1353 122.101 79.015 117.843 76.402C114.774 74.514 111.103 75.6317 110.712 75.7676Z" fill="#101212"/>
</svg>
