<svg width="362" height="177" viewBox="0 0 362 177" fill="none" xmlns="http://www.w3.org/2000/svg">
<path d="M159.303 7.99433C135.194 53.726 124.432 21.7196 122.065 3.37715e-05C119.445 49.5792 104.343 50.2877 76.6798 3.62798C101.497 47.1241 97.6987 61.9893 63.4646 54.1538C92.4774 75.2727 78.4014 85.075 55.6295 88.3914C92.8681 96.3857 82.743 116.943 59.2566 133.781C109.307 127.386 114.919 135.216 98.2293 165.972C114.125 150.24 135.315 148.347 150.411 176.263C152.078 144.713 158.246 142.025 199.197 165.282C166.075 136.413 180.389 122.103 201.421 123.215C185.769 105.815 183.876 84.6226 220.565 74.5088C180.005 72.3653 173.916 73.5501 212.352 30.3835C170.759 47.7712 160.244 47.2155 159.303 7.99433Z" fill="#101212"/>
<path d="M312.552 119.681C306.874 130.451 304.34 122.913 303.782 117.798C303.165 129.474 299.609 129.641 293.094 118.653C298.939 128.896 298.044 132.397 289.982 130.552C296.815 135.525 293.5 137.834 288.137 138.615C296.907 140.497 294.522 145.339 288.991 149.304C300.778 147.798 302.1 149.642 298.169 156.885C301.913 153.18 306.903 152.734 310.458 159.309C310.851 151.878 312.303 151.245 321.947 156.722C314.147 149.924 317.518 146.554 322.471 146.816C318.785 142.718 318.339 137.727 326.98 135.345C317.427 134.84 315.994 135.119 325.045 124.954C315.25 129.048 312.774 128.918 312.552 119.681Z" fill="#101212"/>
<path d="M275.102 36.5068C263.261 58.9664 257.976 43.2476 256.813 32.5807C255.527 56.9298 248.11 57.2778 234.524 34.3625C246.712 55.7241 244.847 63.0247 228.034 59.1765C242.282 69.5484 235.37 74.3624 224.186 75.9912C242.474 79.9173 237.502 90.0133 225.967 98.2827C250.548 95.1422 253.304 98.9874 245.107 114.092C252.914 106.366 263.321 105.436 270.735 119.146C271.553 103.651 274.583 102.332 294.694 113.753C278.427 99.5752 285.457 92.5476 295.786 93.0934C288.1 84.5481 287.17 74.1402 305.189 69.1732C285.269 68.1205 282.278 68.7024 301.155 47.5025C280.728 56.0419 275.564 55.769 275.102 36.5068Z" fill="#101212"/>
</svg>
