<svg width="200" height="120" viewBox="0 0 200 120" fill="none" xmlns="http://www.w3.org/2000/svg">
<path d="M110.99 86.546C86.4005 77.762 71.1669 87.888 48.896 93.5C48.896 93.5 82.4265 81.422 74.2302 69.71C66.0338 57.9979 48.536 74.0475 36.7257 63.488C31.2478 58.5902 32.2961 54.9823 36.7257 49.9459C45.216 40.2926 82.4265 29.8159 82.4265 29.8159C82.4265 29.8159 64.0468 43.067 73.2366 44.0899C82.4265 45.1129 92.3614 40.6129 96.8322 35.4889C101.303 30.3649 102.793 28.1689 112.48 27.2539C122.166 26.3389 122.166 32.7439 134.833 32.7439C147.501 32.7438 149.984 21.2514 164.887 29.4498C179.789 37.6482 110.99 74.102 110.99 74.102C110.99 74.102 127.382 68.612 140.298 75.932C153.213 83.252 135.579 95.33 110.99 86.546Z" fill="#101212"/>
</svg>
