<svg width="1018" height="218" viewBox="0 0 1018 218" fill="none" xmlns="http://www.w3.org/2000/svg">
<path d="M44.191 35.4899C49.6312 29.3292 58.4895 32.3412 64.0081 36.7238C84.4123 56.6238 151.71 132.728 151.71 132.728C151.584 132.671 151.452 132.616 151.326 132.557C151.71 132.728 52.6047 62.2322 46.6012 56.6238C40.7735 51.1798 38.387 42.069 44.191 35.4899Z" fill="black"/>
<path d="M16.728 82.875C21.1001 74.246 32.0493 75.0469 39.6025 78.4007C68.6188 95.0131 167.392 161.73 167.392 161.73C167.232 161.702 167.066 161.677 166.906 161.648C167.392 161.73 34.1297 110.838 25.6646 106.231C17.4422 101.757 12.0648 92.0891 16.728 82.875Z" fill="black"/>
<path d="M50.3374 149.523C52.3313 141.825 61.2534 140.521 67.8994 141.867C94.0839 150.032 185 185.979 185 185.979C184.867 185.985 184.73 185.995 184.596 186C185 185.979 69.1966 168.857 61.5996 166.667C54.2719 164.555 48.2436 157.623 50.3374 149.523Z" fill="black"/>
<path d="M300.779 15.622V16.282H299.041V15.314C299.041 14.8007 299.166 14.3167 299.415 13.862C299.664 13.4073 299.965 13.0187 300.317 12.696C300.684 12.3587 301.05 12.036 301.417 11.728C301.784 11.42 302.092 11.09 302.341 10.738C302.59 10.386 302.715 10.0267 302.715 9.66V9.616C302.715 9.044 302.51 8.57467 302.099 8.208C301.688 7.84133 301.131 7.658 300.427 7.658C299.767 7.658 299.195 7.86333 298.711 8.274C298.227 8.67 297.934 9.22733 297.831 9.946H296.225C296.284 8.78733 296.716 7.878 297.523 7.218C298.33 6.558 299.305 6.228 300.449 6.228C301.652 6.228 302.612 6.52867 303.331 7.13C304.064 7.73133 304.431 8.516 304.431 9.484V9.528C304.431 10.056 304.306 10.5473 304.057 11.002C303.808 11.4567 303.5 11.8527 303.133 12.19C302.781 12.5127 302.422 12.8353 302.055 13.158C301.703 13.4807 301.402 13.8547 301.153 14.28C300.904 14.6907 300.779 15.138 300.779 15.622ZM300.713 19.758C300.508 19.978 300.244 20.088 299.921 20.088C299.598 20.088 299.327 19.978 299.107 19.758C298.887 19.538 298.777 19.2667 298.777 18.944C298.777 18.636 298.887 18.372 299.107 18.152C299.327 17.9173 299.598 17.8 299.921 17.8C300.244 17.8 300.508 17.9173 300.713 18.152C300.933 18.372 301.043 18.636 301.043 18.944C301.043 19.2667 300.933 19.538 300.713 19.758ZM306.651 8.142H307.487C308.573 8.142 309.306 8.28867 309.687 8.582C310.069 8.87533 310.259 9.54267 310.259 10.584V23.432H308.323V10.54C308.323 10.232 308.272 10.0193 308.169 9.902C308.067 9.77 307.854 9.704 307.531 9.704H306.651V8.142ZM312.889 8.142H313.747C314.818 8.142 315.544 8.28867 315.925 8.582C316.306 8.87533 316.497 9.54267 316.497 10.584V20H314.561V10.54C314.561 10.232 314.51 10.0193 314.407 9.902C314.304 9.77 314.099 9.704 313.791 9.704H312.889V8.142ZM323.142 20.286C321.661 20.3593 320.378 20.154 319.292 19.67V17.976C320.319 18.504 321.419 18.746 322.592 18.702C323.795 18.658 324.763 18.24 325.496 17.448C326.23 16.656 326.596 15.5633 326.596 14.17C326.596 12.762 326.23 11.6693 325.496 10.892C324.763 10.1 323.795 9.67467 322.592 9.616C321.448 9.58667 320.348 9.814 319.292 10.298V8.648C320.524 8.14933 321.808 7.95133 323.142 8.054C324.77 8.17133 326.076 8.78 327.058 9.88C328.056 10.9653 328.554 12.3953 328.554 14.17C328.554 15.93 328.056 17.3673 327.058 18.482C326.061 19.582 324.756 20.1833 323.142 20.286ZM334.071 15.38H332.135V10.54C332.135 9.98267 331.835 9.704 331.233 9.704H330.463V8.142H331.189C332.275 8.142 333.023 8.296 333.433 8.604C333.859 8.89733 334.071 9.55733 334.071 10.584V15.38ZM342.697 7.834C344.501 7.834 345.909 8.37667 346.921 9.462C347.947 10.5327 348.461 12.036 348.461 13.972V14.148C348.461 16.084 347.947 17.5947 346.921 18.68C345.909 19.7507 344.501 20.286 342.697 20.286C340.922 20.286 339.536 19.7507 338.539 18.68C337.541 17.6093 337.043 16.1133 337.043 14.192V13.928C337.043 12.0213 337.541 10.5327 338.539 9.462C339.536 8.37667 340.922 7.834 342.697 7.834ZM346.525 14.236V13.906C346.525 12.498 346.18 11.398 345.491 10.606C344.816 9.814 343.892 9.418 342.719 9.418C341.56 9.418 340.643 9.814 339.969 10.606C339.309 11.398 338.979 12.498 338.979 13.906V14.236C338.979 15.644 339.309 16.744 339.969 17.536C340.643 18.3133 341.56 18.702 342.719 18.702C343.892 18.702 344.816 18.306 345.491 17.514C346.18 16.722 346.525 15.6293 346.525 14.236ZM350.902 8.142H356.886C358.543 8.142 359.768 8.56 360.56 9.396C361.352 10.2173 361.748 11.5007 361.748 13.246V20H359.812V12.85C359.812 11.8233 359.548 11.046 359.02 10.518C358.506 9.97533 357.773 9.704 356.82 9.704H350.902V8.142ZM351.034 13.356H352.97V20H351.034V13.356ZM372.937 15.38H371.001V10.54C371.001 9.98267 370.7 9.704 370.099 9.704H369.329V8.142H370.055C371.14 8.142 371.888 8.296 372.299 8.604C372.724 8.89733 372.937 9.55733 372.937 10.584V15.38ZM382.86 7.922H382.97C384.378 7.922 385.544 8.472 386.468 9.572C387.392 10.6573 387.854 12.0727 387.854 13.818V14.236C387.854 15.7467 387.48 17.0227 386.732 18.064C385.999 19.0907 385.075 19.736 383.96 20C382.713 20.2933 381.496 20.264 380.308 19.912V18.328C381.247 18.68 382.251 18.7167 383.322 18.438C384.07 18.262 384.686 17.7927 385.17 17.03C385.669 16.2527 385.918 15.3067 385.918 14.192V13.862C385.918 12.5567 385.595 11.508 384.95 10.716C384.319 9.90933 383.505 9.506 382.508 9.506H382.42C381.452 9.506 380.638 9.836 379.978 10.496C379.318 11.1413 378.944 11.904 378.856 12.784L378.064 20H376.128L376.964 12.696C377.052 12.0213 377.037 11.3687 376.92 10.738C376.803 10.1073 376.685 9.66 376.568 9.396C376.451 9.11733 376.253 8.69933 375.974 8.142H377.91C377.939 8.20067 377.998 8.33267 378.086 8.538C378.174 8.72867 378.24 8.87533 378.284 8.978C378.328 9.08067 378.379 9.22733 378.438 9.418C378.511 9.594 378.563 9.77733 378.592 9.968C378.636 10.1587 378.673 10.364 378.702 10.584C379.069 9.792 379.604 9.154 380.308 8.67C381.027 8.17133 381.877 7.922 382.86 7.922ZM398.085 20H396.149V12.85C396.149 11.8233 395.885 11.046 395.357 10.518C394.844 9.97533 394.11 9.704 393.157 9.704H389.351V8.142H393.223C394.88 8.142 396.105 8.56 396.897 9.396C397.689 10.2173 398.085 11.5007 398.085 13.246V20ZM400.588 8.142H401.446C402.517 8.142 403.243 8.28867 403.624 8.582C404.006 8.87533 404.196 9.54267 404.196 10.584V20H402.26V10.54C402.26 10.232 402.209 10.0193 402.106 9.902C402.004 9.77 401.798 9.704 401.49 9.704H400.588V8.142ZM407.168 20.088H406.838V18.416H407.124C407.901 18.416 408.671 18.13 409.434 17.558C410.211 16.986 410.666 16.326 410.798 15.578L410.82 11.42C410.82 10.848 410.71 10.4227 410.49 10.144C410.284 9.85067 409.903 9.704 409.346 9.704H408.202V8.142H409.588C410.761 8.142 411.582 8.39133 412.052 8.89C412.521 9.38867 412.756 10.2467 412.756 11.464V16.128L413.394 20H411.568L411.106 17.074H410.996C410.805 17.7633 410.321 18.438 409.544 19.098C408.766 19.758 407.974 20.088 407.168 20.088ZM421.284 8.142H427.268C428.926 8.142 430.15 8.56 430.942 9.396C431.734 10.2173 432.13 11.5007 432.13 13.246V20H430.194V12.85C430.194 11.8233 429.93 11.046 429.402 10.518C428.889 9.97533 428.156 9.704 427.202 9.704H421.284V8.142ZM421.416 13.356H423.352V20H421.416V13.356ZM441.813 7.922H441.923C443.331 7.922 444.497 8.472 445.421 9.572C446.345 10.6573 446.807 12.0727 446.807 13.818V14.236C446.807 15.7467 446.433 17.0227 445.685 18.064C444.952 19.0907 444.028 19.736 442.913 20C441.666 20.2933 440.449 20.264 439.261 19.912V18.328C440.2 18.68 441.204 18.7167 442.275 18.438C443.023 18.262 443.639 17.7927 444.123 17.03C444.622 16.2527 444.871 15.3067 444.871 14.192V13.862C444.871 12.5567 444.548 11.508 443.903 10.716C443.272 9.90933 442.458 9.506 441.461 9.506H441.373C440.405 9.506 439.591 9.836 438.931 10.496C438.271 11.1413 437.897 11.904 437.809 12.784L437.017 20H435.081L435.917 12.696C436.005 12.0213 435.99 11.3687 435.873 10.738C435.756 10.1073 435.638 9.66 435.521 9.396C435.404 9.11733 435.206 8.69933 434.927 8.142H436.863C436.892 8.20067 436.951 8.33267 437.039 8.538C437.127 8.72867 437.193 8.87533 437.237 8.978C437.281 9.08067 437.332 9.22733 437.391 9.418C437.464 9.594 437.516 9.77733 437.545 9.968C437.589 10.1587 437.626 10.364 437.655 10.584C438.022 9.792 438.557 9.154 439.261 8.67C439.98 8.17133 440.83 7.922 441.813 7.922Z" fill="#101212"/>
<path d="M263.327 47.22H261.743V43.26C261.743 42.804 261.497 42.576 261.005 42.576H260.375V41.298H260.969C261.857 41.298 262.469 41.424 262.805 41.676C263.153 41.916 263.327 42.456 263.327 43.296V47.22ZM271.446 41.118H271.536C272.688 41.118 273.642 41.568 274.398 42.468C275.154 43.356 275.532 44.514 275.532 45.942V46.284C275.532 47.52 275.226 48.564 274.614 49.416C274.014 50.256 273.258 50.784 272.346 51C271.326 51.24 270.33 51.216 269.358 50.928V49.632C270.126 49.92 270.948 49.95 271.824 49.722C272.436 49.578 272.94 49.194 273.336 48.57C273.744 47.934 273.948 47.16 273.948 46.248V45.978C273.948 44.91 273.684 44.052 273.156 43.404C272.64 42.744 271.974 42.414 271.158 42.414H271.086C270.294 42.414 269.628 42.684 269.088 43.224C268.548 43.752 268.242 44.376 268.17 45.096L267.522 51H265.938L266.622 45.024C266.694 44.472 266.682 43.938 266.586 43.422C266.49 42.906 266.394 42.54 266.298 42.324C266.202 42.096 266.04 41.754 265.812 41.298H267.396C267.42 41.346 267.468 41.454 267.54 41.622C267.612 41.778 267.666 41.898 267.702 41.982C267.738 42.066 267.78 42.186 267.828 42.342C267.888 42.486 267.93 42.636 267.954 42.792C267.99 42.948 268.02 43.116 268.044 43.296C268.344 42.648 268.782 42.126 269.358 41.73C269.946 41.322 270.642 41.118 271.446 41.118ZM283.903 51H282.319V45.15C282.319 44.31 282.103 43.674 281.671 43.242C281.251 42.798 280.651 42.576 279.871 42.576H276.757V41.298H279.925C281.281 41.298 282.283 41.64 282.931 42.324C283.579 42.996 283.903 44.046 283.903 45.474V51ZM285.951 41.298H286.653C287.529 41.298 288.123 41.418 288.435 41.658C288.747 41.898 288.903 42.444 288.903 43.296V51H287.319V43.26C287.319 43.008 287.277 42.834 287.193 42.738C287.109 42.63 286.941 42.576 286.689 42.576H285.951V41.298ZM291.334 51.072H291.064V49.704H291.298C291.934 49.704 292.564 49.47 293.188 49.002C293.824 48.534 294.196 47.994 294.304 47.382L294.322 43.98C294.322 43.512 294.232 43.164 294.052 42.936C293.884 42.696 293.572 42.576 293.116 42.576H292.18V41.298H293.314C294.274 41.298 294.946 41.502 295.33 41.91C295.714 42.318 295.906 43.02 295.906 44.016V47.832L296.428 51H294.934L294.556 48.606H294.466C294.31 49.17 293.914 49.722 293.278 50.262C292.642 50.802 291.994 51.072 291.334 51.072ZM309.76 51H308.176V45.15C308.176 44.31 307.96 43.674 307.528 43.242C307.108 42.798 306.508 42.576 305.728 42.576H302.614V41.298H305.782C307.138 41.298 308.14 41.64 308.788 42.324C309.436 42.996 309.76 44.046 309.76 45.474V51ZM316.308 51.252C315.54 51.264 314.754 51.192 313.95 51.036C313.158 50.892 312.51 50.718 312.006 50.514V49.146C312.438 49.386 313.026 49.596 313.77 49.776C314.514 49.944 315.264 50.022 316.02 50.01C317.124 49.986 318.018 49.62 318.702 48.912C319.398 48.192 319.746 47.274 319.746 46.158C319.746 45.03 319.434 44.124 318.81 43.44C318.186 42.744 317.34 42.396 316.272 42.396C315.492 42.396 314.838 42.582 314.31 42.954C313.794 43.326 313.524 43.8 313.5 44.376C313.488 44.94 313.668 45.39 314.04 45.726C314.424 46.062 314.964 46.212 315.66 46.176V47.346C314.52 47.406 313.614 47.166 312.942 46.626C312.282 46.086 311.952 45.354 311.952 44.43C311.964 43.458 312.384 42.666 313.212 42.054C314.04 41.442 315.096 41.136 316.38 41.136C317.892 41.136 319.098 41.592 319.998 42.504C320.898 43.416 321.348 44.616 321.348 46.104C321.348 47.592 320.88 48.81 319.944 49.758C319.02 50.706 317.808 51.204 316.308 51.252ZM328.022 41.046C329.498 41.046 330.65 41.49 331.478 42.378C332.318 43.254 332.738 44.484 332.738 46.068V46.212C332.738 47.796 332.318 49.032 331.478 49.92C330.65 50.796 329.498 51.234 328.022 51.234C326.57 51.234 325.436 50.796 324.62 49.92C323.804 49.044 323.396 47.82 323.396 46.248V46.032C323.396 44.472 323.804 43.254 324.62 42.378C325.436 41.49 326.57 41.046 328.022 41.046ZM331.154 46.284V46.014C331.154 44.862 330.872 43.962 330.308 43.314C329.756 42.666 329 42.342 328.04 42.342C327.092 42.342 326.342 42.666 325.79 43.314C325.25 43.962 324.98 44.862 324.98 46.014V46.284C324.98 47.436 325.25 48.336 325.79 48.984C326.342 49.62 327.092 49.938 328.04 49.938C329 49.938 329.756 49.614 330.308 48.966C330.872 48.318 331.154 47.424 331.154 46.284ZM340.176 41.118H340.266C341.418 41.118 342.372 41.568 343.128 42.468C343.884 43.356 344.262 44.514 344.262 45.942V46.284C344.262 47.52 343.956 48.564 343.344 49.416C342.744 50.256 341.988 50.784 341.076 51C340.056 51.24 339.06 51.216 338.088 50.928V49.632C338.856 49.92 339.678 49.95 340.554 49.722C341.166 49.578 341.67 49.194 342.066 48.57C342.474 47.934 342.678 47.16 342.678 46.248V45.978C342.678 44.91 342.414 44.052 341.886 43.404C341.37 42.744 340.704 42.414 339.888 42.414H339.816C339.024 42.414 338.358 42.684 337.818 43.224C337.278 43.752 336.972 44.376 336.9 45.096L336.252 51H334.668L335.352 45.024C335.424 44.472 335.412 43.938 335.316 43.422C335.22 42.906 335.124 42.54 335.028 42.324C334.932 42.096 334.77 41.754 334.542 41.298H336.126C336.15 41.346 336.198 41.454 336.27 41.622C336.342 41.778 336.396 41.898 336.432 41.982C336.468 42.066 336.51 42.186 336.558 42.342C336.618 42.486 336.66 42.636 336.684 42.792C336.72 42.948 336.75 43.116 336.774 43.296C337.074 42.648 337.512 42.126 338.088 41.73C338.676 41.322 339.372 41.118 340.176 41.118ZM350.076 41.298H350.778C351.654 41.298 352.248 41.418 352.56 41.658C352.872 41.898 353.028 42.444 353.028 43.296V51H351.444V43.26C351.444 43.008 351.402 42.834 351.318 42.738C351.234 42.63 351.066 42.576 350.814 42.576H350.076V41.298ZM365.107 41.298L364.513 43.944C364.129 45.648 363.289 46.686 361.993 47.058L364.927 51H363.037L359.059 45.672C358.519 45.804 358.057 46.122 357.673 46.626C357.301 47.118 357.115 47.79 357.115 48.642V51H355.531V48.876C355.531 47.784 355.807 46.884 356.359 46.176C356.923 45.456 357.613 45 358.429 44.808L355.801 41.298H357.691L361.273 46.104C362.113 45.816 362.671 45.072 362.947 43.872L363.487 41.298H365.107ZM374.888 41.298L374.816 42.828C374.768 43.788 374.504 44.598 374.024 45.258C373.556 45.906 372.956 46.398 372.224 46.734L374.654 50.082V51H366.95V49.722H372.62L368.858 44.736C367.838 43.32 367.268 42.246 367.148 41.514L367.13 41.298H368.714L368.732 41.37C368.864 41.886 369.386 42.792 370.298 44.088L371.576 45.834C372.056 45.63 372.446 45.282 372.746 44.79C373.058 44.298 373.22 43.734 373.232 43.098L373.304 41.298H374.888ZM382.522 41.118H382.612C383.764 41.118 384.718 41.568 385.474 42.468C386.23 43.356 386.608 44.514 386.608 45.942V46.284C386.608 47.52 386.302 48.564 385.69 49.416C385.09 50.256 384.334 50.784 383.422 51C382.402 51.24 381.406 51.216 380.434 50.928V49.632C381.202 49.92 382.024 49.95 382.9 49.722C383.512 49.578 384.016 49.194 384.412 48.57C384.82 47.934 385.024 47.16 385.024 46.248V45.978C385.024 44.91 384.76 44.052 384.232 43.404C383.716 42.744 383.05 42.414 382.234 42.414H382.162C381.37 42.414 380.704 42.684 380.164 43.224C379.624 43.752 379.318 44.376 379.246 45.096L378.598 51H377.014L377.698 45.024C377.77 44.472 377.758 43.938 377.662 43.422C377.566 42.906 377.47 42.54 377.374 42.324C377.278 42.096 377.116 41.754 376.888 41.298H378.472C378.496 41.346 378.544 41.454 378.616 41.622C378.688 41.778 378.742 41.898 378.778 41.982C378.814 42.066 378.856 42.186 378.904 42.342C378.964 42.486 379.006 42.636 379.03 42.792C379.066 42.948 379.096 43.116 379.12 43.296C379.42 42.648 379.858 42.126 380.434 41.73C381.022 41.322 381.718 41.118 382.522 41.118ZM392.871 41.298H397.623C399.171 41.298 400.227 41.646 400.791 42.342C401.367 43.026 401.655 44.214 401.655 45.906V51H392.871V41.298ZM397.569 42.576H394.455V49.722H400.071V45.582C400.071 44.454 399.897 43.674 399.549 43.242C399.213 42.798 398.553 42.576 397.569 42.576ZM406.887 47.22H405.303V43.26C405.303 42.804 405.057 42.576 404.565 42.576H403.935V41.298H404.529C405.417 41.298 406.029 41.424 406.365 41.676C406.713 41.916 406.887 42.456 406.887 43.296V47.22ZM409.75 41.298H414.34C415.696 41.298 416.698 41.64 417.346 42.324C417.994 42.996 418.318 44.046 418.318 45.474V51H416.734V45.15C416.734 44.31 416.518 43.674 416.086 43.242C415.666 42.798 415.066 42.576 414.286 42.576H411.352V51H409.75V41.298ZM426.379 41.118H426.469C427.621 41.118 428.575 41.568 429.331 42.468C430.087 43.356 430.465 44.514 430.465 45.942V46.284C430.465 47.52 430.159 48.564 429.547 49.416C428.947 50.256 428.191 50.784 427.279 51C426.259 51.24 425.263 51.216 424.291 50.928V49.632C425.059 49.92 425.881 49.95 426.757 49.722C427.369 49.578 427.873 49.194 428.269 48.57C428.677 47.934 428.881 47.16 428.881 46.248V45.978C428.881 44.91 428.617 44.052 428.089 43.404C427.573 42.744 426.907 42.414 426.091 42.414H426.019C425.227 42.414 424.561 42.684 424.021 43.224C423.481 43.752 423.175 44.376 423.103 45.096L422.455 51H420.871L421.555 45.024C421.627 44.472 421.615 43.938 421.519 43.422C421.423 42.906 421.327 42.54 421.231 42.324C421.135 42.096 420.973 41.754 420.745 41.298H422.329C422.353 41.346 422.401 41.454 422.473 41.622C422.545 41.778 422.599 41.898 422.635 41.982C422.671 42.066 422.713 42.186 422.761 42.342C422.821 42.486 422.863 42.636 422.887 42.792C422.923 42.948 422.953 43.116 422.977 43.296C423.277 42.648 423.715 42.126 424.291 41.73C424.879 41.322 425.575 41.118 426.379 41.118ZM431.867 41.298H432.569C433.445 41.298 434.039 41.418 434.351 41.658C434.663 41.898 434.819 42.444 434.819 43.296V51H433.235V43.26C433.235 43.008 433.193 42.834 433.109 42.738C433.025 42.63 432.857 42.576 432.605 42.576H431.867V41.298ZM442.938 41.118H443.028C444.18 41.118 445.134 41.568 445.89 42.468C446.646 43.356 447.024 44.514 447.024 45.942V46.284C447.024 47.52 446.718 48.564 446.106 49.416C445.506 50.256 444.75 50.784 443.838 51C442.818 51.24 441.822 51.216 440.85 50.928V49.632C441.618 49.92 442.44 49.95 443.316 49.722C443.928 49.578 444.432 49.194 444.828 48.57C445.236 47.934 445.44 47.16 445.44 46.248V45.978C445.44 44.91 445.176 44.052 444.648 43.404C444.132 42.744 443.466 42.414 442.65 42.414H442.578C441.786 42.414 441.12 42.684 440.58 43.224C440.04 43.752 439.734 44.376 439.662 45.096L439.014 51H437.43L438.114 45.024C438.186 44.472 438.174 43.938 438.078 43.422C437.982 42.906 437.886 42.54 437.79 42.324C437.694 42.096 437.532 41.754 437.304 41.298H438.888C438.912 41.346 438.96 41.454 439.032 41.622C439.104 41.778 439.158 41.898 439.194 41.982C439.23 42.066 439.272 42.186 439.32 42.342C439.38 42.486 439.422 42.636 439.446 42.792C439.482 42.948 439.512 43.116 439.536 43.296C439.836 42.648 440.274 42.126 440.85 41.73C441.438 41.322 442.134 41.118 442.938 41.118ZM277.968 62.936C278.22 62.936 278.436 63.032 278.616 63.224C278.796 63.416 278.886 63.638 278.886 63.89C278.886 64.154 278.796 64.376 278.616 64.556C278.436 64.736 278.22 64.826 277.968 64.826C277.704 64.826 277.476 64.736 277.284 64.556C277.104 64.376 277.014 64.154 277.014 63.89C277.014 63.638 277.104 63.416 277.284 63.224C277.476 63.032 277.704 62.936 277.968 62.936ZM277.968 69.182C278.22 69.182 278.436 69.278 278.616 69.47C278.796 69.662 278.886 69.884 278.886 70.136C278.886 70.4 278.796 70.622 278.616 70.802C278.436 70.982 278.22 71.072 277.968 71.072C277.704 71.072 277.476 70.982 277.284 70.802C277.104 70.622 277.014 70.4 277.014 70.136C277.014 69.884 277.104 69.662 277.284 69.47C277.476 69.278 277.704 69.182 277.968 69.182ZM281.439 61.298H286.335C287.691 61.298 288.693 61.64 289.341 62.324C289.989 62.996 290.313 64.046 290.313 65.474V71H288.729V65.15C288.729 64.31 288.513 63.674 288.081 63.242C287.661 62.798 287.061 62.576 286.281 62.576H281.439V61.298ZM281.547 65.564H283.131V71H281.547V65.564ZM299.801 61.298V62.594L296.255 71L294.617 70.982L298.181 62.576H292.277V58.94H293.861V61.298H299.801ZM302.207 61.298H306.797C308.153 61.298 309.155 61.64 309.803 62.324C310.451 62.996 310.775 64.046 310.775 65.474V71H309.191V65.15C309.191 64.31 308.975 63.674 308.543 63.242C308.123 62.798 307.523 62.576 306.743 62.576H303.809V71H302.207V61.298ZM318.836 61.118H318.926C320.078 61.118 321.032 61.568 321.788 62.468C322.544 63.356 322.922 64.514 322.922 65.942V66.284C322.922 67.52 322.616 68.564 322.004 69.416C321.404 70.256 320.648 70.784 319.736 71C318.716 71.24 317.72 71.216 316.748 70.928V69.632C317.516 69.92 318.338 69.95 319.214 69.722C319.826 69.578 320.33 69.194 320.726 68.57C321.134 67.934 321.338 67.16 321.338 66.248V65.978C321.338 64.91 321.074 64.052 320.546 63.404C320.03 62.744 319.364 62.414 318.548 62.414H318.476C317.684 62.414 317.018 62.684 316.478 63.224C315.938 63.752 315.632 64.376 315.56 65.096L314.912 71H313.328L314.012 65.024C314.084 64.472 314.072 63.938 313.976 63.422C313.88 62.906 313.784 62.54 313.688 62.324C313.592 62.096 313.43 61.754 313.202 61.298H314.786C314.81 61.346 314.858 61.454 314.93 61.622C315.002 61.778 315.056 61.898 315.092 61.982C315.128 62.066 315.17 62.186 315.218 62.342C315.278 62.486 315.32 62.636 315.344 62.792C315.38 62.948 315.41 63.116 315.434 63.296C315.734 62.648 316.172 62.126 316.748 61.73C317.336 61.322 318.032 61.118 318.836 61.118ZM331.828 61.298V62.594L328.282 71L326.644 70.982L330.208 62.576H324.304V58.94H325.888V61.298H331.828ZM342.37 61.298H347.122C348.67 61.298 349.726 61.646 350.29 62.342C350.866 63.026 351.154 64.214 351.154 65.906V71H342.37V61.298ZM347.068 62.576H343.954V69.722H349.57V65.582C349.57 64.454 349.396 63.674 349.048 63.242C348.712 62.798 348.052 62.576 347.068 62.576ZM356.385 67.22H354.801V63.26C354.801 62.804 354.555 62.576 354.063 62.576H353.433V61.298H354.027C354.915 61.298 355.527 61.424 355.863 61.676C356.211 61.916 356.385 62.456 356.385 63.296V67.22ZM361.588 67.22H360.004V63.26C360.004 62.804 359.758 62.576 359.266 62.576H358.636V61.298H359.23C360.118 61.298 360.73 61.424 361.066 61.676C361.414 61.916 361.588 62.456 361.588 63.296V67.22ZM370.668 71H369.084V65.15C369.084 64.31 368.868 63.674 368.436 63.242C368.016 62.798 367.416 62.576 366.636 62.576H363.522V61.298H366.69C368.046 61.298 369.048 61.64 369.696 62.324C370.344 62.996 370.668 64.046 370.668 65.474V71ZM382.256 65.834V61.28H383.84V65.816C383.84 67.34 383.348 68.618 382.364 69.65C381.392 70.67 380.108 71.18 378.512 71.18H378.278C376.754 71.18 375.5 70.676 374.516 69.668C373.544 68.66 373.058 67.376 373.058 65.816V61.28H374.66V65.834C374.66 66.026 374.666 66.164 374.678 66.248H375.11C375.926 66.248 376.556 66.05 377 65.654C377.444 65.258 377.666 64.682 377.666 63.926V61.28H379.25V63.854C379.25 64.85 378.896 65.654 378.188 66.266C377.492 66.878 376.514 67.184 375.254 67.184H374.822C375.038 68.06 375.458 68.732 376.082 69.2C376.718 69.656 377.45 69.884 378.278 69.884H378.53C379.646 69.884 380.546 69.53 381.23 68.822C381.914 68.114 382.256 67.118 382.256 65.834ZM390.488 71.252C389.72 71.264 388.934 71.192 388.13 71.036C387.338 70.892 386.69 70.718 386.186 70.514V69.146C386.618 69.386 387.206 69.596 387.95 69.776C388.694 69.944 389.444 70.022 390.2 70.01C391.304 69.986 392.198 69.62 392.882 68.912C393.578 68.192 393.926 67.274 393.926 66.158C393.926 65.03 393.614 64.124 392.99 63.44C392.366 62.744 391.52 62.396 390.452 62.396C389.672 62.396 389.018 62.582 388.49 62.954C387.974 63.326 387.704 63.8 387.68 64.376C387.668 64.94 387.848 65.39 388.22 65.726C388.604 66.062 389.144 66.212 389.84 66.176V67.346C388.7 67.406 387.794 67.166 387.122 66.626C386.462 66.086 386.132 65.354 386.132 64.43C386.144 63.458 386.564 62.666 387.392 62.054C388.22 61.442 389.276 61.136 390.56 61.136C392.072 61.136 393.278 61.592 394.178 62.504C395.078 63.416 395.528 64.616 395.528 66.104C395.528 67.592 395.06 68.81 394.124 69.758C393.2 70.706 391.988 71.204 390.488 71.252ZM406.943 61.298L406.349 63.944C405.965 65.648 405.125 66.686 403.829 67.058L406.763 71H404.873L400.895 65.672C400.355 65.804 399.893 66.122 399.509 66.626C399.137 67.118 398.951 67.79 398.951 68.642V71H397.367V68.876C397.367 67.784 397.643 66.884 398.195 66.176C398.759 65.456 399.449 65 400.265 64.808L397.637 61.298H399.527L403.109 66.104C403.949 65.816 404.507 65.072 404.783 63.872L405.323 61.298H406.943ZM412.718 61.298H413.402C414.29 61.298 414.89 61.418 415.202 61.658C415.514 61.898 415.67 62.444 415.67 63.296V73.808H414.086V63.26C414.086 63.008 414.044 62.834 413.96 62.738C413.876 62.63 413.702 62.576 413.438 62.576H412.718V61.298ZM417.822 61.298H418.524C419.4 61.298 419.994 61.418 420.306 61.658C420.618 61.898 420.774 62.444 420.774 63.296V71H419.19V63.26C419.19 63.008 419.148 62.834 419.064 62.738C418.98 62.63 418.812 62.576 418.56 62.576H417.822V61.298ZM426.211 71.234C424.999 71.294 423.949 71.126 423.061 70.73V69.344C423.901 69.776 424.801 69.974 425.761 69.938C426.745 69.902 427.537 69.56 428.137 68.912C428.737 68.264 429.037 67.37 429.037 66.23C429.037 65.078 428.737 64.184 428.137 63.548C427.537 62.9 426.745 62.552 425.761 62.504C424.825 62.48 423.925 62.666 423.061 63.062V61.712C424.069 61.304 425.119 61.142 426.211 61.226C427.543 61.322 428.611 61.82 429.415 62.72C430.231 63.608 430.639 64.778 430.639 66.23C430.639 67.67 430.231 68.846 429.415 69.758C428.599 70.658 427.531 71.15 426.211 71.234ZM435.153 67.22H433.569V63.26C433.569 62.804 433.323 62.576 432.831 62.576H432.201V61.298H432.795C433.683 61.298 434.295 61.424 434.631 61.676C434.979 61.916 435.153 62.456 435.153 63.296V67.22ZM442.21 61.046C443.686 61.046 444.838 61.49 445.666 62.378C446.506 63.254 446.926 64.484 446.926 66.068V66.212C446.926 67.796 446.506 69.032 445.666 69.92C444.838 70.796 443.686 71.234 442.21 71.234C440.758 71.234 439.624 70.796 438.808 69.92C437.992 69.044 437.584 67.82 437.584 66.248V66.032C437.584 64.472 437.992 63.254 438.808 62.378C439.624 61.49 440.758 61.046 442.21 61.046ZM445.342 66.284V66.014C445.342 64.862 445.06 63.962 444.496 63.314C443.944 62.666 443.188 62.342 442.228 62.342C441.28 62.342 440.53 62.666 439.978 63.314C439.438 63.962 439.168 64.862 439.168 66.014V66.284C439.168 67.436 439.438 68.336 439.978 68.984C440.53 69.62 441.28 69.938 442.228 69.938C443.188 69.938 443.944 69.614 444.496 68.966C445.06 68.318 445.342 67.424 445.342 66.284Z" fill="#101212"/>
<path d="M358.59 93.298H363.342C364.89 93.298 365.946 93.646 366.51 94.342C367.086 95.026 367.374 96.214 367.374 97.906V103H358.59V93.298ZM363.288 94.576H360.174V101.722H365.79V97.582C365.79 96.454 365.616 95.674 365.268 95.242C364.932 94.798 364.272 94.576 363.288 94.576ZM372.606 99.22H371.022V95.26C371.022 94.804 370.776 94.576 370.284 94.576H369.654V93.298H370.248C371.136 93.298 371.748 93.424 372.084 93.676C372.432 93.916 372.606 94.456 372.606 95.296V99.22ZM374.959 93.298H376.327C377.203 93.298 377.815 93.496 378.163 93.892C378.511 94.276 378.697 94.942 378.721 95.89V103H374.455V101.722H377.137V95.782C377.137 94.978 376.825 94.576 376.201 94.576H374.959V93.298ZM380.957 93.298H381.659C382.535 93.298 383.129 93.418 383.441 93.658C383.753 93.898 383.909 94.444 383.909 95.296V103H382.325V95.26C382.325 95.008 382.283 94.834 382.199 94.738C382.115 94.63 381.947 94.576 381.695 94.576H380.957V93.298ZM392.028 93.118H392.118C393.27 93.118 394.224 93.568 394.98 94.468C395.736 95.356 396.114 96.514 396.114 97.942V98.284C396.114 99.52 395.808 100.564 395.196 101.416C394.596 102.256 393.84 102.784 392.928 103C391.908 103.24 390.912 103.216 389.94 102.928V101.632C390.708 101.92 391.53 101.95 392.406 101.722C393.018 101.578 393.522 101.194 393.918 100.57C394.326 99.934 394.53 99.16 394.53 98.248V97.978C394.53 96.91 394.266 96.052 393.738 95.404C393.222 94.744 392.556 94.414 391.74 94.414H391.668C390.876 94.414 390.21 94.684 389.67 95.224C389.13 95.752 388.824 96.376 388.752 97.096L388.104 103H386.52L387.204 97.024C387.276 96.472 387.264 95.938 387.168 95.422C387.072 94.906 386.976 94.54 386.88 94.324C386.784 94.096 386.622 93.754 386.394 93.298H387.978C388.002 93.346 388.05 93.454 388.122 93.622C388.194 93.778 388.248 93.898 388.284 93.982C388.32 94.066 388.362 94.186 388.41 94.342C388.47 94.486 388.512 94.636 388.536 94.792C388.572 94.948 388.602 95.116 388.626 95.296C388.926 94.648 389.364 94.126 389.94 93.73C390.528 93.322 391.224 93.118 392.028 93.118ZM404.485 103H402.901V97.15C402.901 96.31 402.685 95.674 402.253 95.242C401.833 94.798 401.233 94.576 400.453 94.576H397.339V93.298H400.507C401.863 93.298 402.865 93.64 403.513 94.324C404.161 94.996 404.485 96.046 404.485 97.474V103ZM406.533 93.298H407.235C408.111 93.298 408.705 93.418 409.017 93.658C409.329 93.898 409.485 94.444 409.485 95.296V103H407.901V95.26C407.901 95.008 407.859 94.834 407.775 94.738C407.691 94.63 407.523 94.576 407.271 94.576H406.533V93.298ZM411.97 93.298H416.866C418.222 93.298 419.224 93.64 419.872 94.324C420.52 94.996 420.844 96.046 420.844 97.474V103H419.26V97.15C419.26 96.31 419.044 95.674 418.612 95.242C418.192 94.798 417.592 94.576 416.812 94.576H411.97V93.298ZM412.078 97.564H413.662V103H412.078V97.564Z" fill="#101212"/>
<path d="M448 97.0009C448 97.0009 442.306 96.4508 440.999 90C439.762 96.5883 433.998 97.0009 433.998 97.0009C433.998 97.0009 440.381 98.5822 440.999 104.002C442.031 98.5135 448 97.0009 448 97.0009Z" fill="#101212"/>
<path d="M337.667 121.298H344.147C345.503 121.298 346.505 121.64 347.153 122.324C347.801 122.996 348.125 124.046 348.125 125.474V131H346.541V125.15C346.541 124.31 346.325 123.674 345.893 123.242C345.473 122.798 344.873 122.576 344.093 122.576H341.285V128.714C341.285 130.346 340.469 131.162 338.837 131.162C338.309 131.162 337.859 131.12 337.487 131.036V129.848C337.751 129.896 338.045 129.92 338.369 129.92C338.813 129.92 339.143 129.83 339.359 129.65C339.587 129.47 339.701 129.14 339.701 128.66V122.576H337.667V121.298ZM353.059 127.22H351.475V123.26C351.475 122.804 351.229 122.576 350.737 122.576H350.107V121.298H350.701C351.589 121.298 352.201 121.424 352.537 121.676C352.885 121.916 353.059 122.456 353.059 123.296V127.22ZM359.342 122.666V121.406C359.762 121.322 360.194 121.28 360.638 121.28C362.006 121.232 363.014 121.628 363.662 122.468C364.31 123.308 364.634 124.436 364.634 125.852V125.996C364.634 127.616 364.22 128.888 363.392 129.812C362.564 130.736 361.43 131.198 359.99 131.198C358.646 131.198 357.566 130.742 356.75 129.83C355.934 128.906 355.526 127.658 355.526 126.086V121.298H357.11V125.996C357.11 127.232 357.374 128.198 357.902 128.894C358.43 129.578 359.132 129.92 360.008 129.92C360.98 129.92 361.73 129.584 362.258 128.912C362.786 128.24 363.05 127.28 363.05 126.032V125.852C363.05 124.724 362.81 123.884 362.33 123.332C361.85 122.78 361.202 122.516 360.386 122.54C359.846 122.588 359.498 122.63 359.342 122.666ZM366.679 121.298H368.047C368.923 121.298 369.535 121.496 369.883 121.892C370.231 122.276 370.417 122.942 370.441 123.89V131H366.175V129.722H368.857V123.782C368.857 122.978 368.545 122.576 367.921 122.576H366.679V121.298ZM372.858 131.072H372.588V129.704H372.822C373.458 129.704 374.088 129.47 374.712 129.002C375.348 128.534 375.72 127.994 375.828 127.382L375.846 123.98C375.846 123.512 375.756 123.164 375.576 122.936C375.408 122.696 375.096 122.576 374.64 122.576H373.704V121.298H374.838C375.798 121.298 376.47 121.502 376.854 121.91C377.238 122.318 377.43 123.02 377.43 124.016V127.832L377.952 131H376.458L376.08 128.606H375.99C375.834 129.17 375.438 129.722 374.802 130.262C374.166 130.802 373.518 131.072 372.858 131.072ZM384.408 121.298H389.304C390.66 121.298 391.662 121.64 392.31 122.324C392.958 122.996 393.282 124.046 393.282 125.474V131H391.698V125.15C391.698 124.31 391.482 123.674 391.05 123.242C390.63 122.798 390.03 122.576 389.25 122.576H384.408V121.298ZM384.516 125.564H386.1V131H384.516V125.564ZM398.077 127.22H396.493V123.26C396.493 122.804 396.247 122.576 395.755 122.576H395.125V121.298H395.719C396.607 121.298 397.219 121.424 397.555 121.676C397.903 121.916 398.077 122.456 398.077 123.296V127.22ZM403.28 127.22H401.696V123.26C401.696 122.804 401.45 122.576 400.958 122.576H400.328V121.298H400.922C401.81 121.298 402.422 121.424 402.758 121.676C403.106 121.916 403.28 122.456 403.28 123.296V127.22ZM409.563 122.666V121.406C409.983 121.322 410.415 121.28 410.859 121.28C412.227 121.232 413.235 121.628 413.883 122.468C414.531 123.308 414.855 124.436 414.855 125.852V125.996C414.855 127.616 414.441 128.888 413.613 129.812C412.785 130.736 411.651 131.198 410.211 131.198C408.867 131.198 407.787 130.742 406.971 129.83C406.155 128.906 405.747 127.658 405.747 126.086V121.298H407.331V125.996C407.331 127.232 407.595 128.198 408.123 128.894C408.651 129.578 409.353 129.92 410.229 129.92C411.201 129.92 411.951 129.584 412.479 128.912C413.007 128.24 413.271 127.28 413.271 126.032V125.852C413.271 124.724 413.031 123.884 412.551 123.332C412.071 122.78 411.423 122.516 410.607 122.54C410.067 122.588 409.719 122.63 409.563 122.666ZM416.9 121.298H418.268C419.144 121.298 419.756 121.496 420.104 121.892C420.452 122.276 420.638 122.942 420.662 123.89V131H416.396V129.722H419.078V123.782C419.078 122.978 418.766 122.576 418.142 122.576H416.9V121.298Z" fill="#101212"/>
<path d="M448 125.001C448 125.001 442.306 124.451 440.999 118C439.762 124.588 433.998 125.001 433.998 125.001C433.998 125.001 440.381 126.582 440.999 132.002C442.031 126.513 448 125.001 448 125.001Z" fill="#101212"/>
<path d="M344.41 149.298V150.594L340.864 159L339.226 158.982L342.79 150.576H336.886V146.94H338.47V149.298H344.41ZM346.403 150.576V149.298H355.493V150.594L352.271 159L350.633 158.982L353.909 150.576H346.403ZM348.185 153.564V161.448H346.601V153.564H348.185ZM366.837 153.834V149.28H368.421V153.816C368.421 155.34 367.929 156.618 366.945 157.65C365.973 158.67 364.689 159.18 363.093 159.18H362.859C361.335 159.18 360.081 158.676 359.097 157.668C358.125 156.66 357.639 155.376 357.639 153.816V149.28H359.241V153.834C359.241 154.026 359.247 154.164 359.259 154.248H359.691C360.507 154.248 361.137 154.05 361.581 153.654C362.025 153.258 362.247 152.682 362.247 151.926V149.28H363.831V151.854C363.831 152.85 363.477 153.654 362.769 154.266C362.073 154.878 361.095 155.184 359.835 155.184H359.403C359.619 156.06 360.039 156.732 360.663 157.2C361.299 157.656 362.031 157.884 362.859 157.884H363.111C364.227 157.884 365.127 157.53 365.811 156.822C366.495 156.114 366.837 155.118 366.837 153.834ZM376.436 149.118H376.526C377.678 149.118 378.632 149.568 379.388 150.468C380.144 151.356 380.522 152.514 380.522 153.942V154.284C380.522 155.52 380.216 156.564 379.604 157.416C379.004 158.256 378.248 158.784 377.336 159C376.316 159.24 375.32 159.216 374.348 158.928V157.632C375.116 157.92 375.938 157.95 376.814 157.722C377.426 157.578 377.93 157.194 378.326 156.57C378.734 155.934 378.938 155.16 378.938 154.248V153.978C378.938 152.91 378.674 152.052 378.146 151.404C377.63 150.744 376.964 150.414 376.148 150.414H376.076C375.284 150.414 374.618 150.684 374.078 151.224C373.538 151.752 373.232 152.376 373.16 153.096L372.512 159H370.928L371.612 153.024C371.684 152.472 371.672 151.938 371.576 151.422C371.48 150.906 371.384 150.54 371.288 150.324C371.192 150.096 371.03 149.754 370.802 149.298H372.386C372.41 149.346 372.458 149.454 372.53 149.622C372.602 149.778 372.656 149.898 372.692 149.982C372.728 150.066 372.77 150.186 372.818 150.342C372.878 150.486 372.92 150.636 372.944 150.792C372.98 150.948 373.01 151.116 373.034 151.296C373.334 150.648 373.772 150.126 374.348 149.73C374.936 149.322 375.632 149.118 376.436 149.118ZM390.296 149.1C391.748 149.1 392.87 149.55 393.662 150.45C394.454 151.338 394.844 152.628 394.832 154.32V161.808H393.248V154.086C393.248 152.838 392.99 151.908 392.474 151.296C391.958 150.672 391.232 150.36 390.296 150.36C389.504 150.36 388.874 150.552 388.406 150.936C387.938 151.32 387.68 151.854 387.632 152.538C387.572 153.39 387.746 154.032 388.154 154.464C388.574 154.884 389.192 155.064 390.008 155.004V156.048C388.952 156.18 388.022 155.958 387.218 155.382C386.414 154.794 386.018 153.864 386.03 152.592C386.078 151.5 386.486 150.648 387.254 150.036C388.034 149.412 389.048 149.1 390.296 149.1ZM403.306 159H401.722V153.024C401.722 151.968 401.974 151.152 402.478 150.576H396.916V149.298H404.908V150.576H403.63C403.414 151.104 403.306 151.92 403.306 153.024V159ZM406.797 149.298H407.499C408.375 149.298 408.969 149.418 409.281 149.658C409.593 149.898 409.749 150.444 409.749 151.296V159H408.165V151.26C408.165 151.008 408.123 150.834 408.039 150.738C407.955 150.63 407.787 150.576 407.535 150.576H406.797V149.298ZM418.966 153.222L419.326 149.298H420.91L420.658 152.358C420.574 153.342 420.454 154.188 420.298 154.896C420.154 155.604 419.944 156.204 419.668 156.696C419.392 157.188 419.092 157.584 418.768 157.884C418.444 158.184 418.018 158.418 417.49 158.586C416.962 158.754 416.416 158.868 415.852 158.928C415.3 158.976 414.61 159 413.782 159H412.126V157.722H413.764C414.208 157.722 414.682 157.71 415.186 157.686C414.658 156.99 414.244 156.09 413.944 154.986L412.306 149.298H413.926L415.51 154.788C415.858 155.952 416.206 156.852 416.554 157.488C417.334 157.272 417.892 156.858 418.228 156.246C418.576 155.634 418.822 154.626 418.966 153.222Z" fill="#101212"/>
<path d="M448 153.001C448 153.001 442.306 152.451 440.999 146C439.762 152.588 433.998 153.001 433.998 153.001C433.998 153.001 440.381 154.582 440.999 160.002C442.031 154.513 448 153.001 448 153.001Z" fill="#101212"/>
<path d="M344.188 181.222L344.548 177.298H346.132L345.88 180.358C345.796 181.342 345.676 182.188 345.52 182.896C345.376 183.604 345.166 184.204 344.89 184.696C344.614 185.188 344.314 185.584 343.99 185.884C343.666 186.184 343.24 186.418 342.712 186.586C342.184 186.754 341.638 186.868 341.074 186.928C340.522 186.976 339.832 187 339.004 187H337.348V185.722H338.986C339.43 185.722 339.904 185.71 340.408 185.686C339.88 184.99 339.466 184.09 339.166 182.986L337.528 177.298H339.148L340.732 182.788C341.08 183.952 341.428 184.852 341.776 185.488C342.556 185.272 343.114 184.858 343.45 184.246C343.798 183.634 344.044 182.626 344.188 181.222ZM348.319 178.576V177.298H357.409V178.594L354.187 187L352.549 186.982L355.825 178.576H348.319ZM350.101 181.564V189.448H348.517V181.564H350.101ZM366.323 187H364.739V181.15C364.739 180.31 364.523 179.674 364.091 179.242C363.671 178.798 363.071 178.576 362.291 178.576H359.177V177.298H362.345C363.701 177.298 364.703 177.64 365.351 178.324C365.999 178.996 366.323 180.046 366.323 181.474V187ZM372.753 177.298H379.233C380.589 177.298 381.591 177.64 382.239 178.324C382.887 178.996 383.211 180.046 383.211 181.474V187H381.627V181.15C381.627 180.31 381.411 179.674 380.979 179.242C380.559 178.798 379.959 178.576 379.179 178.576H376.371V184.714C376.371 186.346 375.555 187.162 373.923 187.162C373.395 187.162 372.945 187.12 372.573 187.036V185.848C372.837 185.896 373.131 185.92 373.455 185.92C373.899 185.92 374.229 185.83 374.445 185.65C374.673 185.47 374.787 185.14 374.787 184.66V178.576H372.753V177.298ZM385.263 177.298H385.965C386.841 177.298 387.435 177.418 387.747 177.658C388.059 177.898 388.215 178.444 388.215 179.296V187H386.631V179.26C386.631 179.008 386.589 178.834 386.505 178.738C386.421 178.63 386.253 178.576 386.001 178.576H385.263V177.298ZM397.901 177.298V178.594L394.355 187L392.717 186.982L396.281 178.576H390.377V174.94H391.961V177.298H397.901ZM400.307 177.298H404.897C406.253 177.298 407.255 177.64 407.903 178.324C408.551 178.996 408.875 180.046 408.875 181.474V187H407.291V181.15C407.291 180.31 407.075 179.674 406.643 179.242C406.223 178.798 405.623 178.576 404.843 178.576H401.909V187H400.307V177.298ZM416.936 177.118H417.026C418.178 177.118 419.132 177.568 419.888 178.468C420.644 179.356 421.022 180.514 421.022 181.942V182.284C421.022 183.52 420.716 184.564 420.104 185.416C419.504 186.256 418.748 186.784 417.836 187C416.816 187.24 415.82 187.216 414.848 186.928V185.632C415.616 185.92 416.438 185.95 417.314 185.722C417.926 185.578 418.43 185.194 418.826 184.57C419.234 183.934 419.438 183.16 419.438 182.248V181.978C419.438 180.91 419.174 180.052 418.646 179.404C418.13 178.744 417.464 178.414 416.648 178.414H416.576C415.784 178.414 415.118 178.684 414.578 179.224C414.038 179.752 413.732 180.376 413.66 181.096L413.012 187H411.428L412.112 181.024C412.184 180.472 412.172 179.938 412.076 179.422C411.98 178.906 411.884 178.54 411.788 178.324C411.692 178.096 411.53 177.754 411.302 177.298H412.886C412.91 177.346 412.958 177.454 413.03 177.622C413.102 177.778 413.156 177.898 413.192 177.982C413.228 178.066 413.27 178.186 413.318 178.342C413.378 178.486 413.42 178.636 413.444 178.792C413.48 178.948 413.51 179.116 413.534 179.296C413.834 178.648 414.272 178.126 414.848 177.73C415.436 177.322 416.132 177.118 416.936 177.118Z" fill="#101212"/>
<path d="M448 181.001C448 181.001 442.306 180.451 440.999 174C439.762 180.588 433.998 181.001 433.998 181.001C433.998 181.001 440.381 182.582 440.999 188.002C442.031 182.513 448 181.001 448 181.001Z" fill="#101212"/>
<path d="M383.218 205.298H383.902C384.79 205.298 385.39 205.418 385.702 205.658C386.014 205.898 386.17 206.444 386.17 207.296V217.808H384.586V207.26C384.586 207.008 384.544 206.834 384.46 206.738C384.376 206.63 384.202 206.576 383.938 206.576H383.218V205.298ZM388.322 205.298H389.024C389.9 205.298 390.494 205.418 390.806 205.658C391.118 205.898 391.274 206.444 391.274 207.296V215H389.69V207.26C389.69 207.008 389.648 206.834 389.564 206.738C389.48 206.63 389.312 206.576 389.06 206.576H388.322V205.298ZM403.065 209.834V205.28H404.649V209.816C404.649 211.34 404.157 212.618 403.173 213.65C402.201 214.67 400.917 215.18 399.321 215.18H399.087C397.563 215.18 396.309 214.676 395.325 213.668C394.353 212.66 393.867 211.376 393.867 209.816V205.28H395.469V209.834C395.469 210.026 395.475 210.164 395.487 210.248H395.919C396.735 210.248 397.365 210.05 397.809 209.654C398.253 209.258 398.475 208.682 398.475 207.926V205.28H400.059V207.854C400.059 208.85 399.705 209.654 398.997 210.266C398.301 210.878 397.323 211.184 396.063 211.184H395.631C395.847 212.06 396.267 212.732 396.891 213.2C397.527 213.656 398.259 213.884 399.087 213.884H399.339C400.455 213.884 401.355 213.53 402.039 212.822C402.723 212.114 403.065 211.118 403.065 209.834ZM409.749 211.22H408.165V207.26C408.165 206.804 407.919 206.576 407.427 206.576H406.797V205.298H407.391C408.279 205.298 408.891 205.424 409.227 205.676C409.575 205.916 409.749 206.456 409.749 207.296V211.22ZM418.966 209.222L419.326 205.298H420.91L420.658 208.358C420.574 209.342 420.454 210.188 420.298 210.896C420.154 211.604 419.944 212.204 419.668 212.696C419.392 213.188 419.092 213.584 418.768 213.884C418.444 214.184 418.018 214.418 417.49 214.586C416.962 214.754 416.416 214.868 415.852 214.928C415.3 214.976 414.61 215 413.782 215H412.126V213.722H413.764C414.208 213.722 414.682 213.71 415.186 213.686C414.658 212.99 414.244 212.09 413.944 210.986L412.306 205.298H413.926L415.51 210.788C415.858 211.952 416.206 212.852 416.554 213.488C417.334 213.272 417.892 212.858 418.228 212.246C418.576 211.634 418.822 210.626 418.966 209.222Z" fill="#101212"/>
<path d="M448 209.001C448 209.001 442.306 208.451 440.999 202C439.762 208.588 433.998 209.001 433.998 209.001C433.998 209.001 440.381 210.582 440.999 216.002C442.031 210.513 448 209.001 448 209.001Z" fill="#101212"/>
<path d="M518.93 60.973C510.912 53.0727 510.613 44.1751 516.928 37.2649C523.284 30.3064 532.822 34.5715 539.785 39.657C546.829 44.8062 544.816 49.3056 554.637 55.8687C564.458 62.4318 573.321 53.5441 587.83 64.2383C600.442 73.5365 592.368 83.8883 606.427 96.2724C617.555 106.073 631.388 87.9983 659.818 108.866C670.876 117.565 687.308 141.43 662.536 170.736C642.717 194.183 617.443 182.17 607.288 173.233C584.322 150.886 595.247 130.214 583.518 119.914C569.459 107.53 564.403 115.63 554.449 106.866C542.147 96.0294 548.224 86.7701 540.333 75.6513C535.305 66.0073 528.959 70.8479 518.933 60.9776L518.93 60.973Z" fill="#101212"/>
<path d="M829.175 15.622V16.282H827.437V15.314C827.437 14.8007 827.562 14.3167 827.811 13.862C828.061 13.4073 828.361 13.0187 828.713 12.696C829.08 12.3587 829.447 12.036 829.813 11.728C830.18 11.42 830.488 11.09 830.737 10.738C830.987 10.386 831.111 10.0267 831.111 9.66V9.616C831.111 9.044 830.906 8.57467 830.495 8.208C830.085 7.84133 829.527 7.658 828.823 7.658C828.163 7.658 827.591 7.86333 827.107 8.274C826.623 8.67 826.33 9.22733 826.227 9.946H824.621C824.68 8.78733 825.113 7.878 825.919 7.218C826.726 6.558 827.701 6.228 828.845 6.228C830.048 6.228 831.009 6.52867 831.727 7.13C832.461 7.73133 832.827 8.516 832.827 9.484V9.528C832.827 10.056 832.703 10.5473 832.453 11.002C832.204 11.4567 831.896 11.8527 831.529 12.19C831.177 12.5127 830.818 12.8353 830.451 13.158C830.099 13.4807 829.799 13.8547 829.549 14.28C829.3 14.6907 829.175 15.138 829.175 15.622ZM829.109 19.758C828.904 19.978 828.64 20.088 828.317 20.088C827.995 20.088 827.723 19.978 827.503 19.758C827.283 19.538 827.173 19.2667 827.173 18.944C827.173 18.636 827.283 18.372 827.503 18.152C827.723 17.9173 827.995 17.8 828.317 17.8C828.64 17.8 828.904 17.9173 829.109 18.152C829.329 18.372 829.439 18.636 829.439 18.944C829.439 19.2667 829.329 19.538 829.109 19.758ZM835.642 8.142H841.626C843.283 8.142 844.508 8.56 845.3 9.396C846.092 10.2173 846.488 11.5007 846.488 13.246V20H844.552V12.85C844.552 11.8233 844.288 11.046 843.76 10.518C843.247 9.97533 842.513 9.704 841.56 9.704H835.642V8.142ZM835.774 13.356H837.71V20H835.774V13.356ZM857.108 20H855.172V12.85C855.172 11.8233 854.908 11.046 854.38 10.518C853.867 9.97533 853.134 9.704 852.18 9.704H848.374V8.142H852.246C853.904 8.142 855.128 8.56 855.92 9.396C856.712 10.2173 857.108 11.5007 857.108 13.246V20ZM859.612 8.142H860.47C861.54 8.142 862.266 8.28867 862.648 8.582C863.029 8.87533 863.22 9.54267 863.22 10.584V20H861.284V10.54C861.284 10.232 861.232 10.0193 861.13 9.902C861.027 9.77 860.822 9.704 860.514 9.704H859.612V8.142ZM866.213 9.704V8.142H877.323V9.726L873.385 20L871.383 19.978L875.387 9.704H866.213ZM868.391 13.356V22.992H866.455V13.356H868.391ZM884.884 8.142H890.868C892.525 8.142 893.75 8.56 894.542 9.396C895.334 10.2173 895.73 11.5007 895.73 13.246V20H893.794V12.85C893.794 11.8233 893.53 11.046 893.002 10.518C892.489 9.97533 891.755 9.704 890.802 9.704H884.884V8.142ZM885.016 13.356H886.952V20H885.016V13.356ZM901.827 20H899.891V12.652C899.891 11.3173 900.184 10.3347 900.771 9.704H898.373L898.395 8.142H904.093V9.704H902.223C901.959 10.3053 901.827 11.1707 901.827 12.3V20ZM915.104 15.38H913.168V10.54C913.168 9.98267 912.868 9.704 912.266 9.704H911.496V8.142H912.222C913.308 8.142 914.056 8.296 914.466 8.604C914.892 8.89733 915.104 9.55733 915.104 10.584V15.38ZM925.028 7.922H925.138C926.546 7.922 927.712 8.472 928.636 9.572C929.56 10.6573 930.022 12.0727 930.022 13.818V14.236C930.022 15.7467 929.648 17.0227 928.9 18.064C928.167 19.0907 927.243 19.736 926.128 20C924.881 20.2933 923.664 20.264 922.476 19.912V18.328C923.415 18.68 924.419 18.7167 925.49 18.438C926.238 18.262 926.854 17.7927 927.338 17.03C927.837 16.2527 928.086 15.3067 928.086 14.192V13.862C928.086 12.5567 927.763 11.508 927.118 10.716C926.487 9.90933 925.673 9.506 924.676 9.506H924.588C923.62 9.506 922.806 9.836 922.146 10.496C921.486 11.1413 921.112 11.904 921.024 12.784L920.232 20H918.296L919.132 12.696C919.22 12.0213 919.205 11.3687 919.088 10.738C918.971 10.1073 918.853 9.66 918.736 9.396C918.619 9.11733 918.421 8.69933 918.142 8.142H920.078C920.107 8.20067 920.166 8.33267 920.254 8.538C920.342 8.72867 920.408 8.87533 920.452 8.978C920.496 9.08067 920.547 9.22733 920.606 9.418C920.679 9.594 920.731 9.77733 920.76 9.968C920.804 10.1587 920.841 10.364 920.87 10.584C921.237 9.792 921.772 9.154 922.476 8.67C923.195 8.17133 924.045 7.922 925.028 7.922ZM940.907 8.142V9.726L936.573 20L934.571 19.978L938.927 9.704H931.711V5.26H933.647V8.142H940.907Z" fill="#101212"/>
<path d="M818.484 40.524H819.762V50.982H818.196V42.612C818.004 42.9 817.626 43.242 817.062 43.638C816.498 44.022 815.898 44.28 815.262 44.412V43.188C816.078 43.02 816.768 42.684 817.332 42.18C817.896 41.664 818.256 41.172 818.412 40.704L818.484 40.524ZM825.056 40.254C825.86 40.254 826.556 40.542 827.144 41.118C827.732 41.694 828.026 42.378 828.026 43.17V43.206C828.026 44.01 827.732 44.7 827.144 45.276C826.556 45.84 825.86 46.122 825.056 46.122C824.24 46.122 823.532 45.84 822.932 45.276C822.344 44.7 822.05 44.01 822.05 43.206V43.17C822.05 42.378 822.344 41.694 822.932 41.118C823.532 40.542 824.24 40.254 825.056 40.254ZM831.662 40.542L833.318 40.524L825.65 51.018H823.994L831.662 40.542ZM825.056 41.37C824.54 41.37 824.102 41.55 823.742 41.91C823.382 42.258 823.202 42.678 823.202 43.17V43.206C823.202 43.698 823.382 44.124 823.742 44.484C824.102 44.832 824.54 45.006 825.056 45.006C825.548 45.006 825.974 44.832 826.334 44.484C826.694 44.124 826.874 43.698 826.874 43.206V43.17C826.874 42.678 826.694 42.258 826.334 41.91C825.974 41.55 825.548 41.37 825.056 41.37ZM832.31 45.42C833.114 45.42 833.81 45.708 834.398 46.284C834.998 46.86 835.298 47.544 835.298 48.336V48.372C835.298 49.176 834.998 49.866 834.398 50.442C833.81 51.018 833.114 51.306 832.31 51.306C831.494 51.306 830.786 51.018 830.186 50.442C829.598 49.866 829.304 49.176 829.304 48.372V48.336C829.304 47.544 829.598 46.86 830.186 46.284C830.786 45.708 831.494 45.42 832.31 45.42ZM832.31 46.536C831.806 46.536 831.374 46.716 831.014 47.076C830.654 47.424 830.474 47.844 830.474 48.336V48.372C830.474 48.864 830.654 49.29 831.014 49.65C831.374 49.998 831.806 50.172 832.31 50.172C832.802 50.172 833.228 49.998 833.588 49.65C833.96 49.29 834.146 48.864 834.146 48.372V48.336C834.146 47.856 833.96 47.436 833.588 47.076C833.228 46.716 832.802 46.536 832.31 46.536ZM837.693 44.952H842.787V46.356H837.693V44.952ZM848.44 51.234C847.228 51.294 846.178 51.126 845.29 50.73V49.344C846.13 49.776 847.03 49.974 847.99 49.938C848.974 49.902 849.766 49.56 850.366 48.912C850.966 48.264 851.266 47.37 851.266 46.23C851.266 45.078 850.966 44.184 850.366 43.548C849.766 42.9 848.974 42.552 847.99 42.504C847.054 42.48 846.154 42.666 845.29 43.062V41.712C846.298 41.304 847.348 41.142 848.44 41.226C849.772 41.322 850.84 41.82 851.644 42.72C852.46 43.608 852.868 44.778 852.868 46.23C852.868 47.67 852.46 48.846 851.644 49.758C850.828 50.658 849.76 51.15 848.44 51.234ZM862.916 51H854.042V49.722H860.072V45.15C860.072 44.31 859.856 43.674 859.424 43.242C859.004 42.798 858.404 42.576 857.624 42.576H854.366V41.298H857.678C859.034 41.298 860.036 41.64 860.684 42.324C861.332 42.996 861.656 44.046 861.656 45.474V49.722H862.916V51ZM868.989 41.298H875.469C876.825 41.298 877.827 41.64 878.475 42.324C879.123 42.996 879.447 44.046 879.447 45.474V51H877.863V45.15C877.863 44.31 877.647 43.674 877.215 43.242C876.795 42.798 876.195 42.576 875.415 42.576H872.607V48.714C872.607 50.346 871.791 51.162 870.159 51.162C869.631 51.162 869.181 51.12 868.809 51.036V49.848C869.073 49.896 869.367 49.92 869.691 49.92C870.135 49.92 870.465 49.83 870.681 49.65C870.909 49.47 871.023 49.14 871.023 48.66V42.576H868.989V41.298ZM888.466 45.222L888.826 41.298H890.41L890.158 44.358C890.074 45.342 889.954 46.188 889.798 46.896C889.654 47.604 889.444 48.204 889.168 48.696C888.892 49.188 888.592 49.584 888.268 49.884C887.944 50.184 887.518 50.418 886.99 50.586C886.462 50.754 885.916 50.868 885.352 50.928C884.8 50.976 884.11 51 883.282 51H881.626V49.722H883.264C883.708 49.722 884.182 49.71 884.686 49.686C884.158 48.99 883.744 48.09 883.444 46.986L881.806 41.298H883.426L885.01 46.788C885.358 47.952 885.706 48.852 886.054 49.488C886.834 49.272 887.392 48.858 887.728 48.246C888.076 47.634 888.322 46.626 888.466 45.222ZM891.928 51.072H891.658V49.704H891.892C892.528 49.704 893.158 49.47 893.782 49.002C894.418 48.534 894.79 47.994 894.898 47.382L894.916 43.98C894.916 43.512 894.826 43.164 894.646 42.936C894.478 42.696 894.166 42.576 893.71 42.576H892.774V41.298H893.908C894.868 41.298 895.54 41.502 895.924 41.91C896.308 42.318 896.5 43.02 896.5 44.016V47.832L897.022 51H895.528L895.15 48.606H895.06C894.904 49.17 894.508 49.722 893.872 50.262C893.236 50.802 892.588 51.072 891.928 51.072ZM899.095 41.298H899.797C900.673 41.298 901.267 41.418 901.579 41.658C901.891 41.898 902.047 42.444 902.047 43.296V51H900.463V43.26C900.463 43.008 900.421 42.834 900.337 42.738C900.253 42.63 900.085 42.576 899.833 42.576H899.095V41.298ZM908.798 51.252C908.03 51.264 907.244 51.192 906.44 51.036C905.648 50.892 905 50.718 904.496 50.514V49.146C904.928 49.386 905.516 49.596 906.26 49.776C907.004 49.944 907.754 50.022 908.51 50.01C909.614 49.986 910.508 49.62 911.192 48.912C911.888 48.192 912.236 47.274 912.236 46.158C912.236 45.03 911.924 44.124 911.3 43.44C910.676 42.744 909.83 42.396 908.762 42.396C907.982 42.396 907.328 42.582 906.8 42.954C906.284 43.326 906.014 43.8 905.99 44.376C905.978 44.94 906.158 45.39 906.53 45.726C906.914 46.062 907.454 46.212 908.15 46.176V47.346C907.01 47.406 906.104 47.166 905.432 46.626C904.772 46.086 904.442 45.354 904.442 44.43C904.454 43.458 904.874 42.666 905.702 42.054C906.53 41.442 907.586 41.136 908.87 41.136C910.382 41.136 911.588 41.592 912.488 42.504C913.388 43.416 913.838 44.616 913.838 46.104C913.838 47.592 913.37 48.81 912.434 49.758C911.51 50.706 910.298 51.204 908.798 51.252ZM928.288 38.364H929.836V51H928.288V44.736H921.466V51H919.918V38.364H921.466V43.35H928.288V38.364ZM936.572 38.184C936.992 38.184 937.418 38.238 937.85 38.346C938.282 38.442 938.72 38.604 939.164 38.832C939.62 39.06 939.986 39.408 940.262 39.876C940.55 40.332 940.694 40.878 940.694 41.514H939.128C939.128 40.89 938.858 40.416 938.318 40.092C937.79 39.756 937.202 39.588 936.554 39.588C935.906 39.588 935.354 39.75 934.898 40.074C934.442 40.386 934.214 40.806 934.214 41.334V41.37C934.214 41.886 934.43 42.324 934.862 42.684C935.306 43.032 936.044 43.35 937.076 43.638C938.552 44.082 939.59 44.61 940.19 45.222C940.79 45.822 941.09 46.59 941.09 47.526V47.544C941.09 48.576 940.676 49.452 939.848 50.172C939.032 50.88 937.976 51.234 936.68 51.234C936.344 51.234 935.996 51.21 935.636 51.162C935.288 51.114 934.892 51.012 934.448 50.856C934.004 50.688 933.614 50.484 933.278 50.244C932.942 49.992 932.654 49.644 932.414 49.2C932.186 48.744 932.072 48.228 932.072 47.652H933.62C933.632 48.06 933.734 48.414 933.926 48.714C934.13 49.014 934.394 49.242 934.718 49.398C935.042 49.542 935.366 49.65 935.69 49.722C936.014 49.782 936.356 49.812 936.716 49.812C937.544 49.812 938.21 49.596 938.714 49.164C939.218 48.72 939.47 48.186 939.47 47.562V47.526C939.47 46.962 939.248 46.494 938.804 46.122C938.36 45.738 937.628 45.402 936.608 45.114C935.168 44.658 934.124 44.142 933.476 43.566C932.84 42.99 932.522 42.264 932.522 41.388V41.352C932.522 40.416 932.918 39.654 933.71 39.066C934.502 38.478 935.456 38.184 936.572 38.184ZM745.918 61.298V62.594L742.372 71L740.734 70.982L744.298 62.576H738.394V58.94H739.978V61.298H745.918ZM750.665 67.22H749.081V63.26C749.081 62.804 748.835 62.576 748.343 62.576H747.713V61.298H748.307C749.195 61.298 749.807 61.424 750.143 61.676C750.491 61.916 750.665 62.456 750.665 63.296V67.22ZM752.269 71.072H751.999V69.704H752.233C752.869 69.704 753.499 69.47 754.123 69.002C754.759 68.534 755.131 67.994 755.239 67.382L755.257 63.98C755.257 63.512 755.167 63.164 754.987 62.936C754.819 62.696 754.507 62.576 754.051 62.576H753.115V61.298H754.249C755.209 61.298 755.881 61.502 756.265 61.91C756.649 62.318 756.841 63.02 756.841 64.016V67.832L757.363 71H755.869L755.491 68.606H755.401C755.245 69.17 754.849 69.722 754.213 70.262C753.577 70.802 752.929 71.072 752.269 71.072ZM766.538 67.22H764.954V63.26C764.954 62.804 764.708 62.576 764.216 62.576H763.586V61.298H764.18C765.068 61.298 765.68 61.424 766.016 61.676C766.364 61.916 766.538 62.456 766.538 63.296V67.22ZM775.617 71H774.033V65.15C774.033 64.31 773.817 63.674 773.385 63.242C772.965 62.798 772.365 62.576 771.585 62.576H768.471V61.298H771.639C772.995 61.298 773.997 61.64 774.645 62.324C775.293 62.996 775.617 64.046 775.617 65.474V71ZM778.278 61.298H782.868C784.224 61.298 785.226 61.64 785.874 62.324C786.522 62.996 786.846 64.046 786.846 65.474V71H785.262V65.15C785.262 64.31 785.046 63.674 784.614 63.242C784.194 62.798 783.594 62.576 782.814 62.576H779.88V71H778.278V61.298ZM798.867 61.298L798.273 63.944C797.889 65.648 797.049 66.686 795.753 67.058L798.687 71H796.797L792.819 65.672C792.279 65.804 791.817 66.122 791.433 66.626C791.061 67.118 790.875 67.79 790.875 68.642V71H789.291V68.876C789.291 67.784 789.567 66.884 790.119 66.176C790.683 65.456 791.373 65 792.189 64.808L789.561 61.298H791.451L795.033 66.104C795.873 65.816 796.431 65.072 796.707 63.872L797.247 61.298H798.867ZM813.75 71H804.876V69.722H810.906V65.15C810.906 64.31 810.69 63.674 810.258 63.242C809.838 62.798 809.238 62.576 808.458 62.576H805.2V61.298H808.512C809.868 61.298 810.87 61.64 811.518 62.324C812.166 62.996 812.49 64.046 812.49 65.474V69.722H813.75V71ZM814.896 61.298H815.598C816.474 61.298 817.068 61.418 817.38 61.658C817.692 61.898 817.848 62.444 817.848 63.296V71H816.264V63.26C816.264 63.008 816.222 62.834 816.138 62.738C816.054 62.63 815.886 62.576 815.634 62.576H814.896V61.298ZM827.209 71H825.625V65.15C825.625 64.31 825.409 63.674 824.977 63.242C824.557 62.798 823.957 62.576 823.177 62.576H820.063V61.298H823.231C824.587 61.298 825.589 61.64 826.237 62.324C826.885 62.996 827.209 64.046 827.209 65.474V71ZM836.691 61.298V62.594L833.145 71L831.507 70.982L835.071 62.576H829.167V58.94H830.751V61.298H836.691ZM843.39 70.154H844.956L843.858 73.466H843.03L843.39 70.154ZM847.404 61.298H852.3C853.656 61.298 854.658 61.64 855.306 62.324C855.954 62.996 856.278 64.046 856.278 65.474V71H854.694V65.15C854.694 64.31 854.478 63.674 854.046 63.242C853.626 62.798 853.026 62.576 852.246 62.576H847.404V61.298ZM847.512 65.564H849.096V71H847.512V65.564ZM861.073 67.22H859.489V63.26C859.489 62.804 859.243 62.576 858.751 62.576H858.121V61.298H858.715C859.603 61.298 860.215 61.424 860.551 61.676C860.899 61.916 861.073 62.456 861.073 63.296V67.22ZM866.276 67.22H864.692V63.26C864.692 62.804 864.446 62.576 863.954 62.576H863.324V61.298H863.918C864.806 61.298 865.418 61.424 865.754 61.676C866.102 61.916 866.276 62.456 866.276 63.296V67.22ZM873.333 61.046C874.809 61.046 875.961 61.49 876.789 62.378C877.629 63.254 878.049 64.484 878.049 66.068V66.212C878.049 67.796 877.629 69.032 876.789 69.92C875.961 70.796 874.809 71.234 873.333 71.234C871.881 71.234 870.747 70.796 869.931 69.92C869.115 69.044 868.707 67.82 868.707 66.248V66.032C868.707 64.472 869.115 63.254 869.931 62.378C870.747 61.49 871.881 61.046 873.333 61.046ZM876.465 66.284V66.014C876.465 64.862 876.183 63.962 875.619 63.314C875.067 62.666 874.311 62.342 873.351 62.342C872.403 62.342 871.653 62.666 871.101 63.314C870.561 63.962 870.291 64.862 870.291 66.014V66.284C870.291 67.436 870.561 68.336 871.101 68.984C871.653 69.62 872.403 69.938 873.351 69.938C874.311 69.938 875.067 69.614 875.619 68.966C876.183 68.318 876.465 67.424 876.465 66.284ZM879.548 61.298H880.25C881.126 61.298 881.72 61.418 882.032 61.658C882.344 61.898 882.5 62.444 882.5 63.296V71H880.916V63.26C880.916 63.008 880.874 62.834 880.79 62.738C880.706 62.63 880.538 62.576 880.286 62.576H879.548V61.298ZM892.186 61.298V62.594L888.64 71L887.002 70.982L890.566 62.576H884.662V58.94H886.246V61.298H892.186ZM897.166 71.234C895.954 71.294 894.904 71.126 894.016 70.73V69.344C894.856 69.776 895.756 69.974 896.716 69.938C897.7 69.902 898.492 69.56 899.092 68.912C899.692 68.264 899.992 67.37 899.992 66.23C899.992 65.078 899.692 64.184 899.092 63.548C898.492 62.9 897.7 62.552 896.716 62.504C895.78 62.48 894.88 62.666 894.016 63.062V61.712C895.024 61.304 896.074 61.142 897.166 61.226C898.498 61.322 899.566 61.82 900.37 62.72C901.186 63.608 901.594 64.778 901.594 66.23C901.594 67.67 901.186 68.846 900.37 69.758C899.554 70.658 898.486 71.15 897.166 71.234ZM902.998 61.298H903.7C904.576 61.298 905.17 61.418 905.482 61.658C905.794 61.898 905.95 62.444 905.95 63.296V71H904.366V63.26C904.366 63.008 904.324 62.834 904.24 62.738C904.156 62.63 903.988 62.576 903.736 62.576H902.998V61.298ZM918.029 61.298L917.435 63.944C917.051 65.648 916.211 66.686 914.915 67.058L917.849 71H915.959L911.981 65.672C911.441 65.804 910.979 66.122 910.595 66.626C910.223 67.118 910.037 67.79 910.037 68.642V71H908.453V68.876C908.453 67.784 908.729 66.884 909.281 66.176C909.845 65.456 910.535 65 911.351 64.808L908.723 61.298H910.613L914.195 66.104C915.035 65.816 915.593 65.072 915.869 63.872L916.409 61.298H918.029ZM920.142 61.298H925.038C926.394 61.298 927.396 61.64 928.044 62.324C928.692 62.996 929.016 64.046 929.016 65.474V71H927.432V65.15C927.432 64.31 927.216 63.674 926.784 63.242C926.364 62.798 925.764 62.576 924.984 62.576H920.142V61.298ZM920.25 65.564H921.834V71H920.25V65.564ZM936.938 61.118H937.028C938.18 61.118 939.134 61.568 939.89 62.468C940.646 63.356 941.024 64.514 941.024 65.942V66.284C941.024 67.52 940.718 68.564 940.106 69.416C939.506 70.256 938.75 70.784 937.838 71C936.818 71.24 935.822 71.216 934.85 70.928V69.632C935.618 69.92 936.44 69.95 937.316 69.722C937.928 69.578 938.432 69.194 938.828 68.57C939.236 67.934 939.44 67.16 939.44 66.248V65.978C939.44 64.91 939.176 64.052 938.648 63.404C938.132 62.744 937.466 62.414 936.65 62.414H936.578C935.786 62.414 935.12 62.684 934.58 63.224C934.04 63.752 933.734 64.376 933.662 65.096L933.014 71H931.43L932.114 65.024C932.186 64.472 932.174 63.938 932.078 63.422C931.982 62.906 931.886 62.54 931.79 62.324C931.694 62.096 931.532 61.754 931.304 61.298H932.888C932.912 61.346 932.96 61.454 933.032 61.622C933.104 61.778 933.158 61.898 933.194 61.982C933.23 62.066 933.272 62.186 933.32 62.342C933.38 62.486 933.422 62.636 933.446 62.792C933.482 62.948 933.512 63.116 933.536 63.296C933.836 62.648 934.274 62.126 934.85 61.73C935.438 61.322 936.134 61.118 936.938 61.118ZM771.905 81.298H776.801C778.157 81.298 779.159 81.64 779.807 82.324C780.455 82.996 780.779 84.046 780.779 85.474V91H779.195V85.15C779.195 84.31 778.979 83.674 778.547 83.242C778.127 82.798 777.527 82.576 776.747 82.576H771.905V81.298ZM772.013 85.564H773.597V91H772.013V85.564ZM783.446 81.298H788.036C789.392 81.298 790.394 81.64 791.042 82.324C791.69 82.996 792.014 84.046 792.014 85.474V91H790.43V85.15C790.43 84.31 790.214 83.674 789.782 83.242C789.362 82.798 788.762 82.576 787.982 82.576H785.048V91H783.446V81.298ZM796.877 87.22H795.293V83.26C795.293 82.804 795.047 82.576 794.555 82.576H793.925V81.298H794.519C795.407 81.298 796.019 81.424 796.355 81.676C796.703 81.916 796.877 82.456 796.877 83.296V87.22ZM802.315 91.234C801.103 91.294 800.053 91.126 799.165 90.73V89.344C800.005 89.776 800.905 89.974 801.865 89.938C802.849 89.902 803.641 89.56 804.241 88.912C804.841 88.264 805.141 87.37 805.141 86.23C805.141 85.078 804.841 84.184 804.241 83.548C803.641 82.9 802.849 82.552 801.865 82.504C800.929 82.48 800.029 82.666 799.165 83.062V81.712C800.173 81.304 801.223 81.142 802.315 81.226C803.647 81.322 804.715 81.82 805.519 82.72C806.335 83.608 806.743 84.778 806.743 86.23C806.743 87.67 806.335 88.846 805.519 89.758C804.703 90.658 803.635 91.15 802.315 91.234ZM818.161 85.834V81.28H819.745V85.816C819.745 87.34 819.253 88.618 818.269 89.65C817.297 90.67 816.013 91.18 814.417 91.18H814.183C812.659 91.18 811.405 90.676 810.421 89.668C809.449 88.66 808.963 87.376 808.963 85.816V81.28H810.565V85.834C810.565 86.026 810.571 86.164 810.583 86.248H811.015C811.831 86.248 812.461 86.05 812.905 85.654C813.349 85.258 813.571 84.682 813.571 83.926V81.28H815.155V83.854C815.155 84.85 814.801 85.654 814.093 86.266C813.397 86.878 812.419 87.184 811.159 87.184H810.727C810.943 88.06 811.363 88.732 811.987 89.2C812.623 89.656 813.355 89.884 814.183 89.884H814.435C815.551 89.884 816.451 89.53 817.135 88.822C817.819 88.114 818.161 87.118 818.161 85.834ZM835.869 81.298L835.275 83.944C834.891 85.648 834.051 86.686 832.755 87.058L835.689 91H833.799L829.821 85.672C829.281 85.804 828.819 86.122 828.435 86.626C828.063 87.118 827.877 87.79 827.877 88.642V91H826.293V88.876C826.293 87.784 826.569 86.884 827.121 86.176C827.685 85.456 828.375 85 829.191 84.808L826.563 81.298H828.453L832.035 86.104C832.875 85.816 833.433 85.072 833.709 83.872L834.249 81.298H835.869ZM840.7 87.22H839.116V83.26C839.116 82.804 838.87 82.576 838.378 82.576H837.748V81.298H838.342C839.23 81.298 839.842 81.424 840.178 81.676C840.526 81.916 840.7 82.456 840.7 83.296V87.22ZM843.185 81.298H848.081C849.437 81.298 850.439 81.64 851.087 82.324C851.735 82.996 852.059 84.046 852.059 85.474V91H850.475V85.15C850.475 84.31 850.259 83.674 849.827 83.242C849.407 82.798 848.807 82.576 848.027 82.576H843.185V81.298ZM843.293 85.564H844.877V91H843.293V85.564ZM859.647 89.182C859.899 89.182 860.115 89.278 860.295 89.47C860.475 89.662 860.565 89.884 860.565 90.136C860.565 90.4 860.475 90.622 860.295 90.802C860.115 90.982 859.899 91.072 859.647 91.072C859.383 91.072 859.155 90.982 858.963 90.802C858.783 90.622 858.693 90.4 858.693 90.136C858.693 89.884 858.783 89.662 858.963 89.47C859.155 89.278 859.383 89.182 859.647 89.182ZM863.066 81.298H869.546C870.902 81.298 871.904 81.64 872.552 82.324C873.2 82.996 873.524 84.046 873.524 85.474V91H871.94V85.15C871.94 84.31 871.724 83.674 871.292 83.242C870.872 82.798 870.272 82.576 869.492 82.576H866.684V88.714C866.684 90.346 865.868 91.162 864.236 91.162C863.708 91.162 863.258 91.12 862.886 91.036V89.848C863.15 89.896 863.444 89.92 863.768 89.92C864.212 89.92 864.542 89.83 864.758 89.65C864.986 89.47 865.1 89.14 865.1 88.66V82.576H863.066V81.298ZM875.576 81.298H876.278C877.154 81.298 877.748 81.418 878.06 81.658C878.372 81.898 878.528 82.444 878.528 83.296V91H876.944V83.26C876.944 83.008 876.902 82.834 876.818 82.738C876.734 82.63 876.566 82.576 876.314 82.576H875.576V81.298ZM887.889 91H886.305V85.15C886.305 84.31 886.089 83.674 885.657 83.242C885.237 82.798 884.637 82.576 883.857 82.576H880.743V81.298H883.911C885.267 81.298 886.269 81.64 886.917 82.324C887.565 82.996 887.889 84.046 887.889 85.474V91ZM890.117 91.072H889.847V89.704H890.081C890.717 89.704 891.347 89.47 891.971 89.002C892.607 88.534 892.979 87.994 893.087 87.382L893.105 83.98C893.105 83.512 893.015 83.164 892.835 82.936C892.667 82.696 892.355 82.576 891.899 82.576H890.963V81.298H892.097C893.057 81.298 893.729 81.502 894.113 81.91C894.497 82.318 894.689 83.02 894.689 84.016V87.832L895.211 91H893.717L893.339 88.606H893.249C893.093 89.17 892.697 89.722 892.061 90.262C891.425 90.802 890.777 91.072 890.117 91.072ZM906.141 91H897.267V89.722H903.297V85.15C903.297 84.31 903.081 83.674 902.649 83.242C902.229 82.798 901.629 82.576 900.849 82.576H897.591V81.298H900.903C902.259 81.298 903.261 81.64 903.909 82.324C904.557 82.996 904.881 84.046 904.881 85.474V89.722H906.141V91ZM908.066 81.298H914.546C915.902 81.298 916.904 81.64 917.552 82.324C918.2 82.996 918.524 84.046 918.524 85.474V91H916.94V85.15C916.94 84.31 916.724 83.674 916.292 83.242C915.872 82.798 915.272 82.576 914.492 82.576H911.684V88.714C911.684 90.346 910.868 91.162 909.236 91.162C908.708 91.162 908.258 91.12 907.886 91.036V89.848C908.15 89.896 908.444 89.92 908.768 89.92C909.212 89.92 909.542 89.83 909.758 89.65C909.986 89.47 910.1 89.14 910.1 88.66V82.576H908.066V81.298ZM920.81 81.298H925.706C927.062 81.298 928.064 81.64 928.712 82.324C929.36 82.996 929.684 84.046 929.684 85.474V91H928.1V85.15C928.1 84.31 927.884 83.674 927.452 83.242C927.032 82.798 926.432 82.576 925.652 82.576H920.81V81.298ZM920.918 85.564H922.502V91H920.918V85.564ZM931.972 81.298H936.868C938.224 81.298 939.226 81.64 939.874 82.324C940.522 82.996 940.846 84.046 940.846 85.474V91H939.262V85.15C939.262 84.31 939.046 83.674 938.614 83.242C938.194 82.798 937.594 82.576 936.814 82.576H931.972V81.298ZM932.08 85.564H933.664V91H932.08V85.564ZM851.614 102.936C851.866 102.936 852.082 103.032 852.262 103.224C852.442 103.416 852.532 103.638 852.532 103.89C852.532 104.154 852.442 104.376 852.262 104.556C852.082 104.736 851.866 104.826 851.614 104.826C851.35 104.826 851.122 104.736 850.93 104.556C850.75 104.376 850.66 104.154 850.66 103.89C850.66 103.638 850.75 103.416 850.93 103.224C851.122 103.032 851.35 102.936 851.614 102.936ZM851.614 109.182C851.866 109.182 852.082 109.278 852.262 109.47C852.442 109.662 852.532 109.884 852.532 110.136C852.532 110.4 852.442 110.622 852.262 110.802C852.082 110.982 851.866 111.072 851.614 111.072C851.35 111.072 851.122 110.982 850.93 110.802C850.75 110.622 850.66 110.4 850.66 110.136C850.66 109.884 850.75 109.662 850.93 109.47C851.122 109.278 851.35 109.182 851.614 109.182ZM862.285 101.298V102.594L858.739 111L857.101 110.982L860.665 102.576H854.761V98.94H856.345V101.298H862.285ZM871.982 101.298L871.91 102.828C871.862 103.788 871.598 104.598 871.118 105.258C870.65 105.906 870.05 106.398 869.318 106.734L871.748 110.082V111H864.044V109.722H869.714L865.952 104.736C864.932 103.32 864.362 102.246 864.242 101.514L864.224 101.298H865.808L865.826 101.37C865.958 101.886 866.48 102.792 867.392 104.088L868.67 105.834C869.15 105.63 869.54 105.282 869.84 104.79C870.152 104.298 870.314 103.734 870.326 103.098L870.398 101.298H871.982ZM883.576 101.298L882.982 103.944C882.598 105.648 881.758 106.686 880.462 107.058L883.396 111H881.506L877.528 105.672C876.988 105.804 876.526 106.122 876.142 106.626C875.77 107.118 875.584 107.79 875.584 108.642V111H874V108.876C874 107.784 874.276 106.884 874.828 106.176C875.392 105.456 876.082 105 876.898 104.808L874.27 101.298H876.16L879.742 106.104C880.582 105.816 881.14 105.072 881.416 103.872L881.956 101.298H883.576ZM895.939 111H894.355V105.024C894.355 103.968 894.607 103.152 895.111 102.576H889.549V101.298H897.541V102.576H896.263C896.047 103.104 895.939 103.92 895.939 105.024V111ZM900.041 101.298H904.631C905.987 101.298 906.989 101.64 907.637 102.324C908.285 102.996 908.609 104.046 908.609 105.474V111H907.025V105.15C907.025 104.31 906.809 103.674 906.377 103.242C905.957 102.798 905.357 102.576 904.577 102.576H901.643V111H900.041V101.298ZM910.802 101.298H911.504C912.38 101.298 912.974 101.418 913.286 101.658C913.598 101.898 913.754 102.444 913.754 103.296V111H912.17V103.26C912.17 103.008 912.128 102.834 912.044 102.738C911.96 102.63 911.792 102.576 911.54 102.576H910.802V101.298ZM918.957 107.22H917.373V103.26C917.373 102.804 917.127 102.576 916.635 102.576H916.005V101.298H916.599C917.487 101.298 918.099 101.424 918.435 101.676C918.783 101.916 918.957 102.456 918.957 103.296V107.22ZM927.077 101.118H927.167C928.319 101.118 929.273 101.568 930.029 102.468C930.785 103.356 931.163 104.514 931.163 105.942V106.284C931.163 107.52 930.857 108.564 930.245 109.416C929.645 110.256 928.889 110.784 927.977 111C926.957 111.24 925.961 111.216 924.989 110.928V109.632C925.757 109.92 926.579 109.95 927.455 109.722C928.067 109.578 928.571 109.194 928.967 108.57C929.375 107.934 929.579 107.16 929.579 106.248V105.978C929.579 104.91 929.315 104.052 928.787 103.404C928.271 102.744 927.605 102.414 926.789 102.414H926.717C925.925 102.414 925.259 102.684 924.719 103.224C924.179 103.752 923.873 104.376 923.801 105.096L923.153 111H921.569L922.253 105.024C922.325 104.472 922.313 103.938 922.217 103.422C922.121 102.906 922.025 102.54 921.929 102.324C921.833 102.096 921.671 101.754 921.443 101.298H923.027C923.051 101.346 923.099 101.454 923.171 101.622C923.243 101.778 923.297 101.898 923.333 101.982C923.369 102.066 923.411 102.186 923.459 102.342C923.519 102.486 923.561 102.636 923.585 102.792C923.621 102.948 923.651 103.116 923.675 103.296C923.975 102.648 924.413 102.126 924.989 101.73C925.577 101.322 926.273 101.118 927.077 101.118ZM941.209 111H932.335V109.722H938.365V105.15C938.365 104.31 938.149 103.674 937.717 103.242C937.297 102.798 936.697 102.576 935.917 102.576H932.659V101.298H935.971C937.327 101.298 938.329 101.64 938.977 102.324C939.625 102.996 939.949 104.046 939.949 105.474V109.722H941.209V111Z" fill="#101212"/>
<path d="M754.003 129.878V131.264C752.743 131.648 751.783 132.434 751.123 133.622C750.475 134.81 750.151 136.166 750.151 137.69C750.151 139.154 750.481 140.486 751.141 141.686C751.801 142.874 752.755 143.66 754.003 144.044V145.412C752.791 145.112 751.777 144.542 750.961 143.702C750.145 142.874 749.563 141.956 749.215 140.948C748.879 139.928 748.711 138.842 748.711 137.69C748.711 136.814 748.807 135.974 748.999 135.17C749.203 134.366 749.509 133.61 749.917 132.902C750.325 132.182 750.877 131.558 751.573 131.03C752.281 130.502 753.091 130.118 754.003 129.878ZM757.528 133.226C758.152 132.698 758.938 132.434 759.886 132.434C760.834 132.434 761.608 132.71 762.208 133.262C762.82 133.802 763.126 134.498 763.126 135.35V135.386C763.126 135.854 762.988 136.34 762.712 136.844C762.436 137.336 761.962 137.948 761.29 138.68L758.554 141.686H763.468V143H756.376V141.92L760.138 137.996C760.726 137.384 761.11 136.898 761.29 136.538C761.482 136.178 761.578 135.824 761.578 135.476C761.578 135.008 761.41 134.612 761.074 134.288C760.75 133.952 760.312 133.784 759.76 133.784C758.812 133.784 758.146 134.354 757.762 135.494H756.34C756.52 134.498 756.916 133.742 757.528 133.226ZM766.297 134.018C767.053 133.022 768.115 132.524 769.483 132.524C770.851 132.524 771.913 133.022 772.669 134.018C773.437 135.014 773.821 136.304 773.821 137.888V137.924C773.821 139.508 773.437 140.798 772.669 141.794C771.913 142.79 770.851 143.288 769.483 143.288C768.115 143.288 767.053 142.79 766.297 141.794C765.541 140.798 765.163 139.508 765.163 137.924V137.888C765.163 136.304 765.541 135.014 766.297 134.018ZM771.535 134.954C771.043 134.174 770.353 133.784 769.465 133.784C768.577 133.784 767.893 134.168 767.413 134.936C766.933 135.692 766.693 136.67 766.693 137.87V137.906C766.693 139.094 766.939 140.078 767.431 140.858C767.923 141.638 768.613 142.028 769.501 142.028C770.389 142.028 771.073 141.644 771.553 140.876C772.045 140.108 772.291 139.124 772.291 137.924V137.906C772.291 136.706 772.039 135.722 771.535 134.954ZM776.218 136.952H781.312V138.356H776.218V136.952ZM783.806 132.65H789.908V133.658L787.298 136.556C788.282 136.616 789.062 136.946 789.638 137.546C790.214 138.134 790.502 138.896 790.502 139.832V139.886C790.502 140.882 790.148 141.698 789.44 142.334C788.744 142.97 787.886 143.288 786.866 143.288C785.966 143.288 785.198 143.078 784.562 142.658C783.938 142.226 783.542 141.524 783.374 140.552H784.778C785.078 141.512 785.75 141.992 786.794 141.992C787.442 141.992 787.976 141.788 788.396 141.38C788.816 140.96 789.026 140.444 789.026 139.832V139.76C789.026 139.064 788.78 138.524 788.288 138.14C787.808 137.756 787.172 137.564 786.38 137.564H785.39L785.516 136.844L788.036 133.946H783.806V132.65ZM793.332 134.018C794.088 133.022 795.15 132.524 796.518 132.524C797.886 132.524 798.948 133.022 799.704 134.018C800.472 135.014 800.856 136.304 800.856 137.888V137.924C800.856 139.508 800.472 140.798 799.704 141.794C798.948 142.79 797.886 143.288 796.518 143.288C795.15 143.288 794.088 142.79 793.332 141.794C792.576 140.798 792.198 139.508 792.198 137.924V137.888C792.198 136.304 792.576 135.014 793.332 134.018ZM798.57 134.954C798.078 134.174 797.388 133.784 796.5 133.784C795.612 133.784 794.928 134.168 794.448 134.936C793.968 135.692 793.728 136.67 793.728 137.87V137.906C793.728 139.094 793.974 140.078 794.466 140.858C794.958 141.638 795.648 142.028 796.536 142.028C797.424 142.028 798.108 141.644 798.588 140.876C799.08 140.108 799.326 139.124 799.326 137.924V137.906C799.326 136.706 799.074 135.722 798.57 134.954ZM806.988 133.298H813.468C814.824 133.298 815.826 133.64 816.474 134.324C817.122 134.996 817.446 136.046 817.446 137.474V143H815.862V137.15C815.862 136.31 815.646 135.674 815.214 135.242C814.794 134.798 814.194 134.576 813.414 134.576H810.606V140.714C810.606 142.346 809.79 143.162 808.158 143.162C807.63 143.162 807.18 143.12 806.808 143.036V141.848C807.072 141.896 807.366 141.92 807.69 141.92C808.134 141.92 808.464 141.83 808.68 141.65C808.908 141.47 809.022 141.14 809.022 140.66V134.576H806.988V133.298ZM819.498 133.298H820.2C821.076 133.298 821.67 133.418 821.982 133.658C822.294 133.898 822.45 134.444 822.45 135.296V143H820.866V135.26C820.866 135.008 820.824 134.834 820.74 134.738C820.656 134.63 820.488 134.576 820.236 134.576H819.498V133.298ZM825.277 133.298H826.645C827.521 133.298 828.133 133.496 828.481 133.892C828.829 134.276 829.015 134.942 829.039 135.89V143H824.773V141.722H827.455V135.782C827.455 134.978 827.143 134.576 826.519 134.576H825.277V133.298ZM840.815 137.834V133.28H842.399V137.816C842.399 139.34 841.907 140.618 840.923 141.65C839.951 142.67 838.667 143.18 837.071 143.18H836.837C835.313 143.18 834.059 142.676 833.075 141.668C832.103 140.66 831.617 139.376 831.617 137.816V133.28H833.219V137.834C833.219 138.026 833.225 138.164 833.237 138.248H833.669C834.485 138.248 835.115 138.05 835.559 137.654C836.003 137.258 836.225 136.682 836.225 135.926V133.28H837.809V135.854C837.809 136.85 837.455 137.654 836.747 138.266C836.051 138.878 835.073 139.184 833.813 139.184H833.381C833.597 140.06 834.017 140.732 834.641 141.2C835.277 141.656 836.009 141.884 836.837 141.884H837.089C838.205 141.884 839.105 141.53 839.789 140.822C840.473 140.114 840.815 139.118 840.815 137.834ZM845.231 131.264V129.878C846.143 130.118 846.947 130.502 847.643 131.03C848.351 131.558 848.909 132.182 849.317 132.902C849.725 133.61 850.025 134.366 850.217 135.17C850.421 135.974 850.523 136.814 850.523 137.69C850.523 138.842 850.349 139.928 850.001 140.948C849.665 141.956 849.089 142.874 848.273 143.702C847.457 144.542 846.443 145.112 845.231 145.412V144.044C846.479 143.66 847.433 142.874 848.093 141.686C848.753 140.486 849.083 139.154 849.083 137.69C849.083 136.166 848.753 134.81 848.093 133.622C847.445 132.434 846.491 131.648 845.231 131.264ZM864.26 143H862.676V137.15C862.676 136.31 862.46 135.674 862.028 135.242C861.608 134.798 861.008 134.576 860.228 134.576H857.114V133.298H860.282C861.638 133.298 862.64 133.64 863.288 134.324C863.936 134.996 864.26 136.046 864.26 137.474V143ZM868.979 139.22H867.395V135.26C867.395 134.804 867.149 134.576 866.657 134.576H866.027V133.298H866.621C867.509 133.298 868.121 133.424 868.457 133.676C868.805 133.916 868.979 134.456 868.979 135.296V139.22ZM878.196 137.222L878.556 133.298H880.14L879.888 136.358C879.804 137.342 879.684 138.188 879.528 138.896C879.384 139.604 879.174 140.204 878.898 140.696C878.622 141.188 878.322 141.584 877.998 141.884C877.674 142.184 877.248 142.418 876.72 142.586C876.192 142.754 875.646 142.868 875.082 142.928C874.53 142.976 873.84 143 873.012 143H871.356V141.722H872.994C873.438 141.722 873.912 141.71 874.416 141.686C873.888 140.99 873.474 140.09 873.174 138.986L871.536 133.298H873.156L874.74 138.788C875.088 139.952 875.436 140.852 875.784 141.488C876.564 141.272 877.122 140.858 877.458 140.246C877.806 139.634 878.052 138.626 878.196 137.222ZM890.031 133.298L889.959 134.828C889.911 135.788 889.647 136.598 889.167 137.258C888.699 137.906 888.099 138.398 887.367 138.734L889.797 142.082V143H882.093V141.722H887.763L884.001 136.736C882.981 135.32 882.411 134.246 882.291 133.514L882.273 133.298H883.857L883.875 133.37C884.007 133.886 884.529 134.792 885.441 136.088L886.719 137.834C887.199 137.63 887.589 137.282 887.889 136.79C888.201 136.298 888.363 135.734 888.375 135.098L888.447 133.298H890.031ZM903.379 133.298V134.594L899.833 143L898.195 142.982L901.759 134.576H895.855V130.94H897.439V133.298H903.379ZM908.126 139.22H906.542V135.26C906.542 134.804 906.296 134.576 905.804 134.576H905.174V133.298H905.768C906.656 133.298 907.268 133.424 907.604 133.676C907.952 133.916 908.126 134.456 908.126 135.296V139.22ZM909.731 143.072H909.461V141.704H909.695C910.331 141.704 910.961 141.47 911.585 141.002C912.221 140.534 912.593 139.994 912.701 139.382L912.719 135.98C912.719 135.512 912.629 135.164 912.449 134.936C912.281 134.696 911.969 134.576 911.513 134.576H910.577V133.298H911.711C912.671 133.298 913.343 133.502 913.727 133.91C914.111 134.318 914.303 135.02 914.303 136.016V139.832L914.825 143H913.331L912.953 140.606H912.863C912.707 141.17 912.311 141.722 911.675 142.262C911.039 142.802 910.391 143.072 909.731 143.072Z" fill="#101212"/>
<path d="M942 137.001C942 137.001 936.306 136.451 934.999 130C933.762 136.588 927.998 137.001 927.998 137.001C927.998 137.001 934.381 138.582 934.999 144.002C936.031 138.513 942 137.001 942 137.001Z" fill="#101212"/>
<path d="M856.119 161.298H861.015C862.371 161.298 863.373 161.64 864.021 162.324C864.669 162.996 864.993 164.046 864.993 165.474V171H863.409V165.15C863.409 164.31 863.193 163.674 862.761 163.242C862.341 162.798 861.741 162.576 860.961 162.576H856.119V161.298ZM856.227 165.564H857.811V171H856.227V165.564ZM867.281 161.298H872.177C873.533 161.298 874.535 161.64 875.183 162.324C875.831 162.996 876.155 164.046 876.155 165.474V171H874.571V165.15C874.571 164.31 874.355 163.674 873.923 163.242C873.503 162.798 872.903 162.576 872.123 162.576H867.281V161.298ZM867.389 165.564H868.973V171H867.389V165.564ZM881.395 171.234C880.183 171.294 879.133 171.126 878.245 170.73V169.344C879.085 169.776 879.985 169.974 880.945 169.938C881.929 169.902 882.721 169.56 883.321 168.912C883.921 168.264 884.221 167.37 884.221 166.23C884.221 165.078 883.921 164.184 883.321 163.548C882.721 162.9 881.929 162.552 880.945 162.504C880.009 162.48 879.109 162.666 878.245 163.062V161.712C879.253 161.304 880.303 161.142 881.395 161.226C882.727 161.322 883.795 161.82 884.599 162.72C885.415 163.608 885.823 164.778 885.823 166.23C885.823 167.67 885.415 168.846 884.599 169.758C883.783 170.658 882.715 171.15 881.395 171.234ZM898.748 171H897.164V165.15C897.164 164.31 896.948 163.674 896.516 163.242C896.096 162.798 895.496 162.576 894.716 162.576H891.602V161.298H894.77C896.126 161.298 897.128 161.64 897.776 162.324C898.424 162.996 898.748 164.046 898.748 165.474V171ZM900.797 161.298H901.499C902.375 161.298 902.969 161.418 903.281 161.658C903.593 161.898 903.749 162.444 903.749 163.296V171H902.165V163.26C902.165 163.008 902.123 162.834 902.039 162.738C901.955 162.63 901.787 162.576 901.535 162.576H900.797V161.298ZM912.966 165.222L913.326 161.298H914.91L914.658 164.358C914.574 165.342 914.454 166.188 914.298 166.896C914.154 167.604 913.944 168.204 913.668 168.696C913.392 169.188 913.092 169.584 912.768 169.884C912.444 170.184 912.018 170.418 911.49 170.586C910.962 170.754 910.416 170.868 909.852 170.928C909.3 170.976 908.61 171 907.782 171H906.126V169.722H907.764C908.208 169.722 908.682 169.71 909.186 169.686C908.658 168.99 908.244 168.09 907.944 166.986L906.306 161.298H907.926L909.51 166.788C909.858 167.952 910.206 168.852 910.554 169.488C911.334 169.272 911.892 168.858 912.228 168.246C912.576 167.634 912.822 166.626 912.966 165.222Z" fill="#101212"/>
<path d="M942 165.001C942 165.001 936.306 164.451 934.999 158C933.762 164.588 927.998 165.001 927.998 165.001C927.998 165.001 934.381 166.582 934.999 172.002C936.031 166.513 942 165.001 942 165.001Z" fill="#101212"/>
<path d="M880.786 189.298H885.538C887.086 189.298 888.142 189.646 888.706 190.342C889.282 191.026 889.57 192.214 889.57 193.906V199H880.786V189.298ZM885.484 190.576H882.37V197.722H887.986V193.582C887.986 192.454 887.812 191.674 887.464 191.242C887.128 190.798 886.468 190.576 885.484 190.576ZM894.801 195.22H893.217V191.26C893.217 190.804 892.971 190.576 892.479 190.576H891.849V189.298H892.443C893.331 189.298 893.943 189.424 894.279 189.676C894.627 189.916 894.801 190.456 894.801 191.296V195.22ZM906.593 193.834V189.28H908.177V193.816C908.177 195.34 907.685 196.618 906.701 197.65C905.729 198.67 904.445 199.18 902.849 199.18H902.615C901.091 199.18 899.837 198.676 898.853 197.668C897.881 196.66 897.395 195.376 897.395 193.816V189.28H898.997V193.834C898.997 194.026 899.003 194.164 899.015 194.248H899.447C900.263 194.248 900.893 194.05 901.337 193.654C901.781 193.258 902.003 192.682 902.003 191.926V189.28H903.587V191.854C903.587 192.85 903.233 193.654 902.525 194.266C901.829 194.878 900.851 195.184 899.591 195.184H899.159C899.375 196.06 899.795 196.732 900.419 197.2C901.055 197.656 901.787 197.884 902.615 197.884H902.867C903.983 197.884 904.883 197.53 905.567 196.822C906.251 196.114 906.593 195.118 906.593 193.834ZM910.9 189.298H912.268C913.144 189.298 913.756 189.496 914.104 189.892C914.452 190.276 914.638 190.942 914.662 191.89V199H910.396V197.722H913.078V191.782C913.078 190.978 912.766 190.576 912.142 190.576H910.9V189.298Z" fill="#101212"/>
<path d="M942 193.001C942 193.001 936.306 192.451 934.999 186C933.762 192.588 927.998 193.001 927.998 193.001C927.998 193.001 934.381 194.582 934.999 200.002C936.031 194.513 942 193.001 942 193.001Z" fill="#101212"/>
</svg>
