<svg width="1018" height="200" viewBox="0 0 1018 200" fill="none" xmlns="http://www.w3.org/2000/svg">
<path d="M49.0145 15.182C49.2665 15.182 49.4825 15.278 49.6625 15.47C49.8425 15.662 49.9325 15.884 49.9325 16.136C49.9325 16.4 49.8425 16.622 49.6625 16.802C49.4825 16.982 49.2665 17.072 49.0145 17.072C48.7505 17.072 48.5225 16.982 48.3305 16.802C48.1505 16.622 48.0605 16.4 48.0605 16.136C48.0605 15.884 48.1505 15.662 48.3305 15.47C48.5225 15.278 48.7505 15.182 49.0145 15.182ZM52.4328 7.298H57.3288C58.6848 7.298 59.6868 7.64 60.3348 8.324C60.9828 8.996 61.3068 10.046 61.3068 11.474V17H59.7228V11.15C59.7228 10.31 59.5068 9.674 59.0748 9.242C58.6548 8.798 58.0548 8.576 57.2748 8.576H52.4328V7.298ZM52.5408 11.564H54.1248V17H52.5408V11.564ZM70.7949 7.298V8.594L67.2489 17L65.6109 16.982L69.1749 8.576H63.2709V4.94H64.8549V7.298H70.7949ZM73.2015 7.298H77.7915C79.1475 7.298 80.1495 7.64 80.7975 8.324C81.4455 8.996 81.7695 10.046 81.7695 11.474V17H80.1855V11.15C80.1855 10.31 79.9695 9.674 79.5375 9.242C79.1175 8.798 78.5175 8.576 77.7375 8.576H74.8035V17H73.2015V7.298ZM89.8305 7.118H89.9205C91.0725 7.118 92.0265 7.568 92.7825 8.468C93.5385 9.356 93.9165 10.514 93.9165 11.942V12.284C93.9165 13.52 93.6105 14.564 92.9985 15.416C92.3985 16.256 91.6425 16.784 90.7305 17C89.7105 17.24 88.7145 17.216 87.7425 16.928V15.632C88.5105 15.92 89.3325 15.95 90.2085 15.722C90.8205 15.578 91.3245 15.194 91.7205 14.57C92.1285 13.934 92.3325 13.16 92.3325 12.248V11.978C92.3325 10.91 92.0685 10.052 91.5405 9.404C91.0245 8.744 90.3585 8.414 89.5425 8.414H89.4705C88.6785 8.414 88.0125 8.684 87.4725 9.224C86.9325 9.752 86.6265 10.376 86.5545 11.096L85.9065 17H84.3225L85.0065 11.024C85.0785 10.472 85.0665 9.938 84.9705 9.422C84.8745 8.906 84.7785 8.54 84.6825 8.324C84.5865 8.096 84.4245 7.754 84.1965 7.298H85.7805C85.8045 7.346 85.8525 7.454 85.9245 7.622C85.9965 7.778 86.0505 7.898 86.0865 7.982C86.1225 8.066 86.1645 8.186 86.2125 8.342C86.2725 8.486 86.3145 8.636 86.3385 8.792C86.3745 8.948 86.4045 9.116 86.4285 9.296C86.7285 8.648 87.1665 8.126 87.7425 7.73C88.3305 7.322 89.0265 7.118 89.8305 7.118ZM95.8156 7.298H100.712C102.068 7.298 103.07 7.64 103.718 8.324C104.366 8.996 104.69 10.046 104.69 11.474V17H103.106V11.15C103.106 10.31 102.89 9.674 102.458 9.242C102.038 8.798 101.438 8.576 100.658 8.576H95.8156V7.298ZM95.9236 11.564H97.5076V17H95.9236V11.564ZM111.126 7.298H117.606C118.962 7.298 119.964 7.64 120.612 8.324C121.26 8.996 121.584 10.046 121.584 11.474V17H120V11.15C120 10.31 119.784 9.674 119.352 9.242C118.932 8.798 118.332 8.576 117.552 8.576H114.744V14.714C114.744 16.346 113.928 17.162 112.296 17.162C111.768 17.162 111.318 17.12 110.946 17.036V15.848C111.21 15.896 111.504 15.92 111.828 15.92C112.272 15.92 112.602 15.83 112.818 15.65C113.046 15.47 113.16 15.14 113.16 14.66V8.576H111.126V7.298ZM133.464 7.298L132.87 9.944C132.486 11.648 131.646 12.686 130.35 13.058L133.284 17H131.394L127.416 11.672C126.876 11.804 126.414 12.122 126.03 12.626C125.658 13.118 125.472 13.79 125.472 14.642V17H123.888V14.876C123.888 13.784 124.164 12.884 124.716 12.176C125.28 11.456 125.97 11 126.786 10.808L124.158 7.298H126.048L129.63 12.104C130.47 11.816 131.028 11.072 131.304 9.872L131.844 7.298H133.464ZM139.942 7.298H144.694C146.242 7.298 147.298 7.646 147.862 8.342C148.438 9.026 148.726 10.214 148.726 11.906V17H139.942V7.298ZM144.64 8.576H141.526V15.722H147.142V11.582C147.142 10.454 146.968 9.674 146.62 9.242C146.284 8.798 145.624 8.576 144.64 8.576ZM153.957 13.22H152.373V9.26C152.373 8.804 152.127 8.576 151.635 8.576H151.005V7.298H151.599C152.487 7.298 153.099 7.424 153.435 7.676C153.783 7.916 153.957 8.456 153.957 9.296V13.22ZM156.443 7.298H161.339C162.695 7.298 163.697 7.64 164.345 8.324C164.993 8.996 165.317 10.046 165.317 11.474V17H163.733V11.15C163.733 10.31 163.517 9.674 163.085 9.242C162.665 8.798 162.065 8.576 161.285 8.576H156.443V7.298ZM156.551 11.564H158.135V17H156.551V11.564ZM170.305 17H168.721V10.988C168.721 9.896 168.961 9.092 169.441 8.576H167.479L167.497 7.298H172.159V8.576H170.629C170.413 9.068 170.305 9.776 170.305 10.7V17ZM179.936 7.118H180.026C181.178 7.118 182.132 7.568 182.888 8.468C183.644 9.356 184.022 10.514 184.022 11.942V12.284C184.022 13.52 183.716 14.564 183.104 15.416C182.504 16.256 181.748 16.784 180.836 17C179.816 17.24 178.82 17.216 177.848 16.928V15.632C178.616 15.92 179.438 15.95 180.314 15.722C180.926 15.578 181.43 15.194 181.826 14.57C182.234 13.934 182.438 13.16 182.438 12.248V11.978C182.438 10.91 182.174 10.052 181.646 9.404C181.13 8.744 180.464 8.414 179.648 8.414H179.576C178.784 8.414 178.118 8.684 177.578 9.224C177.038 9.752 176.732 10.376 176.66 11.096L176.012 17H174.428L175.112 11.024C175.184 10.472 175.172 9.938 175.076 9.422C174.98 8.906 174.884 8.54 174.788 8.324C174.692 8.096 174.53 7.754 174.302 7.298H175.886C175.91 7.346 175.958 7.454 176.03 7.622C176.102 7.778 176.156 7.898 176.192 7.982C176.228 8.066 176.27 8.186 176.318 8.342C176.378 8.486 176.42 8.636 176.444 8.792C176.48 8.948 176.51 9.116 176.534 9.296C176.834 8.648 177.272 8.126 177.848 7.73C178.436 7.322 179.132 7.118 179.936 7.118ZM195.438 11.834V7.28H197.022V11.816C197.022 13.34 196.53 14.618 195.546 15.65C194.574 16.67 193.29 17.18 191.694 17.18H191.46C189.936 17.18 188.682 16.676 187.698 15.668C186.726 14.66 186.24 13.376 186.24 11.816V7.28H187.842V11.834C187.842 12.026 187.848 12.164 187.86 12.248H188.292C189.108 12.248 189.738 12.05 190.182 11.654C190.626 11.258 190.848 10.682 190.848 9.926V7.28H192.432V9.854C192.432 10.85 192.078 11.654 191.37 12.266C190.674 12.878 189.696 13.184 188.436 13.184H188.004C188.22 14.06 188.64 14.732 189.264 15.2C189.9 15.656 190.632 15.884 191.46 15.884H191.712C192.828 15.884 193.728 15.53 194.412 14.822C195.096 14.114 195.438 13.118 195.438 11.834ZM209.654 17H208.07V11.024C208.07 9.968 208.322 9.152 208.826 8.576H203.264V7.298H211.256V8.576H209.978C209.762 9.104 209.654 9.92 209.654 11.024V17ZM220.11 11.222L220.47 7.298H222.054L221.802 10.358C221.718 11.342 221.598 12.188 221.442 12.896C221.298 13.604 221.088 14.204 220.812 14.696C220.536 15.188 220.236 15.584 219.912 15.884C219.588 16.184 219.162 16.418 218.634 16.586C218.106 16.754 217.56 16.868 216.996 16.928C216.444 16.976 215.754 17 214.926 17H213.27V15.722H214.908C215.352 15.722 215.826 15.71 216.33 15.686C215.802 14.99 215.388 14.09 215.088 12.986L213.45 7.298H215.07L216.654 12.788C217.002 13.952 217.35 14.852 217.698 15.488C218.478 15.272 219.036 14.858 219.372 14.246C219.72 13.634 219.966 12.626 220.11 11.222ZM235.625 7.298V8.594L232.079 17L230.441 16.982L234.005 8.576H228.101V4.94H229.685V7.298H235.625ZM237.42 7.298H238.122C238.998 7.298 239.592 7.418 239.904 7.658C240.216 7.898 240.372 8.444 240.372 9.296V17H238.788V9.26C238.788 9.008 238.746 8.834 238.662 8.738C238.578 8.63 238.41 8.576 238.158 8.576H237.42V7.298ZM245.809 17.234C244.597 17.294 243.547 17.126 242.659 16.73V15.344C243.499 15.776 244.399 15.974 245.359 15.938C246.343 15.902 247.135 15.56 247.735 14.912C248.335 14.264 248.635 13.37 248.635 12.23C248.635 11.078 248.335 10.184 247.735 9.548C247.135 8.9 246.343 8.552 245.359 8.504C244.423 8.48 243.523 8.666 242.659 9.062V7.712C243.667 7.304 244.717 7.142 245.809 7.226C247.141 7.322 248.209 7.82 249.013 8.72C249.829 9.608 250.237 10.778 250.237 12.23C250.237 13.67 249.829 14.846 249.013 15.758C248.197 16.658 247.129 17.15 245.809 17.234ZM256.921 7.046C258.397 7.046 259.549 7.49 260.377 8.378C261.217 9.254 261.637 10.484 261.637 12.068V12.212C261.637 13.796 261.217 15.032 260.377 15.92C259.549 16.796 258.397 17.234 256.921 17.234C255.469 17.234 254.335 16.796 253.519 15.92C252.703 15.044 252.295 13.82 252.295 12.248V12.032C252.295 10.472 252.703 9.254 253.519 8.378C254.335 7.49 255.469 7.046 256.921 7.046ZM260.053 12.284V12.014C260.053 10.862 259.771 9.962 259.207 9.314C258.655 8.666 257.899 8.342 256.939 8.342C255.991 8.342 255.241 8.666 254.689 9.314C254.149 9.962 253.879 10.862 253.879 12.014V12.284C253.879 13.436 254.149 14.336 254.689 14.984C255.241 15.62 255.991 15.938 256.939 15.938C257.899 15.938 258.655 15.614 259.207 14.966C259.771 14.318 260.053 13.424 260.053 12.284ZM263.405 7.298H269.885C271.241 7.298 272.243 7.64 272.891 8.324C273.539 8.996 273.863 10.046 273.863 11.474V17H272.279V11.15C272.279 10.31 272.063 9.674 271.631 9.242C271.211 8.798 270.611 8.576 269.831 8.576H267.023V14.714C267.023 16.346 266.207 17.162 264.575 17.162C264.047 17.162 263.597 17.12 263.225 17.036V15.848C263.489 15.896 263.783 15.92 264.107 15.92C264.551 15.92 264.881 15.83 265.097 15.65C265.325 15.47 265.439 15.14 265.439 14.66V8.576H263.405V7.298ZM275.916 7.298H276.618C277.494 7.298 278.088 7.418 278.4 7.658C278.712 7.898 278.868 8.444 278.868 9.296V17H277.284V9.26C277.284 9.008 277.242 8.834 277.158 8.738C277.074 8.63 276.906 8.576 276.654 8.576H275.916V7.298ZM285.501 7.298H291.981C293.337 7.298 294.339 7.64 294.987 8.324C295.635 8.996 295.959 10.046 295.959 11.474V17H294.375V11.15C294.375 10.31 294.159 9.674 293.727 9.242C293.307 8.798 292.707 8.576 291.927 8.576H289.119V14.714C289.119 16.346 288.303 17.162 286.671 17.162C286.143 17.162 285.693 17.12 285.321 17.036V15.848C285.585 15.896 285.879 15.92 286.203 15.92C286.647 15.92 286.977 15.83 287.193 15.65C287.421 15.47 287.535 15.14 287.535 14.66V8.576H285.501V7.298ZM298.011 7.298H298.713C299.589 7.298 300.183 7.418 300.495 7.658C300.807 7.898 300.963 8.444 300.963 9.296V17H299.379V9.26C299.379 9.008 299.337 8.834 299.253 8.738C299.169 8.63 299.001 8.576 298.749 8.576H298.011V7.298ZM306.166 13.22H304.582V9.26C304.582 8.804 304.336 8.576 303.844 8.576H303.214V7.298H303.808C304.696 7.298 305.308 7.424 305.644 7.676C305.992 7.916 306.166 8.456 306.166 9.296V13.22ZM308.418 7.298H309.12C309.996 7.298 310.59 7.418 310.902 7.658C311.214 7.898 311.37 8.444 311.37 9.296V17H309.786V9.26C309.786 9.008 309.744 8.834 309.66 8.738C309.576 8.63 309.408 8.576 309.156 8.576H308.418V7.298ZM313.801 17.072H313.531V15.704H313.765C314.401 15.704 315.031 15.47 315.655 15.002C316.291 14.534 316.663 13.994 316.771 13.382L316.789 9.98C316.789 9.512 316.699 9.164 316.519 8.936C316.351 8.696 316.039 8.576 315.583 8.576H314.647V7.298H315.781C316.741 7.298 317.413 7.502 317.797 7.91C318.181 8.318 318.373 9.02 318.373 10.016V13.832L318.895 17H317.401L317.023 14.606H316.933C316.777 15.17 316.381 15.722 315.745 16.262C315.109 16.802 314.461 17.072 313.801 17.072ZM330.157 11.834V7.28H331.741V11.816C331.741 13.34 331.249 14.618 330.265 15.65C329.293 16.67 328.009 17.18 326.413 17.18H326.179C324.655 17.18 323.401 16.676 322.417 15.668C321.445 14.66 320.959 13.376 320.959 11.816V7.28H322.561V11.834C322.561 12.026 322.567 12.164 322.579 12.248H323.011C323.827 12.248 324.457 12.05 324.901 11.654C325.345 11.258 325.567 10.682 325.567 9.926V7.28H327.151V9.854C327.151 10.85 326.797 11.654 326.089 12.266C325.393 12.878 324.415 13.184 323.155 13.184H322.723C322.939 14.06 323.359 14.732 323.983 15.2C324.619 15.656 325.351 15.884 326.179 15.884H326.431C327.547 15.884 328.447 15.53 329.131 14.822C329.815 14.114 330.157 13.118 330.157 11.834ZM338.271 7.298H344.751C346.107 7.298 347.109 7.64 347.757 8.324C348.405 8.996 348.729 10.046 348.729 11.474V17H347.145V11.15C347.145 10.31 346.929 9.674 346.497 9.242C346.077 8.798 345.477 8.576 344.697 8.576H341.889V14.714C341.889 16.346 341.073 17.162 339.441 17.162C338.913 17.162 338.463 17.12 338.091 17.036V15.848C338.355 15.896 338.649 15.92 338.973 15.92C339.417 15.92 339.747 15.83 339.963 15.65C340.191 15.47 340.305 15.14 340.305 14.66V8.576H338.271V7.298ZM350.781 7.298H351.483C352.359 7.298 352.953 7.418 353.265 7.658C353.577 7.898 353.733 8.444 353.733 9.296V17H352.149V9.26C352.149 9.008 352.107 8.834 352.023 8.738C351.939 8.63 351.771 8.576 351.519 8.576H350.781V7.298ZM356.56 7.298H357.928C358.804 7.298 359.416 7.496 359.764 7.892C360.112 8.276 360.298 8.942 360.322 9.89V17H356.056V15.722H358.738V9.782C358.738 8.978 358.426 8.576 357.802 8.576H356.56V7.298ZM363.17 7.298H367.76C369.116 7.298 370.118 7.64 370.766 8.324C371.414 8.996 371.738 10.046 371.738 11.474V17H370.154V11.15C370.154 10.31 369.938 9.674 369.506 9.242C369.086 8.798 368.486 8.576 367.706 8.576H364.772V17H363.17V7.298ZM382.787 17H373.913V15.722H379.943V11.15C379.943 10.31 379.727 9.674 379.295 9.242C378.875 8.798 378.275 8.576 377.495 8.576H374.237V7.298H377.549C378.905 7.298 379.907 7.64 380.555 8.324C381.203 8.996 381.527 10.046 381.527 11.474V15.722H382.787V17ZM394.306 7.298L393.712 9.944C393.328 11.648 392.488 12.686 391.192 13.058L394.126 17H392.236L388.258 11.672C387.718 11.804 387.256 12.122 386.872 12.626C386.5 13.118 386.314 13.79 386.314 14.642V17H384.73V14.876C384.73 13.784 385.006 12.884 385.558 12.176C386.122 11.456 386.812 11 387.628 10.808L385 7.298H386.89L390.472 12.104C391.312 11.816 391.87 11.072 392.146 9.872L392.686 7.298H394.306ZM401.09 16.154H402.656L401.558 19.466H400.73L401.09 16.154ZM412.303 7.298V8.594L408.757 17L407.119 16.982L410.683 8.576H404.779V4.94H406.363V7.298H412.303ZM422.953 17H414.079V15.722H420.109V11.15C420.109 10.31 419.893 9.674 419.461 9.242C419.041 8.798 418.441 8.576 417.661 8.576H414.403V7.298H417.715C419.071 7.298 420.073 7.64 420.721 8.324C421.369 8.996 421.693 10.046 421.693 11.474V15.722H422.953V17ZM428.87 7.046C430.346 7.046 431.498 7.49 432.326 8.378C433.166 9.254 433.586 10.484 433.586 12.068V12.212C433.586 13.796 433.166 15.032 432.326 15.92C431.498 16.796 430.346 17.234 428.87 17.234C427.418 17.234 426.284 16.796 425.468 15.92C424.652 15.044 424.244 13.82 424.244 12.248V12.032C424.244 10.472 424.652 9.254 425.468 8.378C426.284 7.49 427.418 7.046 428.87 7.046ZM432.002 12.284V12.014C432.002 10.862 431.72 9.962 431.156 9.314C430.604 8.666 429.848 8.342 428.888 8.342C427.94 8.342 427.19 8.666 426.638 9.314C426.098 9.962 425.828 10.862 425.828 12.014V12.284C425.828 13.436 426.098 14.336 426.638 14.984C427.19 15.62 427.94 15.938 428.888 15.938C429.848 15.938 430.604 15.614 431.156 14.966C431.72 14.318 432.002 13.424 432.002 12.284ZM446.932 7.298V8.594L443.386 17L441.748 16.982L445.312 8.576H439.408V4.94H440.992V7.298H446.932ZM458.266 11.834V7.28H459.85V11.816C459.85 13.34 459.358 14.618 458.374 15.65C457.402 16.67 456.118 17.18 454.522 17.18H454.288C452.764 17.18 451.51 16.676 450.526 15.668C449.554 14.66 449.068 13.376 449.068 11.816V7.28H450.67V11.834C450.67 12.026 450.676 12.164 450.688 12.248H451.12C451.936 12.248 452.566 12.05 453.01 11.654C453.454 11.258 453.676 10.682 453.676 9.926V7.28H455.26V9.854C455.26 10.85 454.906 11.654 454.198 12.266C453.502 12.878 452.524 13.184 451.264 13.184H450.832C451.048 14.06 451.468 14.732 452.092 15.2C452.728 15.656 453.46 15.884 454.288 15.884H454.54C455.656 15.884 456.556 15.53 457.24 14.822C457.924 14.114 458.266 13.118 458.266 11.834ZM466.596 7.298H471.348C472.896 7.298 473.952 7.646 474.516 8.342C475.092 9.026 475.38 10.214 475.38 11.906V17H466.596V7.298ZM471.294 8.576H468.18V15.722H473.796V11.582C473.796 10.454 473.622 9.674 473.274 9.242C472.938 8.798 472.278 8.576 471.294 8.576ZM480.612 13.22H479.028V9.26C479.028 8.804 478.782 8.576 478.29 8.576H477.66V7.298H478.254C479.142 7.298 479.754 7.424 480.09 7.676C480.438 7.916 480.612 8.456 480.612 9.296V13.22ZM482.964 7.298H484.332C485.208 7.298 485.82 7.496 486.168 7.892C486.516 8.276 486.702 8.942 486.726 9.89V17H482.46V15.722H485.142V9.782C485.142 8.978 484.83 8.576 484.206 8.576H482.964V7.298ZM498.503 11.834V7.28H500.087V11.816C500.087 13.34 499.595 14.618 498.611 15.65C497.639 16.67 496.354 17.18 494.759 17.18H494.525C493.001 17.18 491.747 16.676 490.763 15.668C489.791 14.66 489.305 13.376 489.305 11.816V7.28H490.907V11.834C490.907 12.026 490.913 12.164 490.925 12.248H491.357C492.173 12.248 492.803 12.05 493.247 11.654C493.691 11.258 493.913 10.682 493.913 9.926V7.28H495.497V9.854C495.497 10.85 495.143 11.654 494.435 12.266C493.739 12.878 492.761 13.184 491.501 13.184H491.069C491.285 14.06 491.705 14.732 492.329 15.2C492.965 15.656 493.697 15.884 494.525 15.884H494.777C495.893 15.884 496.793 15.53 497.477 14.822C498.161 14.114 498.503 13.118 498.503 11.834ZM506.832 7.298H511.584C513.132 7.298 514.188 7.646 514.752 8.342C515.328 9.026 515.616 10.214 515.616 11.906V17H506.832V7.298ZM511.53 8.576H508.416V15.722H514.032V11.582C514.032 10.454 513.858 9.674 513.51 9.242C513.174 8.798 512.514 8.576 511.53 8.576ZM520.848 13.22H519.264V9.26C519.264 8.804 519.018 8.576 518.526 8.576H517.896V7.298H518.49C519.378 7.298 519.99 7.424 520.326 7.676C520.674 7.916 520.848 8.456 520.848 9.296V13.22ZM529.928 17H528.344V11.15C528.344 10.31 528.128 9.674 527.696 9.242C527.276 8.798 526.676 8.576 525.896 8.576H522.782V7.298H525.95C527.306 7.298 528.308 7.64 528.956 8.324C529.604 8.996 529.928 10.046 529.928 11.474V17ZM540.832 17H531.958V15.722H537.988V11.15C537.988 10.31 537.772 9.674 537.34 9.242C536.92 8.798 536.32 8.576 535.54 8.576H532.282V7.298H535.594C536.95 7.298 537.952 7.64 538.6 8.324C539.248 8.996 539.572 10.046 539.572 11.474V15.722H540.832V17ZM541.978 7.298H542.68C543.556 7.298 544.15 7.418 544.462 7.658C544.774 7.898 544.93 8.444 544.93 9.296V17H543.346V9.26C543.346 9.008 543.304 8.834 543.22 8.738C543.136 8.63 542.968 8.576 542.716 8.576H541.978V7.298ZM554.147 11.222L554.507 7.298H556.091L555.839 10.358C555.755 11.342 555.635 12.188 555.479 12.896C555.335 13.604 555.125 14.204 554.849 14.696C554.573 15.188 554.273 15.584 553.949 15.884C553.625 16.184 553.199 16.418 552.671 16.586C552.143 16.754 551.597 16.868 551.033 16.928C550.481 16.976 549.791 17 548.963 17H547.307V15.722H548.945C549.389 15.722 549.863 15.71 550.367 15.686C549.839 14.99 549.425 14.09 549.125 12.986L547.487 7.298H549.107L550.691 12.788C551.039 13.952 551.387 14.852 551.735 15.488C552.515 15.272 553.073 14.858 553.409 14.246C553.757 13.634 554.003 12.626 554.147 11.222ZM562.678 7.298H567.43C568.978 7.298 570.034 7.646 570.598 8.342C571.174 9.026 571.462 10.214 571.462 11.906V17H562.678V7.298ZM567.376 8.576H564.262V15.722H569.878V11.582C569.878 10.454 569.704 9.674 569.356 9.242C569.02 8.798 568.36 8.576 567.376 8.576ZM576.694 13.22H575.11V9.26C575.11 8.804 574.864 8.576 574.372 8.576H573.742V7.298H574.336C575.224 7.298 575.836 7.424 576.172 7.676C576.52 7.916 576.694 8.456 576.694 9.296V13.22ZM587.801 17H578.927V15.722H584.957V11.15C584.957 10.31 584.741 9.674 584.309 9.242C583.889 8.798 583.289 8.576 582.509 8.576H579.251V7.298H582.563C583.919 7.298 584.921 7.64 585.569 8.324C586.217 8.996 586.541 10.046 586.541 11.474V15.722H587.801V17ZM595.705 17H594.121V11.15C594.121 10.31 593.905 9.674 593.473 9.242C593.053 8.798 592.453 8.576 591.673 8.576H588.559V7.298H591.727C593.083 7.298 594.085 7.64 594.733 8.324C595.381 8.996 595.705 10.046 595.705 11.474V17ZM602.352 7.298H607.104C608.652 7.298 609.708 7.646 610.272 8.342C610.848 9.026 611.136 10.214 611.136 11.906V17H602.352V7.298ZM607.05 8.576H603.936V15.722H609.552V11.582C609.552 10.454 609.378 9.674 609.03 9.242C608.694 8.798 608.034 8.576 607.05 8.576ZM616.368 13.22H614.784V9.26C614.784 8.804 614.538 8.576 614.046 8.576H613.416V7.298H614.01C614.898 7.298 615.51 7.424 615.846 7.676C616.194 7.916 616.368 8.456 616.368 9.296V13.22ZM625.736 7.298V8.594L622.19 17L620.552 16.982L624.116 8.576H618.212V4.94H619.796V7.298H625.736ZM627.531 7.298H628.233C629.109 7.298 629.703 7.418 630.015 7.658C630.327 7.898 630.483 8.444 630.483 9.296V17H628.899V9.26C628.899 9.008 628.857 8.834 628.773 8.738C628.689 8.63 628.521 8.576 628.269 8.576H627.531V7.298ZM633.346 7.298H637.936C639.292 7.298 640.294 7.64 640.942 8.324C641.59 8.996 641.914 10.046 641.914 11.474V17H640.33V11.15C640.33 10.31 640.114 9.674 639.682 9.242C639.262 8.798 638.662 8.576 637.882 8.576H634.948V17H633.346V7.298ZM649.641 15.182C649.893 15.182 650.109 15.278 650.289 15.47C650.469 15.662 650.559 15.884 650.559 16.136C650.559 16.4 650.469 16.622 650.289 16.802C650.109 16.982 649.893 17.072 649.641 17.072C649.377 17.072 649.149 16.982 648.957 16.802C648.777 16.622 648.687 16.4 648.687 16.136C648.687 15.884 648.777 15.662 648.957 15.47C649.149 15.278 649.377 15.182 649.641 15.182ZM661.61 4.364H663.158V17H661.61V10.736H654.788V17H653.24V4.364H654.788V9.35H661.61V4.364ZM669.895 4.184C670.315 4.184 670.741 4.238 671.173 4.346C671.605 4.442 672.043 4.604 672.487 4.832C672.943 5.06 673.309 5.408 673.585 5.876C673.873 6.332 674.017 6.878 674.017 7.514H672.451C672.451 6.89 672.181 6.416 671.641 6.092C671.113 5.756 670.525 5.588 669.877 5.588C669.229 5.588 668.677 5.75 668.221 6.074C667.765 6.386 667.537 6.806 667.537 7.334V7.37C667.537 7.886 667.753 8.324 668.185 8.684C668.629 9.032 669.367 9.35 670.399 9.638C671.875 10.082 672.913 10.61 673.513 11.222C674.113 11.822 674.413 12.59 674.413 13.526V13.544C674.413 14.576 673.999 15.452 673.171 16.172C672.355 16.88 671.299 17.234 670.003 17.234C669.667 17.234 669.319 17.21 668.959 17.162C668.611 17.114 668.215 17.012 667.771 16.856C667.327 16.688 666.937 16.484 666.601 16.244C666.265 15.992 665.977 15.644 665.737 15.2C665.509 14.744 665.395 14.228 665.395 13.652H666.943C666.955 14.06 667.057 14.414 667.249 14.714C667.453 15.014 667.717 15.242 668.041 15.398C668.365 15.542 668.689 15.65 669.013 15.722C669.337 15.782 669.679 15.812 670.039 15.812C670.867 15.812 671.533 15.596 672.037 15.164C672.541 14.72 672.793 14.186 672.793 13.562V13.526C672.793 12.962 672.571 12.494 672.127 12.122C671.683 11.738 670.951 11.402 669.931 11.114C668.491 10.658 667.447 10.142 666.799 9.566C666.163 8.99 665.845 8.264 665.845 7.388V7.352C665.845 6.416 666.241 5.654 667.033 5.066C667.825 4.478 668.779 4.184 669.895 4.184ZM676.87 10.952H681.964V12.356H676.87V10.952ZM691.865 7.298V8.594L688.319 17L686.681 16.982L690.245 8.576H684.341V4.94H685.925V7.298H691.865ZM697.556 7.298H698.24C699.128 7.298 699.728 7.418 700.04 7.658C700.352 7.898 700.508 8.444 700.508 9.296V19.808H698.924V9.26C698.924 9.008 698.882 8.834 698.798 8.738C698.714 8.63 698.54 8.576 698.276 8.576H697.556V7.298ZM702.66 7.298H703.362C704.238 7.298 704.832 7.418 705.144 7.658C705.456 7.898 705.612 8.444 705.612 9.296V17H704.028V9.26C704.028 9.008 703.986 8.834 703.902 8.738C703.818 8.63 703.65 8.576 703.398 8.576H702.66V7.298ZM708.475 7.298H713.065C714.421 7.298 715.423 7.64 716.071 8.324C716.719 8.996 717.043 10.046 717.043 11.474V17H715.459V11.15C715.459 10.31 715.243 9.674 714.811 9.242C714.391 8.798 713.791 8.576 713.011 8.576H710.077V17H708.475V7.298ZM728.092 17H719.218V15.722H725.248V11.15C725.248 10.31 725.032 9.674 724.6 9.242C724.18 8.798 723.58 8.576 722.8 8.576H719.542V7.298H722.854C724.21 7.298 725.212 7.64 725.86 8.324C726.508 8.996 726.832 10.046 726.832 11.474V15.722H728.092V17ZM739.611 7.298L739.017 9.944C738.633 11.648 737.793 12.686 736.497 13.058L739.431 17H737.541L733.563 11.672C733.023 11.804 732.561 12.122 732.177 12.626C731.805 13.118 731.619 13.79 731.619 14.642V17H730.035V14.876C730.035 13.784 730.311 12.884 730.863 12.176C731.427 11.456 732.117 11 732.933 10.808L730.305 7.298H732.195L735.777 12.104C736.617 11.816 737.175 11.072 737.451 9.872L737.991 7.298H739.611ZM753.072 7.298V8.594L749.526 17L747.888 16.982L751.452 8.576H745.548V4.94H747.132V7.298H753.072ZM763.723 17H754.849V15.722H760.879V11.15C760.879 10.31 760.663 9.674 760.231 9.242C759.811 8.798 759.211 8.576 758.431 8.576H755.173V7.298H758.485C759.841 7.298 760.843 7.64 761.491 8.324C762.139 8.996 762.463 10.046 762.463 11.474V15.722H763.723V17ZM765.612 8.576V7.298H774.702V8.594L771.48 17L769.842 16.982L773.118 8.576H765.612ZM767.394 11.564V19.448H765.81V11.564H767.394ZM783.939 7.298V8.594L780.393 17L778.755 16.982L782.319 8.576H776.415V4.94H777.999V7.298H783.939ZM790.332 7.298H795.084C796.632 7.298 797.688 7.646 798.252 8.342C798.828 9.026 799.116 10.214 799.116 11.906V17H790.332V7.298ZM795.03 8.576H791.916V15.722H797.532V11.582C797.532 10.454 797.358 9.674 797.01 9.242C796.674 8.798 796.014 8.576 795.03 8.576ZM804.348 13.22H802.764V9.26C802.764 8.804 802.518 8.576 802.026 8.576H801.396V7.298H801.99C802.878 7.298 803.49 7.424 803.826 7.676C804.174 7.916 804.348 8.456 804.348 9.296V13.22ZM806.701 7.298H808.069C808.945 7.298 809.557 7.496 809.905 7.892C810.253 8.276 810.439 8.942 810.463 9.89V17H806.197V15.722H808.879V9.782C808.879 8.978 808.567 8.576 807.943 8.576H806.701V7.298ZM822.239 11.834V7.28H823.823V11.816C823.823 13.34 823.331 14.618 822.347 15.65C821.375 16.67 820.091 17.18 818.495 17.18H818.261C816.737 17.18 815.483 16.676 814.499 15.668C813.527 14.66 813.041 13.376 813.041 11.816V7.28H814.643V11.834C814.643 12.026 814.649 12.164 814.661 12.248H815.093C815.909 12.248 816.539 12.05 816.983 11.654C817.427 11.258 817.649 10.682 817.649 9.926V7.28H819.233V9.854C819.233 10.85 818.879 11.654 818.171 12.266C817.475 12.878 816.497 13.184 815.237 13.184H814.805C815.021 14.06 815.441 14.732 816.065 15.2C816.701 15.656 817.433 15.884 818.261 15.884H818.513C819.629 15.884 820.529 15.53 821.213 14.822C821.897 14.114 822.239 13.118 822.239 11.834ZM830.011 6.632H836.725V7.604L832.855 17H831.253L835.105 7.946H830.011V6.632ZM849.53 11.222L849.89 7.298H851.474L851.222 10.358C851.138 11.342 851.018 12.188 850.862 12.896C850.718 13.604 850.508 14.204 850.232 14.696C849.956 15.188 849.656 15.584 849.332 15.884C849.008 16.184 848.582 16.418 848.054 16.586C847.526 16.754 846.98 16.868 846.416 16.928C845.864 16.976 845.174 17 844.346 17H842.69V15.722H844.328C844.772 15.722 845.246 15.71 845.75 15.686C845.222 14.99 844.808 14.09 844.508 12.986L842.87 7.298H844.49L846.074 12.788C846.422 13.952 846.77 14.852 847.118 15.488C847.898 15.272 848.456 14.858 848.792 14.246C849.14 13.634 849.386 12.626 849.53 11.222ZM861.365 7.298L861.293 8.828C861.245 9.788 860.981 10.598 860.501 11.258C860.033 11.906 859.433 12.398 858.701 12.734L861.131 16.082V17H853.427V15.722H859.097L855.335 10.736C854.315 9.32 853.745 8.246 853.625 7.514L853.607 7.298H855.191L855.208 7.37C855.341 7.886 855.863 8.792 856.775 10.088L858.053 11.834C858.533 11.63 858.923 11.282 859.223 10.79C859.535 10.298 859.697 9.734 859.709 9.098L859.781 7.298H861.365ZM863.13 7.298H863.832C864.708 7.298 865.302 7.418 865.614 7.658C865.926 7.898 866.082 8.444 866.082 9.296V17H864.498V9.26C864.498 9.008 864.456 8.834 864.372 8.738C864.288 8.63 864.12 8.576 863.868 8.576H863.13V7.298ZM874.202 7.118H874.292C875.444 7.118 876.398 7.568 877.154 8.468C877.91 9.356 878.288 10.514 878.288 11.942V12.284C878.288 13.52 877.982 14.564 877.37 15.416C876.77 16.256 876.014 16.784 875.102 17C874.082 17.24 873.086 17.216 872.114 16.928V15.632C872.882 15.92 873.704 15.95 874.58 15.722C875.192 15.578 875.696 15.194 876.092 14.57C876.5 13.934 876.704 13.16 876.704 12.248V11.978C876.704 10.91 876.44 10.052 875.912 9.404C875.396 8.744 874.73 8.414 873.914 8.414H873.842C873.05 8.414 872.384 8.684 871.844 9.224C871.304 9.752 870.998 10.376 870.926 11.096L870.278 17H868.694L869.378 11.024C869.45 10.472 869.438 9.938 869.342 9.422C869.246 8.906 869.15 8.54 869.054 8.324C868.958 8.096 868.796 7.754 868.568 7.298H870.152C870.176 7.346 870.224 7.454 870.296 7.622C870.368 7.778 870.422 7.898 870.458 7.982C870.494 8.066 870.536 8.186 870.584 8.342C870.644 8.486 870.686 8.636 870.71 8.792C870.746 8.948 870.776 9.116 870.8 9.296C871.1 8.648 871.538 8.126 872.114 7.73C872.702 7.322 873.398 7.118 874.202 7.118ZM886.032 7.118H886.122C887.274 7.118 888.228 7.568 888.984 8.468C889.74 9.356 890.118 10.514 890.118 11.942V12.284C890.118 13.52 889.812 14.564 889.2 15.416C888.6 16.256 887.844 16.784 886.932 17C885.912 17.24 884.916 17.216 883.944 16.928V15.632C884.712 15.92 885.534 15.95 886.41 15.722C887.022 15.578 887.526 15.194 887.922 14.57C888.33 13.934 888.534 13.16 888.534 12.248V11.978C888.534 10.91 888.27 10.052 887.742 9.404C887.226 8.744 886.56 8.414 885.744 8.414H885.672C884.88 8.414 884.214 8.684 883.674 9.224C883.134 9.752 882.828 10.376 882.756 11.096L882.108 17H880.524L881.208 11.024C881.28 10.472 881.268 9.938 881.172 9.422C881.076 8.906 880.98 8.54 880.884 8.324C880.788 8.096 880.626 7.754 880.398 7.298H881.982C882.006 7.346 882.054 7.454 882.126 7.622C882.198 7.778 882.252 7.898 882.288 7.982C882.324 8.066 882.366 8.186 882.414 8.342C882.474 8.486 882.516 8.636 882.54 8.792C882.576 8.948 882.606 9.116 882.63 9.296C882.93 8.648 883.368 8.126 883.944 7.73C884.532 7.322 885.228 7.118 886.032 7.118ZM900.164 17H891.29V15.722H897.32V11.15C897.32 10.31 897.104 9.674 896.672 9.242C896.252 8.798 895.652 8.576 894.872 8.576H891.614V7.298H894.926C896.282 7.298 897.284 7.64 897.932 8.324C898.58 8.996 898.904 10.046 898.904 11.474V15.722H900.164V17ZM906.616 7.298H911.206C912.562 7.298 913.564 7.64 914.212 8.324C914.86 8.996 915.184 10.046 915.184 11.474V17H913.6V11.15C913.6 10.31 913.384 9.674 912.952 9.242C912.532 8.798 911.932 8.576 911.152 8.576H908.218V17H906.616V7.298ZM917.575 8.576V7.298H926.665V8.594L923.443 17L921.805 16.982L925.081 8.576H917.575ZM919.357 11.564V19.448H917.773V11.564H919.357ZM928.468 7.298H929.17C930.046 7.298 930.64 7.418 930.952 7.658C931.264 7.898 931.42 8.444 931.42 9.296V17H929.836V9.26C929.836 9.008 929.794 8.834 929.71 8.738C929.626 8.63 929.458 8.576 929.206 8.576H928.468V7.298ZM941.105 7.298V8.594L937.559 17L935.921 16.982L939.485 8.576H933.581V4.94H935.165V7.298H941.105Z" fill="#101212"/>
<path d="M111.712 143.159C108.208 144.277 107.419 146.89 104.145 150.408C102.434 152.248 96.3153 158.807 88.9953 158.856C82.0208 158.889 76.6583 153.005 76.3458 152.659C72.9243 148.797 71.6742 143.8 67.5454 141.384C66.9368 141.022 65.5057 140.217 63.4989 140.069C63.4989 140.069 61.5579 139.921 59.6004 140.644C56.4092 141.828 53.4977 146.791 52.8397 153.432C53.0206 149.931 52.9713 141.367 47.0824 135.023C46.0461 133.921 44.5821 132.59 41.5555 130.831C37.3938 128.415 29.7119 124.815 18 123.911C27.5242 122.613 35.4527 121.15 41.4238 119.934C50.0104 118.191 52.5765 117.337 54.3695 114.871C57.8568 110.121 54.5998 104.73 59.0082 100.308C59.4359 99.8808 62.5448 96.7743 66.0321 97.7276C69.3055 98.6316 70.4899 102.527 70.605 102.938C71.3781 96.2812 76.3787 92.55 79.8989 93.2897C83.3532 94.0129 84.8501 98.8946 84.9159 99.1412C85.1297 97.9577 85.6068 96.2154 86.824 94.4896C89.9658 90.0352 95.5257 89.3613 97.5161 89.1312C98.6182 88.9997 100.905 88.8189 103.701 89.427C105.412 89.7886 109.656 90.6927 112.666 94.0293C116.17 97.892 114.739 101.409 118.621 103.99C119.196 104.368 120.775 105.404 122.914 105.371C124.641 105.354 126.039 104.68 127.207 103.859C132.175 100.358 132.619 96.8565 136.32 94.4567C136.896 94.0951 140.449 91.8597 144.166 92.5829C152.358 94.1937 156.619 109.233 157.704 117.534C158.214 121.397 157.819 122.153 158.806 123.879C163.642 132.36 181.967 129.862 182 131.127C182.033 132.031 172.706 130.256 165.139 135.138C156.29 140.841 158.165 150.276 146.568 159.316C143.903 161.387 141.37 162.801 138.261 162.982C133.869 163.228 129.395 160.96 126.582 157.771C121.746 152.265 124.164 146.693 119.509 143.849C116.153 141.795 112.14 143.011 111.712 143.159Z" fill="#101212"/>
<path d="M305.269 67.622V68.282H303.531V67.314C303.531 66.8007 303.656 66.3167 303.905 65.862C304.154 65.4073 304.455 65.0187 304.807 64.696C305.174 64.3587 305.54 64.036 305.907 63.728C306.274 63.42 306.582 63.09 306.831 62.738C307.08 62.386 307.205 62.0267 307.205 61.66V61.616C307.205 61.044 307 60.5747 306.589 60.208C306.178 59.8413 305.621 59.658 304.917 59.658C304.257 59.658 303.685 59.8633 303.201 60.274C302.717 60.67 302.424 61.2273 302.321 61.946H300.715C300.774 60.7873 301.206 59.878 302.013 59.218C302.82 58.558 303.795 58.228 304.939 58.228C306.142 58.228 307.102 58.5287 307.821 59.13C308.554 59.7313 308.921 60.516 308.921 61.484V61.528C308.921 62.056 308.796 62.5473 308.547 63.002C308.298 63.4567 307.99 63.8527 307.623 64.19C307.271 64.5127 306.912 64.8353 306.545 65.158C306.193 65.4807 305.892 65.8547 305.643 66.28C305.394 66.6907 305.269 67.138 305.269 67.622ZM305.203 71.758C304.998 71.978 304.734 72.088 304.411 72.088C304.088 72.088 303.817 71.978 303.597 71.758C303.377 71.538 303.267 71.2667 303.267 70.944C303.267 70.636 303.377 70.372 303.597 70.152C303.817 69.9173 304.088 69.8 304.411 69.8C304.734 69.8 304.998 69.9173 305.203 70.152C305.423 70.372 305.533 70.636 305.533 70.944C305.533 71.2667 305.423 71.538 305.203 71.758ZM322.274 72H311.428V70.438H318.798V64.85C318.798 63.8233 318.534 63.046 318.006 62.518C317.492 61.9753 316.759 61.704 315.806 61.704H311.824V60.142H315.872C317.529 60.142 318.754 60.56 319.546 61.396C320.338 62.2173 320.734 63.5007 320.734 65.246V70.438H322.274V72ZM328.234 72.286C326.753 72.3593 325.47 72.154 324.384 71.67V69.976C325.411 70.504 326.511 70.746 327.684 70.702C328.887 70.658 329.855 70.24 330.588 69.448C331.322 68.656 331.688 67.5633 331.688 66.17C331.688 64.762 331.322 63.6693 330.588 62.892C329.855 62.1 328.887 61.6747 327.684 61.616C326.54 61.5867 325.44 61.814 324.384 62.298V60.648C325.616 60.1493 326.9 59.9513 328.234 60.054C329.862 60.1713 331.168 60.78 332.15 61.88C333.148 62.9653 333.646 64.3953 333.646 66.17C333.646 67.93 333.148 69.3673 332.15 70.482C331.153 71.582 329.848 72.1833 328.234 72.286ZM344.198 64.938L344.638 60.142H346.574L346.266 63.882C346.163 65.0847 346.017 66.1187 345.826 66.984C345.65 67.8493 345.393 68.5827 345.056 69.184C344.719 69.7853 344.352 70.2693 343.956 70.636C343.56 71.0027 343.039 71.2887 342.394 71.494C341.749 71.6993 341.081 71.8387 340.392 71.912C339.717 71.9707 338.874 72 337.862 72H335.838V70.438H337.84C338.383 70.438 338.962 70.4233 339.578 70.394C338.933 69.5433 338.427 68.4433 338.06 67.094L336.058 60.142H338.038L339.974 66.852C340.399 68.2747 340.825 69.3747 341.25 70.152C342.203 69.888 342.885 69.382 343.296 68.634C343.721 67.886 344.022 66.654 344.198 64.938ZM348.753 60.142H356.673C358.331 60.142 359.555 60.56 360.347 61.396C361.139 62.2173 361.535 63.5007 361.535 65.246V72H359.599V64.85C359.599 63.8233 359.335 63.046 358.807 62.518C358.294 61.9753 357.561 61.704 356.607 61.704H353.175V69.206C353.175 71.2007 352.178 72.198 350.183 72.198C349.538 72.198 348.988 72.1467 348.533 72.044V70.592C348.856 70.6507 349.215 70.68 349.611 70.68C350.154 70.68 350.557 70.57 350.821 70.35C351.1 70.13 351.239 69.7267 351.239 69.14V61.704H348.753V60.142ZM371.215 59.922H371.325C372.733 59.922 373.899 60.472 374.823 61.572C375.747 62.6573 376.209 64.0727 376.209 65.818V66.236C376.209 67.7467 375.835 69.0227 375.087 70.064C374.354 71.0907 373.43 71.736 372.315 72C371.069 72.2933 369.851 72.264 368.663 71.912V70.328C369.602 70.68 370.607 70.7167 371.677 70.438C372.425 70.262 373.041 69.7927 373.525 69.03C374.024 68.2527 374.273 67.3067 374.273 66.192V65.862C374.273 64.5567 373.951 63.508 373.305 62.716C372.675 61.9093 371.861 61.506 370.863 61.506H370.775C369.807 61.506 368.993 61.836 368.333 62.496C367.673 63.1413 367.299 63.904 367.211 64.784L366.419 72H364.483L365.319 64.696C365.407 64.0213 365.393 63.3687 365.275 62.738C365.158 62.1073 365.041 61.66 364.923 61.396C364.806 61.1173 364.608 60.6993 364.329 60.142H366.265C366.295 60.2007 366.353 60.3327 366.441 60.538C366.529 60.7287 366.595 60.8753 366.639 60.978C366.683 61.0807 366.735 61.2273 366.793 61.418C366.867 61.594 366.918 61.7773 366.947 61.968C366.991 62.1587 367.028 62.364 367.057 62.584C367.424 61.792 367.959 61.154 368.663 60.67C369.382 60.1713 370.233 59.922 371.215 59.922ZM383.601 60.142H389.585C391.242 60.142 392.467 60.56 393.259 61.396C394.051 62.2173 394.447 63.5007 394.447 65.246V72H392.511V64.85C392.511 63.8233 392.247 63.046 391.719 62.518C391.206 61.9753 390.472 61.704 389.519 61.704H383.601V60.142ZM383.733 65.356H385.669V72H383.733V65.356ZM400.543 72H398.607V64.652C398.607 63.3173 398.901 62.3347 399.487 61.704H397.089L397.111 60.142H402.809V61.704H400.939C400.675 62.3053 400.543 63.1707 400.543 64.3V72ZM410.499 60.142H416.483C418.141 60.142 419.365 60.56 420.157 61.396C420.949 62.2173 421.345 63.5007 421.345 65.246V72H419.409V64.85C419.409 63.8233 419.145 63.046 418.617 62.518C418.104 61.9753 417.371 61.704 416.417 61.704H410.499V60.142ZM410.631 65.356H412.567V72H410.631V65.356ZM431.028 59.922H431.138C432.546 59.922 433.712 60.472 434.636 61.572C435.56 62.6573 436.022 64.0727 436.022 65.818V66.236C436.022 67.7467 435.648 69.0227 434.9 70.064C434.167 71.0907 433.243 71.736 432.128 72C430.881 72.2933 429.664 72.264 428.476 71.912V70.328C429.415 70.68 430.419 70.7167 431.49 70.438C432.238 70.262 432.854 69.7927 433.338 69.03C433.837 68.2527 434.086 67.3067 434.086 66.192V65.862C434.086 64.5567 433.763 63.508 433.118 62.716C432.487 61.9093 431.673 61.506 430.676 61.506H430.588C429.62 61.506 428.806 61.836 428.146 62.496C427.486 63.1413 427.112 63.904 427.024 64.784L426.232 72H424.296L425.132 64.696C425.22 64.0213 425.205 63.3687 425.088 62.738C424.971 62.1073 424.853 61.66 424.736 61.396C424.619 61.1173 424.421 60.6993 424.142 60.142H426.078C426.107 60.2007 426.166 60.3327 426.254 60.538C426.342 60.7287 426.408 60.8753 426.452 60.978C426.496 61.0807 426.547 61.2273 426.606 61.418C426.679 61.594 426.731 61.7773 426.76 61.968C426.804 62.1587 426.841 62.364 426.87 62.584C427.237 61.792 427.772 61.154 428.476 60.67C429.195 60.1713 430.045 59.922 431.028 59.922ZM446.907 60.142V61.726L442.573 72L440.571 71.978L444.927 61.704H437.711V57.26H439.647V60.142H446.907Z" fill="#101212"/>
<path d="M230.914 93.298H231.616C232.492 93.298 233.086 93.418 233.398 93.658C233.71 93.898 233.866 94.444 233.866 95.296V103H232.282V95.26C232.282 95.008 232.24 94.834 232.156 94.738C232.072 94.63 231.904 94.576 231.652 94.576H230.914V93.298ZM245.945 93.298L245.351 95.944C244.967 97.648 244.127 98.686 242.831 99.058L245.765 103H243.875L239.897 97.672C239.357 97.804 238.895 98.122 238.511 98.626C238.139 99.118 237.953 99.79 237.953 100.642V103H236.369V100.876C236.369 99.784 236.645 98.884 237.197 98.176C237.761 97.456 238.451 97 239.267 96.808L236.639 93.298H238.529L242.111 98.104C242.951 97.816 243.509 97.072 243.785 95.872L244.325 93.298H245.945ZM252.206 93.298H257.102C258.458 93.298 259.46 93.64 260.108 94.324C260.756 94.996 261.08 96.046 261.08 97.474V103H259.496V97.15C259.496 96.31 259.28 95.674 258.848 95.242C258.428 94.798 257.828 94.576 257.048 94.576H252.206V93.298ZM252.314 97.564H253.898V103H252.314V97.564ZM263.71 93.298H265.078C265.954 93.298 266.566 93.496 266.914 93.892C267.262 94.276 267.448 94.942 267.472 95.89V103H263.206V101.722H265.888V95.782C265.888 94.978 265.576 94.576 264.952 94.576H263.71V93.298ZM269.907 94.576V93.298H278.997V94.594L275.775 103L274.137 102.982L277.413 94.576H269.907ZM271.689 97.564V105.448H270.105V97.564H271.689ZM290.628 93.298L290.034 95.944C289.65 97.648 288.81 98.686 287.514 99.058L290.448 103H288.558L284.58 97.672C284.04 97.804 283.578 98.122 283.194 98.626C282.822 99.118 282.636 99.79 282.636 100.642V103H281.052V100.876C281.052 99.784 281.328 98.884 281.88 98.176C282.444 97.456 283.134 97 283.95 96.808L281.322 93.298H283.212L286.794 98.104C287.634 97.816 288.192 97.072 288.468 95.872L289.008 93.298H290.628ZM299.608 99.22H298.024V95.26C298.024 94.804 297.778 94.576 297.286 94.576H296.656V93.298H297.25C298.138 93.298 298.75 93.424 299.086 93.676C299.434 93.916 299.608 94.456 299.608 95.296V99.22ZM308.825 97.222L309.185 93.298H310.769L310.517 96.358C310.433 97.342 310.313 98.188 310.157 98.896C310.013 99.604 309.803 100.204 309.527 100.696C309.251 101.188 308.951 101.584 308.627 101.884C308.303 102.184 307.877 102.418 307.349 102.586C306.821 102.754 306.275 102.868 305.711 102.928C305.159 102.976 304.469 103 303.641 103H301.985V101.722H303.623C304.067 101.722 304.541 101.71 305.045 101.686C304.517 100.99 304.103 100.09 303.803 98.986L302.165 93.298H303.785L305.369 98.788C305.717 99.952 306.065 100.852 306.413 101.488C307.193 101.272 307.751 100.858 308.087 100.246C308.435 99.634 308.681 98.626 308.825 97.222ZM320.659 93.298L320.587 94.828C320.539 95.788 320.275 96.598 319.795 97.258C319.327 97.906 318.727 98.398 317.995 98.734L320.425 102.082V103H312.721V101.722H318.391L314.629 96.736C313.609 95.32 313.039 94.246 312.919 93.514L312.901 93.298H314.485L314.503 93.37C314.635 93.886 315.157 94.792 316.069 96.088L317.347 97.834C317.827 97.63 318.217 97.282 318.517 96.79C318.829 96.298 318.991 95.734 319.003 95.098L319.075 93.298H320.659ZM326.925 103.252C326.157 103.264 325.371 103.192 324.567 103.036C323.775 102.892 323.127 102.718 322.623 102.514V101.146C323.055 101.386 323.643 101.596 324.387 101.776C325.131 101.944 325.881 102.022 326.637 102.01C327.741 101.986 328.635 101.62 329.319 100.912C330.015 100.192 330.363 99.274 330.363 98.158C330.363 97.03 330.051 96.124 329.427 95.44C328.803 94.744 327.957 94.396 326.889 94.396C326.109 94.396 325.455 94.582 324.927 94.954C324.411 95.326 324.141 95.8 324.117 96.376C324.105 96.94 324.285 97.39 324.657 97.726C325.041 98.062 325.581 98.212 326.277 98.176V99.346C325.137 99.406 324.231 99.166 323.559 98.626C322.899 98.086 322.569 97.354 322.569 96.43C322.581 95.458 323.001 94.666 323.829 94.054C324.657 93.442 325.713 93.136 326.997 93.136C328.509 93.136 329.715 93.592 330.615 94.504C331.515 95.416 331.965 96.616 331.965 98.104C331.965 99.592 331.497 100.81 330.561 101.758C329.637 102.706 328.425 103.204 326.925 103.252ZM337.864 93.298H342.76C344.116 93.298 345.118 93.64 345.766 94.324C346.414 94.996 346.738 96.046 346.738 97.474V103H345.154V97.15C345.154 96.31 344.938 95.674 344.506 95.242C344.086 94.798 343.486 94.576 342.706 94.576H337.864V93.298ZM337.972 97.564H339.556V103H337.972V97.564ZM355.428 103H353.844V97.15C353.844 96.31 353.628 95.674 353.196 95.242C352.776 94.798 352.176 94.576 351.396 94.576H348.282V93.298H351.45C352.806 93.298 353.808 93.64 354.456 94.324C355.104 94.996 355.428 96.046 355.428 97.474V103ZM360.147 99.22H358.563V95.26C358.563 94.804 358.317 94.576 357.825 94.576H357.195V93.298H357.789C358.677 93.298 359.289 93.424 359.625 93.676C359.973 93.916 360.147 94.456 360.147 95.296V99.22ZM365.584 103.234C364.372 103.294 363.322 103.126 362.434 102.73V101.344C363.274 101.776 364.174 101.974 365.134 101.938C366.118 101.902 366.91 101.56 367.51 100.912C368.11 100.264 368.41 99.37 368.41 98.23C368.41 97.078 368.11 96.184 367.51 95.548C366.91 94.9 366.118 94.552 365.134 94.504C364.198 94.48 363.298 94.666 362.434 95.062V93.712C363.442 93.304 364.492 93.142 365.584 93.226C366.916 93.322 367.984 93.82 368.788 94.72C369.604 95.608 370.012 96.778 370.012 98.23C370.012 99.67 369.604 100.846 368.788 101.758C367.972 102.658 366.904 103.15 365.584 103.234ZM374.824 103H373.24V96.988C373.24 95.896 373.48 95.092 373.96 94.576H371.998L372.016 93.298H376.678V94.576H375.148C374.932 95.068 374.824 95.776 374.824 96.7V103ZM384.456 93.118H384.546C385.698 93.118 386.652 93.568 387.408 94.468C388.164 95.356 388.542 96.514 388.542 97.942V98.284C388.542 99.52 388.236 100.564 387.624 101.416C387.024 102.256 386.268 102.784 385.356 103C384.336 103.24 383.34 103.216 382.368 102.928V101.632C383.136 101.92 383.958 101.95 384.834 101.722C385.446 101.578 385.95 101.194 386.346 100.57C386.754 99.934 386.958 99.16 386.958 98.248V97.978C386.958 96.91 386.694 96.052 386.166 95.404C385.65 94.744 384.984 94.414 384.168 94.414H384.096C383.304 94.414 382.638 94.684 382.098 95.224C381.558 95.752 381.252 96.376 381.18 97.096L380.532 103H378.948L379.632 97.024C379.704 96.472 379.692 95.938 379.596 95.422C379.5 94.906 379.404 94.54 379.308 94.324C379.212 94.096 379.05 93.754 378.822 93.298H380.406C380.43 93.346 380.478 93.454 380.55 93.622C380.622 93.778 380.676 93.898 380.712 93.982C380.748 94.066 380.79 94.186 380.838 94.342C380.898 94.486 380.94 94.636 380.964 94.792C381 94.948 381.03 95.116 381.054 95.296C381.354 94.648 381.792 94.126 382.368 93.73C382.956 93.322 383.652 93.118 384.456 93.118ZM394.589 93.298H399.485C400.841 93.298 401.843 93.64 402.491 94.324C403.139 94.996 403.463 96.046 403.463 97.474V103H401.879V97.15C401.879 96.31 401.663 95.674 401.231 95.242C400.811 94.798 400.211 94.576 399.431 94.576H394.589V93.298ZM394.697 97.564H396.281V103H394.697V97.564ZM412.951 93.298V94.594L409.405 103L407.767 102.982L411.331 94.576H405.427V90.94H407.011V93.298H412.951ZM415.358 93.298H419.948C421.304 93.298 422.306 93.64 422.954 94.324C423.602 94.996 423.926 96.046 423.926 97.474V103H422.342V97.15C422.342 96.31 422.126 95.674 421.694 95.242C421.274 94.798 420.674 94.576 419.894 94.576H416.96V103H415.358V93.298ZM431.987 93.118H432.077C433.229 93.118 434.183 93.568 434.939 94.468C435.695 95.356 436.073 96.514 436.073 97.942V98.284C436.073 99.52 435.767 100.564 435.155 101.416C434.555 102.256 433.799 102.784 432.887 103C431.867 103.24 430.871 103.216 429.899 102.928V101.632C430.667 101.92 431.489 101.95 432.365 101.722C432.977 101.578 433.481 101.194 433.877 100.57C434.285 99.934 434.489 99.16 434.489 98.248V97.978C434.489 96.91 434.225 96.052 433.697 95.404C433.181 94.744 432.515 94.414 431.699 94.414H431.627C430.835 94.414 430.169 94.684 429.629 95.224C429.089 95.752 428.783 96.376 428.711 97.096L428.063 103H426.479L427.163 97.024C427.235 96.472 427.223 95.938 427.127 95.422C427.031 94.906 426.935 94.54 426.839 94.324C426.743 94.096 426.581 93.754 426.353 93.298H427.937C427.961 93.346 428.009 93.454 428.081 93.622C428.153 93.778 428.207 93.898 428.243 93.982C428.279 94.066 428.321 94.186 428.369 94.342C428.429 94.486 428.471 94.636 428.495 94.792C428.531 94.948 428.561 95.116 428.585 95.296C428.885 94.648 429.323 94.126 429.899 93.73C430.487 93.322 431.183 93.118 431.987 93.118ZM437.972 93.298H442.868C444.224 93.298 445.226 93.64 445.874 94.324C446.522 94.996 446.846 96.046 446.846 97.474V103H445.262V97.15C445.262 96.31 445.046 95.674 444.614 95.242C444.194 94.798 443.594 94.576 442.814 94.576H437.972V93.298ZM438.08 97.564H439.664V103H438.08V97.564ZM233.807 113.298H238.559C240.107 113.298 241.163 113.646 241.727 114.342C242.303 115.026 242.591 116.214 242.591 117.906V123H233.807V113.298ZM238.505 114.576H235.391V121.722H241.007V117.582C241.007 116.454 240.833 115.674 240.485 115.242C240.149 114.798 239.489 114.576 238.505 114.576ZM247.823 119.22H246.239V115.26C246.239 114.804 245.993 114.576 245.501 114.576H244.871V113.298H245.465C246.353 113.298 246.965 113.424 247.301 113.676C247.649 113.916 247.823 114.456 247.823 115.296V119.22ZM249.552 113.298H256.032C257.388 113.298 258.39 113.64 259.038 114.324C259.686 114.996 260.01 116.046 260.01 117.474V123H258.426V117.15C258.426 116.31 258.21 115.674 257.778 115.242C257.358 114.798 256.758 114.576 255.978 114.576H253.17V120.714C253.17 122.346 252.354 123.162 250.722 123.162C250.194 123.162 249.744 123.12 249.372 123.036V121.848C249.636 121.896 249.93 121.92 250.254 121.92C250.698 121.92 251.028 121.83 251.244 121.65C251.472 121.47 251.586 121.14 251.586 120.66V114.576H249.552V113.298ZM262.062 113.298H262.764C263.64 113.298 264.234 113.418 264.546 113.658C264.858 113.898 265.014 114.444 265.014 115.296V123H263.43V115.26C263.43 115.008 263.388 114.834 263.304 114.738C263.22 114.63 263.052 114.576 262.8 114.576H262.062V113.298ZM267.265 113.298H267.967C268.843 113.298 269.437 113.418 269.749 113.658C270.061 113.898 270.217 114.444 270.217 115.296V123H268.633V115.26C268.633 115.008 268.591 114.834 268.507 114.738C268.423 114.63 268.255 114.576 268.003 114.576H267.265V113.298ZM280.37 113.298L280.298 114.828C280.25 115.788 279.986 116.598 279.506 117.258C279.038 117.906 278.438 118.398 277.706 118.734L280.136 122.082V123H272.432V121.722H278.102L274.34 116.736C273.32 115.32 272.75 114.246 272.63 113.514L272.612 113.298H274.196L274.214 113.37C274.346 113.886 274.868 114.792 275.78 116.088L277.058 117.834C277.538 117.63 277.928 117.282 278.228 116.79C278.54 116.298 278.702 115.734 278.714 115.098L278.786 113.298H280.37ZM282.136 113.298H282.838C283.714 113.298 284.308 113.418 284.62 113.658C284.932 113.898 285.088 114.444 285.088 115.296V123H283.504V115.26C283.504 115.008 283.462 114.834 283.378 114.738C283.294 114.63 283.126 114.576 282.874 114.576H282.136V113.298ZM292.244 122.154H293.81L292.712 125.466H291.884L292.244 122.154ZM296.257 113.298H301.153C302.509 113.298 303.511 113.64 304.159 114.324C304.807 114.996 305.131 116.046 305.131 117.474V123H303.547V117.15C303.547 116.31 303.331 115.674 302.899 115.242C302.479 114.798 301.879 114.576 301.099 114.576H296.257V113.298ZM296.365 117.564H297.949V123H296.365V117.564ZM313.821 123H312.237V117.15C312.237 116.31 312.021 115.674 311.589 115.242C311.169 114.798 310.569 114.576 309.789 114.576H306.675V113.298H309.843C311.199 113.298 312.201 113.64 312.849 114.324C313.497 114.996 313.821 116.046 313.821 117.474V123ZM322.835 117.222L323.195 113.298H324.779L324.527 116.358C324.443 117.342 324.323 118.188 324.167 118.896C324.023 119.604 323.813 120.204 323.537 120.696C323.261 121.188 322.961 121.584 322.637 121.884C322.313 122.184 321.887 122.418 321.359 122.586C320.831 122.754 320.285 122.868 319.721 122.928C319.169 122.976 318.479 123 317.651 123H315.995V121.722H317.633C318.077 121.722 318.551 121.71 319.055 121.686C318.527 120.99 318.113 120.09 317.813 118.986L316.175 113.298H317.795L319.379 118.788C319.727 119.952 320.075 120.852 320.423 121.488C321.203 121.272 321.761 120.858 322.097 120.246C322.445 119.634 322.691 118.626 322.835 117.222ZM329.719 119.22H328.135V115.26C328.135 114.804 327.889 114.576 327.397 114.576H326.767V113.298H327.361C328.249 113.298 328.861 113.424 329.197 113.676C329.545 113.916 329.719 114.456 329.719 115.296V119.22ZM341.51 117.834V113.28H343.094V117.816C343.094 119.34 342.602 120.618 341.618 121.65C340.646 122.67 339.362 123.18 337.766 123.18H337.532C336.008 123.18 334.754 122.676 333.77 121.668C332.798 120.66 332.312 119.376 332.312 117.816V113.28H333.914V117.834C333.914 118.026 333.92 118.164 333.932 118.248H334.364C335.18 118.248 335.81 118.05 336.254 117.654C336.698 117.258 336.92 116.682 336.92 115.926V113.28H338.504V115.854C338.504 116.85 338.15 117.654 337.442 118.266C336.746 118.878 335.768 119.184 334.508 119.184H334.076C334.292 120.06 334.712 120.732 335.336 121.2C335.972 121.656 336.704 121.884 337.532 121.884H337.784C338.9 121.884 339.8 121.53 340.484 120.822C341.168 120.114 341.51 119.118 341.51 117.834ZM345.476 113.298H350.372C351.728 113.298 352.73 113.64 353.378 114.324C354.026 114.996 354.35 116.046 354.35 117.474V123H352.766V117.15C352.766 116.31 352.55 115.674 352.118 115.242C351.698 114.798 351.098 114.576 350.318 114.576H345.476V113.298ZM345.584 117.564H347.168V123H345.584V117.564ZM360.75 114.576V113.298H369.84V114.594L366.618 123L364.98 122.982L368.256 114.576H360.75ZM362.532 117.564V125.448H360.948V117.564H362.532ZM374.596 119.22H373.012V115.26C373.012 114.804 372.766 114.576 372.274 114.576H371.644V113.298H372.238C373.126 113.298 373.738 113.424 374.074 113.676C374.422 113.916 374.596 114.456 374.596 115.296V119.22ZM377.045 114.576V113.298H386.135V114.594L382.913 123L381.275 122.982L384.551 114.576H377.045ZM378.827 117.564V125.448H377.243V117.564H378.827ZM390.873 123H389.289V116.988C389.289 115.896 389.529 115.092 390.009 114.576H388.047L388.065 113.298H392.727V114.576H391.197C390.981 115.068 390.873 115.776 390.873 116.7V123ZM403.492 123H394.618V121.722H400.648V117.15C400.648 116.31 400.432 115.674 400 115.242C399.58 114.798 398.98 114.576 398.2 114.576H394.942V113.298H398.254C399.61 113.298 400.612 113.64 401.26 114.324C401.908 114.996 402.232 116.046 402.232 117.474V121.722H403.492V123ZM409.782 113.298H414.534C416.082 113.298 417.138 113.646 417.702 114.342C418.278 115.026 418.566 116.214 418.566 117.906V123H409.782V113.298ZM414.48 114.576H411.366V121.722H416.982V117.582C416.982 116.454 416.808 115.674 416.46 115.242C416.124 114.798 415.464 114.576 414.48 114.576ZM420.845 113.298H421.547C422.423 113.298 423.017 113.418 423.329 113.658C423.641 113.898 423.797 114.444 423.797 115.296V123H422.213V115.26C422.213 115.008 422.171 114.834 422.087 114.738C422.003 114.63 421.835 114.576 421.583 114.576H420.845V113.298ZM426.282 113.298H431.178C432.534 113.298 433.536 113.64 434.184 114.324C434.832 114.996 435.156 116.046 435.156 117.474V123H433.572V117.15C433.572 116.31 433.356 115.674 432.924 115.242C432.504 114.798 431.904 114.576 431.124 114.576H426.282V113.298ZM426.39 117.564H427.974V123H426.39V117.564ZM439.952 119.22H438.368V115.26C438.368 114.804 438.122 114.576 437.63 114.576H437V113.298H437.594C438.482 113.298 439.094 113.424 439.43 113.676C439.778 113.916 439.952 114.456 439.952 115.296V119.22ZM445.137 123H443.553V116.988C443.553 115.896 443.793 115.092 444.273 114.576H442.311L442.329 113.298H446.991V114.576H445.461C445.245 115.068 445.137 115.776 445.137 116.7V123ZM256.114 133.298H260.866C262.414 133.298 263.47 133.646 264.034 134.342C264.61 135.026 264.898 136.214 264.898 137.906V143H256.114V133.298ZM260.812 134.576H257.698V141.722H263.314V137.582C263.314 136.454 263.14 135.674 262.792 135.242C262.456 134.798 261.796 134.576 260.812 134.576ZM270.129 139.22H268.545V135.26C268.545 134.804 268.299 134.576 267.807 134.576H267.177V133.298H267.771C268.659 133.298 269.271 133.424 269.607 133.676C269.955 133.916 270.129 134.456 270.129 135.296V139.22ZM279.209 143H277.625V137.15C277.625 136.31 277.409 135.674 276.977 135.242C276.557 134.798 275.957 134.576 275.177 134.576H272.063V133.298H275.231C276.587 133.298 277.589 133.64 278.237 134.324C278.885 134.996 279.209 136.046 279.209 137.474V143ZM283.928 139.22H282.344V135.26C282.344 134.804 282.098 134.576 281.606 134.576H280.976V133.298H281.57C282.458 133.298 283.07 133.424 283.406 133.676C283.754 133.916 283.928 134.456 283.928 135.296V139.22ZM289.365 143.234C288.153 143.294 287.103 143.126 286.215 142.73V141.344C287.055 141.776 287.955 141.974 288.915 141.938C289.899 141.902 290.691 141.56 291.291 140.912C291.891 140.264 292.191 139.37 292.191 138.23C292.191 137.078 291.891 136.184 291.291 135.548C290.691 134.9 289.899 134.552 288.915 134.504C287.979 134.48 287.079 134.666 286.215 135.062V133.712C287.223 133.304 288.273 133.142 289.365 133.226C290.697 133.322 291.765 133.82 292.569 134.72C293.385 135.608 293.793 136.778 293.793 138.23C293.793 139.67 293.385 140.846 292.569 141.758C291.753 142.658 290.685 143.15 289.365 143.234ZM301.399 133.118H301.489C302.641 133.118 303.595 133.568 304.351 134.468C305.107 135.356 305.485 136.514 305.485 137.942V138.284C305.485 139.52 305.179 140.564 304.567 141.416C303.967 142.256 303.211 142.784 302.299 143C301.279 143.24 300.283 143.216 299.311 142.928V141.632C300.079 141.92 300.901 141.95 301.777 141.722C302.389 141.578 302.893 141.194 303.289 140.57C303.697 139.934 303.901 139.16 303.901 138.248V137.978C303.901 136.91 303.637 136.052 303.109 135.404C302.593 134.744 301.927 134.414 301.111 134.414H301.039C300.247 134.414 299.581 134.684 299.041 135.224C298.501 135.752 298.195 136.376 298.123 137.096L297.475 143H295.891L296.575 137.024C296.647 136.472 296.635 135.938 296.539 135.422C296.443 134.906 296.347 134.54 296.251 134.324C296.155 134.096 295.993 133.754 295.765 133.298H297.349C297.373 133.346 297.421 133.454 297.493 133.622C297.565 133.778 297.619 133.898 297.655 133.982C297.691 134.066 297.733 134.186 297.781 134.342C297.841 134.486 297.883 134.636 297.907 134.792C297.943 134.948 297.973 135.116 297.997 135.296C298.297 134.648 298.735 134.126 299.311 133.73C299.899 133.322 300.595 133.118 301.399 133.118ZM311.748 133.298H316.5C318.048 133.298 319.104 133.646 319.668 134.342C320.244 135.026 320.532 136.214 320.532 137.906V143H311.748V133.298ZM316.446 134.576H313.332V141.722H318.948V137.582C318.948 136.454 318.774 135.674 318.426 135.242C318.09 134.798 317.43 134.576 316.446 134.576ZM323.388 133.298H324.756C325.632 133.298 326.244 133.496 326.592 133.892C326.94 134.276 327.126 134.942 327.15 135.89V143H322.884V141.722H325.566V135.782C325.566 134.978 325.254 134.576 324.63 134.576H323.388V133.298ZM332.338 139.22H330.754V135.26C330.754 134.804 330.508 134.576 330.016 134.576H329.386V133.298H329.98C330.868 133.298 331.48 133.424 331.816 133.676C332.164 133.916 332.338 134.456 332.338 135.296V139.22ZM344.417 133.298L343.823 135.944C343.439 137.648 342.599 138.686 341.303 139.058L344.237 143H342.347L338.369 137.672C337.829 137.804 337.367 138.122 336.983 138.626C336.611 139.118 336.425 139.79 336.425 140.642V143H334.841V140.876C334.841 139.784 335.117 138.884 335.669 138.176C336.233 137.456 336.923 137 337.739 136.808L335.111 133.298H337.001L340.583 138.104C341.423 137.816 341.981 137.072 342.257 135.872L342.797 133.298H344.417ZM350.895 133.298H355.647C357.195 133.298 358.251 133.646 358.815 134.342C359.391 135.026 359.679 136.214 359.679 137.906V143H350.895V133.298ZM355.593 134.576H352.479V141.722H358.095V137.582C358.095 136.454 357.921 135.674 357.573 135.242C357.237 134.798 356.577 134.576 355.593 134.576ZM364.911 139.22H363.327V135.26C363.327 134.804 363.081 134.576 362.589 134.576H361.959V133.298H362.553C363.441 133.298 364.053 133.424 364.389 133.676C364.737 133.916 364.911 134.456 364.911 135.296V139.22ZM376.018 143H367.144V141.722H373.174V137.15C373.174 136.31 372.958 135.674 372.526 135.242C372.106 134.798 371.506 134.576 370.726 134.576H367.468V133.298H370.78C372.136 133.298 373.138 133.64 373.786 134.324C374.434 134.996 374.758 136.046 374.758 137.474V141.722H376.018V143ZM383.922 143H382.338V137.15C382.338 136.31 382.122 135.674 381.69 135.242C381.27 134.798 380.67 134.576 379.89 134.576H376.776V133.298H379.944C381.3 133.298 382.302 133.64 382.95 134.324C383.598 134.996 383.922 136.046 383.922 137.474V143ZM390.569 133.298H395.321C396.869 133.298 397.925 133.646 398.489 134.342C399.065 135.026 399.353 136.214 399.353 137.906V143H390.569V133.298ZM395.267 134.576H392.153V141.722H397.769V137.582C397.769 136.454 397.595 135.674 397.247 135.242C396.911 134.798 396.251 134.576 395.267 134.576ZM404.584 139.22H403V135.26C403 134.804 402.754 134.576 402.262 134.576H401.632V133.298H402.226C403.114 133.298 403.726 133.424 404.062 133.676C404.41 133.916 404.584 134.456 404.584 135.296V139.22ZM409.788 139.22H408.204V135.26C408.204 134.804 407.958 134.576 407.466 134.576H406.836V133.298H407.43C408.318 133.298 408.93 133.424 409.266 133.676C409.614 133.916 409.788 134.456 409.788 135.296V139.22ZM421.867 133.298L421.273 135.944C420.889 137.648 420.049 138.686 418.753 139.058L421.687 143H419.797L415.819 137.672C415.279 137.804 414.817 138.122 414.433 138.626C414.061 139.118 413.875 139.79 413.875 140.642V143H412.291V140.876C412.291 139.784 412.567 138.884 413.119 138.176C413.683 137.456 414.373 137 415.189 136.808L412.561 133.298H414.451L418.033 138.104C418.873 137.816 419.431 137.072 419.707 135.872L420.247 133.298H421.867ZM423.675 133.298H424.377C425.253 133.298 425.847 133.418 426.159 133.658C426.471 133.898 426.627 134.444 426.627 135.296V143H425.043V135.26C425.043 135.008 425.001 134.834 424.917 134.738C424.833 134.63 424.665 134.576 424.413 134.576H423.675V133.298ZM433.379 143.252C432.611 143.264 431.825 143.192 431.021 143.036C430.229 142.892 429.581 142.718 429.077 142.514V141.146C429.509 141.386 430.097 141.596 430.841 141.776C431.585 141.944 432.335 142.022 433.091 142.01C434.195 141.986 435.089 141.62 435.773 140.912C436.469 140.192 436.817 139.274 436.817 138.158C436.817 137.03 436.505 136.124 435.881 135.44C435.257 134.744 434.411 134.396 433.343 134.396C432.563 134.396 431.909 134.582 431.381 134.954C430.865 135.326 430.595 135.8 430.571 136.376C430.559 136.94 430.739 137.39 431.111 137.726C431.495 138.062 432.035 138.212 432.731 138.176V139.346C431.591 139.406 430.685 139.166 430.013 138.626C429.353 138.086 429.023 137.354 429.023 136.43C429.035 135.458 429.455 134.666 430.283 134.054C431.111 133.442 432.167 133.136 433.451 133.136C434.963 133.136 436.169 133.592 437.069 134.504C437.969 135.416 438.419 136.616 438.419 138.104C438.419 139.592 437.951 140.81 437.015 141.758C436.091 142.706 434.879 143.204 433.379 143.252ZM446.852 143H445.268V137.15C445.268 136.31 445.052 135.674 444.62 135.242C444.2 134.798 443.6 134.576 442.82 134.576H439.706V133.298H442.874C444.23 133.298 445.232 133.64 445.88 134.324C446.528 134.996 446.852 136.046 446.852 137.474V143ZM404.899 161.182C405.151 161.182 405.367 161.278 405.547 161.47C405.727 161.662 405.817 161.884 405.817 162.136C405.817 162.4 405.727 162.622 405.547 162.802C405.367 162.982 405.151 163.072 404.899 163.072C404.635 163.072 404.407 162.982 404.215 162.802C404.035 162.622 403.945 162.4 403.945 162.136C403.945 161.884 404.035 161.662 404.215 161.47C404.407 161.278 404.635 161.182 404.899 161.182ZM408.318 153.298H413.214C414.57 153.298 415.572 153.64 416.22 154.324C416.868 154.996 417.192 156.046 417.192 157.474V163H415.608V157.15C415.608 156.31 415.392 155.674 414.96 155.242C414.54 154.798 413.94 154.576 413.16 154.576H408.318V153.298ZM408.426 157.564H410.01V163H408.426V157.564ZM419.48 153.298H425.96C427.316 153.298 428.318 153.64 428.966 154.324C429.614 154.996 429.938 156.046 429.938 157.474V163H428.354V157.15C428.354 156.31 428.138 155.674 427.706 155.242C427.286 154.798 426.686 154.576 425.906 154.576H423.098V160.714C423.098 162.346 422.282 163.162 420.65 163.162C420.122 163.162 419.672 163.12 419.3 163.036V161.848C419.564 161.896 419.858 161.92 420.182 161.92C420.626 161.92 420.956 161.83 421.172 161.65C421.4 161.47 421.514 161.14 421.514 160.66V154.576H419.48V153.298ZM431.99 153.298H432.692C433.568 153.298 434.162 153.418 434.474 153.658C434.786 153.898 434.942 154.444 434.942 155.296V163H433.358V155.26C433.358 155.008 433.316 154.834 433.232 154.738C433.148 154.63 432.98 154.576 432.728 154.576H431.99V153.298ZM447.021 153.298L446.427 155.944C446.043 157.648 445.203 158.686 443.907 159.058L446.841 163H444.951L440.973 157.672C440.433 157.804 439.971 158.122 439.587 158.626C439.215 159.118 439.029 159.79 439.029 160.642V163H437.445V160.876C437.445 159.784 437.721 158.884 438.273 158.176C438.837 157.456 439.527 157 440.343 156.808L437.715 153.298H439.605L443.187 158.104C444.027 157.816 444.585 157.072 444.861 155.872L445.401 153.298H447.021Z" fill="#101212"/>
<path d="M607.122 157.697C577.762 147.208 559.572 159.299 532.98 166C532.98 166 573.017 151.578 563.23 137.594C553.443 123.609 532.55 142.773 518.449 130.165C511.908 124.317 513.159 120.009 518.449 113.995C528.586 102.469 573.017 89.9593 573.017 89.9593C573.017 89.9593 551.071 105.781 562.044 107.003C573.017 108.224 584.879 102.851 590.218 96.733C595.556 90.6148 597.335 87.9927 608.901 86.9002C620.467 85.8076 620.467 93.4554 635.592 93.4554C650.717 93.4553 653.683 79.733 671.477 89.5222C689.271 99.3113 607.122 142.838 607.122 142.838C607.122 142.838 626.695 136.283 642.117 145.023C657.538 153.764 636.482 168.185 607.122 157.697Z" fill="#101212"/>
<path d="M816.478 67.622V68.282H814.74V67.314C814.74 66.8007 814.865 66.3167 815.114 65.862C815.363 65.4073 815.664 65.0187 816.016 64.696C816.383 64.3587 816.749 64.036 817.116 63.728C817.483 63.42 817.791 63.09 818.04 62.738C818.289 62.386 818.414 62.0267 818.414 61.66V61.616C818.414 61.044 818.209 60.5747 817.798 60.208C817.387 59.8413 816.83 59.658 816.126 59.658C815.466 59.658 814.894 59.8633 814.41 60.274C813.926 60.67 813.633 61.2273 813.53 61.946H811.924C811.983 60.7873 812.415 59.878 813.222 59.218C814.029 58.558 815.004 58.228 816.148 58.228C817.351 58.228 818.311 58.5287 819.03 59.13C819.763 59.7313 820.13 60.516 820.13 61.484V61.528C820.13 62.056 820.005 62.5473 819.756 63.002C819.507 63.4567 819.199 63.8527 818.832 64.19C818.48 64.5127 818.121 64.8353 817.754 65.158C817.402 65.4807 817.101 65.8547 816.852 66.28C816.603 66.6907 816.478 67.138 816.478 67.622ZM816.412 71.758C816.207 71.978 815.943 72.088 815.62 72.088C815.297 72.088 815.026 71.978 814.806 71.758C814.586 71.538 814.476 71.2667 814.476 70.944C814.476 70.636 814.586 70.372 814.806 70.152C815.026 69.9173 815.297 69.8 815.62 69.8C815.943 69.8 816.207 69.9173 816.412 70.152C816.632 70.372 816.742 70.636 816.742 70.944C816.742 71.2667 816.632 71.538 816.412 71.758ZM823.209 60.142H829.017C830.909 60.142 832.199 60.5673 832.889 61.418C833.593 62.254 833.945 63.706 833.945 65.774V72H823.209V60.142ZM828.951 61.704H825.145V70.438H832.009V65.378C832.009 63.9993 831.796 63.046 831.371 62.518C830.96 61.9753 830.153 61.704 828.951 61.704ZM840.339 67.38H838.403V62.54C838.403 61.9827 838.102 61.704 837.501 61.704H836.731V60.142H837.457C838.542 60.142 839.29 60.296 839.701 60.604C840.126 60.8973 840.339 61.5573 840.339 62.584V67.38ZM843.214 60.142H844.886C845.957 60.142 846.705 60.384 847.13 60.868C847.555 61.3373 847.783 62.1513 847.812 63.31V72H842.598V70.438H845.876V63.178C845.876 62.1953 845.495 61.704 844.732 61.704H843.214V60.142ZM851.293 60.142H856.903C858.561 60.142 859.785 60.56 860.577 61.396C861.369 62.2173 861.765 63.5007 861.765 65.246V72H859.829V64.85C859.829 63.8233 859.565 63.046 859.037 62.518C858.524 61.9753 857.791 61.704 856.837 61.704H853.251V72H851.293V60.142ZM875.27 72H864.424V70.438H871.794V64.85C871.794 63.8233 871.53 63.046 871.002 62.518C870.488 61.9753 869.755 61.704 868.802 61.704H864.82V60.142H868.868C870.525 60.142 871.75 60.56 872.542 61.396C873.334 62.2173 873.73 63.5007 873.73 65.246V70.438H875.27V72ZM889.348 60.142L888.622 63.376C888.153 65.4587 887.126 66.7273 885.542 67.182L889.128 72H886.818L881.956 65.488C881.296 65.6493 880.732 66.038 880.262 66.654C879.808 67.2553 879.58 68.0767 879.58 69.118V72H877.644V69.404C877.644 68.0693 877.982 66.9693 878.656 66.104C879.346 65.224 880.189 64.6667 881.186 64.432L877.974 60.142H880.284L884.662 66.016C885.689 65.664 886.371 64.7547 886.708 63.288L887.368 60.142H889.348ZM898.817 59.922H898.927C900.335 59.922 901.501 60.472 902.425 61.572C903.349 62.6573 903.811 64.0727 903.811 65.818V66.236C903.811 67.7467 903.437 69.0227 902.689 70.064C901.956 71.0907 901.032 71.736 899.917 72C898.67 72.2933 897.453 72.264 896.265 71.912V70.328C897.204 70.68 898.208 70.7167 899.279 70.438C900.027 70.262 900.643 69.7927 901.127 69.03C901.626 68.2527 901.875 67.3067 901.875 66.192V65.862C901.875 64.5567 901.552 63.508 900.907 62.716C900.276 61.9093 899.462 61.506 898.465 61.506H898.377C897.409 61.506 896.595 61.836 895.935 62.496C895.275 63.1413 894.901 63.904 894.813 64.784L894.021 72H892.085L892.921 64.696C893.009 64.0213 892.994 63.3687 892.877 62.738C892.76 62.1073 892.642 61.66 892.525 61.396C892.408 61.1173 892.21 60.6993 891.931 60.142H893.867C893.896 60.2007 893.955 60.3327 894.043 60.538C894.131 60.7287 894.197 60.8753 894.241 60.978C894.285 61.0807 894.336 61.2273 894.395 61.418C894.468 61.594 894.52 61.7773 894.549 61.968C894.593 62.1587 894.63 62.364 894.659 62.584C895.026 61.792 895.561 61.154 896.265 60.67C896.984 60.1713 897.834 59.922 898.817 59.922ZM919.804 75.432H917.868V65.906C917.868 64.5273 917.648 63.486 917.208 62.782C916.783 62.0633 916.064 61.66 915.052 61.572C913.923 61.4693 912.471 61.5573 910.696 61.836V60.296C912.295 60.0173 913.842 59.922 915.338 60.01C916.922 60.1127 918.059 60.6993 918.748 61.77C919.452 62.8407 919.804 64.322 919.804 66.214V75.432ZM926.04 67.38H924.104V62.54C924.104 61.9827 923.803 61.704 923.202 61.704H922.432V60.142H923.158C924.243 60.142 924.991 60.296 925.402 60.604C925.827 60.8973 926.04 61.5573 926.04 62.584V67.38ZM940.803 60.142L940.077 63.376C939.608 65.4587 938.581 66.7273 936.997 67.182L940.583 72H938.273L933.411 65.488C932.751 65.6493 932.187 66.038 931.717 66.654C931.263 67.2553 931.035 68.0767 931.035 69.118V72H929.099V69.404C929.099 68.0693 929.437 66.9693 930.111 66.104C930.801 65.224 931.644 64.6667 932.641 64.432L929.429 60.142H931.739L936.117 66.016C937.144 65.664 937.826 64.7547 938.163 63.288L938.823 60.142H940.803Z" fill="#101212"/>
<path d="M767.996 93.298V94.594L764.45 103L762.812 102.982L766.376 94.576H760.472V90.94H762.056V93.298H767.996ZM776.581 97.222L776.941 93.298H778.525L778.273 96.358C778.189 97.342 778.069 98.188 777.913 98.896C777.769 99.604 777.559 100.204 777.283 100.696C777.007 101.188 776.707 101.584 776.383 101.884C776.059 102.184 775.633 102.418 775.105 102.586C774.577 102.754 774.031 102.868 773.467 102.928C772.915 102.976 772.225 103 771.397 103H769.741V101.722H771.379C771.823 101.722 772.297 101.71 772.801 101.686C772.273 100.99 771.859 100.09 771.559 98.986L769.921 93.298H771.541L773.125 98.788C773.473 99.952 773.821 100.852 774.169 101.488C774.949 101.272 775.507 100.858 775.843 100.246C776.191 99.634 776.437 98.626 776.581 97.222ZM780.513 93.298H781.215C782.091 93.298 782.685 93.418 782.997 93.658C783.309 93.898 783.465 94.444 783.465 95.296V103H781.881V95.26C781.881 95.008 781.839 94.834 781.755 94.738C781.671 94.63 781.503 94.576 781.251 94.576H780.513V93.298ZM790.099 93.298H794.995C796.351 93.298 797.353 93.64 798.001 94.324C798.649 94.996 798.973 96.046 798.973 97.474V103H797.389V97.15C797.389 96.31 797.173 95.674 796.741 95.242C796.321 94.798 795.721 94.576 794.941 94.576H790.099V93.298ZM790.207 97.564H791.791V103H790.207V97.564ZM801.639 93.298H806.229C807.585 93.298 808.587 93.64 809.235 94.324C809.883 94.996 810.207 96.046 810.207 97.474V103H808.623V97.15C808.623 96.31 808.407 95.674 807.975 95.242C807.555 94.798 806.955 94.576 806.175 94.576H803.241V103H801.639V93.298ZM818.268 93.118H818.358C819.51 93.118 820.464 93.568 821.22 94.468C821.976 95.356 822.354 96.514 822.354 97.942V98.284C822.354 99.52 822.048 100.564 821.436 101.416C820.836 102.256 820.08 102.784 819.168 103C818.148 103.24 817.152 103.216 816.18 102.928V101.632C816.948 101.92 817.77 101.95 818.646 101.722C819.258 101.578 819.762 101.194 820.158 100.57C820.566 99.934 820.77 99.16 820.77 98.248V97.978C820.77 96.91 820.506 96.052 819.978 95.404C819.462 94.744 818.796 94.414 817.98 94.414H817.908C817.116 94.414 816.45 94.684 815.91 95.224C815.37 95.752 815.064 96.376 814.992 97.096L814.344 103H812.76L813.444 97.024C813.516 96.472 813.504 95.938 813.408 95.422C813.312 94.906 813.216 94.54 813.12 94.324C813.024 94.096 812.862 93.754 812.634 93.298H814.218C814.242 93.346 814.29 93.454 814.362 93.622C814.434 93.778 814.488 93.898 814.524 93.982C814.56 94.066 814.602 94.186 814.65 94.342C814.71 94.486 814.752 94.636 814.776 94.792C814.812 94.948 814.842 95.116 814.866 95.296C815.166 94.648 815.604 94.126 816.18 93.73C816.768 93.322 817.464 93.118 818.268 93.118ZM823.755 93.298H824.457C825.333 93.298 825.927 93.418 826.239 93.658C826.551 93.898 826.707 94.444 826.707 95.296V103H825.123V95.26C825.123 95.008 825.081 94.834 824.997 94.738C824.913 94.63 824.745 94.576 824.493 94.576H823.755V93.298ZM834.827 93.118H834.917C836.069 93.118 837.023 93.568 837.779 94.468C838.535 95.356 838.913 96.514 838.913 97.942V98.284C838.913 99.52 838.607 100.564 837.995 101.416C837.395 102.256 836.639 102.784 835.727 103C834.707 103.24 833.711 103.216 832.739 102.928V101.632C833.507 101.92 834.329 101.95 835.205 101.722C835.817 101.578 836.321 101.194 836.717 100.57C837.125 99.934 837.329 99.16 837.329 98.248V97.978C837.329 96.91 837.065 96.052 836.537 95.404C836.021 94.744 835.355 94.414 834.539 94.414H834.467C833.675 94.414 833.009 94.684 832.469 95.224C831.929 95.752 831.623 96.376 831.551 97.096L830.903 103H829.319L830.003 97.024C830.075 96.472 830.063 95.938 829.967 95.422C829.871 94.906 829.775 94.54 829.679 94.324C829.583 94.096 829.421 93.754 829.193 93.298H830.777C830.801 93.346 830.849 93.454 830.921 93.622C830.993 93.778 831.047 93.898 831.083 93.982C831.119 94.066 831.161 94.186 831.209 94.342C831.269 94.486 831.311 94.636 831.335 94.792C831.371 94.948 831.401 95.116 831.425 95.296C831.725 94.648 832.163 94.126 832.739 93.73C833.327 93.322 834.023 93.118 834.827 93.118ZM851.836 103H850.252V97.15C850.252 96.31 850.036 95.674 849.604 95.242C849.184 94.798 848.584 94.576 847.804 94.576H844.69V93.298H847.858C849.214 93.298 850.216 93.64 850.864 94.324C851.512 94.996 851.836 96.046 851.836 97.474V103ZM853.884 93.298H854.586C855.462 93.298 856.056 93.418 856.368 93.658C856.68 93.898 856.836 94.444 856.836 95.296V103H855.252V95.26C855.252 95.008 855.21 94.834 855.126 94.738C855.042 94.63 854.874 94.576 854.622 94.576H853.884V93.298ZM866.054 97.222L866.414 93.298H867.998L867.746 96.358C867.662 97.342 867.542 98.188 867.386 98.896C867.242 99.604 867.032 100.204 866.756 100.696C866.48 101.188 866.18 101.584 865.856 101.884C865.532 102.184 865.106 102.418 864.578 102.586C864.05 102.754 863.504 102.868 862.939 102.928C862.388 102.976 861.698 103 860.87 103H859.214V101.722H860.852C861.296 101.722 861.77 101.71 862.274 101.686C861.746 100.99 861.332 100.09 861.032 98.986L859.394 93.298H861.014L862.598 98.788C862.946 99.952 863.294 100.852 863.642 101.488C864.422 101.272 864.98 100.858 865.316 100.246C865.664 99.634 865.91 98.626 866.054 97.222ZM883.962 93.298L883.368 95.944C882.984 97.648 882.144 98.686 880.848 99.058L883.782 103H881.892L877.914 97.672C877.374 97.804 876.912 98.122 876.528 98.626C876.156 99.118 875.97 99.79 875.97 100.642V103H874.386V100.876C874.386 99.784 874.662 98.884 875.214 98.176C875.778 97.456 876.468 97 877.284 96.808L874.656 93.298H876.546L880.128 98.104C880.968 97.816 881.526 97.072 881.802 95.872L882.342 93.298H883.962ZM889.902 103.252C889.134 103.264 888.348 103.192 887.544 103.036C886.752 102.892 886.104 102.718 885.6 102.514V101.146C886.032 101.386 886.62 101.596 887.364 101.776C888.108 101.944 888.858 102.022 889.614 102.01C890.718 101.986 891.612 101.62 892.296 100.912C892.992 100.192 893.34 99.274 893.34 98.158C893.34 97.03 893.028 96.124 892.404 95.44C891.78 94.744 890.934 94.396 889.866 94.396C889.086 94.396 888.432 94.582 887.904 94.954C887.388 95.326 887.118 95.8 887.094 96.376C887.082 96.94 887.262 97.39 887.634 97.726C888.018 98.062 888.558 98.212 889.254 98.176V99.346C888.114 99.406 887.208 99.166 886.536 98.626C885.876 98.086 885.546 97.354 885.546 96.43C885.558 95.458 885.978 94.666 886.806 94.054C887.634 93.442 888.69 93.136 889.974 93.136C891.486 93.136 892.692 93.592 893.592 94.504C894.492 95.416 894.942 96.616 894.942 98.104C894.942 99.592 894.474 100.81 893.538 101.758C892.614 102.706 891.402 103.204 889.902 103.252ZM896.459 93.298H897.161C898.037 93.298 898.631 93.418 898.943 93.658C899.255 93.898 899.411 94.444 899.411 95.296V103H897.827V95.26C897.827 95.008 897.785 94.834 897.701 94.738C897.617 94.63 897.449 94.576 897.197 94.576H896.459V93.298ZM908.772 103H907.188V97.15C907.188 96.31 906.972 95.674 906.54 95.242C906.12 94.798 905.52 94.576 904.74 94.576H901.626V93.298H904.794C906.15 93.298 907.152 93.64 907.8 94.324C908.448 94.996 908.772 96.046 908.772 97.474V103ZM922.24 105.808H920.656V98.014C920.656 96.886 920.476 96.034 920.116 95.458C919.768 94.87 919.18 94.54 918.352 94.468C917.428 94.384 916.24 94.456 914.788 94.684V93.424C916.096 93.196 917.362 93.118 918.586 93.19C919.882 93.274 920.812 93.754 921.376 94.63C921.952 95.506 922.24 96.718 922.24 98.266V105.808ZM931.5 103H929.916V97.15C929.916 96.31 929.7 95.674 929.268 95.242C928.848 94.798 928.248 94.576 927.468 94.576H924.354V93.298H927.522C928.878 93.298 929.88 93.64 930.528 94.324C931.176 94.996 931.5 96.046 931.5 97.474V103ZM939.41 103H937.826V97.024C937.826 95.968 938.078 95.152 938.582 94.576H933.02V93.298H941.012V94.576H939.734C939.518 95.104 939.41 95.92 939.41 97.024V103ZM726.63 113.298H727.314C728.202 113.298 728.802 113.418 729.114 113.658C729.426 113.898 729.582 114.444 729.582 115.296V125.808H727.998V115.26C727.998 115.008 727.956 114.834 727.872 114.738C727.788 114.63 727.614 114.576 727.35 114.576H726.63V113.298ZM734.686 119.22H733.102V115.26C733.102 114.804 732.856 114.576 732.364 114.576H731.734V113.298H732.328C733.216 113.298 733.828 113.424 734.164 113.676C734.512 113.916 734.686 114.456 734.686 115.296V119.22ZM746.765 113.298L746.171 115.944C745.787 117.648 744.947 118.686 743.651 119.058L746.585 123H744.695L740.717 117.672C740.177 117.804 739.715 118.122 739.331 118.626C738.959 119.118 738.773 119.79 738.773 120.642V123H737.189V120.876C737.189 119.784 737.465 118.884 738.017 118.176C738.581 117.456 739.271 117 740.087 116.808L737.459 113.298H739.349L742.931 118.104C743.771 117.816 744.329 117.072 744.605 115.872L745.145 113.298H746.765ZM749.328 111.264V109.878C750.24 110.118 751.044 110.502 751.74 111.03C752.448 111.558 753.006 112.182 753.414 112.902C753.822 113.61 754.122 114.366 754.314 115.17C754.518 115.974 754.62 116.814 754.62 117.69C754.62 118.842 754.446 119.928 754.098 120.948C753.762 121.956 753.186 122.874 752.37 123.702C751.554 124.542 750.54 125.112 749.328 125.412V124.044C750.576 123.66 751.53 122.874 752.19 121.686C752.85 120.486 753.18 119.154 753.18 117.69C753.18 116.166 752.85 114.81 752.19 113.622C751.542 112.434 750.588 111.648 749.328 111.264ZM761.698 113.298H766.45C767.998 113.298 769.054 113.646 769.618 114.342C770.194 115.026 770.482 116.214 770.482 117.906V123H761.698V113.298ZM766.396 114.576H763.282V121.722H768.898V117.582C768.898 116.454 768.724 115.674 768.376 115.242C768.04 114.798 767.38 114.576 766.396 114.576ZM775.713 119.22H774.129V115.26C774.129 114.804 773.883 114.576 773.391 114.576H772.761V113.298H773.355C774.243 113.298 774.855 113.424 775.191 113.676C775.539 113.916 775.713 114.456 775.713 115.296V119.22ZM784.93 117.222L785.29 113.298H786.874L786.622 116.358C786.538 117.342 786.418 118.188 786.262 118.896C786.118 119.604 785.908 120.204 785.632 120.696C785.356 121.188 785.056 121.584 784.732 121.884C784.408 122.184 783.982 122.418 783.454 122.586C782.926 122.754 782.38 122.868 781.816 122.928C781.264 122.976 780.574 123 779.746 123H778.09V121.722H779.728C780.172 121.722 780.646 121.71 781.15 121.686C780.622 120.99 780.208 120.09 779.908 118.986L778.27 113.298H779.89L781.474 118.788C781.822 119.952 782.17 120.852 782.518 121.488C783.298 121.272 783.856 120.858 784.192 120.246C784.54 119.634 784.786 118.626 784.93 117.222ZM796.765 113.298L796.693 114.828C796.645 115.788 796.381 116.598 795.901 117.258C795.433 117.906 794.833 118.398 794.101 118.734L796.531 122.082V123H788.827V121.722H794.497L790.735 116.736C789.715 115.32 789.145 114.246 789.025 113.514L789.007 113.298H790.591L790.609 113.37C790.741 113.886 791.263 114.792 792.175 116.088L793.453 117.834C793.933 117.63 794.323 117.282 794.623 116.79C794.935 116.298 795.097 115.734 795.109 115.098L795.181 113.298H796.765ZM803.031 123.252C802.263 123.264 801.477 123.192 800.673 123.036C799.881 122.892 799.233 122.718 798.729 122.514V121.146C799.161 121.386 799.749 121.596 800.493 121.776C801.237 121.944 801.987 122.022 802.743 122.01C803.847 121.986 804.741 121.62 805.425 120.912C806.121 120.192 806.469 119.274 806.469 118.158C806.469 117.03 806.157 116.124 805.533 115.44C804.909 114.744 804.063 114.396 802.995 114.396C802.215 114.396 801.561 114.582 801.033 114.954C800.517 115.326 800.247 115.8 800.223 116.376C800.211 116.94 800.391 117.39 800.763 117.726C801.147 118.062 801.687 118.212 802.383 118.176V119.346C801.243 119.406 800.337 119.166 799.665 118.626C799.005 118.086 798.675 117.354 798.675 116.43C798.687 115.458 799.107 114.666 799.935 114.054C800.763 113.442 801.819 113.136 803.103 113.136C804.615 113.136 805.821 113.592 806.721 114.504C807.621 115.416 808.071 116.616 808.071 118.104C808.071 119.592 807.603 120.81 806.667 121.758C805.743 122.706 804.531 123.204 803.031 123.252ZM809.822 113.298H814.718C816.074 113.298 817.076 113.64 817.724 114.324C818.372 114.996 818.696 116.046 818.696 117.474V123H817.112V117.15C817.112 116.31 816.896 115.674 816.464 115.242C816.044 114.798 815.444 114.576 814.664 114.576H809.822V113.298ZM809.93 117.564H811.514V123H809.93V117.564ZM825.132 113.298H831.612C832.968 113.298 833.97 113.64 834.618 114.324C835.266 114.996 835.59 116.046 835.59 117.474V123H834.006V117.15C834.006 116.31 833.79 115.674 833.358 115.242C832.938 114.798 832.338 114.576 831.558 114.576H828.75V120.714C828.75 122.346 827.934 123.162 826.302 123.162C825.774 123.162 825.324 123.12 824.952 123.036V121.848C825.216 121.896 825.51 121.92 825.834 121.92C826.278 121.92 826.608 121.83 826.824 121.65C827.052 121.47 827.166 121.14 827.166 120.66V114.576H825.132V113.298ZM840.524 119.22H838.94V115.26C838.94 114.804 838.694 114.576 838.202 114.576H837.572V113.298H838.166C839.054 113.298 839.666 113.424 840.002 113.676C840.35 113.916 840.524 114.456 840.524 115.296V119.22ZM845.727 119.22H844.143V115.26C844.143 114.804 843.897 114.576 843.405 114.576H842.775V113.298H843.369C844.257 113.298 844.869 113.424 845.205 113.676C845.553 113.916 845.727 114.456 845.727 115.296V119.22ZM854.807 123H853.223V117.15C853.223 116.31 853.007 115.674 852.575 115.242C852.155 114.798 851.555 114.576 850.775 114.576H847.661V113.298H850.829C852.185 113.298 853.187 113.64 853.835 114.324C854.483 114.996 854.807 116.046 854.807 117.474V123ZM856.855 113.298H857.557C858.433 113.298 859.027 113.418 859.339 113.658C859.651 113.898 859.807 114.444 859.807 115.296V123H858.223V115.26C858.223 115.008 858.181 114.834 858.097 114.738C858.013 114.63 857.845 114.576 857.593 114.576H856.855V113.298ZM866.09 114.666V113.406C866.51 113.322 866.942 113.28 867.386 113.28C868.754 113.232 869.762 113.628 870.41 114.468C871.058 115.308 871.382 116.436 871.382 117.852V117.996C871.382 119.616 870.968 120.888 870.14 121.812C869.312 122.736 868.178 123.198 866.738 123.198C865.394 123.198 864.314 122.742 863.498 121.83C862.682 120.906 862.274 119.658 862.274 118.086V113.298H863.858V117.996C863.858 119.232 864.122 120.198 864.65 120.894C865.178 121.578 865.88 121.92 866.756 121.92C867.728 121.92 868.478 121.584 869.006 120.912C869.534 120.24 869.798 119.28 869.798 118.032V117.852C869.798 116.724 869.558 115.884 869.078 115.332C868.598 114.78 867.95 114.516 867.134 114.54C866.594 114.588 866.246 114.63 866.09 114.666ZM878.272 113.046C879.748 113.046 880.9 113.49 881.728 114.378C882.568 115.254 882.988 116.484 882.988 118.068V118.212C882.988 119.796 882.568 121.032 881.728 121.92C880.9 122.796 879.748 123.234 878.272 123.234C876.82 123.234 875.686 122.796 874.87 121.92C874.054 121.044 873.646 119.82 873.646 118.248V118.032C873.646 116.472 874.054 115.254 874.87 114.378C875.686 113.49 876.82 113.046 878.272 113.046ZM881.404 118.284V118.014C881.404 116.862 881.122 115.962 880.558 115.314C880.006 114.666 879.25 114.342 878.29 114.342C877.342 114.342 876.592 114.666 876.04 115.314C875.5 115.962 875.23 116.862 875.23 118.014V118.284C875.23 119.436 875.5 120.336 876.04 120.984C876.592 121.62 877.342 121.938 878.29 121.938C879.25 121.938 880.006 121.614 880.558 120.966C881.122 120.318 881.404 119.424 881.404 118.284ZM887.598 119.22H886.014V115.26C886.014 114.804 885.768 114.576 885.276 114.576H884.646V113.298H885.24C886.128 113.298 886.74 113.424 887.076 113.676C887.424 113.916 887.598 114.456 887.598 115.296V119.22ZM890.083 113.298H894.979C896.335 113.298 897.337 113.64 897.985 114.324C898.633 114.996 898.957 116.046 898.957 117.474V123H897.373V117.15C897.373 116.31 897.157 115.674 896.725 115.242C896.305 114.798 895.705 114.576 894.925 114.576H890.083V113.298ZM890.191 117.564H891.775V123H890.191V117.564ZM909.966 113.046C911.442 113.046 912.594 113.49 913.422 114.378C914.262 115.254 914.682 116.484 914.682 118.068V118.212C914.682 119.796 914.262 121.032 913.422 121.92C912.594 122.796 911.442 123.234 909.966 123.234C908.514 123.234 907.38 122.796 906.564 121.92C905.748 121.044 905.34 119.82 905.34 118.248V118.032C905.34 116.472 905.748 115.254 906.564 114.378C907.38 113.49 908.514 113.046 909.966 113.046ZM913.098 118.284V118.014C913.098 116.862 912.816 115.962 912.252 115.314C911.7 114.666 910.944 114.342 909.984 114.342C909.036 114.342 908.286 114.666 907.734 115.314C907.194 115.962 906.924 116.862 906.924 118.014V118.284C906.924 119.436 907.194 120.336 907.734 120.984C908.286 121.62 909.036 121.938 909.984 121.938C910.944 121.938 911.7 121.614 912.252 120.966C912.816 120.318 913.098 119.424 913.098 118.284ZM919.291 119.22H917.707V115.26C917.707 114.804 917.461 114.576 916.969 114.576H916.339V113.298H916.933C917.821 113.298 918.433 113.424 918.769 113.676C919.117 113.916 919.291 114.456 919.291 115.296V119.22ZM926.349 113.046C927.825 113.046 928.977 113.49 929.805 114.378C930.645 115.254 931.065 116.484 931.065 118.068V118.212C931.065 119.796 930.645 121.032 929.805 121.92C928.977 122.796 927.825 123.234 926.349 123.234C924.897 123.234 923.763 122.796 922.947 121.92C922.131 121.044 921.723 119.82 921.723 118.248V118.032C921.723 116.472 922.131 115.254 922.947 114.378C923.763 113.49 924.897 113.046 926.349 113.046ZM929.481 118.284V118.014C929.481 116.862 929.199 115.962 928.635 115.314C928.083 114.666 927.327 114.342 926.367 114.342C925.419 114.342 924.669 114.666 924.117 115.314C923.577 115.962 923.307 116.862 923.307 118.014V118.284C923.307 119.436 923.577 120.336 924.117 120.984C924.669 121.62 925.419 121.938 926.367 121.938C927.327 121.938 928.083 121.614 928.635 120.966C929.199 120.318 929.481 119.424 929.481 118.284ZM941.209 123H932.335V121.722H938.365V117.15C938.365 116.31 938.149 115.674 937.717 115.242C937.297 114.798 936.697 114.576 935.917 114.576H932.659V113.298H935.971C937.327 113.298 938.329 113.64 938.977 114.324C939.625 114.996 939.949 116.046 939.949 117.474V121.722H941.209V123ZM777.927 141.182C778.179 141.182 778.395 141.278 778.575 141.47C778.755 141.662 778.845 141.884 778.845 142.136C778.845 142.4 778.755 142.622 778.575 142.802C778.395 142.982 778.179 143.072 777.927 143.072C777.663 143.072 777.435 142.982 777.243 142.802C777.063 142.622 776.973 142.4 776.973 142.136C776.973 141.884 777.063 141.662 777.243 141.47C777.435 141.278 777.663 141.182 777.927 141.182ZM787.177 129.878V131.264C785.917 131.648 784.957 132.434 784.297 133.622C783.649 134.81 783.325 136.166 783.325 137.69C783.325 139.154 783.655 140.486 784.315 141.686C784.975 142.874 785.929 143.66 787.177 144.044V145.412C785.965 145.112 784.951 144.542 784.135 143.702C783.319 142.874 782.737 141.956 782.389 140.948C782.053 139.928 781.885 138.842 781.885 137.69C781.885 136.814 781.981 135.974 782.173 135.17C782.377 134.366 782.683 133.61 783.091 132.902C783.499 132.182 784.051 131.558 784.747 131.03C785.455 130.502 786.265 130.118 787.177 129.878ZM789.73 133.298H794.626C795.982 133.298 796.984 133.64 797.632 134.324C798.28 134.996 798.604 136.046 798.604 137.474V143H797.02V137.15C797.02 136.31 796.804 135.674 796.372 135.242C795.952 134.798 795.352 134.576 794.572 134.576H789.73V133.298ZM789.838 137.564H791.422V143H789.838V137.564ZM806.519 143H804.935V137.024C804.935 135.968 805.187 135.152 805.691 134.576H800.129V133.298H808.121V134.576H806.843C806.627 135.104 806.519 135.92 806.519 137.024V143ZM818.865 143H809.991V141.722H816.021V137.15C816.021 136.31 815.805 135.674 815.373 135.242C814.953 134.798 814.353 134.576 813.573 134.576H810.315V133.298H813.627C814.983 133.298 815.985 133.64 816.633 134.324C817.281 134.996 817.605 136.046 817.605 137.474V141.722H818.865V143ZM827.522 137.222L827.882 133.298H829.466L829.214 136.358C829.13 137.342 829.01 138.188 828.854 138.896C828.71 139.604 828.5 140.204 828.224 140.696C827.948 141.188 827.648 141.584 827.324 141.884C827 142.184 826.574 142.418 826.046 142.586C825.518 142.754 824.972 142.868 824.408 142.928C823.856 142.976 823.166 143 822.338 143H820.682V141.722H822.32C822.764 141.722 823.238 141.71 823.742 141.686C823.214 140.99 822.8 140.09 822.5 138.986L820.862 133.298H822.482L824.066 138.788C824.414 139.952 824.762 140.852 825.11 141.488C825.89 141.272 826.448 140.858 826.784 140.246C827.132 139.634 827.378 138.626 827.522 137.222ZM837.323 133.118H837.413C838.565 133.118 839.519 133.568 840.275 134.468C841.031 135.356 841.409 136.514 841.409 137.942V138.284C841.409 139.52 841.103 140.564 840.491 141.416C839.891 142.256 839.135 142.784 838.223 143C837.203 143.24 836.207 143.216 835.235 142.928V141.632C836.003 141.92 836.825 141.95 837.701 141.722C838.313 141.578 838.817 141.194 839.213 140.57C839.621 139.934 839.825 139.16 839.825 138.248V137.978C839.825 136.91 839.561 136.052 839.033 135.404C838.517 134.744 837.851 134.414 837.035 134.414H836.963C836.171 134.414 835.505 134.684 834.965 135.224C834.425 135.752 834.119 136.376 834.047 137.096L833.399 143H831.815L832.499 137.024C832.571 136.472 832.559 135.938 832.463 135.422C832.367 134.906 832.271 134.54 832.175 134.324C832.079 134.096 831.917 133.754 831.689 133.298H833.273C833.297 133.346 833.345 133.454 833.417 133.622C833.489 133.778 833.543 133.898 833.579 133.982C833.615 134.066 833.657 134.186 833.705 134.342C833.765 134.486 833.807 134.636 833.831 134.792C833.867 134.948 833.897 135.116 833.921 135.296C834.221 134.648 834.659 134.126 835.235 133.73C835.823 133.322 836.519 133.118 837.323 133.118ZM847.222 133.298H847.924C848.8 133.298 849.394 133.418 849.706 133.658C850.018 133.898 850.174 134.444 850.174 135.296V143H848.59V135.26C848.59 135.008 848.548 134.834 848.464 134.738C848.38 134.63 848.212 134.576 847.96 134.576H847.222V133.298ZM862.253 133.298L861.659 135.944C861.275 137.648 860.435 138.686 859.139 139.058L862.073 143H860.183L856.205 137.672C855.665 137.804 855.203 138.122 854.819 138.626C854.447 139.118 854.261 139.79 854.261 140.642V143H852.677V140.876C852.677 139.784 852.953 138.884 853.505 138.176C854.069 137.456 854.759 137 855.575 136.808L852.947 133.298H854.837L858.419 138.104C859.259 137.816 859.817 137.072 860.093 135.872L860.633 133.298H862.253ZM868.731 133.298H873.483C875.031 133.298 876.087 133.646 876.651 134.342C877.227 135.026 877.515 136.214 877.515 137.906V143H868.731V133.298ZM873.429 134.576H870.315V141.722H875.931V137.582C875.931 136.454 875.757 135.674 875.409 135.242C875.073 134.798 874.413 134.576 873.429 134.576ZM886.131 143H884.547V137.024C884.547 135.968 884.799 135.152 885.303 134.576H879.741V133.298H887.733V134.576H886.455C886.239 135.104 886.131 135.92 886.131 137.024V143ZM894.003 133.298H900.483C901.839 133.298 902.841 133.64 903.489 134.324C904.137 134.996 904.461 136.046 904.461 137.474V143H902.877V137.15C902.877 136.31 902.661 135.674 902.229 135.242C901.809 134.798 901.209 134.576 900.429 134.576H897.621V140.714C897.621 142.346 896.805 143.162 895.173 143.162C894.645 143.162 894.195 143.12 893.823 143.036V141.848C894.087 141.896 894.381 141.92 894.705 141.92C895.149 141.92 895.479 141.83 895.695 141.65C895.923 141.47 896.037 141.14 896.037 140.66V134.576H894.003V133.298ZM906.711 134.576V133.298H915.801V134.594L912.579 143L910.941 142.982L914.217 134.576H906.711ZM908.493 137.564V145.448H906.909V137.564H908.493ZM920.557 139.22H918.973V135.26C918.973 134.804 918.727 134.576 918.235 134.576H917.605V133.298H918.199C919.087 133.298 919.699 133.424 920.035 133.676C920.383 133.916 920.557 134.456 920.557 135.296V139.22ZM928.863 143H927.279V137.024C927.279 135.968 927.531 135.152 928.035 134.576H922.473V133.298H930.465V134.576H929.187C928.971 135.104 928.863 135.92 928.863 137.024V143ZM941.209 143H932.335V141.722H938.365V137.15C938.365 136.31 938.149 135.674 937.717 135.242C937.297 134.798 936.697 134.576 935.917 134.576H932.659V133.298H935.971C937.327 133.298 938.329 133.64 938.977 134.324C939.625 134.996 939.949 136.046 939.949 137.474V141.722H941.209V143Z" fill="#101212"/>
</svg>
