<svg width="1222" height="299" viewBox="0 0 1222 299" fill="none" xmlns="http://www.w3.org/2000/svg">
<path d="M874.018 0C803.018 162.777 689.879 104.596 674.518 68.5C645.809 103.092 379.518 152.5 354.518 36C354.518 129.5 216.547 145.791 73 75.4902C178.5 150.934 52.5 145.493 0 161.993C47 180.993 240 190.993 32.0002 290.629C176 229.337 390.018 181 406.518 265.5C449.518 199.5 604.518 189 643.018 288.5C671.128 161 934.518 193.5 1002.02 299C917.518 199.5 1069.09 216.259 1111.91 224.026C1099.12 221.749 1022.02 169 1221.52 169C1088 161 1042.44 117.156 1088 79.5561C969.347 121.668 836.518 112.5 874.018 0Z" fill="#F8F4EE"/>
</svg>
