<?xml version="1.0" encoding="UTF-8"?>
<svg id="Layer_1" data-name="Layer 1" xmlns="http://www.w3.org/2000/svg" viewBox="0 0 1179 391">
  <defs>
    <style>
      .cls-1 {
        fill: #101212;
      }

      .cls-2 {
        fill: none;
        stroke: #101212;
        stroke-linecap: round;
      }

      .cls-3 {
        fill: #f8f4ee;
      }
    </style>
  </defs>
  <rect class="cls-3" x=".5" width="1178" height="390"/>
  <path d="M124.69,147.49c5.44-6.16,14.3-3.15,19.82,1.23,20.4,19.9,87.7,96,87.7,96-.13-.06-.26-.11-.38-.17.38.17-98.72-70.33-104.73-75.93-5.83-5.44-8.21-14.55-2.41-21.13Z"/>
  <path d="M97.23,194.88c4.37-8.63,15.32-7.83,22.88-4.47,29.02,16.61,127.79,83.33,127.79,83.33-.16-.03-.33-.05-.49-.08.49.08-132.78-50.81-141.24-55.42-8.22-4.47-13.6-14.14-8.94-23.36Z"/>
  <path d="M130.84,261.52c1.99-7.7,10.92-9,17.56-7.66,26.18,8.17,117.1,44.11,117.1,44.11-.13,0-.27.02-.4.02.4-.02-115.4-17.14-123-19.33-7.33-2.11-13.36-9.04-11.26-17.14Z"/>
  <path class="cls-1" d="M381.28,115.62v.66h-1.74v-.97c0-.51.12-1,.37-1.45.25-.46.55-.84.9-1.17.37-.34.73-.66,1.1-.97.37-.31.68-.64.92-.99s.37-.71.37-1.08v-.04c0-.57-.2-1.04-.62-1.41s-.97-.55-1.67-.55c-.66,0-1.23.21-1.72.62-.48.4-.78.95-.88,1.67h-1.61c.06-1.16.49-2.07,1.3-2.73.81-.66,1.78-.99,2.93-.99,1.2,0,2.16.3,2.88.9.73.6,1.1,1.39,1.1,2.35v.04c0,.53-.12,1.02-.37,1.47s-.56.85-.92,1.19c-.35.32-.71.64-1.08.97-.35.32-.65.7-.9,1.12-.25.41-.37.86-.37,1.34ZM381.21,119.76c-.21.22-.47.33-.79.33s-.59-.11-.81-.33c-.22-.22-.33-.49-.33-.81s.11-.57.33-.79c.22-.24.49-.35.81-.35s.59.12.79.35c.22.22.33.48.33.79s-.11.59-.33.81ZM387.15,108.14h.84c1.09,0,1.82.15,2.2.44.38.29.57.96.57,2v12.85h-1.94v-12.89c0-.31-.05-.52-.15-.64-.1-.13-.32-.2-.64-.2h-.88v-1.56ZM393.39,108.14h.86c1.07,0,1.8.15,2.18.44.38.29.57.96.57,2v9.42h-1.94v-9.46c0-.31-.05-.52-.15-.64-.1-.13-.31-.2-.62-.2h-.9v-1.56ZM403.64,120.29c-1.48.07-2.76-.13-3.85-.62v-1.69c1.03.53,2.13.77,3.3.73,1.2-.04,2.17-.46,2.9-1.25.73-.79,1.1-1.88,1.1-3.28s-.37-2.5-1.1-3.28c-.73-.79-1.7-1.22-2.9-1.28-1.14-.03-2.24.2-3.3.68v-1.65c1.23-.5,2.52-.7,3.85-.59,1.63.12,2.93.73,3.92,1.83,1,1.08,1.5,2.51,1.5,4.29s-.5,3.2-1.5,4.31c-1,1.1-2.3,1.7-3.92,1.8ZM414.57,115.38h-1.94v-4.84c0-.56-.3-.84-.9-.84h-.77v-1.56h.73c1.09,0,1.83.15,2.24.46.43.29.64.95.64,1.98v4.8ZM423.2,107.83c1.8,0,3.21.54,4.22,1.63,1.03,1.07,1.54,2.57,1.54,4.51v.18c0,1.94-.51,3.45-1.54,4.53-1.01,1.07-2.42,1.61-4.22,1.61s-3.16-.54-4.16-1.61c-1-1.07-1.5-2.57-1.5-4.49v-.26c0-1.91.5-3.4,1.5-4.47,1-1.08,2.38-1.63,4.16-1.63ZM427.02,114.24v-.33c0-1.41-.35-2.51-1.03-3.3-.67-.79-1.6-1.19-2.77-1.19s-2.08.4-2.75,1.19c-.66.79-.99,1.89-.99,3.3v.33c0,1.41.33,2.51.99,3.3.67.78,1.59,1.17,2.75,1.17s2.1-.4,2.77-1.19c.69-.79,1.03-1.89,1.03-3.28ZM431.4,108.14h5.98c1.66,0,2.88.42,3.67,1.25.79.82,1.19,2.1,1.19,3.85v6.75h-1.94v-7.15c0-1.03-.26-1.8-.79-2.33-.51-.54-1.25-.81-2.2-.81h-5.92v-1.56ZM431.53,113.36h1.94v6.64h-1.94v-6.64ZM453.44,115.38h-1.94v-4.84c0-.56-.3-.84-.9-.84h-.77v-1.56h.73c1.09,0,1.83.15,2.24.46.42.29.64.95.64,1.98v4.8ZM463.36,107.92h.11c1.41,0,2.57.55,3.5,1.65.92,1.08,1.39,2.5,1.39,4.25v.42c0,1.51-.37,2.79-1.12,3.83-.73,1.03-1.66,1.67-2.77,1.94-1.25.29-2.46.26-3.65-.09v-1.58c.94.35,1.94.39,3.01.11.75-.18,1.36-.65,1.85-1.41.5-.78.75-1.72.75-2.84v-.33c0-1.31-.32-2.35-.97-3.15-.63-.81-1.45-1.21-2.44-1.21h-.09c-.97,0-1.78.33-2.44.99-.66.64-1.03,1.41-1.12,2.29l-.79,7.22h-1.94l.84-7.3c.09-.67.07-1.33-.04-1.96-.12-.63-.24-1.08-.35-1.34-.12-.28-.32-.7-.59-1.25h1.94c.03.06.09.19.18.4.09.19.15.34.2.44.04.1.1.25.15.44.07.18.12.36.15.55.04.19.08.4.11.62.37-.79.9-1.43,1.61-1.91.72-.5,1.57-.75,2.55-.75ZM478.58,120h-1.94v-7.15c0-1.03-.26-1.8-.79-2.33-.51-.54-1.25-.81-2.2-.81h-3.81v-1.56h3.87c1.66,0,2.88.42,3.67,1.25.79.82,1.19,2.1,1.19,3.85v6.75ZM481.09,108.14h.86c1.07,0,1.8.15,2.18.44.38.29.57.96.57,2v9.42h-1.94v-9.46c0-.31-.05-.52-.15-.64-.1-.13-.31-.2-.62-.2h-.9v-1.56ZM487.67,120.09h-.33v-1.67h.29c.78,0,1.55-.29,2.31-.86.78-.57,1.23-1.23,1.36-1.98l.02-4.16c0-.57-.11-1-.33-1.28-.21-.29-.59-.44-1.14-.44h-1.14v-1.56h1.39c1.17,0,1.99.25,2.46.75.47.5.7,1.36.7,2.57v4.66l.64,3.87h-1.83l-.46-2.93h-.11c-.19.69-.67,1.36-1.45,2.02-.78.66-1.57.99-2.38.99ZM501.78,108.14h5.98c1.66,0,2.88.42,3.67,1.25.79.82,1.19,2.1,1.19,3.85v6.75h-1.94v-7.15c0-1.03-.26-1.8-.79-2.33-.51-.54-1.25-.81-2.2-.81h-5.92v-1.56ZM501.92,113.36h1.94v6.64h-1.94v-6.64ZM522.31,107.92h.11c1.41,0,2.57.55,3.5,1.65.92,1.08,1.39,2.5,1.39,4.25v.42c0,1.51-.37,2.79-1.12,3.83-.73,1.03-1.66,1.67-2.77,1.94-1.25.29-2.46.26-3.65-.09v-1.58c.94.35,1.94.39,3.01.11.75-.18,1.36-.65,1.85-1.41.5-.78.75-1.72.75-2.84v-.33c0-1.31-.32-2.35-.97-3.15-.63-.81-1.45-1.21-2.44-1.21h-.09c-.97,0-1.78.33-2.44.99-.66.64-1.03,1.41-1.12,2.29l-.79,7.22h-1.94l.84-7.3c.09-.67.07-1.33-.04-1.96-.12-.63-.23-1.08-.35-1.34-.12-.28-.32-.7-.59-1.25h1.94c.03.06.09.19.18.4.09.19.15.34.2.44.04.1.09.25.15.44.07.18.12.36.15.55.04.19.08.4.11.62.37-.79.9-1.43,1.61-1.91.72-.5,1.57-.75,2.55-.75Z"/>
  <path class="cls-1" d="M343.83,147.22h-1.58v-3.96c0-.46-.25-.68-.74-.68h-.63v-1.28h.59c.89,0,1.5.13,1.84.38.35.24.52.78.52,1.62v3.92ZM351.95,141.12h.09c1.15,0,2.11.45,2.86,1.35.76.89,1.13,2.05,1.13,3.47v.34c0,1.24-.31,2.28-.92,3.13-.6.84-1.36,1.37-2.27,1.58-1.02.24-2.02.22-2.99-.07v-1.3c.77.29,1.59.32,2.47.09.61-.14,1.12-.53,1.51-1.15.41-.64.61-1.41.61-2.32v-.27c0-1.07-.26-1.93-.79-2.57-.52-.66-1.18-.99-2-.99h-.07c-.79,0-1.46.27-2,.81-.54.53-.85,1.15-.92,1.87l-.65,5.9h-1.58l.68-5.98c.07-.55.06-1.09-.04-1.6-.1-.52-.19-.88-.29-1.1-.1-.23-.26-.57-.49-1.03h1.58s.07.16.14.32c.07.16.13.28.16.36s.08.2.13.36c.06.14.1.29.13.45.04.16.07.32.09.5.3-.65.74-1.17,1.31-1.57.59-.41,1.28-.61,2.09-.61ZM364.4,151h-1.58v-5.85c0-.84-.22-1.48-.65-1.91-.42-.44-1.02-.67-1.8-.67h-3.11v-1.28h3.17c1.36,0,2.36.34,3.01,1.03.65.67.97,1.72.97,3.15v5.53ZM366.45,141.3h.7c.88,0,1.47.12,1.78.36.31.24.47.79.47,1.64v7.7h-1.58v-7.74c0-.25-.04-.43-.13-.52-.08-.11-.25-.16-.5-.16h-.74v-1.28ZM371.83,151.07h-.27v-1.37h.23c.64,0,1.27-.23,1.89-.7.64-.47,1.01-1.01,1.12-1.62l.02-3.4c0-.47-.09-.82-.27-1.04-.17-.24-.48-.36-.94-.36h-.94v-1.28h1.13c.96,0,1.63.2,2.02.61.38.41.58,1.11.58,2.11v3.82l.52,3.17h-1.49l-.38-2.39h-.09c-.16.56-.55,1.12-1.19,1.66-.64.54-1.28.81-1.94.81ZM390.26,151h-1.58v-5.85c0-.84-.22-1.48-.65-1.91-.42-.44-1.02-.67-1.8-.67h-3.11v-1.28h3.17c1.36,0,2.36.34,3.01,1.03.65.67.97,1.72.97,3.15v5.53ZM396.81,151.25c-.77.01-1.55-.06-2.36-.22-.79-.14-1.44-.32-1.94-.52v-1.37c.43.24,1.02.45,1.76.63.74.17,1.49.25,2.25.23,1.1-.02,2-.39,2.68-1.1.7-.72,1.04-1.64,1.04-2.75s-.31-2.03-.94-2.72c-.62-.7-1.47-1.04-2.54-1.04-.78,0-1.43.19-1.96.56-.52.37-.79.85-.81,1.42-.01.56.17,1.01.54,1.35.38.34.92.49,1.62.45v1.17c-1.14.06-2.05-.18-2.72-.72-.66-.54-.99-1.27-.99-2.2.01-.97.43-1.76,1.26-2.38s1.88-.92,3.17-.92c1.51,0,2.72.46,3.62,1.37.9.91,1.35,2.11,1.35,3.6s-.47,2.71-1.4,3.65c-.92.95-2.14,1.45-3.64,1.49ZM408.52,141.05c1.48,0,2.63.44,3.46,1.33.84.88,1.26,2.11,1.26,3.69v.14c0,1.58-.42,2.82-1.26,3.71-.83.88-1.98,1.31-3.46,1.31s-2.59-.44-3.4-1.31c-.82-.88-1.22-2.1-1.22-3.67v-.22c0-1.56.41-2.78,1.22-3.65.82-.89,1.95-1.33,3.4-1.33ZM411.65,146.28v-.27c0-1.15-.28-2.05-.85-2.7-.55-.65-1.31-.97-2.27-.97s-1.7.32-2.25.97c-.54.65-.81,1.55-.81,2.7v.27c0,1.15.27,2.05.81,2.7.55.64,1.3.95,2.25.95s1.72-.32,2.27-.97c.56-.65.85-1.54.85-2.68ZM420.68,141.12h.09c1.15,0,2.11.45,2.86,1.35.76.89,1.13,2.05,1.13,3.47v.34c0,1.24-.31,2.28-.92,3.13-.6.84-1.36,1.37-2.27,1.58-1.02.24-2.02.22-2.99-.07v-1.3c.77.29,1.59.32,2.47.09.61-.14,1.12-.53,1.51-1.15.41-.64.61-1.41.61-2.32v-.27c0-1.07-.26-1.93-.79-2.57-.52-.66-1.18-.99-2-.99h-.07c-.79,0-1.46.27-2,.81-.54.53-.85,1.15-.92,1.87l-.65,5.9h-1.58l.68-5.98c.07-.55.06-1.09-.04-1.6-.1-.52-.19-.88-.29-1.1-.1-.23-.26-.57-.49-1.03h1.58s.07.16.14.32c.07.16.13.28.16.36.04.08.08.2.13.36.06.14.1.29.13.45.04.16.07.32.09.5.3-.65.74-1.17,1.31-1.57.59-.41,1.28-.61,2.09-.61ZM430.58,141.3h.7c.88,0,1.47.12,1.78.36.31.24.47.79.47,1.64v7.7h-1.58v-7.74c0-.25-.04-.43-.13-.52-.08-.11-.25-.16-.5-.16h-.74v-1.28ZM445.61,141.3l-.59,2.65c-.38,1.7-1.22,2.74-2.52,3.11l2.93,3.94h-1.89l-3.98-5.33c-.54.13-1,.45-1.39.95-.37.49-.56,1.16-.56,2.02v2.36h-1.58v-2.12c0-1.09.28-1.99.83-2.7.56-.72,1.25-1.18,2.07-1.37l-2.63-3.51h1.89l3.58,4.81c.84-.29,1.4-1.03,1.67-2.23l.54-2.57h1.62ZM455.39,141.3l-.07,1.53c-.05.96-.31,1.77-.79,2.43-.47.65-1.07,1.14-1.8,1.48l2.43,3.35v.92h-7.7v-1.28h5.67l-3.76-4.99c-1.02-1.42-1.59-2.49-1.71-3.22l-.02-.22h1.58l.02.07c.13.52.65,1.42,1.57,2.72l1.28,1.75c.48-.2.87-.55,1.17-1.04.31-.49.47-1.06.49-1.69l.07-1.8h1.58ZM463.02,141.12h.09c1.15,0,2.11.45,2.86,1.35.76.89,1.13,2.05,1.13,3.47v.34c0,1.24-.31,2.28-.92,3.13-.6.84-1.36,1.37-2.27,1.58-1.02.24-2.02.22-2.99-.07v-1.3c.77.29,1.59.32,2.47.09.61-.14,1.12-.53,1.51-1.15.41-.64.61-1.41.61-2.32v-.27c0-1.07-.26-1.93-.79-2.57-.52-.66-1.18-.99-2-.99h-.07c-.79,0-1.46.27-2,.81-.54.53-.85,1.15-.92,1.87l-.65,5.9h-1.58l.68-5.98c.07-.55.06-1.09-.04-1.6-.1-.52-.19-.88-.29-1.1-.1-.23-.26-.57-.49-1.03h1.58s.07.16.14.32c.07.16.13.28.16.36.04.08.08.2.13.36.06.14.1.29.13.45.04.16.07.32.09.5.3-.65.74-1.17,1.31-1.57.59-.41,1.28-.61,2.09-.61ZM473.37,141.3h4.75c1.55,0,2.6.35,3.17,1.04.58.68.86,1.87.86,3.56v5.09h-8.78v-9.7ZM478.07,142.58h-3.11v7.15h5.62v-4.14c0-1.13-.17-1.91-.52-2.34-.34-.44-1-.67-1.98-.67ZM487.39,147.22h-1.58v-3.96c0-.46-.25-.68-.74-.68h-.63v-1.28h.59c.89,0,1.5.13,1.84.38.35.24.52.78.52,1.62v3.92ZM490.25,141.3h4.59c1.36,0,2.36.34,3.01,1.03.65.67.97,1.72.97,3.15v5.53h-1.58v-5.85c0-.84-.22-1.48-.65-1.91-.42-.44-1.02-.67-1.8-.67h-2.93v8.42h-1.6v-9.7ZM506.88,141.12h.09c1.15,0,2.11.45,2.86,1.35.76.89,1.13,2.05,1.13,3.47v.34c0,1.24-.31,2.28-.92,3.13-.6.84-1.36,1.37-2.27,1.58-1.02.24-2.02.22-2.99-.07v-1.3c.77.29,1.59.32,2.47.09.61-.14,1.12-.53,1.51-1.15.41-.64.61-1.41.61-2.32v-.27c0-1.07-.26-1.93-.79-2.57-.52-.66-1.18-.99-2-.99h-.07c-.79,0-1.46.27-2,.81-.54.53-.85,1.15-.92,1.87l-.65,5.9h-1.58l.68-5.98c.07-.55.06-1.09-.04-1.6-.1-.52-.19-.88-.29-1.1-.1-.23-.26-.57-.49-1.03h1.58s.07.16.14.32c.07.16.13.28.16.36.04.08.08.2.13.36.06.14.1.29.13.45.04.16.07.32.09.5.3-.65.74-1.17,1.31-1.57.59-.41,1.28-.61,2.09-.61ZM512.37,141.3h.7c.88,0,1.47.12,1.78.36.31.24.47.79.47,1.64v7.7h-1.58v-7.74c0-.25-.04-.43-.13-.52-.08-.11-.25-.16-.5-.16h-.74v-1.28ZM523.44,141.12h.09c1.15,0,2.11.45,2.86,1.35.76.89,1.13,2.05,1.13,3.47v.34c0,1.24-.31,2.28-.92,3.13-.6.84-1.36,1.37-2.27,1.58-1.02.24-2.02.22-2.99-.07v-1.3c.77.29,1.59.32,2.47.09.61-.14,1.12-.53,1.51-1.15.41-.64.61-1.41.61-2.32v-.27c0-1.07-.26-1.93-.79-2.57-.52-.66-1.18-.99-2-.99h-.07c-.79,0-1.46.27-2,.81-.54.53-.85,1.15-.92,1.87l-.65,5.9h-1.58l.68-5.98c.07-.55.06-1.09-.04-1.6-.1-.52-.19-.88-.29-1.1-.1-.23-.26-.57-.49-1.03h1.58s.07.16.14.32c.07.16.13.28.16.36.04.08.08.2.13.36.06.14.1.29.13.45.04.16.07.32.09.5.3-.65.74-1.17,1.31-1.57.59-.41,1.28-.61,2.09-.61ZM358.47,162.94c.25,0,.47.1.65.29s.27.41.27.67-.09.49-.27.67-.4.27-.65.27-.49-.09-.68-.27c-.18-.18-.27-.4-.27-.67s.09-.47.27-.67c.19-.19.42-.29.68-.29ZM358.47,169.18c.25,0,.47.1.65.29s.27.41.27.67-.09.49-.27.67c-.18.18-.4.27-.65.27s-.49-.09-.68-.27c-.18-.18-.27-.4-.27-.67s.09-.47.27-.67c.19-.19.42-.29.68-.29ZM361.94,161.3h4.9c1.36,0,2.36.34,3.01,1.03.65.67.97,1.72.97,3.15v5.53h-1.58v-5.85c0-.84-.22-1.48-.65-1.91-.42-.44-1.02-.67-1.8-.67h-4.84v-1.28ZM362.05,165.56h1.58v5.44h-1.58v-5.44ZM380.3,161.3v1.3l-3.55,8.41-1.64-.02,3.56-8.41h-5.9v-3.64h1.58v2.36h5.94ZM382.71,161.3h4.59c1.36,0,2.36.34,3.01,1.03.65.67.97,1.72.97,3.15v5.53h-1.58v-5.85c0-.84-.22-1.48-.65-1.91-.42-.44-1.02-.67-1.8-.67h-2.93v8.42h-1.6v-9.7ZM399.34,161.12h.09c1.15,0,2.11.45,2.86,1.35.76.89,1.13,2.05,1.13,3.47v.34c0,1.24-.31,2.28-.92,3.13-.6.84-1.36,1.37-2.27,1.58-1.02.24-2.02.22-2.99-.07v-1.3c.77.29,1.59.32,2.47.09.61-.14,1.12-.53,1.51-1.15.41-.64.61-1.41.61-2.32v-.27c0-1.07-.26-1.93-.79-2.57-.52-.66-1.18-.99-2-.99h-.07c-.79,0-1.46.27-2,.81-.54.53-.85,1.15-.92,1.87l-.65,5.9h-1.58l.68-5.98c.07-.55.06-1.09-.04-1.6-.1-.52-.19-.88-.29-1.1-.1-.23-.26-.57-.49-1.03h1.58s.07.16.14.32c.07.16.13.28.16.36.04.08.08.2.13.36.06.14.1.29.13.45.04.16.07.32.09.5.3-.65.74-1.17,1.31-1.57.59-.41,1.28-.61,2.09-.61ZM412.33,161.3v1.3l-3.55,8.41-1.64-.02,3.56-8.41h-5.9v-3.64h1.58v2.36h5.94ZM422.87,161.3h4.75c1.55,0,2.6.35,3.17,1.04.58.68.86,1.87.86,3.56v5.09h-8.78v-9.7ZM427.57,162.58h-3.11v7.15h5.62v-4.14c0-1.13-.17-1.91-.52-2.34-.34-.44-1-.67-1.98-.67ZM436.89,167.22h-1.58v-3.96c0-.46-.25-.68-.74-.68h-.63v-1.28h.59c.89,0,1.5.13,1.84.38.35.24.52.78.52,1.62v3.92ZM442.09,167.22h-1.58v-3.96c0-.46-.25-.68-.74-.68h-.63v-1.28h.59c.89,0,1.5.13,1.84.38.35.24.52.78.52,1.62v3.92ZM451.17,171h-1.58v-5.85c0-.84-.22-1.48-.65-1.91-.42-.44-1.02-.67-1.8-.67h-3.11v-1.28h3.17c1.36,0,2.36.34,3.01,1.03.65.67.97,1.72.97,3.15v5.53ZM462.76,165.83v-4.55h1.58v4.54c0,1.52-.49,2.8-1.48,3.83-.97,1.02-2.26,1.53-3.85,1.53h-.23c-1.52,0-2.78-.5-3.76-1.51-.97-1.01-1.46-2.29-1.46-3.85v-4.54h1.6v4.55c0,.19,0,.33.02.41h.43c.82,0,1.45-.2,1.89-.59.44-.4.67-.97.67-1.73v-2.65h1.58v2.57c0,1-.35,1.8-1.06,2.41-.7.61-1.67.92-2.93.92h-.43c.22.88.64,1.55,1.26,2.02.64.46,1.37.68,2.2.68h.25c1.12,0,2.02-.35,2.7-1.06.68-.71,1.03-1.7,1.03-2.99ZM470.99,171.25c-.77.01-1.55-.06-2.36-.22-.79-.14-1.44-.32-1.94-.52v-1.37c.43.24,1.02.45,1.76.63.74.17,1.49.25,2.25.23,1.1-.02,2-.39,2.68-1.1.7-.72,1.04-1.64,1.04-2.75s-.31-2.03-.94-2.72c-.62-.7-1.47-1.04-2.54-1.04-.78,0-1.43.19-1.96.56-.52.37-.79.85-.81,1.42-.01.56.17,1.01.54,1.35.38.34.92.49,1.62.45v1.17c-1.14.06-2.05-.18-2.72-.72-.66-.54-.99-1.27-.99-2.2.01-.97.43-1.76,1.26-2.38s1.88-.92,3.17-.92c1.51,0,2.72.46,3.62,1.37s1.35,2.11,1.35,3.6-.47,2.71-1.4,3.65c-.92.95-2.14,1.45-3.64,1.49ZM487.44,161.3l-.59,2.65c-.38,1.7-1.22,2.74-2.52,3.11l2.93,3.94h-1.89l-3.98-5.33c-.54.13-1,.45-1.39.95-.37.49-.56,1.16-.56,2.02v2.36h-1.58v-2.12c0-1.09.28-1.99.83-2.7.56-.72,1.25-1.18,2.07-1.37l-2.63-3.51h1.89l3.58,4.81c.84-.29,1.4-1.03,1.67-2.23l.54-2.57h1.62ZM493.22,161.3h.68c.89,0,1.49.12,1.8.36.31.24.47.79.47,1.64v10.51h-1.58v-10.55c0-.25-.04-.43-.13-.52-.08-.11-.26-.16-.52-.16h-.72v-1.28ZM498.32,161.3h.7c.88,0,1.47.12,1.78.36.31.24.47.79.47,1.64v7.7h-1.58v-7.74c0-.25-.04-.43-.13-.52-.08-.11-.25-.16-.5-.16h-.74v-1.28ZM506.71,171.23c-1.21.06-2.26-.11-3.15-.5v-1.39c.84.43,1.74.63,2.7.59.98-.04,1.78-.38,2.38-1.03s.9-1.54.9-2.68-.3-2.05-.9-2.68c-.6-.65-1.39-1-2.38-1.04-.94-.02-1.84.16-2.7.56v-1.35c1.01-.41,2.06-.57,3.15-.49,1.33.1,2.4.59,3.2,1.49.82.89,1.22,2.06,1.22,3.51s-.41,2.62-1.22,3.53c-.82.9-1.88,1.39-3.2,1.48ZM515.65,167.22h-1.58v-3.96c0-.46-.25-.68-.74-.68h-.63v-1.28h.59c.89,0,1.5.13,1.84.38.35.24.52.78.52,1.62v3.92ZM522.71,161.05c1.48,0,2.63.44,3.46,1.33.84.88,1.26,2.11,1.26,3.69v.14c0,1.58-.42,2.82-1.26,3.71-.83.88-1.98,1.31-3.46,1.31s-2.59-.44-3.4-1.31c-.82-.88-1.22-2.1-1.22-3.67v-.22c0-1.56.41-2.78,1.22-3.65.82-.89,1.95-1.33,3.4-1.33ZM525.84,166.28v-.27c0-1.15-.28-2.05-.85-2.7-.55-.65-1.31-.97-2.27-.97s-1.7.32-2.25.97c-.54.65-.81,1.55-.81,2.7v.27c0,1.15.27,2.05.81,2.7.55.64,1.3.95,2.25.95s1.72-.32,2.27-.97c.56-.65.85-1.54.85-2.68Z"/>
  <path class="cls-1" d="M439.09,193.3h4.75c1.55,0,2.6.35,3.17,1.04.58.68.86,1.87.86,3.56v5.09h-8.78v-9.7ZM443.79,194.58h-3.11v7.15h5.62v-4.14c0-1.13-.17-1.91-.52-2.34-.34-.44-1-.67-1.98-.67ZM453.11,199.22h-1.58v-3.96c0-.46-.25-.68-.74-.68h-.63v-1.28h.59c.89,0,1.5.13,1.84.38.35.24.52.78.52,1.62v3.92ZM455.46,193.3h1.37c.88,0,1.49.2,1.84.59.35.38.53,1.05.56,2v7.11h-4.27v-1.28h2.68v-5.94c0-.8-.31-1.21-.94-1.21h-1.24v-1.28ZM461.46,193.3h.7c.88,0,1.47.12,1.78.36.31.24.47.79.47,1.64v7.7h-1.58v-7.74c0-.25-.04-.43-.13-.52-.08-.11-.25-.16-.5-.16h-.74v-1.28ZM472.53,193.12h.09c1.15,0,2.11.45,2.86,1.35.76.89,1.13,2.05,1.13,3.47v.34c0,1.24-.31,2.28-.92,3.13-.6.84-1.36,1.37-2.27,1.58-1.02.24-2.02.22-2.99-.07v-1.3c.77.29,1.59.32,2.47.09.61-.14,1.12-.53,1.51-1.15.41-.64.61-1.41.61-2.32v-.27c0-1.07-.26-1.93-.79-2.57-.52-.66-1.18-.99-2-.99h-.07c-.79,0-1.46.27-2,.81-.54.53-.85,1.15-.92,1.87l-.65,5.9h-1.58l.68-5.98c.07-.55.06-1.09-.04-1.6-.1-.52-.19-.88-.29-1.1-.1-.23-.26-.57-.49-1.03h1.58s.07.16.14.32c.07.16.13.28.16.36s.08.2.13.36c.06.14.1.29.13.45.04.16.07.32.09.5.3-.65.74-1.17,1.31-1.57.59-.41,1.28-.61,2.09-.61ZM484.98,203h-1.58v-5.85c0-.84-.22-1.48-.65-1.91-.42-.44-1.02-.67-1.8-.67h-3.11v-1.28h3.17c1.36,0,2.36.34,3.01,1.03.65.67.97,1.72.97,3.15v5.53ZM487.03,193.3h.7c.88,0,1.47.12,1.78.36.31.24.47.79.47,1.64v7.7h-1.58v-7.74c0-.25-.04-.43-.13-.52-.08-.11-.25-.16-.5-.16h-.74v-1.28ZM492.47,193.3h4.9c1.36,0,2.36.34,3.01,1.03.65.67.97,1.72.97,3.15v5.53h-1.58v-5.85c0-.84-.22-1.48-.65-1.91-.42-.44-1.02-.67-1.8-.67h-4.84v-1.28ZM492.58,197.56h1.58v5.44h-1.58v-5.44Z"/>
  <path class="cls-1" d="M528.5,197s-5.69-.55-7-7c-1.24,6.59-7,7-7,7,0,0,6.38,1.58,7,7,1.03-5.49,7-7,7-7Z"/>
  <path class="cls-1" d="M418.17,221.3h6.48c1.36,0,2.36.34,3.01,1.03.65.67.97,1.72.97,3.15v5.53h-1.58v-5.85c0-.84-.22-1.48-.65-1.91-.42-.44-1.02-.67-1.8-.67h-2.81v6.14c0,1.63-.82,2.45-2.45,2.45-.53,0-.98-.04-1.35-.13v-1.19c.26.05.56.07.88.07.44,0,.77-.09.99-.27.23-.18.34-.51.34-.99v-6.08h-2.03v-1.28ZM433.56,227.22h-1.58v-3.96c0-.46-.25-.68-.74-.68h-.63v-1.28h.59c.89,0,1.5.13,1.84.38.35.24.52.78.52,1.62v3.92ZM439.84,222.67v-1.26c.42-.08.85-.13,1.3-.13,1.37-.05,2.38.35,3.02,1.19.65.84.97,1.97.97,3.38v.14c0,1.62-.41,2.89-1.24,3.82s-1.96,1.39-3.4,1.39c-1.34,0-2.42-.46-3.24-1.37-.82-.92-1.22-2.17-1.22-3.74v-4.79h1.58v4.7c0,1.24.26,2.2.79,2.9.53.68,1.23,1.03,2.11,1.03.97,0,1.72-.34,2.25-1.01.53-.67.79-1.63.79-2.88v-.18c0-1.13-.24-1.97-.72-2.52-.48-.55-1.13-.82-1.94-.79-.54.05-.89.09-1.04.13ZM447.18,221.3h1.37c.88,0,1.49.2,1.84.59.35.38.53,1.05.56,2v7.11h-4.27v-1.28h2.68v-5.94c0-.8-.31-1.21-.94-1.21h-1.24v-1.28ZM453.36,231.07h-.27v-1.37h.23c.64,0,1.27-.23,1.89-.7.64-.47,1.01-1.01,1.12-1.62l.02-3.4c0-.47-.09-.82-.27-1.04-.17-.24-.48-.36-.94-.36h-.94v-1.28h1.13c.96,0,1.63.2,2.02.61.38.41.58,1.11.58,2.11v3.82l.52,3.17h-1.49l-.38-2.39h-.09c-.16.56-.55,1.12-1.19,1.66-.64.54-1.28.81-1.94.81ZM464.91,221.3h4.9c1.36,0,2.36.34,3.01,1.03.65.67.97,1.72.97,3.15v5.53h-1.58v-5.85c0-.84-.22-1.48-.65-1.91-.42-.44-1.02-.67-1.8-.67h-4.84v-1.28ZM465.02,225.56h1.58v5.44h-1.58v-5.44ZM478.58,227.22h-1.58v-3.96c0-.46-.25-.68-.74-.68h-.63v-1.28h.59c.89,0,1.5.13,1.84.38.35.24.52.78.52,1.62v3.92ZM483.78,227.22h-1.58v-3.96c0-.46-.25-.68-.74-.68h-.63v-1.28h.59c.89,0,1.5.13,1.84.38.35.24.52.78.52,1.62v3.92ZM490.06,222.67v-1.26c.42-.08.85-.13,1.3-.13,1.37-.05,2.38.35,3.02,1.19s.97,1.97.97,3.38v.14c0,1.62-.41,2.89-1.24,3.82s-1.96,1.39-3.4,1.39c-1.34,0-2.42-.46-3.24-1.37-.82-.92-1.22-2.17-1.22-3.74v-4.79h1.58v4.7c0,1.24.26,2.2.79,2.9.53.68,1.23,1.03,2.11,1.03.97,0,1.72-.34,2.25-1.01.53-.67.79-1.63.79-2.88v-.18c0-1.13-.24-1.97-.72-2.52-.48-.55-1.13-.82-1.94-.79-.54.05-.89.09-1.04.13ZM497.4,221.3h1.37c.88,0,1.49.2,1.84.59.35.38.53,1.05.56,2v7.11h-4.27v-1.28h2.68v-5.94c0-.8-.31-1.21-.94-1.21h-1.24v-1.28Z"/>
  <path class="cls-1" d="M528.5,225s-5.69-.55-7-7c-1.24,6.59-7,7-7,7,0,0,6.38,1.58,7,7,1.03-5.49,7-7,7-7Z"/>
  <path class="cls-1" d="M424.91,249.3v1.3l-3.55,8.41-1.64-.02,3.56-8.41h-5.9v-3.64h1.58v2.36h5.94ZM426.9,250.58v-1.28h9.09v1.3l-3.22,8.41-1.64-.02,3.28-8.41h-7.51ZM428.68,253.56v7.88h-1.58v-7.88h1.58ZM447.34,253.83v-4.55h1.58v4.54c0,1.52-.49,2.8-1.48,3.83-.97,1.02-2.26,1.53-3.85,1.53h-.23c-1.52,0-2.78-.5-3.76-1.51-.97-1.01-1.46-2.29-1.46-3.85v-4.54h1.6v4.55c0,.19,0,.33.02.41h.43c.82,0,1.45-.2,1.89-.59.44-.4.67-.97.67-1.73v-2.65h1.58v2.57c0,1-.35,1.8-1.06,2.41-.7.61-1.67.92-2.93.92h-.43c.22.88.64,1.55,1.26,2.02.64.46,1.37.68,2.2.68h.25c1.12,0,2.02-.35,2.7-1.06.68-.71,1.03-1.7,1.03-2.99ZM456.94,249.12h.09c1.15,0,2.11.45,2.86,1.35.76.89,1.13,2.05,1.13,3.47v.34c0,1.24-.31,2.28-.92,3.13-.6.84-1.36,1.37-2.27,1.58-1.02.24-2.02.22-2.99-.07v-1.3c.77.29,1.59.32,2.47.09.61-.14,1.12-.53,1.51-1.15.41-.64.61-1.41.61-2.32v-.27c0-1.07-.26-1.93-.79-2.57-.52-.66-1.18-.99-2-.99h-.07c-.79,0-1.46.27-2,.81-.54.53-.85,1.15-.92,1.87l-.65,5.9h-1.58l.68-5.98c.07-.55.06-1.09-.04-1.6-.1-.52-.19-.88-.29-1.1-.1-.23-.26-.57-.49-1.03h1.58s.07.16.14.32c.07.16.13.28.16.36.04.08.08.2.13.36.06.14.1.29.13.45.04.16.07.32.09.5.3-.65.74-1.17,1.31-1.57.59-.41,1.28-.61,2.09-.61ZM470.8,249.1c1.45,0,2.57.45,3.37,1.35.79.89,1.18,2.18,1.17,3.87v7.49h-1.58v-7.72c0-1.25-.26-2.18-.77-2.79-.52-.62-1.24-.94-2.18-.94-.79,0-1.42.19-1.89.58-.47.38-.73.92-.77,1.6-.06.85.11,1.49.52,1.93.42.42,1.04.6,1.85.54v1.04c-1.06.13-1.99-.09-2.79-.67-.8-.59-1.2-1.52-1.19-2.79.05-1.09.46-1.94,1.22-2.56.78-.62,1.79-.94,3.04-.94ZM483.81,259h-1.58v-5.98c0-1.06.25-1.87.76-2.45h-5.56v-1.28h7.99v1.28h-1.28c-.22.53-.32,1.34-.32,2.45v5.98ZM487.3,249.3h.7c.88,0,1.47.12,1.78.36.31.24.47.79.47,1.64v7.7h-1.58v-7.74c0-.25-.04-.43-.13-.52-.08-.11-.25-.16-.5-.16h-.74v-1.28ZM499.47,253.22l.36-3.92h1.58l-.25,3.06c-.08.98-.2,1.83-.36,2.54-.14.71-.35,1.31-.63,1.8-.28.49-.58.89-.9,1.19s-.75.53-1.28.7c-.53.17-1.07.28-1.64.34-.55.05-1.24.07-2.07.07h-1.66v-1.28h1.64c.44,0,.92-.01,1.42-.04-.53-.7-.94-1.6-1.24-2.7l-1.64-5.69h1.62l1.58,5.49c.35,1.16.7,2.06,1.04,2.7.78-.22,1.34-.63,1.67-1.24.35-.61.59-1.62.74-3.02Z"/>
  <path class="cls-1" d="M528.5,253s-5.69-.55-7-7c-1.24,6.59-7,7-7,7,0,0,6.38,1.58,7,7,1.03-5.49,7-7,7-7Z"/>
  <path class="cls-1" d="M424.69,281.22l.36-3.92h1.58l-.25,3.06c-.08.98-.2,1.83-.36,2.54-.14.71-.35,1.31-.63,1.8-.28.49-.58.89-.9,1.19s-.75.53-1.28.7c-.53.17-1.07.28-1.64.34-.55.05-1.24.07-2.07.07h-1.66v-1.28h1.64c.44,0,.92-.01,1.42-.04-.53-.7-.94-1.6-1.24-2.7l-1.64-5.69h1.62l1.58,5.49c.35,1.16.7,2.06,1.04,2.7.78-.22,1.34-.63,1.67-1.24.35-.61.59-1.62.74-3.02ZM428.82,278.58v-1.28h9.09v1.3l-3.22,8.41-1.64-.02,3.28-8.41h-7.51ZM430.6,281.56v7.88h-1.58v-7.88h1.58ZM446.82,287h-1.58v-5.85c0-.84-.22-1.48-.65-1.91-.42-.44-1.02-.67-1.8-.67h-3.11v-1.28h3.17c1.36,0,2.36.34,3.01,1.03.65.67.97,1.72.97,3.15v5.53ZM453.25,277.3h6.48c1.36,0,2.36.34,3.01,1.03.65.67.97,1.72.97,3.15v5.53h-1.58v-5.85c0-.84-.22-1.48-.65-1.91-.42-.44-1.02-.67-1.8-.67h-2.81v6.14c0,1.63-.82,2.45-2.45,2.45-.53,0-.98-.04-1.35-.13v-1.19c.26.05.56.07.88.07.44,0,.77-.09.99-.27.23-.18.34-.51.34-.99v-6.08h-2.03v-1.28ZM465.76,277.3h.7c.88,0,1.47.12,1.78.36.31.24.47.79.47,1.64v7.7h-1.58v-7.74c0-.25-.04-.43-.13-.52-.08-.11-.25-.16-.5-.16h-.74v-1.28ZM478.4,277.3v1.3l-3.55,8.41-1.64-.02,3.56-8.41h-5.9v-3.64h1.58v2.36h5.94ZM480.81,277.3h4.59c1.36,0,2.36.34,3.01,1.03.65.67.97,1.72.97,3.15v5.53h-1.58v-5.85c0-.84-.22-1.48-.65-1.91-.42-.44-1.02-.67-1.8-.67h-2.93v8.42h-1.6v-9.7ZM497.44,277.12h.09c1.15,0,2.11.45,2.86,1.35.76.89,1.13,2.05,1.13,3.47v.34c0,1.24-.31,2.28-.92,3.13-.6.84-1.36,1.37-2.27,1.58-1.02.24-2.02.22-2.99-.07v-1.3c.77.29,1.59.32,2.47.09.61-.14,1.12-.53,1.51-1.15.41-.64.61-1.41.61-2.32v-.27c0-1.07-.26-1.93-.79-2.57-.52-.66-1.18-.99-2-.99h-.07c-.79,0-1.46.27-2,.81-.54.53-.85,1.15-.92,1.87l-.65,5.9h-1.58l.68-5.98c.07-.55.06-1.09-.04-1.6-.1-.52-.19-.88-.29-1.1-.1-.23-.26-.57-.49-1.03h1.58s.07.16.14.32c.07.16.13.28.16.36.04.08.08.2.13.36.06.14.1.29.13.45.04.16.07.32.09.5.3-.65.74-1.17,1.31-1.57.59-.41,1.28-.61,2.09-.61Z"/>
  <path class="cls-1" d="M528.5,281s-5.69-.55-7-7c-1.24,6.59-7,7-7,7,0,0,6.38,1.58,7,7,1.03-5.49,7-7,7-7Z"/>
  <path class="cls-1" d="M463.72,305.3h.68c.89,0,1.49.12,1.8.36.31.24.47.79.47,1.64v10.51h-1.58v-10.55c0-.25-.04-.43-.13-.52-.08-.11-.26-.16-.52-.16h-.72v-1.28ZM468.82,305.3h.7c.88,0,1.47.12,1.78.36.31.24.47.79.47,1.64v7.7h-1.58v-7.74c0-.25-.04-.43-.13-.52-.08-.11-.25-.16-.5-.16h-.74v-1.28ZM483.57,309.83v-4.55h1.58v4.54c0,1.52-.49,2.8-1.48,3.83-.97,1.02-2.26,1.53-3.85,1.53h-.23c-1.52,0-2.78-.5-3.76-1.51-.97-1.01-1.46-2.29-1.46-3.85v-4.54h1.6v4.55c0,.19,0,.33.02.41h.43c.82,0,1.45-.2,1.89-.59s.67-.97.67-1.73v-2.65h1.58v2.57c0,1-.35,1.8-1.06,2.41-.7.61-1.67.92-2.93.92h-.43c.22.88.64,1.55,1.26,2.02.64.46,1.37.68,2.2.68h.25c1.12,0,2.02-.35,2.7-1.06.68-.71,1.03-1.7,1.03-2.99ZM490.25,311.22h-1.58v-3.96c0-.46-.25-.68-.74-.68h-.63v-1.28h.59c.89,0,1.5.13,1.84.38.35.24.52.78.52,1.62v3.92ZM499.47,309.22l.36-3.92h1.58l-.25,3.06c-.08.98-.2,1.83-.36,2.54-.14.71-.35,1.31-.63,1.8-.28.49-.58.89-.9,1.19s-.75.53-1.28.7c-.53.17-1.07.28-1.64.34-.55.05-1.24.07-2.07.07h-1.66v-1.28h1.64c.44,0,.92-.01,1.42-.04-.53-.7-.94-1.6-1.24-2.7l-1.64-5.69h1.62l1.58,5.49c.35,1.16.7,2.06,1.04,2.7.78-.22,1.34-.63,1.67-1.24.35-.61.59-1.62.74-3.02Z"/>
  <path class="cls-1" d="M528.5,309s-5.69-.55-7-7c-1.24,6.59-7,7-7,7,0,0,6.38,1.58,7,7,1.03-5.49,7-7,7-7Z"/>
  <path class="cls-1" d="M599.43,172.97c-8.02-7.9-8.32-16.8-2-23.71,6.35-6.96,15.89-2.69,22.86,2.39,7.04,5.15,5.03,9.65,14.85,16.21,9.82,6.56,18.68-2.32,33.19,8.37,12.61,9.3,4.54,19.65,18.6,32.03,11.13,9.8,24.96-8.27,53.39,12.59,11.06,8.7,27.49,32.56,2.72,61.87-19.82,23.45-45.09,11.43-55.25,2.5-22.97-22.35-12.04-43.02-23.77-53.32-14.06-12.38-19.11-4.28-29.07-13.05-12.3-10.84-6.23-20.1-14.12-31.21-5.03-9.64-11.37-4.8-21.4-14.67h0Z"/>
  <path class="cls-1" d="M909.67,115.62v.66h-1.74v-.97c0-.51.12-1,.37-1.45.25-.46.55-.84.9-1.17.37-.34.73-.66,1.1-.97.37-.31.67-.64.92-.99.25-.35.37-.71.37-1.08v-.04c0-.57-.21-1.04-.62-1.41-.41-.37-.97-.55-1.67-.55-.66,0-1.23.21-1.72.62-.48.4-.78.95-.88,1.67h-1.61c.06-1.16.49-2.07,1.3-2.73.81-.66,1.78-.99,2.93-.99,1.2,0,2.16.3,2.88.9.73.6,1.1,1.39,1.1,2.35v.04c0,.53-.12,1.02-.37,1.47-.25.46-.56.85-.92,1.19-.35.32-.71.64-1.08.97-.35.32-.65.7-.9,1.12-.25.41-.37.86-.37,1.34ZM909.61,119.76c-.21.22-.47.33-.79.33s-.59-.11-.81-.33c-.22-.22-.33-.49-.33-.81s.11-.57.33-.79c.22-.24.49-.35.81-.35s.59.12.79.35c.22.22.33.48.33.79s-.11.59-.33.81ZM916.14,108.14h5.98c1.66,0,2.88.42,3.67,1.25.79.82,1.19,2.1,1.19,3.85v6.75h-1.94v-7.15c0-1.03-.26-1.8-.79-2.33-.51-.54-1.25-.81-2.2-.81h-5.92v-1.56ZM916.27,113.36h1.94v6.64h-1.94v-6.64ZM937.61,120h-1.94v-7.15c0-1.03-.26-1.8-.79-2.33-.51-.54-1.25-.81-2.2-.81h-3.81v-1.56h3.87c1.66,0,2.88.42,3.67,1.25.79.82,1.19,2.1,1.19,3.85v6.75ZM940.11,108.14h.86c1.07,0,1.8.15,2.18.44.38.29.57.96.57,2v9.42h-1.94v-9.46c0-.31-.05-.52-.15-.64-.1-.13-.31-.2-.62-.2h-.9v-1.56ZM946.71,109.7v-1.56h11.11v1.58l-3.94,10.27-2-.02,4-10.27h-9.17ZM948.89,113.36v9.64h-1.94v-9.64h1.94ZM965.38,108.14h5.98c1.66,0,2.88.42,3.67,1.25.79.82,1.19,2.1,1.19,3.85v6.75h-1.94v-7.15c0-1.03-.26-1.8-.79-2.33-.51-.54-1.25-.81-2.2-.81h-5.92v-1.56ZM965.52,113.36h1.94v6.64h-1.94v-6.64ZM982.33,120h-1.94v-7.35c0-1.33.29-2.32.88-2.95h-2.4l.02-1.56h5.7v1.56h-1.87c-.26.6-.4,1.47-.4,2.6v7.7ZM995.6,115.38h-1.94v-4.84c0-.56-.3-.84-.9-.84h-.77v-1.56h.73c1.09,0,1.83.15,2.24.46.43.29.64.95.64,1.98v4.8ZM1005.53,107.92h.11c1.41,0,2.57.55,3.5,1.65.92,1.08,1.38,2.5,1.38,4.25v.42c0,1.51-.37,2.79-1.12,3.83-.73,1.03-1.66,1.67-2.77,1.94-1.25.29-2.47.26-3.65-.09v-1.58c.93.35,1.94.39,3.01.11.75-.18,1.36-.65,1.85-1.41.5-.78.75-1.72.75-2.84v-.33c0-1.31-.33-2.35-.97-3.15-.63-.81-1.45-1.21-2.44-1.21h-.09c-.97,0-1.78.33-2.44.99-.66.64-1.04,1.41-1.13,2.29l-.79,7.22h-1.93l.84-7.3c.09-.67.07-1.33-.04-1.96-.12-.63-.23-1.08-.35-1.34-.12-.28-.32-.7-.59-1.25h1.94c.03.06.09.19.17.4.09.19.16.34.2.44.05.1.1.25.16.44.07.18.12.36.15.55.04.19.08.4.11.62.37-.79.9-1.43,1.61-1.91.71-.5,1.57-.75,2.55-.75ZM1021.41,108.14v1.58l-4.34,10.27-2-.02,4.36-10.27h-7.22v-4.44h1.94v2.88h7.26Z"/>
  <path class="cls-1" d="M898.98,140.52h1.28v10.46h-1.57v-8.37c-.19.29-.57.63-1.13,1.03-.56.38-1.16.64-1.8.77v-1.22c.82-.17,1.51-.5,2.07-1.01.56-.52.92-1.01,1.08-1.48l.07-.18ZM905.56,140.25c.8,0,1.5.29,2.09.86.59.58.88,1.26.88,2.05v.04c0,.8-.29,1.49-.88,2.07-.59.56-1.28.85-2.09.85s-1.52-.28-2.12-.85c-.59-.58-.88-1.27-.88-2.07v-.04c0-.79.29-1.48.88-2.05.6-.58,1.31-.86,2.12-.86ZM912.16,140.54l1.66-.02-7.67,10.49h-1.66l7.67-10.48ZM905.56,141.37c-.52,0-.95.18-1.31.54-.36.35-.54.77-.54,1.26v.04c0,.49.18.92.54,1.28.36.35.8.52,1.31.52s.92-.17,1.28-.52c.36-.36.54-.79.54-1.28v-.04c0-.49-.18-.91-.54-1.26-.36-.36-.79-.54-1.28-.54ZM912.81,145.42c.8,0,1.5.29,2.09.86.6.58.9,1.26.9,2.05v.04c0,.8-.3,1.49-.9,2.07-.59.58-1.28.86-2.09.86s-1.52-.29-2.12-.86c-.59-.58-.88-1.27-.88-2.07v-.04c0-.79.29-1.48.88-2.05.6-.58,1.31-.86,2.12-.86ZM912.81,146.54c-.5,0-.94.18-1.3.54-.36.35-.54.77-.54,1.26v.04c0,.49.18.92.54,1.28.36.35.79.52,1.3.52s.92-.17,1.28-.52c.37-.36.56-.79.56-1.28v-.04c0-.48-.19-.9-.56-1.26-.36-.36-.79-.54-1.28-.54ZM918.19,144.95h5.09v1.4h-5.09v-1.4ZM928.94,151.23c-1.21.06-2.26-.11-3.15-.5v-1.39c.84.43,1.74.63,2.7.59.98-.04,1.78-.38,2.38-1.03.6-.65.9-1.54.9-2.68s-.3-2.05-.9-2.68c-.6-.65-1.39-1-2.38-1.04-.94-.02-1.84.16-2.7.56v-1.35c1.01-.41,2.06-.57,3.15-.49,1.33.1,2.4.59,3.2,1.49.82.89,1.22,2.06,1.22,3.51s-.41,2.62-1.22,3.53c-.82.9-1.88,1.39-3.2,1.48ZM943.42,151h-8.87v-1.28h6.03v-4.57c0-.84-.22-1.48-.65-1.91-.42-.44-1.02-.67-1.8-.67h-3.26v-1.28h3.31c1.36,0,2.36.34,3.01,1.03.65.67.97,1.72.97,3.15v4.25h1.26v1.28ZM949.49,141.3h6.48c1.36,0,2.36.34,3.01,1.03.65.67.97,1.72.97,3.15v5.53h-1.58v-5.85c0-.84-.22-1.48-.65-1.91-.42-.44-1.02-.67-1.8-.67h-2.81v6.14c0,1.63-.82,2.45-2.45,2.45-.53,0-.98-.04-1.35-.13v-1.19c.26.05.56.07.88.07.44,0,.77-.09.99-.27.23-.18.34-.51.34-.99v-6.08h-2.03v-1.28ZM968.97,145.22l.36-3.92h1.58l-.25,3.06c-.08.98-.2,1.83-.36,2.54-.14.71-.35,1.31-.63,1.8-.28.49-.58.89-.9,1.19-.32.3-.75.53-1.28.7s-1.07.28-1.64.34c-.55.05-1.24.07-2.07.07h-1.66v-1.28h1.64c.44,0,.92-.01,1.42-.04-.53-.7-.94-1.6-1.24-2.7l-1.64-5.69h1.62l1.58,5.49c.35,1.16.7,2.06,1.04,2.7.78-.22,1.34-.63,1.67-1.24.35-.61.59-1.62.74-3.02ZM972.43,151.07h-.27v-1.37h.23c.64,0,1.27-.23,1.89-.7.64-.47,1.01-1.01,1.12-1.62l.02-3.4c0-.47-.09-.82-.27-1.04-.17-.24-.48-.36-.94-.36h-.94v-1.28h1.13c.96,0,1.63.2,2.02.61.38.41.58,1.11.58,2.11v3.82l.52,3.17h-1.49l-.38-2.39h-.09c-.16.56-.55,1.12-1.19,1.66-.64.54-1.28.81-1.94.81ZM979.59,141.3h.7c.88,0,1.47.12,1.78.36.31.24.47.79.47,1.64v7.7h-1.58v-7.74c0-.25-.04-.43-.13-.52-.08-.11-.25-.16-.5-.16h-.74v-1.28ZM989.3,151.25c-.77.01-1.55-.06-2.36-.22-.79-.14-1.44-.32-1.94-.52v-1.37c.43.24,1.02.45,1.76.63.74.17,1.49.25,2.25.23,1.1-.02,2-.39,2.68-1.1.7-.72,1.04-1.64,1.04-2.75s-.31-2.03-.94-2.72c-.62-.7-1.47-1.04-2.54-1.04-.78,0-1.43.19-1.96.56-.52.37-.79.85-.81,1.42-.01.56.17,1.01.54,1.35.38.34.92.49,1.62.45v1.17c-1.14.06-2.05-.18-2.72-.72-.66-.54-.99-1.27-.99-2.2.01-.97.43-1.76,1.26-2.38s1.88-.92,3.17-.92c1.51,0,2.72.46,3.62,1.37.9.91,1.35,2.11,1.35,3.6s-.47,2.71-1.4,3.65c-.92.95-2.14,1.45-3.64,1.49ZM1008.79,138.36h1.55v12.64h-1.55v-6.26h-6.82v6.26h-1.55v-12.64h1.55v4.99h6.82v-4.99ZM1017.07,138.18c.42,0,.85.05,1.28.16.43.1.87.26,1.31.49.46.23.83.58,1.1,1.04.29.46.43,1,.43,1.64h-1.56c0-.62-.27-1.1-.81-1.42-.53-.34-1.12-.5-1.77-.5s-1.2.16-1.65.49c-.46.31-.69.73-.69,1.26v.04c0,.52.22.95.65,1.31.45.35,1.18.67,2.22.95,1.47.44,2.51.97,3.11,1.58.6.6.9,1.37.9,2.3v.02c0,1.03-.41,1.91-1.24,2.63-.82.71-1.87,1.06-3.17,1.06-.34,0-.68-.02-1.04-.07-.35-.05-.75-.15-1.19-.31-.45-.17-.84-.37-1.17-.61-.34-.25-.63-.6-.87-1.04-.22-.46-.34-.97-.34-1.55h1.55c.01.41.11.76.31,1.06s.46.53.79.68c.32.14.65.25.97.32.32.06.67.09,1.03.09.82,0,1.49-.22,1.99-.65.51-.44.76-.98.76-1.6v-.04c0-.56-.22-1.03-.67-1.4-.44-.38-1.17-.72-2.19-1.01-1.44-.46-2.49-.97-3.13-1.55-.64-.58-.96-1.3-.96-2.18v-.04c0-.94.4-1.7,1.19-2.29.79-.59,1.75-.88,2.86-.88ZM826.42,161.3v1.3l-3.55,8.41-1.64-.02,3.56-8.41h-5.9v-3.64h1.58v2.36h5.94ZM831.16,167.22h-1.58v-3.96c0-.46-.25-.68-.74-.68h-.63v-1.28h.59c.89,0,1.5.13,1.84.38.35.24.52.78.52,1.62v3.92ZM832.77,171.07h-.27v-1.37h.23c.64,0,1.27-.23,1.89-.7.64-.47,1.01-1.01,1.12-1.62l.02-3.4c0-.47-.09-.82-.27-1.04-.17-.24-.48-.36-.94-.36h-.94v-1.28h1.13c.96,0,1.63.2,2.02.61.38.41.58,1.11.58,2.11v3.82l.52,3.17h-1.49l-.38-2.39h-.09c-.16.56-.55,1.12-1.19,1.66-.64.54-1.28.81-1.94.81ZM847.04,167.22h-1.58v-3.96c0-.46-.25-.68-.74-.68h-.63v-1.28h.59c.89,0,1.5.13,1.84.38.35.24.52.78.52,1.62v3.92ZM856.12,171h-1.58v-5.85c0-.84-.22-1.48-.65-1.91-.42-.44-1.02-.67-1.8-.67h-3.11v-1.28h3.17c1.36,0,2.36.34,3.01,1.03.65.67.97,1.72.97,3.15v5.53ZM858.78,161.3h4.59c1.36,0,2.36.34,3.01,1.03.65.67.97,1.72.97,3.15v5.53h-1.58v-5.85c0-.84-.22-1.48-.65-1.91-.42-.44-1.02-.67-1.8-.67h-2.93v8.42h-1.6v-9.7ZM879.37,161.3l-.59,2.65c-.38,1.7-1.22,2.74-2.52,3.11l2.93,3.94h-1.89l-3.98-5.33c-.54.13-1,.45-1.39.95-.37.49-.56,1.16-.56,2.02v2.36h-1.58v-2.12c0-1.09.28-1.99.83-2.7.56-.72,1.25-1.18,2.07-1.37l-2.63-3.51h1.89l3.58,4.81c.84-.29,1.4-1.03,1.67-2.23l.54-2.57h1.62ZM894.25,171h-8.87v-1.28h6.03v-4.57c0-.84-.22-1.48-.65-1.91-.42-.44-1.02-.67-1.8-.67h-3.26v-1.28h3.31c1.36,0,2.36.34,3.01,1.03.65.67.97,1.72.97,3.15v4.25h1.26v1.28ZM895.4,161.3h.7c.88,0,1.47.12,1.78.36.31.24.47.79.47,1.64v7.7h-1.58v-7.74c0-.25-.04-.43-.13-.52-.08-.11-.25-.16-.5-.16h-.74v-1.28ZM907.71,171h-1.58v-5.85c0-.84-.22-1.48-.65-1.91-.42-.44-1.02-.67-1.8-.67h-3.11v-1.28h3.17c1.36,0,2.36.34,3.01,1.03.65.67.97,1.72.97,3.15v5.53ZM917.19,161.3v1.3l-3.55,8.41-1.64-.02,3.56-8.41h-5.9v-3.64h1.58v2.36h5.94ZM923.89,170.15h1.57l-1.1,3.31h-.83l.36-3.31ZM927.9,161.3h4.9c1.36,0,2.36.34,3.01,1.03.65.67.97,1.72.97,3.15v5.53h-1.58v-5.85c0-.84-.22-1.48-.65-1.91-.42-.44-1.02-.67-1.8-.67h-4.84v-1.28ZM928.01,165.56h1.58v5.44h-1.58v-5.44ZM941.57,167.22h-1.58v-3.96c0-.46-.25-.68-.74-.68h-.63v-1.28h.59c.89,0,1.5.13,1.84.38.35.24.52.78.52,1.62v3.92ZM946.78,167.22h-1.58v-3.96c0-.46-.25-.68-.74-.68h-.63v-1.28h.59c.89,0,1.5.13,1.84.38.35.24.52.78.52,1.62v3.92ZM953.83,161.05c1.48,0,2.63.44,3.46,1.33.84.88,1.26,2.11,1.26,3.69v.14c0,1.58-.42,2.82-1.26,3.71-.83.88-1.98,1.31-3.46,1.31s-2.59-.44-3.4-1.31c-.82-.88-1.22-2.1-1.22-3.67v-.22c0-1.56.41-2.78,1.22-3.65.82-.89,1.95-1.33,3.4-1.33ZM956.97,166.28v-.27c0-1.15-.28-2.05-.85-2.7-.55-.65-1.31-.97-2.27-.97s-1.7.32-2.25.97c-.54.65-.81,1.55-.81,2.7v.27c0,1.15.27,2.05.81,2.7.55.64,1.3.95,2.25.95s1.72-.32,2.27-.97c.56-.65.85-1.54.85-2.68ZM960.05,161.3h.7c.88,0,1.47.12,1.78.36.31.24.47.79.47,1.64v7.7h-1.58v-7.74c0-.25-.04-.43-.13-.52-.08-.11-.25-.16-.5-.16h-.74v-1.28ZM972.69,161.3v1.3l-3.55,8.41-1.64-.02,3.56-8.41h-5.9v-3.64h1.58v2.36h5.94ZM977.67,171.23c-1.21.06-2.26-.11-3.15-.5v-1.39c.84.43,1.74.63,2.7.59.98-.04,1.78-.38,2.38-1.03.6-.65.9-1.54.9-2.68s-.3-2.05-.9-2.68c-.6-.65-1.39-1-2.38-1.04-.94-.02-1.84.16-2.7.56v-1.35c1.01-.41,2.06-.57,3.15-.49,1.33.1,2.4.59,3.2,1.49.82.89,1.22,2.06,1.22,3.51s-.41,2.62-1.22,3.53c-.82.9-1.88,1.39-3.2,1.48ZM983.5,161.3h.7c.88,0,1.47.12,1.78.36.31.24.47.79.47,1.64v7.7h-1.58v-7.74c0-.25-.04-.43-.13-.52-.08-.11-.25-.16-.5-.16h-.74v-1.28ZM998.53,161.3l-.59,2.65c-.38,1.7-1.22,2.74-2.52,3.11l2.93,3.94h-1.89l-3.98-5.33c-.54.13-1,.45-1.39.95-.37.49-.56,1.16-.56,2.02v2.36h-1.58v-2.12c0-1.09.28-1.99.83-2.7.56-.72,1.25-1.18,2.07-1.37l-2.63-3.51h1.89l3.58,4.81c.84-.29,1.4-1.03,1.67-2.23l.54-2.57h1.62ZM1000.64,161.3h4.9c1.35,0,2.36.34,3,1.03.65.67.98,1.72.98,3.15v5.53h-1.59v-5.85c0-.84-.21-1.48-.65-1.91-.42-.44-1.02-.67-1.8-.67h-4.84v-1.28ZM1000.75,165.56h1.58v5.44h-1.58v-5.44ZM1017.44,161.12h.09c1.15,0,2.1.45,2.86,1.35.76.89,1.13,2.05,1.13,3.47v.34c0,1.24-.3,2.28-.91,3.13-.6.84-1.36,1.37-2.27,1.58-1.02.24-2.02.22-2.99-.07v-1.3c.77.29,1.59.32,2.47.09.61-.14,1.11-.53,1.51-1.15.41-.64.61-1.41.61-2.32v-.27c0-1.07-.26-1.93-.79-2.57-.52-.66-1.18-.99-2-.99h-.07c-.79,0-1.46.27-2,.81-.54.53-.85,1.15-.92,1.87l-.65,5.9h-1.58l.68-5.98c.08-.55.06-1.09-.03-1.6-.1-.52-.19-.88-.29-1.1-.1-.23-.26-.57-.49-1.03h1.59s.07.16.14.32c.07.16.13.28.16.36.04.08.08.2.13.36.06.14.1.29.13.45.03.16.06.32.09.5.3-.65.73-1.17,1.31-1.57.59-.41,1.28-.61,2.09-.61ZM852.41,181.3h4.9c1.36,0,2.36.34,3.01,1.03.65.67.97,1.72.97,3.15v5.53h-1.58v-5.85c0-.84-.22-1.48-.65-1.91-.42-.44-1.02-.67-1.8-.67h-4.84v-1.28ZM852.51,185.56h1.58v5.44h-1.58v-5.44ZM863.95,181.3h4.59c1.36,0,2.36.34,3.01,1.03.65.67.97,1.72.97,3.15v5.53h-1.58v-5.85c0-.84-.22-1.48-.65-1.91-.42-.44-1.02-.67-1.8-.67h-2.93v8.42h-1.6v-9.7ZM877.38,187.22h-1.58v-3.96c0-.46-.25-.68-.74-.68h-.63v-1.28h.59c.89,0,1.5.13,1.84.38.35.24.52.78.52,1.62v3.92ZM882.82,191.23c-1.21.06-2.26-.11-3.15-.5v-1.39c.84.43,1.74.63,2.7.59.98-.04,1.78-.38,2.38-1.03.6-.65.9-1.54.9-2.68s-.3-2.05-.9-2.68c-.6-.65-1.39-1-2.38-1.04-.94-.02-1.84.16-2.7.56v-1.35c1.01-.41,2.06-.57,3.15-.49,1.33.1,2.4.59,3.2,1.49.82.89,1.22,2.06,1.22,3.51s-.41,2.62-1.22,3.53c-.82.9-1.88,1.39-3.2,1.48ZM898.66,185.83v-4.55h1.58v4.54c0,1.52-.49,2.8-1.48,3.83-.97,1.02-2.26,1.53-3.85,1.53h-.23c-1.52,0-2.78-.5-3.76-1.51-.97-1.01-1.46-2.29-1.46-3.85v-4.54h1.6v4.55c0,.19,0,.33.02.41h.43c.82,0,1.45-.2,1.89-.59.44-.4.67-.97.67-1.73v-2.65h1.58v2.57c0,1-.35,1.8-1.06,2.41-.7.61-1.67.92-2.93.92h-.43c.22.88.64,1.55,1.26,2.02.64.46,1.37.68,2.2.68h.25c1.12,0,2.02-.35,2.7-1.06.68-.71,1.03-1.7,1.03-2.99ZM916.37,181.3l-.59,2.65c-.38,1.7-1.22,2.74-2.52,3.11l2.93,3.94h-1.89l-3.98-5.33c-.54.13-1,.45-1.39.95-.37.49-.56,1.16-.56,2.02v2.36h-1.58v-2.12c0-1.09.28-1.99.83-2.7.56-.72,1.25-1.18,2.07-1.37l-2.63-3.51h1.89l3.58,4.81c.84-.29,1.4-1.03,1.67-2.23l.54-2.57h1.62ZM921.2,187.22h-1.58v-3.96c0-.46-.25-.68-.74-.68h-.63v-1.28h.59c.89,0,1.5.13,1.84.38.35.24.52.78.52,1.62v3.92ZM923.68,181.3h4.9c1.36,0,2.36.34,3.01,1.03.65.67.97,1.72.97,3.15v5.53h-1.58v-5.85c0-.84-.22-1.48-.65-1.91-.42-.44-1.02-.67-1.8-.67h-4.84v-1.28ZM923.79,185.56h1.58v5.44h-1.58v-5.44ZM940.15,189.18c.25,0,.47.1.65.29s.27.41.27.67-.09.49-.27.67c-.18.18-.4.27-.65.27s-.49-.09-.68-.27c-.18-.18-.27-.4-.27-.67s.09-.47.27-.67c.19-.19.42-.29.68-.29ZM943.57,181.3h6.48c1.36,0,2.36.34,3.01,1.03.65.67.97,1.72.97,3.15v5.53h-1.58v-5.85c0-.84-.22-1.48-.65-1.91-.42-.44-1.02-.67-1.8-.67h-2.81v6.14c0,1.63-.82,2.45-2.45,2.45-.53,0-.98-.04-1.35-.13v-1.19c.26.05.56.07.88.07.44,0,.77-.09.99-.27.23-.18.34-.51.34-.99v-6.08h-2.03v-1.28ZM956.08,181.3h.7c.88,0,1.47.12,1.78.36.31.24.47.79.47,1.64v7.7h-1.58v-7.74c0-.25-.04-.43-.13-.52-.08-.11-.25-.16-.5-.16h-.74v-1.28ZM968.39,191h-1.58v-5.85c0-.84-.22-1.48-.65-1.91-.42-.44-1.02-.67-1.8-.67h-3.11v-1.28h3.17c1.36,0,2.36.34,3.01,1.03.65.67.97,1.72.97,3.15v5.53ZM970.62,191.07h-.27v-1.37h.23c.64,0,1.27-.23,1.89-.7.64-.47,1.01-1.01,1.12-1.62l.02-3.4c0-.47-.09-.82-.27-1.04-.17-.24-.48-.36-.94-.36h-.94v-1.28h1.13c.96,0,1.63.2,2.02.61.38.41.58,1.11.58,2.11v3.82l.52,3.17h-1.49l-.38-2.39h-.09c-.16.56-.55,1.12-1.19,1.66-.64.54-1.28.81-1.94.81ZM986.64,191h-8.87v-1.28h6.03v-4.57c0-.84-.22-1.48-.65-1.91-.42-.44-1.02-.67-1.8-.67h-3.26v-1.28h3.31c1.36,0,2.36.34,3.01,1.03.65.67.97,1.72.97,3.15v4.25h1.26v1.28ZM988.57,181.3h6.48c1.36,0,2.36.34,3.01,1.03.65.67.97,1.72.97,3.15v5.53h-1.58v-5.85c0-.84-.22-1.48-.65-1.91-.42-.44-1.02-.67-1.8-.67h-2.81v6.14c0,1.63-.82,2.45-2.45,2.45-.53,0-.98-.04-1.35-.13v-1.19c.26.05.56.07.88.07.44,0,.77-.09.99-.27.23-.18.34-.51.34-.99v-6.08h-2.03v-1.28ZM1001.31,181.3h4.9c1.35,0,2.35.34,3,1.03.65.67.97,1.72.97,3.15v5.53h-1.58v-5.85c0-.84-.22-1.48-.65-1.91-.42-.44-1.02-.67-1.8-.67h-4.84v-1.28ZM1001.42,185.56h1.58v5.44h-1.58v-5.44ZM1012.47,181.3h4.9c1.35,0,2.36.34,3,1.03.65.67.98,1.72.98,3.15v5.53h-1.59v-5.85c0-.84-.21-1.48-.65-1.91-.42-.44-1.02-.67-1.8-.67h-4.84v-1.28ZM1012.58,185.56h1.58v5.44h-1.58v-5.44ZM932.11,202.94c.25,0,.47.1.65.29.18.19.27.41.27.67s-.09.49-.27.67c-.18.18-.4.27-.65.27s-.49-.09-.68-.27c-.18-.18-.27-.4-.27-.67s.09-.47.27-.67c.19-.19.42-.29.68-.29ZM932.11,209.18c.25,0,.47.1.65.29.18.19.27.41.27.67s-.09.49-.27.67c-.18.18-.4.27-.65.27s-.49-.09-.68-.27c-.18-.18-.27-.4-.27-.67s.09-.47.27-.67c.19-.19.42-.29.68-.29ZM942.78,201.3v1.3l-3.55,8.41-1.64-.02,3.56-8.41h-5.9v-3.64h1.58v2.36h5.94ZM952.48,201.3l-.07,1.53c-.05.96-.31,1.77-.79,2.43-.47.65-1.07,1.14-1.8,1.48l2.43,3.35v.92h-7.7v-1.28h5.67l-3.76-4.99c-1.02-1.42-1.59-2.49-1.71-3.22l-.02-.22h1.58l.02.07c.13.52.65,1.42,1.57,2.72l1.28,1.75c.48-.2.87-.55,1.17-1.04.31-.49.47-1.06.49-1.69l.07-1.8h1.58ZM964.08,201.3l-.59,2.65c-.38,1.7-1.22,2.74-2.52,3.11l2.93,3.94h-1.89l-3.98-5.33c-.54.13-1,.45-1.39.95-.37.49-.56,1.16-.56,2.02v2.36h-1.58v-2.12c0-1.09.28-1.99.83-2.7.56-.72,1.25-1.18,2.07-1.37l-2.63-3.51h1.89l3.58,4.81c.84-.29,1.4-1.03,1.67-2.23l.54-2.57h1.62ZM976.44,211h-1.58v-5.98c0-1.06.25-1.87.76-2.45h-5.56v-1.28h7.99v1.28h-1.28c-.22.53-.32,1.34-.32,2.45v5.98ZM980.54,201.3h4.59c1.36,0,2.36.34,3.01,1.03.65.67.97,1.72.97,3.15v5.53h-1.58v-5.85c0-.84-.22-1.48-.65-1.91-.42-.44-1.02-.67-1.8-.67h-2.93v8.42h-1.6v-9.7ZM991.3,201.3h.7c.88,0,1.47.12,1.78.36.31.24.47.79.47,1.64v7.7h-1.58v-7.74c0-.25-.04-.43-.13-.52-.08-.11-.25-.16-.5-.16h-.74v-1.28ZM999.46,207.22h-1.58v-3.96c0-.46-.25-.68-.74-.68h-.63v-1.28h.59c.89,0,1.5.13,1.84.38.35.24.52.78.52,1.62v3.92ZM1007.58,201.12h.09c1.15,0,2.1.45,2.86,1.35.75.89,1.13,2.05,1.13,3.47v.34c0,1.24-.3,2.28-.92,3.13-.6.84-1.35,1.37-2.26,1.58-1.02.24-2.02.22-2.99-.07v-1.3c.77.29,1.59.32,2.46.09.62-.14,1.12-.53,1.52-1.15.4-.64.61-1.41.61-2.32v-.27c0-1.07-.27-1.93-.79-2.57-.52-.66-1.19-.99-2-.99h-.07c-.8,0-1.46.27-2,.81-.54.53-.85,1.15-.92,1.87l-.65,5.9h-1.58l.68-5.98c.07-.55.06-1.09-.03-1.6-.1-.52-.2-.88-.29-1.1-.1-.23-.26-.57-.49-1.03h1.59s.07.16.14.32c.07.16.13.28.16.36.04.08.08.2.13.36.06.14.1.29.12.45.04.16.07.32.09.5.3-.65.74-1.17,1.32-1.57.59-.41,1.28-.61,2.09-.61ZM1021.71,211h-8.87v-1.28h6.03v-4.57c0-.84-.22-1.48-.65-1.91-.42-.44-1.02-.67-1.8-.67h-3.26v-1.28h3.31c1.36,0,2.36.34,3.01,1.03.65.67.97,1.72.97,3.15v4.25h1.26v1.28Z"/>
  <path class="cls-1" d="M886.56,243h-1.58v-5.85c0-.84-.22-1.48-.65-1.91-.42-.44-1.02-.67-1.8-.67h-3.11v-1.28h3.17c1.36,0,2.36.34,3.01,1.03.65.67.97,1.72.97,3.15v5.53ZM891.28,239.22h-1.58v-3.96c0-.46-.25-.68-.74-.68h-.63v-1.28h.59c.89,0,1.5.13,1.84.38.35.24.52.78.52,1.62v3.92ZM900.49,237.22l.36-3.92h1.58l-.25,3.06c-.08.98-.2,1.83-.36,2.54-.14.71-.35,1.31-.63,1.8s-.58.89-.9,1.19-.75.53-1.28.7c-.53.17-1.07.28-1.64.34-.55.05-1.24.07-2.07.07h-1.66v-1.28h1.64c.44,0,.92-.01,1.42-.04-.53-.7-.94-1.6-1.24-2.7l-1.64-5.69h1.62l1.58,5.49c.35,1.16.7,2.06,1.04,2.7.78-.22,1.34-.63,1.67-1.24.35-.61.59-1.62.74-3.02ZM912.33,233.3l-.07,1.53c-.05.96-.31,1.77-.79,2.43-.47.65-1.07,1.14-1.8,1.48l2.43,3.35v.92h-7.7v-1.28h5.67l-3.76-4.99c-1.02-1.42-1.59-2.49-1.71-3.22l-.02-.22h1.58l.02.07c.13.52.65,1.42,1.57,2.72l1.28,1.75c.48-.2.87-.55,1.17-1.04.31-.49.47-1.06.49-1.69l.07-1.8h1.58ZM914.33,233.3h4.9c1.36,0,2.36.34,3.01,1.03.65.67.97,1.72.97,3.15v5.53h-1.58v-5.85c0-.84-.22-1.48-.65-1.91-.42-.44-1.02-.67-1.8-.67h-4.84v-1.28ZM914.44,237.56h1.58v5.44h-1.58v-5.44ZM936.84,233.3v1.3l-3.55,8.41-1.64-.02,3.56-8.41h-5.9v-3.64h1.58v2.36h5.94ZM941.59,239.22h-1.58v-3.96c0-.46-.25-.68-.74-.68h-.63v-1.28h.59c.89,0,1.5.13,1.84.38.35.24.52.78.52,1.62v3.92ZM943.19,243.07h-.27v-1.37h.23c.64,0,1.27-.23,1.89-.7.64-.47,1.01-1.01,1.12-1.62l.02-3.4c0-.47-.09-.82-.27-1.04-.17-.24-.48-.36-.94-.36h-.94v-1.28h1.13c.96,0,1.63.2,2.02.61.38.41.58,1.11.58,2.11v3.82l.52,3.17h-1.49l-.38-2.39h-.09c-.16.56-.55,1.12-1.19,1.66-.64.54-1.28.81-1.94.81ZM950.59,233.3h4.9c1.36,0,2.36.34,3.01,1.03.65.67.97,1.72.97,3.15v5.53h-1.58v-5.85c0-.84-.22-1.48-.65-1.91-.42-.44-1.02-.67-1.8-.67h-4.84v-1.28ZM950.7,237.56h1.58v5.44h-1.58v-5.44ZM966.28,233.3h4.59c1.36,0,2.36.34,3.01,1.03.65.67.97,1.72.97,3.15v5.53h-1.58v-5.85c0-.84-.22-1.48-.65-1.91-.42-.44-1.02-.67-1.8-.67h-2.93v8.42h-1.6v-9.7ZM984.48,233.3v1.3l-3.55,8.41-1.64-.02,3.56-8.41h-5.9v-3.64h1.58v2.36h5.94ZM990.49,243.25c-.77.01-1.55-.06-2.36-.22-.79-.14-1.44-.32-1.94-.52v-1.37c.43.24,1.02.45,1.76.63.74.17,1.49.25,2.25.23,1.1-.02,2-.39,2.68-1.1.7-.72,1.04-1.64,1.04-2.75s-.31-2.03-.94-2.72c-.62-.7-1.47-1.04-2.54-1.04-.78,0-1.43.19-1.96.56-.52.37-.79.85-.81,1.42-.01.56.17,1.01.54,1.35.38.34.92.49,1.62.45v1.17c-1.14.06-2.05-.18-2.72-.72-.66-.54-.99-1.27-.99-2.2.01-.97.43-1.76,1.26-2.38s1.88-.92,3.17-.92c1.51,0,2.72.46,3.62,1.37.9.91,1.35,2.11,1.35,3.6s-.47,2.71-1.4,3.65c-.92.95-2.14,1.45-3.64,1.49ZM863.95,253.3h6.48c1.36,0,2.36.34,3.01,1.03.65.67.97,1.72.97,3.15v5.53h-1.58v-5.85c0-.84-.22-1.48-.65-1.91-.42-.44-1.02-.67-1.8-.67h-2.81v6.14c0,1.63-.82,2.45-2.45,2.45-.53,0-.98-.04-1.35-.13v-1.19c.26.05.56.07.88.07.44,0,.77-.09.99-.27.23-.18.34-.51.34-.99v-6.08h-2.03v-1.28ZM876.46,253.3h.7c.88,0,1.47.12,1.78.36.31.24.47.79.47,1.64v7.7h-1.58v-7.74c0-.25-.04-.43-.13-.52-.08-.11-.25-.16-.5-.16h-.74v-1.28ZM882.24,253.3h1.37c.88,0,1.49.2,1.84.59.35.38.53,1.05.56,2v7.11h-4.27v-1.28h2.68v-5.94c0-.8-.31-1.21-.94-1.21h-1.24v-1.28ZM897.78,257.83v-4.55h1.58v4.54c0,1.52-.49,2.8-1.48,3.83-.97,1.02-2.26,1.53-3.85,1.53h-.23c-1.52,0-2.78-.5-3.76-1.51-.97-1.01-1.46-2.29-1.46-3.85v-4.54h1.6v4.55c0,.19,0,.33.02.41h.43c.82,0,1.45-.2,1.89-.59.44-.4.67-.97.67-1.73v-2.65h1.58v2.57c0,1-.35,1.8-1.06,2.41-.7.61-1.67.92-2.93.92h-.43c.22.88.64,1.55,1.26,2.02.64.46,1.37.68,2.2.68h.25c1.12,0,2.02-.35,2.7-1.06.68-.71,1.03-1.7,1.03-2.99ZM902.19,251.26v-1.39c.91.24,1.72.62,2.41,1.15.71.53,1.27,1.15,1.67,1.87.41.71.71,1.46.9,2.27.2.8.31,1.64.31,2.52,0,1.15-.17,2.24-.52,3.26-.34,1.01-.91,1.93-1.73,2.75-.82.84-1.83,1.41-3.04,1.71v-1.37c1.25-.38,2.2-1.17,2.86-2.36.66-1.2.99-2.53.99-4s-.33-2.88-.99-4.07c-.65-1.19-1.6-1.97-2.86-2.36ZM914.35,253.3h4.9c1.36,0,2.36.34,3.01,1.03.65.67.97,1.72.97,3.15v5.53h-1.58v-5.85c0-.84-.22-1.48-.65-1.91-.42-.44-1.02-.67-1.8-.67h-4.84v-1.28ZM914.46,257.56h1.58v5.44h-1.58v-5.44ZM928.02,259.22h-1.58v-3.96c0-.46-.25-.68-.74-.68h-.63v-1.28h.59c.89,0,1.5.13,1.84.38.35.24.52.78.52,1.62v3.92ZM933.22,259.22h-1.58v-3.96c0-.46-.25-.68-.74-.68h-.63v-1.28h.59c.89,0,1.5.13,1.84.38.35.24.52.78.52,1.62v3.92ZM940.28,253.05c1.48,0,2.63.44,3.46,1.33.84.88,1.26,2.11,1.26,3.69v.14c0,1.58-.42,2.82-1.26,3.71-.83.88-1.98,1.31-3.46,1.31s-2.59-.44-3.4-1.31c-.82-.88-1.22-2.1-1.22-3.67v-.22c0-1.56.41-2.78,1.22-3.65.82-.89,1.95-1.33,3.4-1.33ZM943.41,258.28v-.27c0-1.15-.28-2.05-.85-2.7-.55-.65-1.31-.97-2.27-.97s-1.7.32-2.25.97c-.54.65-.81,1.55-.81,2.7v.27c0,1.15.27,2.05.81,2.7.55.64,1.3.95,2.25.95s1.72-.32,2.27-.97c.56-.65.85-1.54.85-2.68ZM946.49,253.3h.7c.88,0,1.47.12,1.78.36.31.24.47.79.47,1.64v7.7h-1.58v-7.74c0-.25-.04-.43-.13-.52-.08-.11-.25-.16-.5-.16h-.74v-1.28ZM959.13,253.3v1.3l-3.55,8.41-1.64-.02,3.56-8.41h-5.9v-3.64h1.58v2.36h5.94ZM964.11,263.23c-1.21.06-2.26-.11-3.15-.5v-1.39c.84.43,1.74.63,2.7.59.98-.04,1.78-.38,2.38-1.03.6-.65.9-1.54.9-2.68s-.3-2.05-.9-2.68c-.6-.65-1.39-1-2.38-1.04-.94-.02-1.84.16-2.7.56v-1.35c1.01-.41,2.06-.57,3.15-.49,1.33.1,2.4.59,3.2,1.49.82.89,1.22,2.06,1.22,3.51s-.41,2.62-1.22,3.53c-.82.9-1.88,1.39-3.2,1.48ZM969.94,253.3h.7c.88,0,1.47.12,1.78.36.31.24.47.79.47,1.64v7.7h-1.58v-7.74c0-.25-.04-.43-.13-.52-.08-.11-.25-.16-.5-.16h-.74v-1.28ZM984.97,253.3l-.59,2.65c-.38,1.7-1.22,2.74-2.52,3.11l2.93,3.94h-1.89l-3.98-5.33c-.54.13-1,.45-1.39.95-.37.49-.56,1.16-.56,2.02v2.36h-1.58v-2.12c0-1.09.28-1.99.83-2.7.56-.72,1.25-1.18,2.07-1.37l-2.63-3.51h1.89l3.58,4.81c.84-.29,1.4-1.03,1.67-2.23l.54-2.57h1.62ZM995.71,263h-8.87v-1.28h6.03v-4.57c0-.84-.22-1.48-.65-1.91-.42-.44-1.02-.67-1.8-.67h-3.26v-1.28h3.31c1.36,0,2.36.34,3.01,1.03.65.67.97,1.72.97,3.15v4.25h1.26v1.28ZM948.8,269.88v1.39c-1.26.38-2.22,1.17-2.88,2.36-.65,1.19-.97,2.54-.97,4.07s.33,2.8.99,4c.66,1.19,1.61,1.97,2.86,2.36v1.37c-1.21-.3-2.23-.87-3.04-1.71-.82-.83-1.4-1.75-1.75-2.75-.34-1.02-.5-2.11-.5-3.26,0-.88.1-1.72.29-2.52.2-.8.51-1.56.92-2.27.41-.72.96-1.34,1.66-1.87.71-.53,1.52-.91,2.43-1.15ZM952.32,273.23c.62-.53,1.41-.79,2.36-.79s1.72.28,2.32.83c.61.54.92,1.24.92,2.09v.04c0,.47-.14.95-.41,1.46-.28.49-.75,1.1-1.42,1.84l-2.74,3.01h4.91v1.31h-7.09v-1.08l3.76-3.92c.59-.61.97-1.1,1.15-1.46.19-.36.29-.71.29-1.06,0-.47-.17-.86-.5-1.19-.32-.34-.76-.5-1.31-.5-.95,0-1.61.57-2,1.71h-1.42c.18-1,.58-1.75,1.19-2.27ZM961.09,274.02c.76-1,1.82-1.49,3.19-1.49s2.43.5,3.19,1.49c.77,1,1.15,2.29,1.15,3.87v.04c0,1.58-.38,2.87-1.15,3.87-.76,1-1.82,1.49-3.19,1.49s-2.43-.5-3.19-1.49c-.76-1-1.13-2.29-1.13-3.87v-.04c0-1.58.38-2.87,1.13-3.87ZM966.33,274.95c-.49-.78-1.18-1.17-2.07-1.17s-1.57.38-2.05,1.15c-.48.76-.72,1.73-.72,2.93v.04c0,1.19.25,2.17.74,2.95s1.18,1.17,2.07,1.17,1.57-.38,2.05-1.15c.49-.77.74-1.75.74-2.95v-.02c0-1.2-.25-2.18-.76-2.95ZM971.01,276.95h5.09v1.4h-5.09v-1.4ZM978.6,272.65h6.1v1.01l-2.61,2.9c.98.06,1.76.39,2.34.99.58.59.86,1.35.86,2.29v.05c0,1-.35,1.81-1.06,2.45-.7.64-1.55.95-2.57.95-.9,0-1.67-.21-2.3-.63-.62-.43-1.02-1.13-1.19-2.11h1.4c.3.96.97,1.44,2.02,1.44.65,0,1.18-.2,1.6-.61.42-.42.63-.94.63-1.55v-.07c0-.7-.25-1.24-.74-1.62-.48-.38-1.12-.58-1.91-.58h-.99l.13-.72,2.52-2.9h-4.23v-1.3ZM988.12,274.02c.76-1,1.82-1.49,3.19-1.49s2.43.5,3.19,1.49c.77,1,1.15,2.29,1.15,3.87v.04c0,1.58-.38,2.87-1.15,3.87-.76,1-1.82,1.49-3.19,1.49s-2.43-.5-3.19-1.49-1.13-2.29-1.13-3.87v-.04c0-1.58.38-2.87,1.13-3.87ZM993.36,274.95c-.49-.78-1.18-1.17-2.07-1.17s-1.57.38-2.05,1.15c-.48.76-.72,1.73-.72,2.93v.04c0,1.19.25,2.17.74,2.95.49.78,1.18,1.17,2.07,1.17s1.57-.38,2.05-1.15c.49-.77.74-1.75.74-2.95v-.02c0-1.2-.25-2.18-.76-2.95Z"/>
  <path class="cls-1" d="M1022.5,237s-5.69-.55-7-7c-1.24,6.59-7,7-7,7,0,0,6.38,1.58,7,7,1.03-5.49,7-7,7-7Z"/>
  <path class="cls-1" d="M897.09,301.3h4.9c1.36,0,2.36.34,3.01,1.03.65.67.97,1.72.97,3.15v5.53h-1.58v-5.85c0-.84-.22-1.48-.65-1.91-.42-.44-1.02-.67-1.8-.67h-4.84v-1.28ZM897.19,305.56h1.58v5.44h-1.58v-5.44ZM908.25,301.3h4.9c1.36,0,2.36.34,3.01,1.03.65.67.97,1.72.97,3.15v5.53h-1.58v-5.85c0-.84-.22-1.48-.65-1.91-.42-.44-1.02-.67-1.8-.67h-4.84v-1.28ZM908.35,305.56h1.58v5.44h-1.58v-5.44ZM922.36,311.23c-1.21.06-2.26-.11-3.15-.5v-1.39c.84.43,1.74.63,2.7.59.98-.04,1.78-.38,2.38-1.03.6-.65.9-1.54.9-2.68s-.3-2.05-.9-2.68c-.6-.65-1.39-1-2.38-1.04-.94-.02-1.84.16-2.7.56v-1.35c1.01-.41,2.06-.57,3.15-.49,1.33.1,2.4.59,3.2,1.49.82.89,1.22,2.06,1.22,3.51s-.41,2.62-1.22,3.53c-.82.9-1.88,1.39-3.2,1.48ZM939.72,311h-1.58v-5.85c0-.84-.22-1.48-.65-1.91-.42-.44-1.02-.67-1.8-.67h-3.11v-1.28h3.17c1.36,0,2.36.34,3.01,1.03.65.67.97,1.72.97,3.15v5.53ZM941.76,301.3h.7c.88,0,1.47.12,1.78.36.31.24.47.79.47,1.64v7.7h-1.58v-7.74c0-.25-.04-.43-.13-.52-.08-.11-.25-.16-.5-.16h-.74v-1.28ZM953.93,305.22l.36-3.92h1.58l-.25,3.06c-.08.98-.2,1.83-.36,2.54-.14.71-.35,1.31-.63,1.8-.28.49-.58.89-.9,1.19-.32.3-.75.53-1.28.7-.53.17-1.07.28-1.64.34-.55.05-1.24.07-2.07.07h-1.66v-1.28h1.64c.44,0,.92-.01,1.42-.04-.53-.7-.94-1.6-1.24-2.7l-1.64-5.69h1.62l1.58,5.49c.35,1.16.7,2.06,1.04,2.7.78-.22,1.34-.63,1.67-1.24.35-.61.59-1.62.74-3.02ZM964.97,307.22h-1.58v-3.96c0-.46-.25-.68-.74-.68h-.63v-1.28h.59c.89,0,1.5.13,1.84.38.35.24.52.78.52,1.62v3.92ZM974.33,301.3v1.3l-3.55,8.41-1.64-.02,3.56-8.41h-5.9v-3.64h1.58v2.36h5.94ZM982.92,305.22l.36-3.92h1.58l-.25,3.06c-.08.98-.2,1.83-.36,2.54-.14.71-.35,1.31-.63,1.8-.28.49-.58.89-.9,1.19-.32.3-.75.53-1.28.7s-1.07.28-1.64.34c-.55.05-1.24.07-2.07.07h-1.66v-1.28h1.64c.44,0,.92-.01,1.42-.04-.53-.7-.94-1.6-1.24-2.7l-1.64-5.69h1.62l1.58,5.49c.35,1.16.7,2.06,1.04,2.7.78-.22,1.34-.63,1.67-1.24.35-.61.59-1.62.74-3.02ZM995.71,311h-8.87v-1.28h6.03v-4.57c0-.84-.22-1.48-.65-1.91-.42-.44-1.02-.67-1.8-.67h-3.26v-1.28h3.31c1.36,0,2.36.34,3.01,1.03.65.67.97,1.72.97,3.15v4.25h1.26v1.28Z"/>
  <path class="cls-1" d="M1022.5,305s-5.69-.55-7-7c-1.24,6.59-7,7-7,7,0,0,6.38,1.58,7,7,1.03-5.49,7-7,7-7Z"/>
  <path class="cls-1" d="M961.29,329.3h4.75c1.55,0,2.6.35,3.17,1.04.58.68.86,1.87.86,3.56v5.09h-8.78v-9.7ZM965.98,330.58h-3.11v7.15h5.62v-4.14c0-1.13-.17-1.91-.52-2.34-.34-.44-1-.67-1.98-.67ZM975.3,335.22h-1.58v-3.96c0-.46-.25-.68-.74-.68h-.63v-1.28h.59c.89,0,1.5.13,1.84.38.35.24.52.78.52,1.62v3.92ZM987.09,333.83v-4.55h1.58v4.54c0,1.52-.49,2.8-1.48,3.83-.97,1.02-2.26,1.53-3.85,1.53h-.23c-1.52,0-2.78-.5-3.76-1.51-.97-1.01-1.46-2.29-1.46-3.85v-4.54h1.6v4.55c0,.19,0,.33.02.41h.43c.82,0,1.45-.2,1.89-.59.44-.4.67-.97.67-1.73v-2.65h1.58v2.57c0,1-.35,1.8-1.06,2.41-.7.61-1.67.92-2.93.92h-.43c.22.88.64,1.55,1.26,2.02.64.46,1.37.68,2.2.68h.25c1.12,0,2.02-.35,2.7-1.06.68-.71,1.03-1.7,1.03-2.99ZM991.4,329.3h1.37c.88,0,1.49.2,1.84.59.35.38.53,1.05.56,2v7.11h-4.27v-1.28h2.68v-5.94c0-.8-.31-1.21-.94-1.21h-1.24v-1.28Z"/>
  <path class="cls-1" d="M1022.5,333s-5.69-.55-7-7c-1.24,6.59-7,7-7,7,0,0,6.38,1.58,7,7,1.03-5.49,7-7,7-7Z"/>
  <path class="cls-2" d="M.5,390c973.82,0,1190.72,0,1177.44,0"/>
</svg>