<svg width="34" height="24" viewBox="0 0 34 24" fill="none" xmlns="http://www.w3.org/2000/svg">
<path d="M17.7163 0.00206876C17.7849 0.000588428 17.8234 0.0865729 17.7782 0.138834C17.0444 0.988082 16.7501 2.656 16.6595 4.73253V19.3844C16.6595 21.1363 14.7151 24.0866 11.4061 23.9961C11.3453 23.9944 11.3118 23.9236 11.3472 23.8737C12.8429 21.762 12.6396 19.3844 12.6396 19.3844L12.6217 4.73253C12.6681 3.76664 13.1003 0.101639 17.7163 0.00206876Z" fill="#101212"/>
<path d="M6.38351 1.8116e-05C6.45212 -0.001433 6.49061 0.0846295 6.44546 0.136882C5.7117 0.986126 5.41733 2.65396 5.32673 4.73046V10.8735C6.03665 10.1932 7.21713 9.54173 10.0676 10.1696C10.1558 10.189 10.1388 10.3427 10.0491 10.3524C7.59075 10.6185 5.32675 12.9757 5.32673 14.7133V19.3824C5.32672 21.0986 3.38221 24.0838 0.073237 23.9942C0.0124951 23.9926 -0.0209318 23.9217 0.0144444 23.8718C1.50764 21.7636 1.30743 19.3902 1.30677 19.3824L1.28896 4.73046C1.33536 3.76447 1.76764 0.0995872 6.38351 1.8116e-05Z" fill="#101212"/>
<path d="M27.0637 0.0325287C31.7027 0.00206876 34.8311 4.42954 32.0744 7.14714C32.0232 7.19762 31.9374 7.1523 31.9446 7.08037C32.2747 3.81287 27.5676 1.38462 25.2728 3.45097C25.27 3.45407 25.2673 3.45753 25.265 3.46108C24.5401 4.58718 24.4104 5.89135 25.2685 6.94549C26.4269 8.36868 30.1966 11.7747 30.1966 11.7747C30.1966 11.7747 33.8006 14.7994 33.9856 17.3428C34.2268 20.6609 31.4308 23.9085 26.304 23.9983C19.9923 24.1074 16.8013 19.065 21.6515 16.1149C21.7154 16.076 21.7927 16.1458 21.7632 16.215C20.4116 19.3844 26.9383 21.9841 29 19.3844C31.5135 16.215 25.9852 13.5362 23.6946 11.1902C22.7327 10.205 20.3499 8.35046 20.2074 6.39062C19.9662 3.07261 23.8748 0.0534671 27.0637 0.0325287Z" fill="#101212"/>
</svg>
