<svg width="310" height="432" viewBox="0 0 310 432" fill="none" xmlns="http://www.w3.org/2000/svg">
<path d="M4.82536 209.892C27.7082 225.368 163.83 276.822 106.988 431.746C154.91 349.592 142.655 322.511 161.777 317.866C179.727 308.79 215.751 379.83 210.166 417.879C228.004 369.933 181.447 322.683 196.475 315.874C211.502 309.066 249.428 379.99 292.877 406.536C208.674 323.519 232.774 312.542 232.774 312.542C232.774 312.542 239.854 308.238 309.341 377.058C215.279 265.569 240.777 258.568 235.885 126.276C236.065 131.262 240.135 255.551 198.155 202.444C155.32 148.256 200.123 64.9616 213.6 4.97256C179.509 99.7549 155.89 158.097 136.51 166.205C121.006 172.692 36.9093 152.183 95.7228 31.326C16.4636 120.775 94.8204 208.324 87.225 219.554C74.1848 238.834 61.4997 228.826 4.82536 209.892Z" fill="#F8F4EE"/>
</svg>
