<svg width="32" height="24" viewBox="0 0 32 24" fill="none" xmlns="http://www.w3.org/2000/svg">
<path d="M25.9129 0.0249093C25.932 0.0179855 25.9839 0.00213083 26.0017 0.00173809C28.3221 -0.0489541 30.0876 1.01442 31.7179 2.50731C30.5318 4.82474 29.1939 7.0595 27.9982 9.42392C28.0201 6.99171 28.6009 3.85606 27.3723 1.6141C26.4021 -0.0876171 23.7784 0.245439 23.6308 2.34271C23.3083 6.90402 28.169 10.6408 30.4334 14.0671C34.4578 20.1558 30.156 24.9463 24.0038 23.8404C22.6879 23.4228 19.717 22.461 19.1909 20.9263C19.1868 20.3008 22.4446 14.9304 22.9147 14.4147C22.4146 17.8137 21.6206 21.4945 24.9741 23.5063C26.8462 23.6093 28.251 23.1205 27.9736 20.7875C27.304 15.1526 19.933 12.4193 19.6077 6.77435C19.3631 2.52683 22.1508 0.197932 25.9129 0.0249093Z" fill="#101212"/>
<path d="M0.24707 0.00165921L6.24707 0C6.24413 8.00015 6.21774 15.9999 6.24707 24L0.24707 23.9984V0.00165921Z" fill="#101212"/>
<path d="M8.52654 8C8.70012 9.65927 8.95758 10.4427 10 11.0502L9.98947 11.1488C9.84646 11.2354 9.35602 11.5184 9.25085 11.6408C8.82717 12.1337 8.60853 13.2275 8.5221 14C8.42886 13.8654 8.13796 12.0569 7.82953 11.7146C7.57503 11.4321 7.24831 11.2931 7 11.0112C7.05178 10.8938 7.20796 10.9523 7.40889 10.794C8.19686 10.1732 8.31055 9.26661 8.52654 8Z" fill="#101212"/>
<path d="M11.2513 0.00167447L16.2471 0V24L11.2513 23.9984C11.2534 15.9973 11.2408 8.00154 11.2513 0.00167447Z" fill="#101212"/>
</svg>
