<svg width="44" height="30" viewBox="0 0 44 30" fill="none" xmlns="http://www.w3.org/2000/svg">
<path d="M35.8699 0.0311366C35.8955 0.0224818 35.9648 0.00266354 35.9886 0.00217262C39.088 -0.0611926 41.4463 1.26802 43.6239 3.13414C42.0395 6.03092 40.2525 8.82437 38.6554 11.7799C38.6846 8.73964 39.4603 4.82007 37.8194 2.01762C36.5234 -0.109521 33.0187 0.306798 32.8216 2.92839C32.3908 8.63002 38.8835 13.301 41.9081 17.5839C47.2837 25.1948 41.5376 31.1829 33.3199 29.8005C31.5621 29.2785 27.5939 28.0763 26.8911 26.1579C26.8856 25.3761 31.2372 18.663 31.8651 18.0184C31.1971 22.2671 30.1366 26.8681 34.6159 29.3829C37.1166 29.5116 38.9931 28.9007 38.6225 25.9844C37.7281 18.9408 27.8823 15.5242 27.4479 8.46794C27.1211 3.15854 30.8448 0.247415 35.8699 0.0311366Z" fill="#F8F4EE"/>
<path d="M0 0.513755L6.51614 0.511719C6.51295 10.3306 6.48429 20.1489 6.51614 29.9677L0 29.9657V0.513755Z" fill="#F8F4EE"/>
<path d="M11.078 10.2397C11.4831 13.0052 12.0838 14.3109 14.5161 15.3234L14.4915 15.4878C14.1578 15.632 13.0135 16.1038 12.7681 16.3078C11.7795 17.1293 11.2694 18.9523 11.0677 20.2397C10.8501 20.0154 10.1713 17.0013 9.45168 16.4307C8.85785 15.96 8.09551 15.7282 7.51611 15.2584C7.63693 15.0627 8.00136 15.1602 8.47019 14.8964C10.3088 13.8617 10.5741 12.3508 11.078 10.2397Z" fill="#F8F4EE"/>
<path d="M15.5217 0.513774L22.03 0.511719V29.9677L15.5217 29.9657C15.5243 20.1458 15.508 10.3323 15.5217 0.513774Z" fill="#F8F4EE"/>
</svg>
