<svg width="313" height="438" viewBox="0 0 313 438" fill="none" xmlns="http://www.w3.org/2000/svg">
<path d="M0 210.149C23.4496 226.021 162.943 278.788 104.693 437.665C153.802 353.415 141.243 325.643 160.84 320.879C179.234 311.572 216.15 384.425 210.426 423.444C228.706 374.275 180.997 325.819 196.396 318.837C211.796 311.854 250.661 384.588 295.186 411.812C208.898 326.677 233.595 315.419 233.595 315.419C233.595 315.419 240.85 311.005 312.058 381.582C215.666 267.248 241.796 260.068 236.783 124.399C236.967 129.514 241.138 256.973 198.119 202.512C154.222 146.94 200.135 61.5201 213.945 0C179.01 97.2014 154.806 157.033 134.946 165.348C119.058 172 32.8786 150.968 93.1488 27.026C11.9265 118.758 92.2241 208.542 84.4406 220.058C71.0773 239.83 58.078 229.567 0 210.149Z" fill="#F8F4EE"/>
</svg>
