<svg width="208" height="431" viewBox="0 0 208 431" fill="none" xmlns="http://www.w3.org/2000/svg">
<path d="M104.783 414.168C111.127 395.975 92.9128 381.756 98.2747 369.177C99.9119 365.325 103.882 361.392 109.613 361.023C130.405 359.712 137.609 395.114 165.933 384.748C183.82 378.191 196.14 364.752 201.093 349.55C207.191 330.824 206.209 312.959 193.48 297.962C171.95 272.598 136.381 276.081 130.283 259.445C120.541 232.852 148.333 202.489 171.254 183.6C199.374 160.367 212.431 128.406 206.659 91.7743C202.403 64.9355 192.825 39.6947 172.605 21.1329C152.262 2.48917 125.616 -5.46003 98.6022 4.00525C76.5814 11.7086 58.6128 31.9094 52.1457 57.5599C32.5399 135.331 118.945 187.288 95.4505 229.574C78.3005 260.429 30.4525 250.717 0 227.976C23.0031 265.96 64.1385 265.059 84.7675 283.621C98.8477 296.323 100.894 316.278 90.4569 330.332C79.0782 345.657 61.1505 348.034 43.7959 338.855L5.28004 311.156C4.50236 310.746 3.47908 310.787 2.78326 311.402L10.1508 319.884C29.5929 347.993 41.7494 378.806 53.4146 410.521C57.5486 421.748 67.372 429.329 77.1544 430.722C88.656 432.361 100.444 426.747 104.824 414.168H104.783Z" fill="#F8F4EE"/>
</svg>
