<svg width="254" height="368" viewBox="0 0 254 368" fill="none" xmlns="http://www.w3.org/2000/svg">
<path d="M253.124 282.255C237.712 188.941 167.588 213.619 191.091 67.0933C168.744 171.589 139.076 161.302 129.681 159.107C89.2857 149.666 94.1327 25.2566 118.602 0.431996C118.89 0.14666 119.04 0 119.04 0C118.893 0.140451 118.747 0.284465 118.602 0.431996C111.01 7.93535 7.28545 111.334 0.752594 165.42C-7.724 235.598 57.2935 280.267 100.735 236.435C119.87 217.128 125.089 194.725 144.084 194.725C163.079 194.725 161.423 224.416 139.076 271.073C121.06 308.686 145.942 362.7 183.675 367.726C214.309 371.806 260.972 329.769 253.124 282.255Z" fill="#F8F4EE"/>
</svg>
