<svg width="150" height="68" viewBox="0 0 150 68" fill="none" xmlns="http://www.w3.org/2000/svg">
<path d="M85.7121 49.7676C82.5075 50.7947 81.7853 53.1963 78.7913 56.4285C77.2266 58.1202 71.6299 64.1467 64.9348 64.192C58.5556 64.2222 53.6509 58.815 53.3651 58.4978C50.2357 54.9483 49.0922 50.3567 45.3159 48.1364C44.7592 47.8041 43.4503 47.064 41.6148 46.9281C41.6148 46.9281 39.8395 46.7921 38.0491 47.4567C35.1304 48.5442 32.4674 53.1056 31.8656 59.2077C32.0311 55.9905 31.9859 48.1213 26.5998 42.2911C25.6519 41.2792 24.3129 40.0557 21.5446 38.4396C17.7382 36.2193 10.7121 32.9115 0 32.0808C8.71113 30.8875 15.9629 29.5433 21.4242 28.4256C29.2778 26.8245 31.6249 26.0391 33.2648 23.7735C36.4544 19.4084 33.4754 14.4543 37.5075 10.3913C37.8987 9.9986 40.7422 7.14393 43.9318 8.01997C46.9258 8.85069 48.009 12.4304 48.1143 12.808C48.8214 6.69081 53.3952 3.26218 56.6148 3.94187C59.7743 4.60645 61.1434 9.09236 61.2036 9.31892C61.3992 8.23143 61.8355 6.63039 62.9488 5.04447C65.8224 0.95126 70.9077 0.331992 72.7281 0.120535C73.7362 -0.000297733 75.8274 -0.166442 78.3851 0.392409C79.9498 0.724699 83.8314 1.55542 86.5847 4.62155C89.7893 8.17101 88.4804 11.4033 92.0311 13.7746C92.5576 14.122 94.0019 15.0736 95.9578 15.0434C97.5375 15.0283 98.8164 14.409 99.8846 13.6538C104.428 10.4366 104.834 7.21945 108.22 5.01426C108.746 4.68197 111.996 2.62781 115.396 3.29239C122.889 4.77259 126.785 18.5928 127.778 26.2204C128.245 29.7698 127.884 30.4646 128.786 32.0506C133.21 39.8443 149.97 37.5484 150 38.7115C150.03 39.5422 141.499 37.9109 134.579 42.3969C126.484 47.638 128.2 56.3077 117.593 64.615C115.155 66.5181 112.838 67.817 109.995 67.9832C105.978 68.2097 101.886 66.1254 99.3129 63.1952C94.8896 58.1353 97.1012 53.015 92.8435 50.402C89.7743 48.514 86.1033 49.6317 85.7121 49.7676Z" fill="#101212"/>
</svg>
