<svg width="134" height="67" viewBox="0 0 134 67" fill="none" xmlns="http://www.w3.org/2000/svg">
<path d="M77.9895 60.046C53.4005 51.262 38.1669 61.388 15.896 67C15.896 67 49.4265 54.922 41.2302 43.21C33.0338 31.4979 15.536 47.5475 3.72565 36.988C-1.75224 32.0902 -0.70395 28.4823 3.72565 23.4459C12.216 13.7926 49.4265 3.3159 49.4265 3.3159C49.4265 3.3159 31.0468 16.567 40.2366 17.5899C49.4265 18.6129 59.3614 14.1129 63.8322 8.98891C68.3029 3.8649 69.7931 1.66889 79.4797 0.753893C89.1663 -0.161109 89.1663 6.24388 101.833 6.24386C114.501 6.24384 116.984 -5.24858 131.887 2.94983C146.789 11.1482 77.9895 47.602 77.9895 47.602C77.9895 47.602 94.3822 42.112 107.298 49.432C120.213 56.752 102.579 68.83 77.9895 60.046Z" fill="#101212"/>
</svg>
