<svg width="200" height="176" viewBox="0 0 200 176" fill="none" xmlns="http://www.w3.org/2000/svg">
<path d="M161.142 14C161.436 14.1325 161.718 14.3679 161.983 14.5519C162.481 16.7594 151.893 36.3439 149.796 39.3315C147.524 42.5692 144.744 45.5861 141.949 48.3787C139.751 50.5788 131.741 56.3184 131.224 59.0999L131.778 59.4531C136.475 59.1146 142.649 54.9645 147.249 53.2021C143.742 60.1779 136.402 66.1603 129.629 69.9904C124.027 73.1582 110.944 77.5181 108.5 83.8795C108.123 84.8618 108.138 85.6897 108.572 86.6058C113.622 88.9568 125.193 78.7359 129.256 76.1862C132.358 74.2399 135.557 72.5769 139.198 71.9146L139.559 72.2679C138.076 75.4504 129.097 80.8368 125.872 85.1672C126.429 85.3585 127.117 85.5572 127.621 85.87C128.452 86.3814 128.476 87.0252 128.604 87.8788C127.157 92.0768 109.276 96.1828 103.881 103.681C103.343 104.432 103.013 104.984 103.149 105.889C106.044 106.555 114.818 100.289 117.964 98.7583C120.219 97.6619 122.562 96.9113 124.961 96.2049C124.697 96.5655 124.419 96.9113 124.14 97.2608C120.399 101.941 114.246 104.616 110.252 109.222C109.359 110.252 108.477 111.341 108.579 112.743C110.418 113.957 114.228 112.033 116.307 111.82C117.096 111.735 117.189 111.654 117.8 112.151C117.722 113.413 116.791 114.237 116 115.16C109.756 122.887 113.358 124.185 111.164 131.79C105.674 164.387 16.4064 179.457 42.9034 130.86C45.1964 126.93 49.2837 124.513 52.0686 119.395C54.689 114.583 56.0547 109.027 57.9858 103.906C61.1861 95.4176 69.7422 82.8788 76.3675 76.6756C77.433 75.6785 78.3589 74.9647 79.8724 75.0163C80.1241 75.6344 80.1573 75.6822 79.8683 76.3224C77.942 80.5903 75.2214 83.8427 73.2751 88.7949C75.754 88.2762 77.5358 87.3122 79.5567 85.7964C82.7101 83.4307 92.2992 75.4872 92.8292 71.7601C92.3084 71.0721 91.7759 70.3915 91.2311 69.7218C90.1881 62.4149 115.672 54.9866 120.974 51.9328C125.057 49.5855 133.041 42.9334 135.673 39.118C135.719 38.3454 135.451 37.8597 135.126 37.1864L134.987 36.9032C135.296 33.6029 147.356 27.8927 150.292 25.3982C154.247 22.0317 157.688 17.8669 161.142 14Z" fill="#101212"/>
<path d="M138.998 94.6562L139.361 95.2248C139.362 95.901 139.273 96.3695 138.947 96.9679C135.573 103.171 127.252 108.083 120.816 110.203C120.781 110.126 120.736 110.055 120.712 109.975C120.417 108.973 120.72 108.41 121.14 107.513C124.176 101.017 132.607 97.0128 138.998 94.6562Z" fill="#101212"/>
</svg>
