<svg width="303" height="511" viewBox="0 0 303 511" fill="none" xmlns="http://www.w3.org/2000/svg">
<path d="M282.124 353.755C266.712 260.441 196.588 285.119 220.091 138.593C197.744 243.089 168.076 232.802 158.681 230.607C118.286 221.166 123.133 96.7566 147.602 71.932C147.89 71.6467 148.04 71.5 148.04 71.5C147.893 71.6405 147.747 71.7845 147.602 71.932C140.01 79.4353 36.2854 182.834 29.7526 236.92C21.276 307.098 86.2935 351.767 129.735 307.935C148.87 288.628 154.089 266.225 173.084 266.225C192.079 266.225 190.423 295.916 168.076 342.573C150.06 380.186 174.942 434.2 212.675 439.226C243.309 443.306 289.972 401.269 282.124 353.755Z" fill="#F8F4EE"/>
</svg>
