<svg width="200" height="176" viewBox="0 0 200 176" fill="none" xmlns="http://www.w3.org/2000/svg">
<path d="M117.42 58.2307C109.453 62.4386 112.529 72.1907 107.334 79.3111C104.497 83.2013 101.357 83.0089 99.2863 86.7564C98.0722 88.951 99.8569 91.256 98.6694 95.1606C105.356 91.5232 101.795 86.5998 110.06 81.6849C108.892 84.0361 106.748 86.0183 105.824 88.6446C104.483 92.4503 105.821 96.1147 103.38 99.6893C94.0442 128.678 67.1306 115.963 77.997 103.139C83.4963 96.6494 92.7675 90.138 91.8159 81.6849C95.5218 76.4302 100.213 79.3347 103.338 73.9127C107.19 67.2325 108.479 58.9175 117.42 58.2307Z" fill="#101212"/>
</svg>
