<svg width="946" height="81" viewBox="0 0 946 81" fill="none" xmlns="http://www.w3.org/2000/svg">
<path d="M0.101378 40.3433L0.0103643 39.8549L-0.000426002 40.8296L0.101378 40.3433ZM40.9778 0.550505C40.9965 0.276879 40.7869 0.0400934 40.5095 0.0216357C40.2321 0.0031754 39.992 0.210027 39.9733 0.483656L40.4756 0.517081L40.9778 0.550505ZM40.3097 80.5497C40.3375 80.8226 40.5844 81.0215 40.861 80.9941C41.1376 80.9666 41.3393 80.7231 41.3114 80.4503L40.8105 80.5L40.3097 80.5497ZM0.101378 40.3433L0.192391 40.8317C19.4144 37.3462 29.6268 27.2907 35.0205 18.0864C37.7132 13.4913 39.2013 9.11568 40.0166 5.88787C40.4244 4.27348 40.6643 2.94467 40.8024 2.01699C40.8715 1.5531 40.9152 1.18935 40.9416 0.940166C40.9549 0.815572 40.9638 0.719601 40.9695 0.654064C40.9724 0.621293 40.9744 0.596127 40.9757 0.578795C40.9764 0.570128 40.9769 0.563415 40.9773 0.558692C40.9774 0.556332 40.9776 0.554465 40.9777 0.553099C40.9777 0.552418 40.9777 0.55177 40.9778 0.551424C40.9778 0.550905 40.9778 0.550505 40.4756 0.517081C39.9733 0.483656 39.9733 0.483509 39.9733 0.483487C39.9733 0.483645 39.9733 0.48375 39.9733 0.484066C39.9732 0.484703 39.9732 0.485839 39.973 0.487465C39.9728 0.49072 39.9724 0.495952 39.9719 0.503132C39.9707 0.517491 39.969 0.53964 39.9664 0.569354C39.9612 0.628788 39.9529 0.718478 39.9403 0.836637C39.9152 1.07296 39.8733 1.42308 39.8063 1.87267C39.6724 2.77195 39.4386 4.0685 39.0397 5.64775C38.2416 8.80722 36.7843 13.092 34.1488 17.5894C28.8862 26.5699 18.9115 36.4276 0.0103643 39.8549L0.101378 40.3433ZM40.8105 80.5C41.3114 80.4503 41.3114 80.4499 41.3113 80.4494C41.3113 80.449 41.3112 80.4484 41.3112 80.4477C41.311 80.4464 41.3108 80.4445 41.3106 80.4422C41.3101 80.4375 41.3094 80.4309 41.3084 80.4223C41.3065 80.4052 41.3037 80.3804 41.2998 80.348C41.292 80.2832 41.28 80.1883 41.2628 80.0651C41.2285 79.8187 41.1735 79.4588 41.0904 78.9996C40.924 78.0812 40.6448 76.7648 40.1923 75.1632C39.2875 71.9607 37.6882 67.6123 34.9085 63.0229C29.3423 53.8327 19.0531 43.6967 0.203181 39.857L0.101378 40.3433L-0.000426002 40.8296C18.5373 44.6057 28.6028 54.5481 34.0442 63.5323C36.7683 68.03 38.3361 72.2928 39.2225 75.4298C39.6655 76.9979 39.9379 78.2833 40.0992 79.1742C40.1799 79.6196 40.2328 79.9663 40.2654 80.2003C40.2817 80.3173 40.2929 80.406 40.3 80.4649C40.3035 80.4943 40.306 80.5162 40.3076 80.5304C40.3084 80.5375 40.3089 80.5427 40.3093 80.5459C40.3094 80.5476 40.3096 80.5487 40.3096 80.5493C40.3097 80.5496 40.3097 80.5497 40.3097 80.5499C40.3097 80.5499 40.3097 80.5497 40.8105 80.5Z" fill="#F8F4EE"/>
<path d="M41.1016 0.5H904.102" stroke="#F8F4EE" stroke-linecap="round"/>
<path d="M41.1016 80.5H904.102" stroke="#F8F4EE" stroke-linecap="round"/>
<path d="M944.811 40.3433L944.902 39.8549L944.913 40.8296L944.811 40.3433ZM903.934 0.550505C903.916 0.276879 904.125 0.0400934 904.403 0.0216357C904.68 0.0031754 904.92 0.210027 904.939 0.483656L904.437 0.517081L903.934 0.550505ZM904.602 80.5497C904.575 80.8226 904.328 81.0215 904.051 80.9941C903.775 80.9666 903.573 80.7231 903.601 80.4503L904.102 80.5L904.602 80.5497ZM944.811 40.3433L944.72 40.8317C925.498 37.3462 915.285 27.2907 909.892 18.0864C907.199 13.4913 905.711 9.11568 904.895 5.88787C904.488 4.27348 904.248 2.94467 904.11 2.01699C904.041 1.5531 903.997 1.18935 903.97 0.940166C903.957 0.815572 903.948 0.719601 903.943 0.654064C903.94 0.621293 903.938 0.596127 903.936 0.578795C903.936 0.570128 903.935 0.563415 903.935 0.558692C903.935 0.556332 903.935 0.554465 903.934 0.553099C903.934 0.552418 903.934 0.55177 903.934 0.551424C903.934 0.550905 903.934 0.550505 904.437 0.517081C904.939 0.483656 904.939 0.483509 904.939 0.483487C904.939 0.483645 904.939 0.48375 904.939 0.484066C904.939 0.484703 904.939 0.485839 904.939 0.487465C904.939 0.49072 904.94 0.495952 904.94 0.503132C904.941 0.517491 904.943 0.53964 904.946 0.569354C904.951 0.628788 904.959 0.718478 904.972 0.836637C904.997 1.07296 905.039 1.42308 905.106 1.87267C905.24 2.77195 905.473 4.0685 905.872 5.64775C906.67 8.80722 908.128 13.092 910.763 17.5894C916.026 26.5699 926.001 36.4276 944.902 39.8549L944.811 40.3433ZM904.102 80.5C903.601 80.4503 903.601 80.4499 903.601 80.4494C903.601 80.449 903.601 80.4484 903.601 80.4477C903.601 80.4464 903.601 80.4445 903.602 80.4422C903.602 80.4375 903.603 80.4309 903.604 80.4223C903.606 80.4052 903.608 80.3804 903.612 80.348C903.62 80.2832 903.632 80.1883 903.649 80.0651C903.684 79.8187 903.739 79.4588 903.822 78.9996C903.988 78.0812 904.267 76.7648 904.72 75.1632C905.625 71.9607 907.224 67.6123 910.004 63.0229C915.57 53.8327 925.859 43.6967 944.709 39.857L944.811 40.3433L944.913 40.8296C926.375 44.6057 916.309 54.5481 910.868 63.5323C908.144 68.03 906.576 72.2928 905.69 75.4298C905.247 76.9979 904.974 78.2833 904.813 79.1742C904.732 79.6196 904.679 79.9663 904.647 80.2003C904.63 80.3173 904.619 80.406 904.612 80.4649C904.609 80.4943 904.606 80.5162 904.605 80.5304C904.604 80.5375 904.603 80.5427 904.603 80.5459C904.603 80.5476 904.603 80.5487 904.602 80.5493C904.602 80.5496 904.602 80.5497 904.602 80.5499C904.602 80.5499 904.602 80.5497 904.102 80.5Z" fill="#F8F4EE"/>
</svg>
