<svg width="200" height="240" viewBox="0 0 200 240" fill="none" xmlns="http://www.w3.org/2000/svg">
<path d="M110.712 135.768C107.507 136.795 106.785 139.196 103.791 142.429C102.227 144.12 96.6299 150.147 89.9348 150.192C83.5556 150.222 78.6509 144.815 78.3651 144.498C75.2357 140.948 74.0922 136.357 70.3159 134.136C69.7592 133.804 68.4503 133.064 66.6148 132.928C66.6148 132.928 64.8395 132.792 63.0491 133.457C60.1304 134.544 57.4674 139.106 56.8656 145.208C57.0311 141.991 56.9859 134.121 51.5998 128.291C50.6519 127.279 49.3129 126.056 46.5446 124.44C42.7382 122.219 35.7121 118.911 25 118.081C33.7111 116.888 40.9629 115.543 46.4242 114.426C54.2778 112.825 56.6249 112.039 58.2648 109.774C61.4544 105.408 58.4754 100.454 62.5075 96.3913C62.8987 95.9986 65.7422 93.1439 68.9318 94.02C71.9258 94.8507 73.009 98.4304 73.1143 98.808C73.8214 92.6908 78.3952 89.2622 81.6148 89.9419C84.7743 90.6064 86.1434 95.0924 86.2036 95.3189C86.3992 94.2314 86.8355 92.6304 87.9488 91.0445C90.8224 86.9513 95.9077 86.332 97.7281 86.1205C98.7362 85.9997 100.827 85.8336 103.385 86.3924C104.95 86.7247 108.831 87.5554 111.585 90.6216C114.789 94.171 113.48 97.4033 117.031 99.7746C117.558 100.122 119.002 101.074 120.958 101.043C122.538 101.028 123.816 100.409 124.885 99.6538C129.428 96.4366 129.834 93.2195 133.22 91.0143C133.746 90.682 136.996 88.6278 140.396 89.2924C147.889 90.7726 151.785 104.593 152.778 112.22C153.245 115.77 152.884 116.465 153.786 118.051C158.21 125.844 174.97 123.548 175 124.711C175.03 125.542 166.499 123.911 159.579 128.397C151.484 133.638 153.2 142.308 142.593 150.615C140.155 152.518 137.838 153.817 134.995 153.983C130.978 154.21 126.886 152.125 124.313 149.195C119.89 144.135 122.101 139.015 117.843 136.402C114.774 134.514 111.103 135.632 110.712 135.768Z" fill="#101212"/>
</svg>
