<svg width="57" height="57" viewBox="0 0 57 57" fill="none" xmlns="http://www.w3.org/2000/svg">
<path d="M28.4237 54.4389C28.3176 53.949 28.1833 53.3843 28.0114 52.7589C27.3868 50.4865 26.2797 47.4021 24.3454 44.15C20.6933 38.0098 14.1034 31.2919 2.32148 28.3022C14.3631 25.436 20.9632 18.7047 24.556 12.5187C26.4561 9.24701 27.5114 6.13469 28.0922 3.83937C28.2389 3.25969 28.3556 2.73139 28.4478 2.26565C28.6385 2.83581 28.8729 3.50407 29.1577 4.24748C30.1075 6.72645 31.6047 10.0601 33.7946 13.4751C37.8259 19.7614 44.2388 26.3722 53.9423 28.372C44.1216 31.0166 37.703 37.607 33.6938 43.7149C31.5211 47.0251 30.0491 50.2022 29.1204 52.5517C28.8396 53.2621 28.6099 53.8979 28.4237 54.4389Z" stroke="#F8F4EE"/>
</svg>
