<svg width="303" height="535" viewBox="0 0 303 535" fill="none" xmlns="http://www.w3.org/2000/svg">
<path d="M151.783 461.168C158.127 442.975 139.913 428.756 145.275 416.177C146.912 412.325 150.882 408.392 156.613 408.023C177.405 406.712 184.609 442.114 212.933 431.748C230.82 425.191 243.14 411.752 248.093 396.55C254.191 377.824 253.209 359.959 240.48 344.962C218.95 319.598 183.381 323.081 177.283 306.445C167.541 279.852 195.333 249.489 218.254 230.6C246.374 207.367 259.431 175.406 253.659 138.774C249.403 111.935 239.825 86.6947 219.605 68.1329C199.262 49.4892 172.616 41.54 145.602 51.0053C123.581 58.7086 105.613 78.9094 99.1457 104.56C79.5399 182.331 165.945 234.288 142.45 276.574C125.3 307.429 77.4525 297.717 47 274.976C70.0031 312.96 111.138 312.059 131.768 330.621C145.848 343.323 147.894 363.278 137.457 377.332C126.078 392.657 108.151 395.034 90.7959 385.855L52.28 358.156C51.5024 357.746 50.4791 357.787 49.7833 358.402L57.1508 366.884C76.5929 394.993 88.7494 425.806 100.415 457.521C104.549 468.748 114.372 476.329 124.154 477.722C135.656 479.361 147.444 473.747 151.824 461.168H151.783Z" fill="#F8F4EE"/>
</svg>
