<svg width="200" height="240" viewBox="0 0 200 240" fill="none" xmlns="http://www.w3.org/2000/svg">
<path d="M24.9285 71.9731C16.9101 64.0729 16.6109 55.1752 22.9265 48.265C29.2818 41.3065 38.82 45.5716 45.7827 50.6572C52.8267 55.8063 50.8136 60.3057 60.6349 66.8688C70.4562 73.432 79.3188 64.5442 93.8282 75.2384C106.441 84.5366 98.3661 94.8884 112.425 107.272C123.553 117.073 137.386 98.9985 165.816 119.866C176.874 128.565 193.306 152.43 168.535 181.736C148.715 205.183 123.441 193.17 113.286 184.233C90.3196 161.886 101.245 141.215 89.5157 130.914C75.4569 118.53 70.4008 126.63 60.4471 117.866C48.1453 107.029 54.2221 97.7702 46.3308 86.6514C41.3026 77.0074 34.9575 81.848 24.9313 71.9777L24.9285 71.9731Z" fill="#101212"/>
</svg>
