<svg width="200" height="240" viewBox="0 0 200 240" fill="none" xmlns="http://www.w3.org/2000/svg">
<path d="M44.191 46.4899C49.6312 40.3292 58.4895 43.3412 64.0081 47.7238C84.4123 67.6238 151.71 143.728 151.71 143.728C151.584 143.671 151.452 143.616 151.326 143.557C151.71 143.728 52.6047 73.2322 46.6012 67.6238C40.7735 62.1798 38.387 53.069 44.191 46.4899Z" fill="black"/>
<path d="M16.728 93.875C21.1001 85.246 32.0493 86.0469 39.6025 89.4007C68.6188 106.013 167.392 172.73 167.392 172.73C167.232 172.702 167.066 172.677 166.906 172.648C167.392 172.73 34.1297 121.838 25.6646 117.231C17.4422 112.757 12.0648 103.089 16.728 93.875Z" fill="black"/>
<path d="M50.3374 160.523C52.3313 152.825 61.2534 151.521 67.8994 152.867C94.0839 161.032 185 196.979 185 196.979C184.867 196.985 184.73 196.995 184.596 197C185 196.979 69.1966 179.857 61.5996 177.667C54.2719 175.555 48.2436 168.623 50.3374 160.523Z" fill="black"/>
</svg>
