<svg width="200" height="240" viewBox="0 0 200 240" fill="none" xmlns="http://www.w3.org/2000/svg">
<path d="M110.99 146.546C86.4005 137.762 71.1669 147.888 48.896 153.5C48.896 153.5 82.4265 141.422 74.2302 129.71C66.0338 117.998 48.536 134.047 36.7257 123.488C31.2478 118.59 32.2961 114.982 36.7257 109.946C45.216 100.293 82.4265 89.8159 82.4265 89.8159C82.4265 89.8159 64.0468 103.067 73.2366 104.09C82.4265 105.113 92.3614 100.613 96.8322 95.4889C101.303 90.3649 102.793 88.1689 112.48 87.2539C122.166 86.3389 122.166 92.7439 134.833 92.7439C147.501 92.7438 149.984 81.2514 164.887 89.4498C179.789 97.6482 110.99 134.102 110.99 134.102C110.99 134.102 127.382 128.612 140.298 135.932C153.213 143.252 135.579 155.33 110.99 146.546Z" fill="#101212"/>
</svg>
