<svg width="972" height="188" viewBox="0 0 972 188" fill="none" xmlns="http://www.w3.org/2000/svg">
<path d="M217.268 0.80957C206.4 18.7794 187.942 41.3711 154.462 50.873C121.275 60.292 73.4348 56.8184 3.76758 23.4336C15.5737 33.0264 23.9118 41.2666 29.2314 48.5703C35.0577 56.5697 37.2993 63.4974 36.4482 69.877C35.598 76.2503 31.676 81.9598 25.4365 87.5576C19.6189 92.777 11.7384 97.942 2.3252 103.494C12.326 102.486 22.9613 103.912 32.3154 107.094C42.4111 110.528 51.0771 116.029 55.8281 122.79C58.2081 126.177 59.6115 129.89 59.7021 133.817C59.7927 137.746 58.5681 141.849 55.7588 146.011C50.4588 153.862 39.5017 161.948 20.9492 169.597C39.5414 167.635 61.3468 164.301 84.6729 161.144C109.476 157.786 135.981 154.631 162.097 153.555C214.159 151.409 264.82 157.514 297.378 186.896C347.563 161.191 373.747 154.885 400.7 157.644C414.18 159.023 427.835 162.668 444.745 167.243C461.634 171.812 481.8 177.318 508.357 182.46C560.505 161.924 632.446 155.568 697.427 158.146C729.952 159.437 760.752 162.966 786.474 168.082C811.783 173.116 832.226 179.695 844.555 187.221C847.249 177.37 854.174 170.565 863.658 166.025C873.34 161.392 885.712 159.101 899.065 158.312C923.145 156.887 950.541 160.337 971.397 163.877C970.865 163.659 970.313 163.429 969.745 163.184C966.214 161.659 962.007 159.615 957.688 157.243C949.069 152.509 939.94 146.44 934.874 140.578C932.349 137.657 930.757 134.699 930.854 131.925C930.954 129.092 932.801 126.633 936.703 124.711C940.596 122.793 946.62 121.357 955.3 120.567C962.713 119.893 972.091 119.689 983.78 120.072C961.548 114.656 943.619 100.032 935.778 82.2324C931.5 72.5215 930.226 61.8639 932.904 51.2568C935.419 41.2972 941.411 31.413 951.617 22.415C892.904 42.8265 828.552 50.4562 778.612 46.5586C753.287 44.582 731.63 39.6382 716.286 31.8652C701.369 24.3083 692.322 14.0172 691.834 1.10449C666.875 23.4817 632.202 32.3251 601.78 31.1436C586.4 30.5462 572.081 27.3866 560.63 22.0977C549.488 16.9517 541.019 9.76622 536.974 0.920898C533.204 5.12556 526.611 9.21868 517.886 13.0625C508.729 17.0966 497.167 20.8823 483.922 24.2432C457.43 30.9652 424.163 35.9983 389.844 37.9111C355.526 39.8239 320.136 38.6177 289.404 32.8506C258.98 27.1412 233.048 16.946 217.268 0.80957Z" fill="#F8F4EE" stroke="#101212"/>
</svg>
