<svg width="1020" height="246" viewBox="0 0 1020 246" fill="none" xmlns="http://www.w3.org/2000/svg">
<path d="M845.43 245.058C853.02 233.267 872.278 211.441 901.509 197.853C930.433 184.407 969.099 179.037 1015.82 199.391C997.091 185.068 985.47 166.227 984.249 146.941C982.974 126.803 993.047 106.309 1017.93 90.0928C1001.14 91.7822 988.901 89.1116 980.298 83.8193C971.328 78.3016 966.369 69.9721 964.311 60.9209C962.254 51.8787 963.088 42.1086 965.7 33.6543C967.924 26.4568 971.453 20.1635 975.636 16.0771C944.411 28.018 899.445 38.6492 854.393 39.3984C808.157 40.1673 761.737 30.5293 730.022 1.10938C681.136 26.8323 659.195 33.1648 636.497 30.3975C625.154 29.0145 613.636 25.3595 598.513 20.7812C583.405 16.2078 564.649 10.6964 538.765 5.54883C487.895 26.1157 410.927 32.4767 340.764 29.8955C305.64 28.6034 272.2 25.0698 244.562 19.9473C217.388 14.9106 195.761 8.32657 183.673 0.789062C181.044 10.6441 174.294 17.4566 165.045 22.0029C155.601 26.6448 143.532 28.9385 130.51 29.7295C105.751 31.2334 77.3972 27.3087 56.7148 23.5762C57.5259 24.2492 58.3365 25.1086 59.123 26.1133C60.9059 28.3907 62.6372 31.4987 64.0605 35.1445C66.9067 42.4349 68.5476 51.9447 66.8545 61.3965C65.1588 70.8625 60.1193 80.2585 49.6357 87.2773C39.5886 94.004 24.5782 98.5201 2.79395 98.875C65.2205 122.056 81.987 183.287 59.1338 225.146C101.921 201.886 157.917 193.835 203.421 198.06C226.445 200.197 246.825 205.479 261.466 213.557C275.693 221.406 284.587 231.953 285.073 244.88C297.374 233.7 317.414 223.967 340.778 216.647C364.681 209.159 392.117 204.179 418.422 202.765C444.721 201.351 469.928 203.499 489.356 210.299C508.286 216.924 521.823 228.005 525.413 244.593C534.269 229.584 554.445 215.967 580.628 205.436C607.515 194.62 640.832 187.018 675 184.504C709.166 181.99 744.211 184.564 774.543 194.127C804.602 203.604 830.065 219.958 845.43 245.058Z" fill="#F8F4EE" stroke="#101212"/>
</svg>
