<svg width="345" height="915" viewBox="0 0 345 915" fill="none" xmlns="http://www.w3.org/2000/svg">
<path d="M75.308 0.462345C84.3016 -0.597404 91.5191 5.88162 94.1345 8.22925L94.1358 8.23053C99.364 12.9235 101.031 17.4545 109.544 38.0468C112.703 45.6768 115.23 51.7372 116.636 55.0789C115.957 51.802 112.253 32.5038 124.218 17.9961C131.626 9.02299 146.205 0.463405 154.411 5.77122C161.21 10.173 160.95 22.3654 160.895 24.7688C160.761 30.9262 158.833 35.2875 155.516 42.5534C153.068 47.926 149.151 55.4596 143.046 63.8503C155.311 52.2474 166.526 44.0748 174.802 38.6213C192.792 26.7761 199.671 25.9591 205.16 26.8813C211.754 27.9898 220.388 32.3023 221.833 38.8401C223.775 47.6271 212.742 60.4833 192.699 67.2718C202.112 72.8872 207.277 79.1264 210.247 83.7384C215.459 91.8376 215.791 97.8654 222.077 103.456C227.266 108.068 233.355 109.574 237.525 110.148C235.006 112.956 232.565 114.089 229.832 115.626C227.305 117.026 225.387 120.399 227.566 122.721L232.187 127.585C222.757 128.904 220.45 130.304 220.387 131.436C220.34 132.317 221.648 133.255 223.72 134.74L223.728 134.745C225.363 135.91 226.879 136.664 228.001 137.133C226.255 137.667 224.06 138.67 223.16 140.717C221.47 144.56 225.978 148.42 224.809 153.226C219.936 173.196 186.435 158.571 176.593 153.226C176.681 153.314 199.399 175.914 210.515 171.337C210.516 187.094 238.826 191.377 246.154 193.73C265.372 193.775 279.054 206.534 286.914 226.834C301.873 265.478 287.715 292.443 292.202 332.391C294.398 344.892 313.28 353.897 317.599 382.16C323.58 421.296 312.136 442.477 308.959 468.377L310.465 468.056L331.634 506.226C334.252 509.741 345.843 532.484 344.278 533.929C344.043 534.144 343.47 534.422 342.515 533.817C337.401 530.574 326.41 505.146 324.991 509.814C324.869 510.229 324.812 511.155 325.006 511.709C326.675 516.988 327.148 519.423 329.092 526.768C331.011 534.021 331.277 535.825 331.37 537.907C331.771 547.098 326.861 555.071 324.996 558.058C323.785 560.002 322.478 561.789 320.786 561.79C320.019 561.79 319.102 561.429 318.627 560.749C317.266 558.809 320.487 555.726 322.206 551.215C325.011 543.855 322.491 536.19 322.121 536.197C322.007 536.203 321.87 536.924 321.77 540.124C320.987 546.455 318.975 551.113 317.395 554.046C316.326 556.033 311.27 565.412 307.073 564.598C306.875 564.558 305.85 564.336 305.315 563.486C303.649 560.825 309.55 556.437 313.029 549.223C317.102 540.786 315.955 532.436 315.585 532.384C315.337 532.358 315.01 536.019 312.826 541.271C312.424 542.235 311.365 544.685 309.113 548.33C306.006 553.361 299.889 563.261 295.821 562.291C294.711 562.028 293.755 560.948 293.603 559.934C293.331 558.15 295.521 556.474 296.193 555.923C302.699 550.605 306.537 537.004 305.438 536.343C305.1 536.14 303.879 537.82 299.493 542.621C299.493 542.621 297.962 543.132 290.739 549.223L295.821 537.907C298.313 535.566 294.693 538.163 295.795 536.933C299.725 532.549 299.493 519.623 299.493 502.179L297.946 470.733L298.131 470.693C296.09 459.125 293.433 436.016 292.202 432.735C279.264 398.262 262.864 370.649 262.773 370.497C256.407 346.246 259.181 338.726 253.711 313.959C257.445 301.541 260.871 282.151 269.318 273.25C272.837 269.541 276.142 262.911 273.064 258.829C262.233 244.463 251.746 238.146 242.862 231.656C253.711 246.021 249.788 267.181 246.186 288.606C234.401 297.777 224.026 316.918 195.399 319.489C221.944 349.597 253.538 342.179 248.199 367.222C248.259 367.302 283.128 414.005 283.532 432.735C294.67 477.284 286.503 523.501 280.574 561.578C277.033 584.317 252.128 606.194 248.199 628.553C253.796 638.384 259.615 660.452 221.944 660.452C240.184 669.719 262.773 655.025 262.773 669.72C266.499 687.034 271.221 694.806 269.215 712.551C267.638 729.686 263.293 743.96 259.615 760.872C255.635 779.189 251.045 798.83 248.199 817.392C247.529 821.761 250.328 831.838 252.254 839.411L260.234 844.532L267.242 848.204L275.725 853.084L278.433 855.908C282.727 860.358 285.724 864.768 290.61 865.916C295.422 867.047 297.271 865.606 297.271 865.606C299.89 865.251 301.299 864.773 302.258 865.554C303.159 866.288 303.516 868.024 302.768 869.12C301.036 871.658 294.246 869.577 293.325 871.742L293.323 871.745C293.29 871.826 293.126 872.233 293.295 872.627C294.081 874.415 300.129 871.935 302.8 874.435C304.078 875.631 304.388 877.782 303.596 878.557C303.068 879.071 302.146 878.884 300.392 878.624C295.409 877.889 293.611 877.395 293.023 878.106C292.667 878.537 292.84 879.328 293.163 879.836C294.467 881.883 298.63 880.003 301.02 882.349L301.028 882.356C301.231 882.557 302.22 883.54 302.002 884.693C301.831 885.595 300.943 886.461 299.971 886.729C297.256 887.473 295.53 883.098 291.792 883.318C290.012 883.422 288.138 884.549 288.167 885.458C288.277 888.986 294.136 888.271 295.378 890.537C295.49 890.741 295.914 892.022 295.235 893.007C294.604 893.918 293.143 894.38 291.968 894.147C289.586 893.678 289.943 890.672 286.79 888.821L286.789 888.82C286.251 888.504 284.233 887.321 282.473 888.038C280.631 888.786 279.657 891.371 280.161 893.307C280.576 894.901 281.848 895.503 286.077 898.376C288.253 899.853 289.968 901.084 290.998 901.838C293.908 903.883 296.252 909.997 292.611 912.43C288.954 914.879 284.836 914.524 281.291 912.897C272.87 909.039 272.967 898.346 269.524 895.54C264.261 891.215 252.14 898.669 245.802 880.34L243.844 874.63C242.301 870.179 240.197 865.83 236.224 862.705L232.011 860.195L222.894 855.871L218.327 853.395C212.592 850.3 207.89 844.937 207.641 838.515C207.403 832.692 210.623 827.58 215.524 824.205C216.138 809.47 210.677 796.224 209.813 780.933C208.624 760.066 197.714 733.284 195.399 712.551C189.106 659.168 205.28 683.476 195.399 628.553C192.806 613.773 192.498 535.865 191.15 521.026C214.082 517.953 233.738 498.292 233.738 498.292C221.795 503.332 186.994 506.838 180.92 507.42C177.467 547.884 171.471 617.478 169.529 628.552C167.881 637.709 152.879 636.484 149.414 646.37C147.941 650.57 140.044 665.337 121.043 660.452C126.94 672.176 151.839 670.333 155.115 660.452C153.252 679.446 171.772 693.52 169.529 712.551C168.638 720.105 164.286 760.872 149.414 750.212C149.414 796.909 132.838 805.511 141.356 822.715C145.287 828.245 148.231 839.091 141.356 843.605C141.598 843.605 141.835 843.6 142.068 843.591C149.845 839.295 157.456 834.361 157.286 838.515C157.037 844.937 152.334 850.3 146.6 853.395L142.033 855.871L132.915 860.195L128.704 862.705C124.73 865.83 122.625 870.179 121.082 874.63L119.124 880.34C112.786 898.669 100.667 891.215 95.404 895.54C91.9604 898.346 92.0576 909.038 83.6361 912.897C80.0911 914.524 75.9725 914.879 72.3149 912.43C68.6741 909.997 71.0194 903.882 73.9298 901.838C74.9592 901.084 76.6731 899.853 78.8489 898.376C83.0779 895.503 84.3501 894.901 84.7648 893.307C85.2698 891.371 84.2955 888.786 82.4537 888.038C80.6928 887.322 78.675 888.505 78.1374 888.82L78.1361 888.821C74.9833 890.672 75.3399 893.678 72.9586 894.147C71.783 894.38 70.3224 893.918 69.6916 893.007C69.0121 892.022 69.4374 890.741 69.5495 890.537C70.7921 888.272 76.6503 888.986 76.7605 885.458C76.7894 884.549 74.9143 883.422 73.1339 883.318C69.3962 883.098 67.6699 887.473 64.9555 886.729C63.983 886.461 63.0963 885.595 62.9259 884.693C62.7071 883.54 63.6973 882.557 63.8998 882.356L63.9062 882.349C66.2964 880.003 70.4589 881.883 71.7634 879.836C72.0859 879.328 72.2592 878.537 71.9028 878.106C71.3151 877.395 69.5176 877.889 64.5345 878.624C62.7807 878.884 61.8583 879.071 61.3302 878.557C60.5383 877.782 60.8481 875.631 62.1262 874.435C64.7975 871.935 70.847 874.416 71.6328 872.627C71.8015 872.233 71.636 871.826 71.6034 871.745L71.6008 871.742C70.6804 869.577 63.8905 871.658 62.1581 869.12C61.4103 868.024 61.7676 866.288 62.6687 865.554C63.6272 864.772 65.0362 865.251 67.6556 865.606C67.6556 865.606 69.5055 867.047 74.3176 865.916C79.2029 864.768 82.1992 860.358 86.4936 855.908L89.2014 853.084L97.6856 848.204L104.692 844.532L112.671 839.411C114.597 831.838 117.397 821.761 116.727 817.392C113.881 798.83 109.291 779.189 105.311 760.872C101.633 743.96 97.2887 729.686 95.7111 712.551C93.7054 694.806 98.3745 677.766 102.1 660.452C109.402 626.514 89.5545 594.977 84.354 561.578C78.4242 523.501 77.1796 484.277 78.012 445.759C78.4163 427.014 122.066 367.266 122.066 367.266C116.469 336.545 116.092 342.838 119.079 313.959C122.062 307.612 134.625 265.794 134.66 265.676C134.741 265.676 145.143 265.655 145.143 260.435C135.316 257.814 126.242 237.113 122.066 231.656C133.493 266.647 125.631 291.225 111.217 313.959C105.747 338.726 114.307 353.61 107.941 377.861C107.919 377.889 84.8731 407.824 71.9054 442.376C69.2278 449.511 70.2044 463.372 69.3281 471.65L70.0153 471.816L71.3244 502.261C71.3244 519.706 65.2025 532.55 69.1323 536.933C70.2312 538.159 72.4745 540.266 74.9587 542.599L74.9817 542.621L76.7873 553.24C69.5646 547.148 65.4328 542.621 65.4328 542.621C61.0474 537.82 59.8265 536.14 59.4888 536.343C58.3901 537.006 62.2279 550.605 68.7331 555.923C69.4053 556.474 71.5969 558.151 71.3244 559.936C71.1727 560.949 70.2164 562.027 69.1068 562.291C65.0386 563.261 58.9204 553.361 55.8135 548.33C53.5614 544.686 52.5033 542.235 52.1012 541.271C49.9165 536.017 49.5892 532.355 49.341 532.384C48.9712 532.436 47.824 540.787 51.8978 549.224C55.3763 556.438 61.2775 560.825 59.6116 563.486C59.0759 564.336 58.0502 564.558 57.8533 564.598C53.6567 565.412 48.6021 556.033 47.5328 554.046C45.9527 551.113 43.9391 546.456 43.1563 540.125C43.0567 536.93 42.9204 536.205 42.807 536.197C42.4379 536.184 39.9156 543.852 42.7212 551.215C44.4408 555.726 47.6604 558.809 46.3005 560.749C45.8252 561.429 44.9073 561.79 44.1404 561.79C42.4487 561.789 41.1411 560.002 39.9303 558.058C38.0649 555.07 33.1555 547.098 33.5562 537.907C33.6493 535.825 33.9151 534.021 35.8341 526.768C37.7777 519.423 38.2512 516.988 39.92 511.709C40.114 511.155 40.0572 510.229 39.9354 509.814C38.5161 505.146 27.5257 530.574 22.4116 533.817C21.4561 534.422 20.8837 534.145 20.6482 533.93C19.0831 532.486 30.6746 509.741 33.2926 506.226L47.4291 480.734C47.5159 449.8 40.6329 425.974 47.328 382.16C51.6472 353.897 70.5285 344.892 72.7244 332.391C77.2112 292.443 63.053 265.478 78.012 226.834C85.4243 207.69 98.0145 195.253 115.542 193.861C138.462 183.56 151.253 178.004 156.425 168.061C162.559 156.269 157.972 146.826 152.113 143.193C147.666 149.981 136.721 145.733 131.335 138.37C124.969 129.697 124.669 118.482 127.662 108.06C128.009 106.879 126.848 105.739 125.568 106.046C118.903 114.064 109.924 119.842 99.5783 120.853C92.8179 121.468 86.6657 118.401 84.5255 111.564C79.4793 95.398 92.3032 82.4768 91.4907 80.6393C91.2775 80.1539 89.6501 79.8053 88.8841 80.2017C77.0772 86.6828 64.5518 90.8913 51.0864 92.1131C45.4873 92.5905 40.654 93.1646 35.1418 92.2424C27.4495 90.9235 19.9227 89.2644 13.9363 84.0941C2.477 74.239 8.97621 57.4171 20.2617 47.7803L28.4683 40.8144C24.4485 39.9811 21.2891 42.084 17.609 42.3026C10.9435 42.6505 2.35066 39.6327 0.63673 34.0661C-0.137206 31.6145 0.715401 28.8551 2.21584 26.3145C10.8083 11.6856 33.2927 10.2371 48.9852 21.1438C50.8174 22.4141 51.8919 24.4691 54.498 23.2474C57.6097 10.5849 65.9022 1.57101 75.308 0.462345Z" stroke="#101212" stroke-width="0.692308" stroke-linecap="round" stroke-linejoin="round"/>
</svg>
