<svg width="70" height="75" viewBox="0 0 70 75" fill="none" xmlns="http://www.w3.org/2000/svg">
<path d="M42.3387 2.55438C33.1012 22.4785 27.7982 9.15318 26.3013 0C26.3013 21.0736 19.8864 21.7122 7.05646 2.55438C18.6034 20.435 17.3204 26.821 2.56598 24.2666C15.3959 32.5683 9.62244 37.0385 0 38.9542C16.0374 41.5086 12.1884 50.4489 2.56598 58.1121C23.7354 54.2805 26.3013 57.4735 19.8864 70.8839C26.3013 63.8594 35.2823 62.5822 42.3387 74.0769C42.3387 60.6664 44.9047 59.3893 62.8666 68.3296C48.1122 56.8349 53.8857 50.4489 62.8666 50.4489C55.8102 43.4244 54.5272 34.4841 69.9231 29.3753C52.6027 29.3753 50.0367 30.0139 65.4326 10.8561C48.1122 19.1578 43.6217 19.1578 42.3387 2.55438Z" fill="#101212"/>
</svg>
