<svg width="1042" height="981" viewBox="0 0 1042 981" fill="none" xmlns="http://www.w3.org/2000/svg">
<path d="M186.631 978.796C196.498 962.673 213.86 946.349 235.331 932.694C257.492 918.599 284.067 907.325 311.376 902.045C338.684 896.766 366.753 897.477 391.88 907.384C416.75 917.19 438.702 935.992 454.168 966.83C466.969 935.053 494.856 914.177 530.169 901.936C565.863 889.563 609.193 885.99 652.358 888.901C695.527 891.812 738.564 901.211 773.686 914.808C808.179 928.163 835.133 945.606 847.006 965.017C853.003 943.234 862.771 929.801 874.7 922.379C886.832 914.832 901.117 913.552 915.759 915.916C944.348 920.53 974.485 939.063 993.163 952.41C984.584 927.832 983.3 904.676 987.702 890.963C989.945 883.976 993.719 879.295 998.905 878.308C1003.6 877.415 1009.24 879.598 1015.63 885.415C1011.69 876.392 1008.14 861.766 1005 843.023C1001.56 822.467 998.596 796.902 996.15 768.224C991.26 710.868 988.431 641.034 987.933 573.862C987.435 506.692 989.268 442.17 993.706 395.439C995.925 372.079 998.797 353.138 1002.36 340.531C1004.14 334.235 1006.11 329.467 1008.29 326.518C1009.38 325.042 1010.55 323.986 1011.81 323.442C1012.81 323.011 1013.84 322.914 1014.9 323.155C1014.29 320.713 1013.59 318.193 1012.89 315.608C1012.11 312.723 1011.33 309.761 1010.68 306.76C1009.38 300.761 1008.6 294.576 1009.41 288.479C1010.23 282.371 1012.65 276.366 1017.71 270.732C1022.63 265.256 1030.04 260.15 1040.85 255.626C1013.9 239.057 999.877 217.495 999.64 192.083C999.404 166.808 1012.81 137.85 1040.39 106.355C1028.06 110.087 1018.88 109.108 1012.15 104.696C1005.13 100.093 1000.9 91.8354 998.496 81.6772C993.832 61.9652 995.954 34.7405 998.289 11.894C985.803 30.8534 972.284 41.335 958.948 45.9536C945.208 50.7124 931.724 49.2263 919.87 44.4683C908.022 39.7125 897.79 31.6831 890.517 23.3237C886.879 19.1432 883.975 14.8717 881.978 10.8735C880.265 7.44618 879.209 4.19544 878.944 1.36279C865.955 17.6771 844.437 30.7953 819.276 40.2515C793.564 49.9151 763.998 55.7749 735.721 57.3062C707.45 58.837 680.429 56.043 659.82 48.3667C639.82 40.9167 625.757 28.8217 622.599 11.5288C614.108 28.454 595.717 40.3366 572.548 48.0435C548.713 55.9716 519.73 59.5145 491 59.5522C462.268 59.5899 433.758 56.1224 410.862 50.0103C399.415 46.9543 389.356 43.2335 381.371 38.9507C374.448 35.2375 369.049 31.0827 365.665 26.5425C367.589 37.7512 364.746 45.4281 358.637 49.894C352.143 54.6408 342.11 55.6388 330.7 53.6411C308.021 49.6702 279.462 33.7885 261 10.6929C244.483 32.1661 205.718 68.7989 161.162 87.6724C138.701 97.1864 114.734 102.202 91.3887 98.4556C68.7254 94.8182 46.6943 82.9297 27.2305 58.979C35.98 85.0047 47.9742 128.113 48.916 162.603C49.4031 180.443 46.9386 196.099 39.418 205.868C35.6449 210.768 30.6054 214.178 24.0654 215.631C17.8895 217.003 10.4034 216.625 1.41504 214.155C7.34319 221.643 12.9117 234.915 18.0479 252.525C23.4907 271.186 28.4718 294.794 32.8799 321.724C41.6963 375.587 48.2279 442.78 51.5791 510.362C54.9302 577.943 55.1009 645.926 51.1914 701.368C49.2367 729.088 46.2617 753.684 42.1504 773.532C38.2839 792.197 33.3998 806.722 27.376 815.691C45.22 807.151 58.2177 807.876 67.4248 815.042C76.875 822.399 82.1602 836.426 84.7207 853.551C89.7601 887.257 84.3119 933.479 78.4766 966.448C87.2251 957.004 98.0356 947.544 109.403 939.929C121.273 931.978 133.786 926.016 145.214 924.215C156.659 922.412 167.067 924.781 174.592 933.554C181.894 942.068 186.402 956.53 186.631 978.796Z" fill="#101212" stroke="#F8F4EE"/>
</svg>
