<svg width="120" height="128" viewBox="0 0 120 128" fill="none" xmlns="http://www.w3.org/2000/svg">
<path d="M74.8493 5.77155C57.4429 38.7886 49.6731 15.6809 47.964 -0.000130587C46.0724 35.7948 35.1692 36.3063 15.1972 2.61915C33.1147 34.0223 30.3723 44.7546 5.65619 39.0975C26.6027 54.3449 16.4402 61.4219 -0.000551408 63.8162C26.8848 69.5879 19.5747 84.4297 2.61812 96.5863C38.7533 91.9695 42.8051 97.6223 30.7554 119.828C42.2318 108.469 57.5307 107.102 68.4293 127.257C69.633 104.479 74.086 102.539 103.652 119.329C79.7382 98.4863 90.0727 88.1552 105.257 88.9577C93.957 76.3956 92.5903 61.0952 119.079 53.7933C89.7952 52.2457 85.3995 53.1012 113.149 21.9359C83.1202 34.4894 75.5281 34.0882 74.8493 5.77155Z" fill="#101212"/>
</svg>
