<svg width="1305" height="690" viewBox="0 0 1305 690" fill="none" xmlns="http://www.w3.org/2000/svg">
<path d="M1296.78 384.237C1292.31 376.758 1282.45 364.277 1258.93 353.531C1268.06 346.222 1286.53 329.119 1284.31 308.466C1282.64 293 1271.95 281.52 1254.6 263.78C1242.32 251.219 1231.11 242.707 1223.8 237.302C1163.81 192.939 1147.38 195.351 1124.13 168.76C1103.89 145.622 1097.35 122.081 1094.33 122.92C1091.94 123.582 1096.16 138.273 1099.05 146.292C1105.25 163.411 1113.71 175.65 1120.5 183.806C1126.57 191.107 1133.96 198.336 1144.3 208.436C1158.92 222.724 1168 230.34 1166.98 231.195C1166.02 232.002 1157.11 225.782 1150.53 222.175C1112.27 201.208 1054.58 215.044 1041.14 218.263C1010.91 225.507 988.489 238.012 973.576 248.468C977.304 242.546 982.972 235.309 991.591 228.307C1013.37 210.59 1039.74 205.935 1051.02 204.507C1036.8 203.66 1022.58 202.821 1008.35 201.974L988.934 201.756L971.161 201.45L959.946 200.619C948.236 199.748 937.415 194.851 929.645 188.3C924.34 183.798 920.733 179.345 916.732 174.278C904.203 158.337 883.854 156.546 863.344 165.025C859.353 166.687 854.533 168.825 851.644 171.576C845.187 177.602 837.529 182.491 828.284 185.379C821.716 187.436 811.653 185.508 808.975 180.668C805.752 174.811 810.562 168.308 818.715 164.202L829.708 158.7C834.77 156.522 836.447 154.206 837.003 152.431C838.498 147.639 832.729 143.791 834.891 139.959C836.043 137.918 838.852 136.917 841.085 136.385C839.65 135.917 837.71 135.167 835.619 134.005C832.962 132.521 831.284 131.585 831.345 130.705C831.426 129.576 834.376 128.18 846.44 126.865L840.529 122.017C837.741 119.701 840.196 116.337 843.429 114.941C846.925 113.409 850.047 112.279 853.27 109.48C847.935 108.907 840.145 107.406 833.507 102.808C825.465 97.2331 825.04 91.2228 818.372 83.1472C814.573 78.5486 807.965 72.3286 795.921 66.7297C821.565 59.961 835.68 47.1416 833.194 38.3803C831.345 31.8617 820.302 27.5617 811.865 26.4564C804.843 25.5367 796.042 26.3515 773.026 38.1624C762.437 43.6 748.09 51.7482 732.399 63.3171C740.209 54.951 745.22 47.4401 748.353 42.0833C752.596 34.8386 755.062 30.4902 755.233 24.3508C755.304 21.9547 755.638 9.7969 746.938 5.40814C736.44 0.115823 717.789 8.6513 708.311 17.5982C693.004 32.0634 697.743 51.3045 698.612 54.5719C696.813 51.24 693.58 45.1973 689.539 37.5896C678.647 17.0577 676.515 12.5399 669.826 7.86068C666.482 5.52109 657.247 -0.941027 645.739 0.115823C633.705 1.22108 623.096 10.2083 619.115 22.8341C615.781 24.0523 614.407 22.0031 612.063 20.7365C591.986 9.86144 563.221 11.3055 552.228 25.8917C550.308 28.4249 549.217 31.1759 550.207 33.6204C552.4 39.1709 563.393 42.1801 571.92 41.8332C576.629 41.6154 580.67 39.5178 585.813 40.3487L575.315 47.2949C560.877 56.9034 552.562 73.6758 567.222 83.5021C574.881 88.6573 584.51 90.3111 594.351 91.6262C601.403 92.5459 607.587 91.9731 614.75 91.4971C631.977 90.2789 648.002 86.0837 663.107 79.6216C664.087 79.2263 666.168 79.5732 666.441 80.0573C667.482 81.8886 651.073 94.7725 657.53 110.891C660.268 117.709 668.139 120.766 676.788 120.153C690.023 119.145 701.512 113.384 710.039 105.389C711.676 105.083 713.161 106.22 712.717 107.398C708.887 117.789 709.271 128.971 717.415 137.619C724.306 144.961 738.309 149.196 743.998 142.428C751.495 146.05 756.092 160.507 753.465 166.969C751.879 170.938 747.342 174.214 742.088 173.649C735.036 172.907 730.55 168.583 726.225 164.823L716.657 156.481C715.111 155.158 712.353 153.141 708.251 151.859C703.886 150.495 700.067 150.624 698.167 150.713C684.719 151.334 672.524 154.424 662.986 155.061C657.196 155.449 648.426 155.182 637.231 151.504L618.145 145.647C606.384 143.202 595.937 146.784 587.511 153.206C581.438 157.837 577.771 164.17 570.334 167.969C548.944 178.974 523.19 158.797 501.083 156.175C484.179 154.166 471.165 159.321 459.021 168.97C443.926 180.934 425.052 187.533 403.288 186.485L388.739 185.742L371.896 184.911C343.949 183.467 315.123 174.254 294.663 159.273C276.829 146.211 261.401 125.123 274.647 109.439C283.942 98.4352 311.293 96.9911 328.136 109.181C345.636 121.839 369.36 115.49 373.533 109.891C374.331 108.818 374.957 106.963 373.977 105.761C370.431 101.404 350.183 110.827 342.211 104.736C341.787 104.405 339.665 102.614 340.008 100.581C340.807 95.8455 354.214 94.0948 365.965 91.8601C380.524 89.0929 392.861 85.3415 416.949 76.7818C443.41 67.367 449.786 62.107 450.837 57.0647C450.998 56.3144 451.453 54.1201 449.988 53.1197C447.028 51.1028 438.874 55.7497 429.77 59.8722C429.77 59.8722 418.424 65.0193 399.509 70.5053C380.039 76.1607 361.428 76.9432 361.014 75.5959C360.418 73.6113 399.196 66.8829 437.722 45.6411C446.452 40.8328 461.486 31.7891 459.192 26.2951C458.697 25.1253 457.202 23.6086 455.141 23.1487C450.766 22.1725 445.795 26.4887 444.188 27.8279C433.024 37.1379 401.651 55.3947 373.149 56.9356C365.227 57.3632 357.953 56.4758 357.841 55.4674C357.68 54.0313 372.088 53.2084 390.77 47.1255C398.216 44.7052 402.995 42.5108 412.574 38.1302C420.121 34.1851 426.315 30.6677 430.912 27.957C440.733 22.1806 444.31 19.5022 444.128 16.1783C444.057 14.8149 443.229 12.4673 441.087 11.5637C433.529 8.377 419.444 27.36 393.397 38.5255C380.565 44.0276 368.258 46.1655 359.205 47.069C371.017 42.5512 391.972 33.9028 404.854 24.141C408.158 21.6401 415.059 16.3074 413.372 12.4431C412.988 11.5718 411.937 10.2406 410.351 9.97438C407.795 9.5468 405.248 12.1768 404.43 12.7819C382.242 29.2316 353.952 39.5017 328.955 53.152C286.347 76.4188 285.67 67.7785 252.358 86.2532C228.897 99.2661 203.941 119.459 196.13 142.161C188.714 163.726 202.395 194.439 226.118 204.725C237.788 209.784 257.471 212.131 258.228 219.271C258.36 220.513 258.552 222.853 256.591 223.773C252.267 225.782 246.639 225.475 241.436 225.999L229.453 227.177C223.269 227.452 214.206 228.137 203.496 230.041C196.545 231.276 177.216 235.092 157.595 245.628C157.595 245.628 143.662 253.106 140.166 263.046C140.075 263.32 139.792 264.111 140.196 264.369C140.59 264.619 141.439 264.336 142.308 263.788C144.702 262.263 146.147 261.779 147.349 260.617C148.228 259.77 167.284 244.168 218.409 239.166C271.697 233.946 366.187 239.601 426.911 238.117C533.304 235.511 609.901 209.154 614.902 220.029C616.781 224.112 607.324 230.695 598.928 235.664C616.316 233.349 630.27 222.74 637.544 210.066C641.758 202.862 646.84 197.182 653.68 191.422C665.492 181.507 683.87 178.449 698.753 185.613C713.08 192.511 711.939 218.497 691.479 228.847C686.962 230.703 681.87 232.946 682.183 233.567C682.496 234.18 688.144 233.171 692.135 231.945C707.776 227.145 707.129 216.205 720.527 210.502C730.641 206.194 745.453 206.266 749.737 211.647C752.616 215.262 749.757 220.998 746.999 224.354C738.481 234.737 723.78 230.743 711.494 238.665C699.066 246.669 691.711 265.184 701.542 280.036C710.12 293.001 729.782 300.164 749.767 297.099C748.615 297.422 747.029 297.914 745.2 298.599C731.833 303.65 717.607 315.065 714.515 330.652C711.878 343.947 717.981 354.58 720.971 358.033C729.994 368.473 742.199 375.766 755.819 381.574C762.69 384.793 769.57 388.004 776.441 391.223C767.519 392.014 754.506 392.441 739.249 390.303C728.398 388.787 719.436 386.391 708.483 382.784C693.418 377.831 670.958 369.392 643.91 355.234L629.037 349.078C618.155 344.576 603.929 341.785 592.391 343.665C578.165 346.021 565.474 351.047 553.723 357.557L518.441 376.992C496.566 389.093 471.782 396.644 445.088 398.347C441.976 398.524 438.035 396.644 439.51 395.023C446.674 392.361 454.666 392.578 462.042 391.183C497.89 384.398 518.886 366.23 523.796 362.317C536.921 351.837 545.661 340.656 551.48 330.87C542.054 337.235 525.877 346.408 503.104 351.66C490.625 354.54 479.39 355.492 470.468 355.677L451.928 356.331C441.41 356.008 430.892 355.694 420.364 355.371C406.036 354.717 381.525 350.256 367.147 346.545C354.952 343.092 342.757 339.647 330.551 336.194L307.575 328.377L258.733 309.942L234.444 302.125C219.622 297.325 205.123 293.001 188.442 294.049C168.8 295.267 152.23 304.747 143.096 318.809C127.506 342.785 135.599 370.126 167.385 382.526C165.92 369.578 174.034 357.17 187.977 350.99C200.718 345.343 216.469 345.722 229.089 351.91L212.569 358.767C201.102 364.019 192.604 371.272 187.461 379.783C181.541 389.569 182.197 398.298 182.985 410.827C183.955 426.236 189.098 439.927 192.847 449.882C194.019 453.004 195.08 455.586 195.848 457.385C191.675 451.851 184.218 444.171 172.013 439.491C166.981 437.563 161.717 435.546 155.321 436.514C145.258 438.039 138.387 446.034 136.195 452.698C133.487 460.903 136.973 469.769 146.137 480.66C171.841 511.196 221.774 533.583 254.823 556.302C257.42 558.093 262.26 561.787 262.431 566.475C262.815 577.172 247.498 583.376 231.857 584.118L222.289 584.594L195.656 581.012L175.084 576.729L149.32 572.227L138.6 572.792C121.655 573.639 107.258 576.293 95.6989 571.073C84.3119 565.934 83.635 560.997 83.635 560.997C79.351 556.665 77.6131 553.881 74.2486 553.736C71.0861 553.599 66.9839 555.826 66.2464 558.633C64.5388 565.135 81.5637 571.622 79.0479 576.365C78.967 576.511 78.482 577.422 77.3605 577.81C72.3389 579.504 65.721 566.878 55.7081 566.983C50.9189 567.031 46.0893 569.984 46.0691 572.348C46.059 573.921 48.1808 574.954 52.0303 577.067C62.9626 583.078 67.3578 584.885 67.0749 586.853C66.9031 588.047 65.0137 589.048 63.3971 589.387C56.8802 590.742 52.6669 581.779 43.4926 582.045C42.7753 582.069 38.8853 582.174 37.006 584.336C35.5511 586.006 35.5309 588.652 36.8545 590.476C40.5524 595.558 52.4648 591.129 59.1434 596.857C62.3261 599.584 63.6699 604.061 61.8209 605.457C54.6573 610.87 44.9173 601.31 38.0871 603.101C37.4708 603.263 34.1365 604.675 33.4899 607.208C32.8938 609.555 34.763 612.387 37.4607 613.71C42.9167 616.397 48.1606 611.137 57.8097 612.75C59.4465 613.025 65.63 614.057 67.57 617.728C69.6008 621.56 66.3575 627.046 61.5784 629.377C57.648 631.298 54.041 630.418 40.3302 628.869C33.2777 628.07 27.5893 627.546 24.1439 627.256C14.5756 626.296 -1.94405 632.58 0.187844 641.664C2.31974 650.797 10.8574 656.162 20.8097 658.695C44.4424 664.721 65.337 647.691 77.4211 648.215C95.9616 648.957 104.328 678.178 152.523 658.348L167.506 652.144C179.217 647.336 191.796 643.496 205.517 644.278L218.48 646.376L244.356 652.669L257.925 655.331C274.94 658.695 294.46 656.993 307.595 647.207C322.306 636.291 324.883 619.519 317.881 604.715L305.302 577.947L303.332 568.685C302.675 565.458 304.423 562.005 306.888 560.255C316.456 553.397 335.603 561.65 347.97 567.112L372.583 578.076L411.038 593.969C425.203 599.818 437.126 607.417 448.402 616.243L455.727 622.012C458.899 624.505 461.688 626.602 464.75 629.353L473.661 637.389L489.413 649.925C498.819 657.477 518.239 662.85 532.677 663.64L547.388 664.423L564.292 665.294C567.919 665.48 570.799 666.198 573.183 667.279C584.257 672.329 581.974 683.809 593.118 688.351C596.008 689.529 600.736 690.626 602.939 689.021C605.121 687.432 604.03 683.761 603.454 681.841C601.535 675.435 596.392 672.612 597.968 670.32C598.584 669.425 600.019 668.925 601.161 668.9C604.778 668.836 605.859 673.515 611.275 676.266C614.023 677.662 616.933 678.073 619.196 678.17C620.843 677.476 623.662 676 624.511 673.523C625.895 669.489 621.651 663.931 613.235 661.446C613.083 661.172 612.123 659.324 613.124 658.477C613.336 658.292 614.144 657.735 616.953 658.421C624.48 660.252 628.199 666.569 635.231 667.916C640.202 668.86 646.517 667.271 647.87 664.391C649.366 661.22 644.951 656.291 639.848 654.734C634.867 653.217 631.573 655.637 628.451 653.717C625.41 651.854 623.985 646.674 626.541 645.335C632.452 642.229 645.415 653.419 656.62 649.659C658.702 648.957 660.066 646.779 659.955 645.424C659.793 643.98 658.096 643.108 656.287 642.366L641.515 636.122C638.999 635.033 635.221 631.362 637.959 629.402C641.354 626.909 647.588 628.393 651.579 628.966L666.239 630.975C675.322 632.193 684.184 630.628 691.731 626.433C697.419 623.286 700.592 618.398 699.167 612.411C697.419 604.9 687.518 602.456 678.818 604.247C651.801 609.878 641.737 625.957 630.633 609.927L617.448 590.976C610.497 583.683 599.564 580.972 589.117 583.989L573.365 588.531L559.089 593.38C549.187 596.785 536.992 596.655 529.383 590.451C519.209 582.198 517.077 566.91 507.67 556.431C498.991 546.758 484.674 545.426 480.865 544.854C456.707 541.215 437.651 554.035 434.65 556.124C396.579 545.644 369.673 523.152 353.204 493.891L333.35 458.603C324.812 443.315 307.808 417.507 289.429 412.876C281.497 410.908 273.899 415.845 271.111 421.831C265.776 433.287 269.292 445.518 268.676 445.615C267.736 445.76 245.629 414.433 263.502 395.015C277.658 379.638 311.93 377.129 330.723 387.439C346.869 396.289 338.766 407.544 361.944 439.007C377.241 459.765 390.77 468.454 397.054 472.092C408.724 478.869 419.98 482.548 427.76 484.589L438.813 487.3L459.102 490.091C469.327 490.349 484.987 490.478 503.993 489.518C593.856 484.976 609.133 463.605 650.487 468.817C710.463 476.376 713.04 525.709 776.734 536.254C814.724 542.538 849.936 530.969 873.074 520.699C842.378 536.197 838.195 543.176 839.691 546.693C843.47 555.567 905.77 558.375 948.701 531.018C972.566 515.81 982.659 496.206 986.782 486.323C999.219 456.344 993.945 438.539 986.822 427.818C978.305 414.99 962.512 405.301 943.972 377.524C939.789 371.256 936.051 364.939 939.243 359.824C945.508 349.772 973.384 352.523 975.829 352.789C961.623 345.375 940.476 335.315 913.256 325.884C882.238 315.138 872.255 315.235 863.536 305.57C846.167 286.329 856.069 253.106 876.499 235.43C885.522 227.621 897.262 222.272 899.475 223.902C902.193 225.911 887.057 236.076 886.724 251.42C886.36 268.273 904.072 280.649 906.911 282.642C920.854 292.387 936.505 293.509 946.569 295.09C958.279 296.921 969.817 295.703 981.578 293.259C996.562 290.161 1009.14 283.255 1019.38 274.171L1035.35 260.02C1039.02 256.785 1044.87 254.43 1050.12 256.261C1050.66 256.866 1051.2 257.608 1050.9 257.915C1050.62 258.205 1049.71 257.955 1049.41 257.915C1047.29 257.648 1041.68 264.119 1040.42 274.155C1038.73 287.757 1048.62 298.987 1054.06 304.255C1055.1 305.263 1056.63 304.908 1056.74 304.166C1056.9 298.575 1061.55 295.082 1066.04 291.589C1082.17 278.923 1111.49 277.874 1133.75 282.811C1158.41 288.225 1178.87 299.89 1194.85 315.832C1204.8 325.787 1211.37 336.928 1216.13 349.11C1219.21 357 1223.75 375.193 1211.8 393.829C1201.53 409.875 1184.25 417.394 1177.13 420.081C1208.3 437.434 1214.88 453.876 1216.62 462.621C1224.72 503.354 1165.83 532.47 1144.42 549.267C1136.51 555.47 1113.33 572.945 1116.48 576.349C1116.96 576.858 1118.22 577.6 1120.81 576.696C1134.65 571.848 1157.56 548.791 1158.93 558.617C1159.04 559.488 1158.77 561.368 1158.05 562.417C1151.65 572.469 1144.18 584.691 1136.19 598.801C1128.31 612.734 1126.87 616.268 1125.72 620.414C1120.65 638.728 1129.01 656.315 1132.2 662.914C1134.27 667.206 1136.65 671.216 1140.75 671.764C1142.61 672.014 1144.99 671.587 1146.45 670.377C1150.61 666.924 1144.18 659.695 1142.01 650.087C1138.49 634.404 1148.02 619.834 1148.91 619.979C1149.18 620.027 1149.19 621.52 1148.01 627.974C1147.09 640.93 1149.9 650.926 1152.42 657.323C1154.13 661.656 1162.21 682.115 1172.75 681.841C1173.24 681.825 1175.83 681.712 1177.51 680.179C1182.73 675.379 1170.38 664.665 1165.15 649.062C1159.03 630.813 1165.53 614.428 1166.45 614.444C1167.06 614.461 1166.22 621.915 1169.18 633.169C1169.73 635.234 1171.2 640.495 1175.04 648.538C1180.34 659.639 1190.77 681.486 1201.06 680.857C1203.87 680.687 1206.67 678.832 1207.49 676.847C1208.94 673.354 1204.37 669.28 1202.99 667.956C1189.58 655.177 1186.33 626.643 1189.29 625.674C1190.2 625.376 1192.41 629.143 1200.91 640.196C1200.91 640.196 1208.91 650.619 1223.71 665.181C1224.52 665.98 1232.42 673.612 1238.94 673.58C1239.78 673.58 1242.12 673.563 1243.53 672.297C1243.53 672.297 1244.76 671.175 1244.61 669.07C1244.22 663.778 1218.49 638.066 1212.41 629.982C1204.83 619.914 1201.65 602.529 1220.81 570.412C1236.61 538.236 1266.89 515.455 1281.97 482.451C1298.69 445.881 1313.84 412.715 1296.83 384.228L1296.78 384.237ZM807.116 289.168C812.269 286.312 815.603 282.924 817.675 280.318L825.495 268.491L826.091 282.44C826.071 285.417 826.556 291.193 830.628 297.413C835.892 305.441 843.985 309.37 847.269 310.773C835.053 307.45 822.191 304.206 808.702 301.125C796.861 298.414 785.343 296.018 774.208 293.88C777.825 294.485 793.395 296.776 807.106 289.176L807.116 289.168ZM908.205 362.793C893.625 382.018 882.399 399.113 873.973 412.949C853.361 446.784 844.45 469.43 844.157 470.939C844.157 470.939 844.147 471.011 844.126 471.011C843.732 470.955 852.957 415.393 843.369 413.038C836.023 411.239 818.038 440.806 802.964 468.188C812.764 436.248 807.682 426.349 801.428 423.114C792.88 418.685 782.716 427.003 755.173 428.608C730.833 430.028 709.11 425.252 709.261 423.816C709.362 422.896 716.657 423.405 727.559 422.42C751.495 420.274 768.56 413.078 787.586 405.035C798.983 400.21 813.764 393.111 829.759 382.889C824.485 391.32 819.221 399.75 813.946 408.173C845.359 393.046 876.772 377.92 908.194 362.793H908.205Z" fill="#F8F4EE"/>
</svg>
