<svg width="779" height="101" viewBox="0 0 779 101" fill="none" xmlns="http://www.w3.org/2000/svg">
<path d="M0.0999119 50.4747L0.007036 49.9866L-6.1165e-05 50.9614L0.0999119 50.4747ZM51.2677 0.532001C51.2876 0.258452 51.0788 0.0208386 50.8015 0.00128792C50.5242 -0.0182681 50.2833 0.187638 50.2635 0.461192L50.7656 0.496596L51.2677 0.532001ZM50.2743 100.51C50.3011 100.783 50.5471 100.983 50.8238 100.957C51.1006 100.93 51.3032 100.688 51.2765 100.415L50.7754 100.462L50.2743 100.51ZM0.0999119 50.4747L0.192788 50.9627C24.1942 46.5183 36.9785 33.9254 43.7496 22.4238C47.1311 16.68 49.0094 11.2154 50.0427 7.18576C50.5595 5.17046 50.8653 3.51255 51.0421 2.35599C51.1306 1.77766 51.1867 1.32453 51.2209 1.01458C51.238 0.859599 51.2496 0.740398 51.257 0.659222C51.2607 0.618637 51.2633 0.587556 51.2651 0.566259C51.2659 0.555607 51.2666 0.547404 51.267 0.541688C51.2672 0.538827 51.2674 0.536587 51.2675 0.534969C51.2676 0.53416 51.2676 0.53342 51.2677 0.533013C51.2677 0.532429 51.2677 0.532001 50.7656 0.496596C50.2635 0.461192 50.2635 0.461074 50.2635 0.461122C50.2635 0.461342 50.2635 0.46154 50.2634 0.461979C50.2634 0.462869 50.2632 0.464374 50.2631 0.466507C50.2628 0.470761 50.2622 0.477485 50.2615 0.486647C50.26 0.504976 50.2576 0.533046 50.2542 0.570588C50.2474 0.645661 50.2364 0.758599 50.22 0.907155C50.1873 1.20427 50.1328 1.64382 50.0466 2.20788C49.8741 3.33611 49.5744 4.96189 49.0666 6.94221C48.0507 10.9038 46.2034 16.2782 42.8789 21.9251C36.2382 33.2052 23.6895 45.6013 0.007036 49.9866L0.0999119 50.4747ZM50.7754 100.462C51.2765 100.415 51.2764 100.414 51.2764 100.414C51.2763 100.413 51.2762 100.412 51.2762 100.412C51.276 100.41 51.2758 100.408 51.2755 100.405C51.2749 100.399 51.2741 100.391 51.273 100.381C51.2707 100.36 51.2673 100.329 51.2627 100.289C51.2534 100.209 51.2389 100.091 51.2182 99.9379C51.1768 99.6316 51.1102 99.1837 51.0089 98.6118C50.8063 97.4681 50.4648 95.828 49.9086 93.8326C48.7963 89.8425 46.8234 84.4258 43.3792 78.7144C36.4839 67.28 23.7022 54.6857 0.199885 49.988L0.0999119 50.4747L-6.1165e-05 50.9614C23.1881 55.5963 35.7441 67.9959 42.5139 79.2221C45.9023 84.8411 47.8438 90.1715 48.9378 94.0959C49.4847 96.0576 49.8194 97.6666 50.0171 98.7827C50.1159 99.3408 50.1805 99.7754 50.2203 100.069C50.2401 100.216 50.2538 100.328 50.2624 100.402C50.2667 100.439 50.2698 100.467 50.2717 100.485C50.2727 100.494 50.2734 100.501 50.2738 100.505C50.274 100.507 50.2742 100.509 50.2742 100.509C50.2743 100.51 50.2743 100.51 50.2743 100.51C50.2743 100.51 50.2743 100.51 50.7754 100.462Z" fill="#F8F4EE"/>
<path d="M778.776 50.5089L778.868 50.0208L778.876 50.9955L778.776 50.5089ZM727.608 0.56618C727.588 0.292632 727.797 0.0550182 728.074 0.0354676C728.351 0.0159116 728.592 0.221818 728.612 0.495372L728.11 0.530776L727.608 0.56618ZM728.601 100.544C728.574 100.817 728.328 101.017 728.052 100.991C727.775 100.964 727.572 100.722 727.599 100.449L728.1 100.497L728.601 100.544ZM778.776 50.5089L778.683 50.9969C754.681 46.5525 741.897 33.9595 735.126 22.458C731.744 16.7142 729.866 11.2496 728.833 7.21994C728.316 5.20464 728.01 3.54673 727.833 2.39017C727.745 1.81184 727.689 1.35871 727.655 1.04876C727.637 0.893778 727.626 0.774578 727.618 0.693402C727.615 0.652816 727.612 0.621736 727.61 0.600438C727.61 0.589787 727.609 0.581584 727.608 0.575867C727.608 0.573006 727.608 0.570767 727.608 0.569149C727.608 0.56834 727.608 0.5676 727.608 0.567193C727.608 0.566609 727.608 0.56618 728.11 0.530776C728.612 0.495372 728.612 0.495254 728.612 0.495302C728.612 0.495522 728.612 0.49572 728.612 0.496159C728.612 0.497049 728.612 0.498554 728.612 0.500687C728.613 0.504941 728.613 0.511665 728.614 0.520827C728.615 0.539156 728.618 0.567225 728.621 0.604767C728.628 0.679841 728.639 0.792778 728.655 0.941334C728.688 1.23845 728.743 1.678 728.829 2.24206C729.001 3.37029 729.301 4.99607 729.809 6.97639C730.825 10.938 732.672 16.3123 735.997 21.9593C742.637 33.2394 755.186 45.6355 778.868 50.0208L778.776 50.5089ZM728.1 100.497C727.599 100.449 727.599 100.448 727.599 100.448C727.599 100.447 727.599 100.447 727.599 100.446C727.599 100.444 727.6 100.442 727.6 100.439C727.601 100.434 727.601 100.425 727.603 100.415C727.605 100.394 727.608 100.363 727.613 100.323C727.622 100.243 727.637 100.125 727.657 99.972C727.699 99.6657 727.765 99.2178 727.867 98.646C728.069 97.5023 728.411 95.8622 728.967 93.8667C730.079 89.8766 732.052 84.46 735.496 78.7486C742.392 67.3141 755.173 54.7199 778.676 50.0222L778.776 50.5089L778.876 50.9955C755.687 55.6305 743.131 68.0301 736.362 79.2563C732.973 84.8753 731.032 90.2057 729.938 94.1301C729.391 96.0918 729.056 97.7008 728.858 98.8169C728.76 99.3749 728.695 99.8096 728.655 100.103C728.635 100.25 728.622 100.362 728.613 100.436C728.609 100.473 728.606 100.501 728.604 100.519C728.603 100.528 728.602 100.535 728.602 100.539C728.601 100.541 728.601 100.543 728.601 100.544C728.601 100.544 728.601 100.544 728.601 100.544C728.601 100.544 728.601 100.544 728.1 100.497Z" fill="#F8F4EE"/>
<path d="M51.1001 1.49657H728.1" stroke="#F8F4EE" stroke-linecap="round"/>
<path d="M51.1001 100.497H728.1" stroke="#F8F4EE" stroke-linecap="round"/>
</svg>
