<svg width="57" height="57" viewBox="0 0 57 57" fill="none" xmlns="http://www.w3.org/2000/svg">
<path d="M28.4237 54.439C28.3176 53.949 28.1833 53.3843 28.0114 52.7589C27.3868 50.4866 26.2797 47.4021 24.3454 44.15C20.6933 38.0099 14.1034 31.292 2.32148 28.3023C14.3631 25.4361 20.9632 18.7048 24.556 12.5188C26.4561 9.24706 27.5114 6.13475 28.0922 3.83943C28.2389 3.25975 28.3556 2.73144 28.4478 2.2657C28.6385 2.83587 28.8729 3.50413 29.1577 4.24754C30.1075 6.72651 31.6047 10.0601 33.7946 13.4751C37.8259 19.7615 44.2388 26.3723 53.9423 28.372C44.1216 31.0167 37.703 37.607 33.6938 43.715C31.5211 47.0251 30.0491 50.2022 29.1204 52.5518C28.8396 53.2622 28.6099 53.898 28.4237 54.439Z" stroke="#F8F4EE"/>
</svg>
