<svg width="779" height="101" viewBox="0 0 779 101" fill="none" xmlns="http://www.w3.org/2000/svg">
<path d="M0.0999729 50.4747L0.00709703 49.9866L-1.2989e-07 50.9614L0.0999729 50.4747ZM51.2678 0.532008C51.2876 0.25846 51.0789 0.0208462 50.8016 0.00129555C50.5243 -0.0182604 50.2834 0.187646 50.2635 0.4612L50.7657 0.496604L51.2678 0.532008ZM50.2744 100.51C50.3011 100.783 50.5472 100.983 50.8239 100.957C51.1006 100.93 51.3033 100.688 51.2765 100.415L50.7755 100.462L50.2744 100.51ZM0.0999729 50.4747L0.192849 50.9627C24.1943 46.5183 36.9785 33.9254 43.7496 22.4239C47.1311 16.68 49.0094 11.2154 50.0427 7.18576C50.5595 5.17047 50.8654 3.51255 51.0422 2.356C51.1306 1.77767 51.1868 1.32454 51.221 1.01459C51.2381 0.859606 51.2497 0.740406 51.2571 0.65923C51.2607 0.618644 51.2634 0.587563 51.2651 0.566266C51.266 0.555615 51.2666 0.547412 51.2671 0.541695C51.2673 0.538834 51.2675 0.536595 51.2676 0.534977C51.2676 0.534167 51.2677 0.533428 51.2677 0.533021C51.2678 0.532437 51.2678 0.532008 50.7657 0.496604C50.2635 0.4612 50.2636 0.461082 50.2636 0.46113C50.2635 0.46135 50.2635 0.461548 50.2635 0.461987C50.2634 0.462877 50.2633 0.464382 50.2631 0.466514C50.2628 0.470769 50.2623 0.477493 50.2615 0.486654C50.2601 0.504984 50.2577 0.533053 50.2543 0.570595C50.2474 0.645669 50.2365 0.758606 50.2201 0.907162C50.1873 1.20428 50.1329 1.64382 50.0466 2.20788C49.8741 3.33612 49.5745 4.9619 49.0667 6.94222C48.0508 10.9038 46.2034 16.2782 42.879 21.9251C36.2382 33.2052 23.6896 45.6013 0.00709703 49.9866L0.0999729 50.4747ZM50.7755 100.462C51.2765 100.415 51.2765 100.414 51.2764 100.414C51.2764 100.413 51.2763 100.412 51.2762 100.412C51.2761 100.41 51.2758 100.408 51.2756 100.405C51.275 100.399 51.2741 100.391 51.273 100.381C51.2708 100.36 51.2674 100.329 51.2627 100.289C51.2534 100.209 51.239 100.091 51.2183 99.9379C51.1768 99.6316 51.1102 99.1837 51.0089 98.6118C50.8063 97.4681 50.4649 95.8281 49.9086 93.8326C48.7963 89.8425 46.8234 84.4258 43.3793 78.7144C36.4839 67.28 23.7022 54.6857 0.199946 49.988L0.0999729 50.4747L-1.2989e-07 50.9614C23.1882 55.5963 35.7442 67.9959 42.514 79.2221C45.9024 84.8411 47.8439 90.1715 48.9379 94.0959C49.4847 96.0576 49.8194 97.6666 50.0171 98.7828C50.116 99.3408 50.1806 99.7754 50.2203 100.069C50.2402 100.216 50.2538 100.328 50.2625 100.402C50.2668 100.439 50.2698 100.467 50.2718 100.485C50.2727 100.494 50.2734 100.501 50.2739 100.505C50.2741 100.507 50.2742 100.509 50.2743 100.509C50.2743 100.51 50.2744 100.51 50.2744 100.51C50.2744 100.51 50.2744 100.51 50.7755 100.462Z" fill="#F8F4EE"/>
<path d="M778.775 50.5089L778.868 50.0208L778.875 50.9956L778.775 50.5089ZM727.608 0.566188C727.588 0.292639 727.796 0.0550259 728.074 0.0354752C728.351 0.0159192 728.592 0.221825 728.612 0.495379L728.11 0.530784L727.608 0.566188ZM728.601 100.544C728.574 100.817 728.328 101.017 728.051 100.991C727.775 100.964 727.572 100.722 727.599 100.449L728.1 100.497L728.601 100.544ZM778.775 50.5089L778.683 50.9969C754.681 46.5525 741.897 33.9595 735.126 22.458C731.744 16.7142 729.866 11.2496 728.833 7.21994C728.316 5.20464 728.01 3.54673 727.833 2.39018C727.745 1.81185 727.689 1.35872 727.654 1.04877C727.637 0.893786 727.626 0.774585 727.618 0.693409C727.615 0.652824 727.612 0.621743 727.61 0.600446C727.609 0.589795 727.609 0.581592 727.608 0.575875C727.608 0.573014 727.608 0.570774 727.608 0.569156C727.608 0.568347 727.608 0.567608 727.608 0.567201C727.608 0.566617 727.608 0.566188 728.11 0.530784C728.612 0.495379 728.612 0.495261 728.612 0.49531C728.612 0.495529 728.612 0.495727 728.612 0.496167C728.612 0.497056 728.612 0.498562 728.612 0.500694C728.613 0.504948 728.613 0.511672 728.614 0.520834C728.615 0.539163 728.618 0.567233 728.621 0.604775C728.628 0.679849 728.639 0.792786 728.655 0.941342C728.688 1.23846 728.742 1.678 728.829 2.24206C729.001 3.3703 729.301 4.99608 729.809 6.9764C730.825 10.938 732.672 16.3123 735.996 21.9593C742.637 33.2394 755.186 45.6355 778.868 50.0208L778.775 50.5089ZM728.1 100.497C727.599 100.449 727.599 100.448 727.599 100.448C727.599 100.447 727.599 100.447 727.599 100.446C727.599 100.444 727.6 100.442 727.6 100.439C727.6 100.434 727.601 100.426 727.602 100.415C727.605 100.394 727.608 100.363 727.613 100.323C727.622 100.243 727.636 100.125 727.657 99.9721C727.699 99.6657 727.765 99.2179 727.866 98.646C728.069 97.5023 728.41 95.8622 728.967 93.8667C730.079 89.8766 732.052 84.46 735.496 78.7486C742.391 67.3141 755.173 54.7199 778.675 50.0222L778.775 50.5089L778.875 50.9956C755.687 55.6305 743.131 68.0301 736.361 79.2563C732.973 84.8753 731.031 90.2057 729.938 94.1301C729.391 96.0918 729.056 97.7008 728.858 98.8169C728.759 99.3749 728.695 99.8096 728.655 100.103C728.635 100.25 728.622 100.362 728.613 100.436C728.609 100.473 728.606 100.501 728.604 100.519C728.603 100.528 728.602 100.535 728.602 100.539C728.601 100.541 728.601 100.543 728.601 100.544C728.601 100.544 728.601 100.544 728.601 100.544C728.601 100.544 728.601 100.544 728.1 100.497Z" fill="#F8F4EE"/>
<path d="M51.0999 1.49658H728.1" stroke="#F8F4EE" stroke-linecap="round"/>
<path d="M342.635 40.1886H345.579V42.8446C345.579 45.2339 344.821 46.6206 343.307 47.0046L342.763 45.9166C343.659 45.5966 344.107 44.8179 344.107 43.5806H342.635V40.1886ZM347.115 40.1886H350.091V42.8446C350.091 45.2339 349.323 46.6206 347.787 47.0046L347.243 45.9166C348.16 45.5966 348.619 44.8179 348.619 43.5806H347.115V40.1886ZM360.852 49.1806V46.9406C361.599 46.7912 362.367 46.7166 363.156 46.7166C365.588 46.6312 367.38 47.3352 368.532 48.8286C369.684 50.3219 370.26 52.3272 370.26 54.8446V55.1006C370.26 57.9806 369.524 60.2419 368.052 61.8846C366.58 63.5272 364.564 64.3486 362.004 64.3486C359.615 64.3486 357.695 63.5379 356.244 61.9166C354.794 60.2739 354.068 58.0552 354.068 55.2606V46.7486H356.884V55.1006C356.884 57.2979 357.354 59.0152 358.292 60.2526C359.231 61.4686 360.479 62.0766 362.036 62.0766C363.764 62.0766 365.098 61.4792 366.036 60.2846C366.975 59.0899 367.444 57.3832 367.444 55.1646V54.8446C367.444 52.8392 367.018 51.3459 366.164 50.3646C365.311 49.3832 364.159 48.9139 362.708 48.9566C361.748 49.0419 361.13 49.1166 360.852 49.1806ZM373.122 46.7486H374.37C375.927 46.7486 376.983 46.9619 377.538 47.3886C378.092 47.8152 378.37 48.7859 378.37 50.3006V63.9966H375.554V50.2366C375.554 49.7886 375.479 49.4792 375.33 49.3086C375.18 49.1166 374.882 49.0206 374.434 49.0206H373.122V46.7486ZM389.54 49.1806V46.9406C390.286 46.7912 391.054 46.7166 391.844 46.7166C394.276 46.6312 396.068 47.3352 397.22 48.8286C398.372 50.3219 398.948 52.3272 398.948 54.8446V55.1006C398.948 57.9806 398.212 60.2419 396.74 61.8846C395.268 63.5272 393.252 64.3486 390.692 64.3486C388.302 64.3486 386.382 63.5379 384.932 61.9166C383.481 60.2739 382.756 58.0552 382.756 55.2606V46.7486H385.572V55.1006C385.572 57.2979 386.041 59.0152 386.98 60.2526C387.918 61.4686 389.166 62.0766 390.724 62.0766C392.452 62.0766 393.785 61.4792 394.724 60.2846C395.662 59.0899 396.132 57.3832 396.132 55.1646V54.8446C396.132 52.8392 395.705 51.3459 394.852 50.3646C393.998 49.3832 392.846 48.9139 391.396 48.9566C390.436 49.0419 389.817 49.1166 389.54 49.1806ZM407.339 57.2766H404.523V50.2366C404.523 49.4259 404.085 49.0206 403.211 49.0206H402.091V46.7486H403.147C404.725 46.7486 405.813 46.9726 406.411 47.4206C407.029 47.8472 407.339 48.8072 407.339 50.3006V57.2766ZM425.389 46.7486L425.261 49.4686C425.175 51.1752 424.706 52.6152 423.853 53.7886C423.021 54.9406 421.954 55.8152 420.653 56.4126L424.973 62.3646V63.9966H411.277V61.7246H421.357L414.669 52.8606C412.855 50.3432 411.842 48.4339 411.629 47.1326L411.597 46.7486H414.413L414.445 46.8766C414.679 47.7939 415.607 49.4046 417.229 51.7086L419.501 54.8126C420.354 54.4499 421.047 53.8312 421.581 52.9566C422.135 52.0819 422.423 51.0792 422.445 49.9486L422.573 46.7486H425.389ZM431.28 40.1566L431.824 41.2766C430.928 41.5752 430.48 42.3539 430.48 43.6126H431.952V47.0046H429.008V44.3486C429.008 41.9806 429.765 40.5832 431.28 40.1566ZM435.792 40.1566L436.336 41.2766C435.44 41.5752 434.992 42.3539 434.992 43.6126H436.464V47.0046H433.52V44.3486C433.52 41.9592 434.277 40.5619 435.792 40.1566Z" fill="#F8F4EE"/>
<path d="M51.0999 100.497H728.1" stroke="#F8F4EE" stroke-linecap="round"/>
</svg>
